<?xml version="1.0" standalone="no"?>
<!DOCTYPE svg PUBLIC "-//W3C//DTD SVG 1.1//EN" "http://www.w3.org/Graphics/SVG/1.1/DTD/svg11.dtd" >
<svg xmlns="http://www.w3.org/2000/svg">
<metadata></metadata>
<defs>
<font id="itsadzokes01regular" horiz-adv-x="1464" >
<font-face units-per-em="2048" ascent="1760" descent="-288" />
<missing-glyph horiz-adv-x="650" />
<glyph horiz-adv-x="2048" />
<glyph horiz-adv-x="2048" />
<glyph unicode="&#xd;" horiz-adv-x="120" />
<glyph unicode=" "  horiz-adv-x="650" />
<glyph unicode="&#x09;" horiz-adv-x="650" />
<glyph unicode="&#xa0;" horiz-adv-x="650" />
<glyph unicode="!" horiz-adv-x="526" d="M60 1372h306q33 0 48 -4q52 -13 52 -89q0 -12 -1 -19q-33 -405 -107 -734h-178zM70 144q0 79 57 136q56 56 135 56q80 0 136 -56t56 -136t-56 -136t-136 -56q-79 0 -135 56q-57 57 -57 136zM116 1323l106 -748h97q68 313 97 689q1 7 1 15q0 18 -3 27q-4 13 -14 15 q-12 2 -34 2h-250zM120 144q0 -59 42 -101t100 -42q59 0 101 42q43 43 43 101t-43 101q-42 42 -101 42q-58 0 -100 -42t-42 -101zM168 144q0 38 28 66t66 28q39 0 67 -28q27 -27 27 -66t-27 -66q-28 -28 -67 -28q-38 0 -66 28t-28 66zM173 1274h194h1v-6q-29 -358 -88 -644 h-15z" />
<glyph unicode="&#x22;" horiz-adv-x="792" d="M60 1558l17 17l257 -67q14 -14 14 -78q0 -167 -77 -330l-33 -70h-104v104q0 122 -24 260t-50 164zM136 1509q12 -43 23 -107q25 -147 25 -268v-55h22l21 41q72 152 72 310q0 14 -2 36zM202 1441l48 -13q0 -84 -23 -168q-5 67 -20 151zM444 1558l17 17l257 -67 q14 -14 14 -78q0 -167 -77 -330l-33 -70h-104v104q0 122 -24 260t-50 164zM520 1509q12 -43 23 -107q25 -147 25 -268v-55h22l21 41q72 152 72 310q0 14 -2 36zM586 1441l48 -13q0 -84 -23 -168q-5 67 -20 151z" />
<glyph unicode="#" horiz-adv-x="1354" d="M60 287l12 120h282l33 392h-289l12 120h286l22 257h120l-22 -257h364l22 257h120l-22 -257h294l-12 -120h-292l-32 -392h298l-12 -120h-302l-22 -257h-120l22 257h-364l-21 -257h-120l21 257h-278zM114 336h224q20 0 36 -16t14 -37l-18 -203h22l18 211q2 21 15 33t33 12 h364q20 0 36 -16q14 -14 12 -37l-16 -203h21l17 211q2 20 16 33q14 12 34 12h258l2 22h-244q-20 0 -36 16q-14 14 -12 37l30 392q2 20 16 33q14 12 34 12h248l2 22h-240q-20 0 -36 16q-15 15 -13 37l17 204h-22l-17 -212q-2 -21 -15 -33q-14 -12 -34 -12h-364q-21 0 -36 16 t-13 38l18 203h-21l-19 -213q-2 -20 -15 -32t-34 -12h-241l-3 -22h235q20 0 36 -16q15 -15 13 -37l-32 -392q-2 -20 -16 -33q-14 -12 -34 -12h-238zM426 411l32 392q2 21 15 33t34 12h363q20 0 36 -16q14 -14 12 -37l-30 -392q-2 -20 -16 -33q-14 -12 -34 -12h-364 q-20 0 -36 16q-14 14 -12 37zM474 407h364l32 392h-363z" />
<glyph unicode="$" horiz-adv-x="1212" d="M60 17l14 369h50q22 -164 239 -290q60 -35 145 -44v435l-170 77q-124 56 -190 142q-62 82 -62 187q0 175 148 278q109 75 274 95v74h49v-70q42 2 65 2h30v68h49v-72q66 -7 119 -27q82 -31 136 -31q53 0 59 38h39l22 -338h-40q-8 76 -70 169q-43 63 -130 103 q-60 27 -135 36v-420l225 -104q226 -121 226 -312q0 -338 -451 -377v-71h-49v68q-48 -2 -76 -2h-19v-66h-49v70q-56 6 -97 20q-98 33 -187 103q-30 24 -60 24q-55 0 -55 -134h-49zM116 186q14 10 42 13q-25 30 -40 56zM136 893q0 -91 52 -158q56 -74 171 -127l313 -142 l54 -27q144 -87 144 -233q0 -35 -8 -60q-9 -29 -26 -53q-8 -11 -18 -21l13 3q62 16 102 34q41 19 73 45q30 24 49 53t30 57q12 31 15 59q4 36 4 59q0 80 -49 147t-151 121l-420 201q-50 29 -81 53q-75 57 -75 162q0 69 38 118q-58 -21 -104 -54q-126 -87 -126 -237zM184 893 v1q0 117 96 189q0 -3 -0.5 -8.5t-0.5 -8.5q0 -129 94 -201q41 -31 87 -57l422 -202q92 -49 134 -106q38 -53 38 -118v-1q0 -27 -3 -51q-2 -17 -13 -49q-10 -27 -23 -46q-13 -18 -41 -43q-27 -22 -60 -38q5 28 5 52t-3 48q-2 19 -14 54q-9 28 -29 59t-49 59q-32 31 -74 56 l-56 29l-315 142q-102 46 -153 112q-42 54 -42 128zM377 1066q0 -81 55 -123q25 -19 76 -49v318q-131 -32 -131 -146zM557 50q3 0 9 -0.5t10 -0.5q38 0 76 5v368l-95 43v-415zM557 866l9 -4l86 -40v400q-5 0 -15 0.5t-15 0.5q-35 0 -65 -3v-354zM701 63q120 33 120 143 q0 119 -120 191v-334zM958 1162q28 -25 48 -56l8 -12l-4 78q-1 0 -4 -2t-5 -2t-5.5 -1t-5.5 -2l-8 -1l-4 -1q-4 -1 -8 -1h-12z" />
<glyph unicode="%" horiz-adv-x="1680" d="M60 874q0 153 113 264q111 110 261 110q146 0 261 -112q114 -111 114 -262q0 -152 -114 -263q-115 -112 -261 -112q-145 0 -260 112q-114 111 -114 263zM109 874q0 -130 99 -228q36 -34 72 -56q-29 73 -29 176v216q0 108 15 142q12 28 16 36q-34 -20 -74 -58 q-99 -96 -99 -228zM158 874q0 85 44 148v-40v-216q0 -26 1 -38q-45 66 -45 146zM300 766q0 -99 25 -158q25 -60 109 -60t110 60q25 59 25 158v108v108q0 98 -25 157q-26 60 -110 60t-109 -60q-25 -59 -25 -157v-108v-108zM356 0l891 1248h54l-890 -1248h-55zM588 590 q40 24 72 56q100 98 100 228t-100 228q-32 32 -72 56q30 -65 30 -176v-216q0 -110 -14 -142q-3 -9 -16 -34zM666 728q0 5 0.5 18t0.5 20v216q0 26 -1 38q45 -66 45 -146q0 -82 -45 -146zM871 374q0 153 113 264q112 111 262 111q146 0 260 -111t114 -263t-114 -263 q-115 -112 -260 -112q-146 0 -261 112q-114 111 -114 262zM920 376q0 -132 100 -230q34 -32 70 -54q-28 71 -28 174v216q0 110 14 142q6 14 17 36q-42 -24 -75 -56q-98 -95 -98 -228zM969 376q0 82 45 146q0 -6 -0.5 -19t-0.5 -21v-216q0 -26 1 -38q-45 66 -45 148z M1111 266q0 -98 25 -157q26 -60 110 -60t109 60q25 59 25 157v108v108q0 99 -25 158q-25 60 -109 60t-110 -60q-25 -59 -25 -158v-108v-108zM1399 90q43 25 73 56q99 98 99 229q0 129 -99 227q-30 30 -73 56q30 -64 30 -176v-216q0 -107 -15 -142q-7 -17 -15 -34zM1477 520 q45 -66 45 -146q0 -81 -44 -144v36v216q0 26 -1 38z" />
<glyph unicode="&#x26;" horiz-adv-x="1540" d="M60 344v1q0 151 141 239q103 65 249 112q-60 110 -60 170q0 196 138 300q137 103 316 103q187 0 321 -113v-184h-49q0 56 -32 128q-54 120 -240 120q-134 0 -134 -107t133 -319l379 -606q12 -18 18 -26q158 98 158 278q0 57 -19 120q-16 55 -71 136q-54 79 -142 79v49 h314v-49q-95 0 -95 -53q0 -9 29 -101q33 -107 33 -181q0 -206 -174 -316q53 -55 109 -68q27 -7 78 -7v-49q-114 -46 -324 -46q-131 0 -222 60q-108 -14 -258 -14q-594 0 -596 344zM109 344q0 -54 18 -99q17 -42 59 -81q38 -35 104 -62q50 -20 106 -31l-21 18q-95 89 -95 255 v1q0 160 60 257q-62 -28 -113 -60q-118 -73 -118 -197v-1zM158 344v1q0 93 88 151q-15 -67 -15 -151v-1q0 -101 31 -176q-19 10 -43 32q-34 31 -47 64q-14 34 -14 80zM329 344q0 -295 327 -295q112 0 208 9q-23 24 -40 53l-317 489q-23 37 -38 62q-140 -81 -140 -317v-1z M438 866q0 -49 74 -179q16 -29 36 -60l317 -489q31 -48 77 -82q70 -53 194 -53q118 0 204 15q-54 21 -102 72q-42 50 -57 72l-379 606q-142 227 -142 345q0 10 2 26q4 29 18 53q-65 -23 -122 -66q-120 -90 -120 -260zM488 866q0 148 99 221l25 17q4 -133 148 -362l380 -607 q15 -23 62 -78l3 -3q-44 -2 -69 -2q-108 0 -165 42q-41 31 -65 70l-316 490q-24 36 -36 57q-24 41 -43 83q-17 38 -20 50q-3 14 -3 22zM1302 775q18 -13 36 -37q3 20 14 37h-50z" />
<glyph unicode="'" horiz-adv-x="408" d="M60 1558l17 17l257 -67q14 -14 14 -78q0 -167 -77 -330l-33 -70h-104v104q0 122 -24 260t-50 164zM136 1509q12 -43 23 -107q25 -147 25 -268v-55h22l21 41q72 152 72 310q0 14 -2 36zM202 1441l48 -13q0 -84 -23 -168q-5 67 -20 151z" />
<glyph unicode="(" horiz-adv-x="608" d="M60 624q0 490 481 694l7 -24q-152 -146 -152 -670q0 -485 152 -670l-7 -24q-481 207 -481 694zM109 624q0 -391 332 -589q-94 204 -94 589q0 395 85 584q-323 -197 -323 -584zM158 624q0 282 180 453q-40 -178 -40 -453q0 -272 46 -456q-186 172 -186 456z" />
<glyph unicode=")" horiz-adv-x="608" d="M60 -46q152 185 152 670q0 524 -152 670l7 24q481 -204 481 -694q0 -487 -481 -694zM167 35q332 198 332 589q0 387 -323 584q85 -189 85 -584q0 -385 -94 -589zM264 168q46 184 46 456q0 275 -40 453q180 -171 180 -453q0 -284 -186 -456z" />
<glyph unicode="*" horiz-adv-x="653" d="M60 1172l142 67h2q8 0 17 -20q6 -15 32 -61q21 -38 57 -77l-5 31q-7 38 -7 77q0 33 2 56t2 47q0 28 -9 36l9 12l130 -89q5 -5 5 -7q0 -5 -16 -26q-19 -25 -37 -58q-23 -43 -34 -84l24 22q27 24 78 49l76 37q29 15 29 26h14l-14 -158q0 -7 -15 -7q-14 0 -33 2q-29 3 -53 3 q-41 0 -86 -10l26 -10q40 -13 77 -38l68 -46q28 -19 40 -19q2 0 2 1q0 2 3 2l7 -15l-144 -67h-3q-7 0 -16 22q-1 3 -32 60q-22 42 -52 74l4 -26q8 -43 8 -75q0 -23 -3 -61q-2 -25 -2 -47q0 -29 7 -33l-7 -12l-132 88q-3 3 -3 8t16 27q16 23 36 58q19 34 32 78l-24 -19 q-32 -27 -78 -51q-35 -18 -75 -37q-29 -14 -29 -25h-14l14 158q0 7 17 7q1 0 5 -0.5t12 -1t16 -0.5q38 -2 53 -2q42 0 87 9l-29 12q-37 12 -77 39l-68 45q-26 19 -40 19h-2l-5 -2zM138 962l40 20l12 6q-13 0 -47 2l-2 1zM164 1167l43 -29h1l-22 40zM282 856l24 -16v5 q2 44 2 54q-10 -19 -26 -43zM346 1193q11 19 26 40l-22 15l-1 -6q-3 -32 -3 -49zM442 954q7 -11 23 -44l25 11l-44 30zM464 1098q14 0 48 -2l2 27l-40 -20z" />
<glyph unicode="+" horiz-adv-x="1181" d="M60 577l5 96h480v492l96 -5v-487h480l-5 -96h-475v-473l-96 5v468h-485z" />
<glyph unicode="," horiz-adv-x="504" d="M60 144q0 80 56 136t136 56t136 -56t56 -136q0 -185 -88 -300q-87 -113 -193 -113v49q53 0 101 39t48 85q0 48 -60 48q-80 0 -136 56t-56 136zM109 144q0 -59 42 -101t101 -42q18 0 31 -3q57 -12 73 -60q39 85 39 206q0 59 -42 101t-101 42t-101 -42t-42 -101zM158 144 q0 38 28 66t66 28t66 -28t28 -66q0 -59 -11 -112q-21 10 -42 14q-17 4 -41 4q-38 0 -66 28t-28 66z" />
<glyph unicode="-" horiz-adv-x="980" d="M60 576l12 96h848l-12 -96h-848z" />
<glyph unicode="." horiz-adv-x="504" d="M60 144q0 80 56 136t136 56t136 -56t56 -136t-56 -136t-136 -56t-136 56t-56 136zM109 144q0 -59 42 -101t101 -42t101 42t42 101t-42 101t-101 42t-101 -42t-42 -101zM158 144q0 38 28 66t66 28t66 -28t28 -66t-28 -66t-66 -28t-66 28t-28 66z" />
<glyph unicode="/" horiz-adv-x="942" d="M60 0l722 1318l100 -70l-724 -1318zM124 15l18 -13l676 1231l-20 13z" />
<glyph unicode="0" horiz-adv-x="1368" d="M60 624q0 265 187 455q188 191 437 191q245 0 434 -191q190 -192 190 -455t-190 -455q-189 -191 -434 -191t-434 191q-190 192 -190 455zM109 624q0 -245 175 -420q102 -104 222 -147q-13 15 -28 39q-27 42 -50 106q-33 90 -33 422q0 325 32 421q20 59 50 107 q18 28 28 39q-118 -41 -223 -147q-173 -178 -173 -420zM158 624q0 224 159 386q40 40 67 60l-3 -10q-35 -103 -35 -436q0 -340 36 -438l1 -5q-31 24 -64 57q-161 163 -161 386zM444 624q0 -324 30 -405q72 -199 210 -199q141 0 210 199q30 85 30 405t-30 405 q-70 199 -210 199q-143 0 -210 -199q-30 -85 -30 -405zM862 1190q12 -13 28 -38q27 -42 50 -106q34 -96 34 -422q0 -328 -33 -421q-20 -57 -51 -107q-19 -29 -26 -38q117 43 220 146q175 176 175 420q0 245 -175 420q-100 101 -222 146zM985 181l2 5q35 99 35 438 q0 340 -35 438l-2 5q31 -24 64 -57q161 -163 161 -386t-161 -386q-33 -33 -64 -57z" />
<glyph unicode="1" horiz-adv-x="888" d="M60 0v49q192 0 192 168v598q0 120 -144 120v49q228 63 288 264h240v-1031q0 -168 192 -168v-49h-768zM206 967l16 -7q52 -28 70 -83q7 -21 9 -62v-598q0 -111 -71 -168h428q-71 57 -71 168v982h-156q-61 -158 -225 -232zM298 962q111 71 166 188h74v-933q0 -68 22 -119 h-232q22 51 22 119v599q-3 49 -12 76q-13 40 -40 70z" />
<glyph unicode="2" horiz-adv-x="1228" d="M60 0v49q72 0 160 138l360 509q185 262 185 369q0 156 -197 156q-241 0 -322 -153q-37 -70 -37 -120h-49v184q164 138 408 138q523 0 523 -365q0 -137 -133 -336l-277 -391q-25 -35 -25 -63q0 -66 164 -66h74q225 0 225 241h49v-290h-1108zM170 49h464q-9 9 -12 14 q-6 10 -8 14q-2 5 -4 13q-2 10 -2 11t-0.5 4t-0.5 5l-1 5q0 24 10 47q5 12 25 44l276 391q125 187 125 308q0 58 -15 104q-16 49 -47 86q-34 41 -87 67q-54 27 -129 42q50 -53 50 -139q0 -62 -46 -157q-48 -98 -148 -240l-360 -508q-46 -72 -90 -111zM278 98q4 6 23 34 l359 508q107 152 152 246q51 106 51 179q0 36 -5 60l13 -7q48 -26 71 -54q25 -29 38 -70q13 -42 13 -89q0 -106 -116 -281l-277 -391q-19 -28 -29 -52q-13 -32 -13 -66v-7v-1v-1q0 -1 0.5 -3.5t0.5 -4.5h-281zM1068 49h51v52q-22 -32 -51 -52z" />
<glyph unicode="3" horiz-adv-x="1182" d="M60 100v190h49q3 -135 83 -191q104 -72 237 -72q309 0 309 333q0 242 -268 326q-63 20 -63 32q0 8 23 14q236 57 236 252q0 237 -232 237q-128 0 -193 -61q-67 -62 -71 -188h-48v185q139 113 312 113q544 0 544 -279q0 -218 -364 -279v-3q508 -69 508 -349 q0 -382 -693 -382q-210 0 -369 122zM612 762q79 14 131 32q54 18 91 41q36 22 57 49t30 52q9 26 9 55q0 41 -17 77q-17 35 -52 63q-39 31 -93 49q-58 19 -140 30q88 -74 88 -226q0 -141 -104 -222zM644 655q144 -107 144 -295q0 -225 -134 -320q92 11 160 31q72 21 120 50 q49 29 80 66q29 34 45 80q15 42 15 93q0 26 -6 50q-7 27 -19 50q-13 24 -35 48q-19 21 -55 45q-29 20 -78 40q-46 19 -104 35q-61 17 -133 27zM737 844q27 63 27 140q0 90 -26 154q3 -1 14 -5q47 -16 78 -40q26 -20 39 -46q11 -22 11 -56q0 -22 -6 -40q-8 -21 -21 -37 q-15 -19 -45 -38q-24 -15 -71 -32zM782 576q47 -14 80 -28q42 -18 70 -36q25 -17 46 -38q20 -21 28 -37q9 -16 14 -37q4 -16 4 -40q0 -46 -11 -78q-13 -36 -37 -64q-24 -30 -68 -55t-108 -45q-10 -2 -17 -4q53 97 53 246q0 126 -54 216z" />
<glyph unicode="4" horiz-adv-x="1241" d="M60 264v75l585 909h344v-864h98v-120h-98v-47q0 -168 192 -168v-49h-768v49q192 0 192 168v47h-545zM109 313h496q21 0 35 -14t14 -35v-47q0 -111 -70 -168h426q-70 57 -70 168v47q0 21 14 35t35 14h49v22h-49q-21 0 -35 14t-14 35v815h-268l-18 -33v-782q0 -21 -14 -35 t-35 -14h-489l-7 -11v-11zM147 384h458v712zM680 98q23 54 23 119v933h188v-933q0 -65 23 -119h-234z" />
<glyph unicode="5" horiz-adv-x="1179" d="M60 131v159h49q3 -141 119 -206q104 -57 222 -57q285 0 285 351q0 341 -285 341q-217 0 -350 -111l-36 16l44 533q2 21 2 91h904l24 -336h-49q-12 89 -41 104q-30 16 -153 16h-487q-77 0 -121 -50q-43 -49 -52 -152l-13 -146q132 84 328 84q669 0 669 -395t-669 -395 q-237 0 -390 153zM144 1008l6 6q59 67 158 67h487q96 0 141 -9q28 -6 42 -16l-10 143h-810q0 -22 -2 -46zM202 1110l4 40h717l1 -26q-46 6 -129 6h-487q-57 0 -106 -20zM654 38q86 10 160 32q66 20 118 52q47 29 79 69q31 39 45 84q14 47 14 98t-14 98q-13 42 -45 84 q-30 39 -78 69t-117 51q-76 23 -159 33q127 -94 127 -330q0 -242 -130 -340zM778 111q55 107 55 267q0 153 -53 256q42 -12 48 -14q34 -11 78 -38q40 -24 66 -58t38 -69q11 -33 11 -82t-11 -83t-38 -69q-25 -33 -67 -58q-41 -25 -79 -37t-48 -15z" />
<glyph unicode="6" horiz-adv-x="1320" d="M60 612q0 658 672 658q232 0 413 -148v-159h-49q-3 139 -122 205q-88 53 -242 53q-287 0 -290 -423l8 -6q112 60 210 60q600 0 600 -432q0 -442 -600 -442t-600 634zM109 612q0 -293 134 -439q93 -100 257 -132q-15 14 -32 39q-36 52 -54 138q-19 90 -19 202 q0 116 19 198q16 76 48 126q-20 -6 -40 8l-9 6q-21 15 -21 40q3 292 136 404q-210 -43 -314 -188q-105 -146 -105 -402zM158 612q0 241 96 373q55 78 146 123q-54 -119 -56 -310q0 -51 41 -80l7 -6q-16 -40 -26 -84q-20 -91 -20 -208q0 -119 20 -213q10 -45 24 -81 q-65 30 -110 80q-122 133 -122 406zM444 420q0 -393 216 -393t216 393q0 383 -216 383t-216 -383zM815 36q39 6 60 10q94 18 157 51t104 83q40 49 58 108q17 55 17 132q0 74 -17 128q-19 60 -58 106t-104 80q-63 33 -157 51q-2 1 -59 9q20 -18 36 -42q36 -51 54 -135 q19 -89 19 -197q0 -112 -19 -202q-18 -86 -54 -138q-16 -24 -37 -44zM923 107q20 49 31 100q20 94 20 213q0 117 -20 208q-12 54 -30 96q51 -14 86 -33q53 -28 88 -69q32 -38 48 -88q16 -54 16 -114q0 -62 -16 -118q-16 -52 -48 -91q-35 -42 -89 -71q-35 -19 -86 -33z" />
<glyph unicode="7" horiz-adv-x="1205" d="M60 912v336h1085v-49q-12 -2 -259 -304q-202 -247 -202 -895h-364q0 402 476 878q36 36 36 80q0 74 -158 74h-446q-88 0 -100 -43l-19 -77h-49zM109 1048l1 1q13 11 27 17q19 8 33 10q18 3 28 3q4 0 30 2h446q59 0 103 -11q26 -6 46 -18q21 -13 30 -22q11 -11 17 -25 q7 -15 8 -23q2 -12 2 -17q128 156 196 234h-967v-151zM158 1123v27h812l-76 -92l-5 5q-17 19 -41 32q-22 13 -59 23q-48 12 -115 12h-447q-6 0 -13 -0.5t-12 -1t-8 -0.5q-6 0 -32 -4h-2zM371 49h265q6 457 115 712q-354 -383 -380 -712zM426 98q33 208 208 445 q-41 -193 -47 -445h-161z" />
<glyph unicode="8" horiz-adv-x="1406" d="M60 360q0 286 458 349v4q-314 62 -314 254q0 303 499 303t499 -303q0 -198 -306 -253v-6q450 -70 450 -348q0 -382 -643 -382t-643 382zM109 360q0 -64 19 -112q19 -49 64 -91q46 -43 112 -71q69 -29 169 -44q7 -1 20 -2.5t19 -2.5q-14 11 -34 34q-27 31 -44 69t-28 95 q-11 60 -11 125q0 66 9 122q8 47 26 93q15 38 38 67l8 11q-42 -7 -83 -18q-54 -14 -102 -34q-40 -17 -75 -41q-33 -22 -52 -46q-24 -29 -33 -50q-13 -28 -17 -52q-5 -27 -5 -52zM158 360q0 25 4 42q3 19 14 41q9 22 25 39q19 21 43 38q28 20 66 36q19 9 69 24 q-15 -42 -23 -90q-10 -57 -10 -130q0 -72 12 -134q11 -59 32 -107l5 -11q-41 10 -72 24q-62 26 -97 60q-37 36 -52 74q-16 41 -16 94zM253 967q0 -74 65 -126q63 -50 205 -79q-12 15 -24 37q-15 32 -23 69q-9 42 -9 92q0 79 16 134q17 60 40 91q9 13 23 27l-18 -3 q-77 -12 -128 -33q-50 -21 -85 -54q-31 -29 -47 -70q-15 -38 -15 -85zM302 967q0 37 12 67q11 29 35 52q28 27 70 44q25 10 27 10q-4 -10 -10 -32q-18 -64 -18 -148q0 -58 10 -102l5 -22q-53 19 -84 44q-47 38 -47 87zM444 360q0 -333 260 -333q258 0 258 333 q0 324 -220 324h-77q-221 0 -221 -324zM516 960q0 -225 187 -225t187 225q0 261 -187 261t-187 -261zM860 1212q17 -17 24 -27q25 -35 40 -91q16 -61 16 -134q0 -50 -9 -92q-8 -37 -23 -69q-11 -21 -25 -37h4q68 13 111 29q49 18 76 37q32 22 48 43q19 26 25 47q7 26 7 49 q0 47 -15 85q-16 39 -48 70q-35 33 -85 54q-51 21 -128 33zM894 38l39 4q98 15 169 44q66 27 112 70q45 42 64 92q20 52 20 112q0 20 -6 52q-4 20 -17 50q-11 24 -33 50q-20 23 -52 45q-37 25 -74 41q-40 17 -100 34q-43 12 -85 20l8 -10q23 -29 38 -67q17 -42 25 -93 q10 -62 10 -122q0 -65 -11 -125q-10 -54 -29 -95q-19 -40 -43 -69q-16 -18 -35 -33zM960 1140q7 -2 28 -10q42 -17 70 -44q23 -22 35 -52q11 -28 11 -67q0 -20 -4 -35q-5 -18 -17 -32q-13 -17 -35 -32q-21 -15 -67 -31l-8 -3q1 4 2.5 12t2.5 12q10 44 10 102q0 84 -18 148z M1012 108l5 11q21 48 32 107q11 56 11 134q0 73 -10 130q-9 53 -22 88q43 -13 68 -25q38 -17 66 -36q27 -19 43 -37q16 -17 25 -39q8 -17 14 -39q4 -17 4 -42q0 -53 -16 -94q-14 -37 -52 -74q-35 -34 -97 -60q-46 -18 -71 -24z" />
<glyph unicode="9" horiz-adv-x="1320" d="M60 828q0 442 600 442t600 -634q0 -658 -672 -658q-237 0 -413 143v159h49q3 -134 122 -206q87 -47 242 -47q287 0 290 423l-8 6q-112 -60 -210 -60q-600 0 -600 432zM109 828q0 -74 17 -128q19 -60 58 -106t104 -80q63 -33 157 -51q2 -1 59 -9q-20 18 -36 42 q-36 51 -54 135q-19 89 -19 197q0 112 19 202q18 86 54 138q16 24 37 44q-39 -6 -60 -10q-94 -18 -157 -51t-104 -83q-40 -49 -58 -108q-17 -55 -17 -132zM158 828q0 62 16 118q16 52 48 91q35 42 89 71q35 19 86 33q-19 -42 -31 -100q-20 -94 -20 -213q0 -117 20 -208 q12 -54 30 -96q-51 14 -86 33q-53 28 -88 69q-32 38 -48 88q-16 53 -16 114zM444 828q0 -383 216 -383t216 383q0 393 -216 393t-216 -393zM792 46q210 43 314 188q105 146 105 402q0 293 -134 439q-93 100 -257 132q15 -15 32 -39q36 -52 54 -138q19 -90 19 -202 q0 -116 -19 -198q-16 -76 -48 -126q20 6 40 -8l9 -6q21 -15 21 -40q-3 -292 -136 -404zM920 140q54 119 56 310q0 52 -41 80l-7 6q16 40 26 84q20 92 20 208q0 119 -20 213q-10 45 -24 81q65 -30 110 -80q122 -133 122 -406q0 -241 -96 -373q-55 -78 -146 -123z" />
<glyph unicode=":" horiz-adv-x="504" d="M60 144q0 80 56 136t136 56t136 -56t56 -136t-56 -136t-136 -56t-136 56t-56 136zM60 844q0 80 56 136t136 56t136 -56t56 -136t-56 -136t-136 -56t-136 56t-56 136zM109 144q0 -59 42 -101t101 -42t101 42t42 101t-42 101t-101 42t-101 -42t-42 -101zM109 844 q0 -59 42 -101t101 -42t101 42t42 101t-42 101t-101 42t-101 -42t-42 -101zM158 144q0 38 28 66t66 28t66 -28t28 -66t-28 -66t-66 -28t-66 28t-28 66zM158 844q0 38 28 66t66 28t66 -28t28 -66t-28 -66t-66 -28t-66 28t-28 66z" />
<glyph unicode=";" horiz-adv-x="504" d="M60 144q0 80 56 136t136 56t136 -56t56 -136q0 -179 -92 -295q-94 -118 -189 -118v49q53 0 101 39t48 85q0 48 -60 48q-80 0 -136 56t-56 136zM60 844q0 80 56 136t136 56t136 -56t56 -136t-56 -136t-136 -56t-136 56t-56 136zM109 144q0 -59 42 -101t101 -42q18 0 31 -3 q53 -11 71 -54q41 83 41 200q0 59 -42 101t-101 42t-101 -42t-42 -101zM109 844q0 -59 42 -101t101 -42t101 42t42 101t-42 101t-101 42t-101 -42t-42 -101zM158 144q0 38 28 66t66 28t66 -28t28 -66q0 -60 -12 -111q-16 8 -41 13q-17 4 -41 4q-38 0 -66 28t-28 66zM158 844 q0 38 28 66t66 28t66 -28t28 -66t-28 -66t-66 -28t-66 28t-28 66z" />
<glyph unicode="&#x3c;" horiz-adv-x="564" d="M60 603v42l444 448v-179l-154 -156q-81 -82 -81 -134q0 -50 81 -134l154 -156v-179zM109 623l346 -349v40l-139 141q-74 75 -90 133q-6 18 -6 35q0 19 6 38q17 57 86 129l4 3l139 141v40l-346 -349v-2z" />
<glyph unicode="=" horiz-adv-x="1188" d="M60 382l12 96h1056l-12 -96h-1056zM60 766l12 96h1056l-12 -96h-1056z" />
<glyph unicode="&#x3e;" horiz-adv-x="564" d="M60 155v179l154 156q81 82 81 134q0 50 -81 134l-154 156v179l444 -448v-42zM109 274l346 349v2l-346 349v-40l139 -141q74 -75 90 -133q6 -18 6 -35q0 -19 -6 -38q-17 -57 -86 -129l-4 -3l-139 -141v-40z" />
<glyph unicode="?" horiz-adv-x="979" d="M60 1095l15 264l51 -1q0 -23 11 -48q10 -23 25 -23q7 0 32 17l53 37q27 20 84 37q54 16 121 16q219 0 344 -84q124 -82 124 -227q0 -99 -90 -177q-25 -22 -173 -119q-142 -93 -148 -152l-7 -77h-192q-22 263 -22 272q0 83 86 141l224 141q55 39 55 100q0 130 -201 130 q-147 0 -236 -78q-104 -89 -104 -168zM117 1232l12 15q-5 2 -11 7zM214 144q0 80 56 136t136 56t136 -56t56 -136t-56 -136t-136 -56t-136 56t-56 136zM263 144q0 -59 42 -101t101 -42t101 42t42 101t-42 101t-101 42t-101 -42t-42 -101zM312 144q0 38 28 66t66 28t66 -28 t28 -66t-28 -66t-66 -28t-66 28t-28 66zM337 830l18 -223h103l2 33q3 26 17 50q35 62 153 138q143 93 168 115q72 63 72 140q0 118 -102 187q-42 28 -100 46q34 -41 34 -104q0 -18 -2 -27q-4 -19 -10 -34q-8 -20 -24 -41q-18 -23 -40 -38l-225 -142q-34 -23 -48 -46 q-16 -26 -16 -54zM386 832q0 12 8 25q10 15 34 32l224 142q31 22 52 49q21 25 32 55q9 25 12 41q3 18 3 36v10q71 -53 71 -139q0 -55 -56 -103q-24 -21 -162 -111q-131 -85 -170 -155q-17 -29 -21 -58h-13z" />
<glyph unicode="@" horiz-adv-x="1879" d="M60 562q0 34 3 70q19 219 151 404q129 182 345 294q212 110 452 110t433 -110q191 -108 292 -294q84 -153 84 -334q0 -22 -4 -70q-39 -446 -384 -446q-145 0 -205 155q-17 29 -39 29q-17 0 -38 -18q-147 -162 -294 -162q-212 0 -324 126q-70 79 -70 216q0 56 12 124 q81 440 521 440q176 0 285 -88q58 0 76 38q9 20 28 20t48 -20l-106 -652q-4 -25 -4 -48q0 -112 121 -112q289 0 325 398q2 22 2 65q0 168 -78 313q-92 172 -276 277q-181 103 -410 103t-428 -103q-200 -104 -324 -277q-122 -172 -142 -378q-2 -17 -2 -64v-2q0 -166 78 -312 q95 -175 276 -278q179 -102 410 -102t428 102l20 -42q-212 -110 -452 -110t-434 110q-192 110 -292 294q-84 156 -84 334zM510 532q0 -120 58 -184q46 -52 116 -80q-13 19 -22 37q-13 28 -20 67q-8 42 -8 86q0 89 22 206q17 96 48 181q27 75 70 135q16 22 34 40 q-81 -27 -134 -73q-114 -100 -152 -301q-12 -70 -12 -114zM560 532q0 52 10 106q24 132 85 216q-29 -81 -47 -181q-22 -122 -22 -215q0 -36 2 -53q-28 47 -28 127zM684 458q0 -219 170 -219q194 0 286 417q20 94 20 186q0 205 -170 205q-216 0 -286 -391q-20 -109 -20 -198z M1090 360l24 24l4 4q22 19 43 26h3q2 1 4 1l10 2q4 1 10 1q38 0 65 -30q3 -3 16 -22q1 -2 3 -8l2 -1q2 28 4 45l95 587q-35 -30 -93 -30q-18 0 -32 11q-41 33 -87 50q10 -13 18 -29q11 -20 21 -65q9 -39 9 -84q0 -101 -21 -197q-39 -175 -98 -285zM1190 468q28 84 46 166 q22 100 22 208q0 34 -5 72q2 -1 5 -1.5t5 -0.5q10 -2 17 -2q11 0 31 2l-73 -454q-25 10 -48 10z" />
<glyph unicode="A" horiz-adv-x="1626" d="M60 342q0 422 822 422h108v110q0 347 -317 347q-87 0 -170 -19q-55 -12 -55 -40q0 -19 26 -47q43 -42 43 -104q0 -61 -43 -104t-104 -43t-104 43q-44 44 -44 105q0 51 32 95q69 95 206 133q106 30 213 30q701 0 701 -636v-417q0 -168 192 -168v-49h-480q-23 0 -50 40 t-36 34q-122 -96 -298 -96q-642 0 -642 364zM109 342q0 -59 19 -106q18 -45 64 -86q45 -40 112 -67q70 -26 168 -41l36 -5q-13 11 -28 27q-28 31 -44 65q-18 37 -30 92q-11 49 -11 121q0 204 112 313q39 38 49 39q-116 -18 -193 -46q-89 -32 -146 -78q-57 -47 -83 -103 q-25 -54 -25 -125zM158 342q0 58 21 104t69 86q50 41 132 70q10 4 32 10q-66 -110 -66 -270q0 -71 12 -131q11 -57 34 -103v-1q-31 7 -70 22q-61 24 -98 57q-34 30 -50 69q-16 38 -16 87zM272 1012q0 -42 28 -70q29 -29 70 -29q40 0 69 29t29 69t-29 69q-25 27 -35 54v2 q-1 2 -1 4q0 1 -1 4.5t-1 5.5q0 9 -1 12v4q-68 -33 -106 -88q-22 -31 -22 -66zM320 1012q0 19 14 38q15 22 37 40q14 -24 33 -44q15 -15 15 -35q0 -21 -14 -35t-35 -14t-34 14q-16 16 -16 36zM444 342q0 -315 258 -315q169 0 293 101q-5 165 -5 312v275h-148 q-398 0 -398 -373zM916 1196q123 -99 123 -322v-434q0 -145 5 -310l1 -24l10 -10q5 -7 21 -29q9 -13 15 -18h305q-71 57 -71 168v417q0 91 -13 162t-44 139q-28 61 -78 116q-45 49 -116 88q-64 35 -158 57zM1049 1096h1q63 -34 104 -78q42 -45 69 -104q28 -59 40 -127 q13 -66 13 -153v-417q0 -68 22 -119h-184q-3 4 -7.5 10.5t-7.5 10.5t-6 7v6q-5 165 -5 308v434q0 129 -39 222z" />
<glyph unicode="B" horiz-adv-x="1612" d="M60 0v49q184 0 192 147v859q0 144 -192 144v49h628q672 0 672 -238q0 -239 -380 -296v-6q572 -69 572 -348q0 -360 -672 -360h-820zM233 49h354v1150h-349q63 -51 63 -144v-861q-4 -94 -68 -145zM329 98q18 43 21 95v862q0 51 -18 95h206v-1052h-209zM636 49h244 q288 0 288 311q0 312 -384 324h-148v-635zM636 732h52q352 0 352 260q0 207 -352 207h-52v-467zM987 1183q63 -46 79 -84q23 -53 23 -96q0 -109 -43 -176q-19 -35 -55 -61q320 53 320 243q0 87 -132 133q-65 22 -117 30zM1094 60q4 0 11 0.5t10 1.5l65 11q150 25 236 97 q87 73 87 190q0 207 -409 281q125 -96 125 -307q0 -164 -89 -244q-20 -20 -36 -30zM1110 846q28 75 28 126q0 84 -24 138q148 -39 148 -101q0 -110 -152 -163zM1218 130q48 94 48 182q0 162 -44 248q232 -67 232 -200q0 -96 -78 -162q-71 -59 -158 -68z" />
<glyph unicode="C" horiz-adv-x="1338" d="M60 624q0 314 175 480t497 166q207 0 347 -67q181 -85 181 -222q0 -61 -43 -105q-44 -46 -103 -46q-60 0 -103 43t-43 103q0 39 20 73q24 49 24 64q0 36 -46 57q-108 51 -234 51q-207 0 -252 -159q-36 -127 -36 -438q0 -365 36 -446q67 -151 252 -151t336 85 q105 59 176 138l34 -35q-75 -83 -186 -146q-163 -91 -360 -91q-325 0 -499 166q-173 165 -173 480zM109 624q0 -293 158 -445q98 -94 245 -129q-47 41 -82 120t-35 426q0 345 38 480q21 71 69 118q-143 -38 -233 -125q-160 -151 -160 -445zM158 624q0 343 230 472 q-42 -142 -42 -472q0 -364 39 -472q-227 129 -227 472zM1017 970q0 -33 29 -62q28 -28 67 -28t69 30q29 29 29 71q0 107 -165 183q9 -15 12 -36q3 -27 -2 -42q-6 -18 -22 -50q-17 -34 -17 -66zM1066 973q0 18 4 23l8 16q20 42 26 64q58 -43 58 -95q0 -21 -15 -37t-34 -16 t-33 14t-14 31z" />
<glyph unicode="D" horiz-adv-x="1612" d="M60 0v49q184 0 192 147v835q0 168 -192 168v49h820q322 0 497 -166t175 -458q0 -293 -173 -458q-175 -166 -499 -166h-820zM230 1199q71 -57 71 -168v-837q-4 -94 -68 -145h354v1150h-357zM328 1150h210v-1052h-208q17 39 20 95v838q0 68 -22 119zM636 49h244 q183 0 235 127q53 130 53 448t-53 448q-52 127 -235 127h-244v-1150zM1104 74q145 35 241 127q158 150 158 423q0 272 -160 423q-96 91 -239 127q36 -34 56 -84q57 -138 57 -466t-57 -466q-20 -51 -56 -84zM1216 168q50 150 50 456q0 307 -49 454q58 -33 93 -66 q144 -138 144 -388q0 -252 -142 -388q-38 -36 -96 -68z" />
<glyph unicode="E" d="M60 624q0 314 175 480t497 166t497 -166t175 -480h-960q0 -365 36 -446q67 -151 252 -151q222 0 356 75q153 86 242 226l42 -26q-94 -148 -260 -243q-141 -81 -380 -81q-325 0 -499 166q-173 165 -173 480zM109 624q0 -293 158 -445q98 -94 245 -129q-49 43 -77 108 q-40 89 -40 466v49q0 311 57 445q12 27 30 52q7 9 22 24q-143 -38 -235 -125q-160 -151 -160 -445zM158 624q0 272 144 410q42 39 91 65q-47 -146 -47 -426v-49q0 -362 39 -472q-52 30 -85 62q-142 136 -142 410zM444 673h576q0 323 -36 401q-68 147 -252 147 q-182 0 -235 -123q-53 -127 -53 -425zM954 1196q47 -42 74 -101q41 -90 41 -422h285q-12 257 -159 396q-96 91 -241 127zM1082 1093q47 -28 80 -59q116 -110 139 -312h-183q-3 271 -36 371z" />
<glyph unicode="F" horiz-adv-x="1398" d="M60 0v49q192 0 192 168v814q0 168 -192 168v49h1248l40 -355l-49 -5q-45 311 -355 311h-308v-539h120q168 0 168 180h49v-408h-49q0 180 -168 180h-120v-395q0 -168 192 -168v-49h-768zM230 49h428q-71 57 -71 168v982h-357q71 -57 71 -168v-814q0 -111 -71 -168zM327 98 q23 55 23 119v814q0 64 -23 119h211v-933q0 -64 23 -119h-234zM870 636q34 -18 54 -42v84q-20 -24 -54 -42zM1161 1199q70 -37 115 -105l-12 105h-103z" />
<glyph unicode="G" horiz-adv-x="1458" d="M60 624q0 315 175 480q177 166 499 166q121 0 199 -31q81 -31 139 -31q62 0 70 38h50l21 -338h-49q-6 68 -81 179q-43 62 -133 98q-92 36 -216 36q-209 0 -254 -159q-36 -127 -36 -438q0 -365 36 -446q67 -151 250 -151q94 0 152 43t58 137v200q0 168 -192 168v49h680 v-49q-152 0 -152 -168v-322q-22 2 -35 2q-99 0 -243 -63q-106 -46 -268 -46q-323 0 -497 166q-173 165 -173 480zM109 624q0 -294 157 -445q98 -94 246 -129q-48 42 -77 108q-40 89 -40 466q0 317 38 452q21 71 69 118q-139 -37 -233 -125q-160 -151 -160 -445zM158 624 q0 273 144 409q34 33 86 63l-2 -7q-40 -143 -40 -465q0 -362 39 -472q-52 30 -85 62q-142 136 -142 410zM918 575q71 -57 71 -168v-200q0 -96 -53 -154q34 11 42 15q149 65 249 68v271q0 113 59 168h-368zM1016 526h182q-20 -54 -20 -119v-227q-69 -9 -146 -37q6 30 6 64 v200q0 68 -22 119zM1084 1160q23 -22 40 -46q14 -21 30 -47l-7 109q-9 -5 -17 -8q-15 -6 -46 -8z" />
<glyph unicode="H" horiz-adv-x="1752" d="M60 0v49q192 0 192 168v814q0 168 -192 168v49h718v-49q-142 0 -142 -168v-359h480v359q0 168 -142 168v49h718v-49q-192 0 -192 -168v-814q0 -168 192 -168v-49h-718v49q142 0 142 168v407h-480v-407q0 -168 142 -168v-49h-718zM230 49h418q-61 49 -61 168v814 q0 110 61 168h-418q71 -57 71 -168v-814q0 -111 -71 -168zM328 98q22 51 22 119v814q0 68 -22 119h228q-18 -40 -18 -119v-814q0 -67 18 -119h-228zM1104 49h418q-71 57 -71 168v814q0 111 71 168h-418q61 -58 61 -168v-814q0 -119 -61 -168zM1196 98q18 52 18 119v814 q0 79 -18 119h228q-22 -51 -22 -119v-814q0 -68 22 -119h-228z" />
<glyph unicode="I" horiz-adv-x="888" d="M60 0v49q192 0 192 168v814q0 168 -192 168v49h768v-49q-192 0 -192 -168v-814q0 -168 192 -168v-49h-768zM230 49h428q-71 57 -71 168v814q0 111 71 168h-428q71 -57 71 -168v-814q0 -111 -71 -168zM328 98q22 51 22 119v814q0 68 -22 119h232q-22 -51 -22 -119v-814 q0 -68 22 -119h-232z" />
<glyph unicode="J" horiz-adv-x="902" d="M0 0v49q266 0 266 285v697q0 168 -192 168v49h768v-49q-192 0 -192 -168v-615q0 -307 -216 -403q-79 -35 -174 -35q-153 0 -260 22zM156 30q49 -3 104 -3q83 0 154 31q44 19 78 50q38 34 59 73q25 46 37 103q13 63 13 132v615q0 111 71 168h-428q71 -57 71 -168v-697 q0 -115 -41 -192q-40 -76 -118 -112zM292 77q13 18 26 41q46 86 46 216v697q0 68 -22 119h232q-22 -51 -22 -119v-615q0 -68 -12 -122q-10 -49 -32 -88q-23 -40 -48 -62q-28 -26 -66 -42q-45 -20 -102 -25z" />
<glyph unicode="K" horiz-adv-x="1626" d="M60 0v49q192 0 192 168v814q0 168 -192 168v49h768v-49q-192 0 -192 -168v-629l532 678q28 35 28 62q0 54 -133 57v49h408v-49q-70 0 -127 -27q-73 -39 -130 -111l-232 -296q80 0 114 -24q35 -24 90 -139l208 -415q69 -138 202 -138v-49q-136 -22 -273 -22 q-251 0 -365 223l-164 322l-158 -199v-107q0 -168 192 -168v-49h-768zM230 49h428q-71 57 -71 168v814q0 111 71 168h-428q71 -57 71 -168v-814q0 -111 -71 -168zM328 98q22 51 22 119v814q0 68 -22 119h232q-22 -51 -22 -119v-814q0 -68 22 -119h-232zM824 562q7 -5 14 -17 l164 -322q50 -99 131 -148q79 -48 190 -48q60 0 144 7q-73 44 -117 131l-208 415q-38 81 -68 114l-6 7q-21 15 -86 15q-19 0 -30 10zM885 561l84 107q13 4 63 -6h6q22 -24 60 -104l209 -415q19 -37 41 -67h-25q-97 0 -165 41q-67 40 -112 129zM1224 1199q13 -14 18 -38 q25 22 50 38h-68z" />
<glyph unicode="L" horiz-adv-x="1358" d="M60 1199v49h766v-49q-190 0 -190 -168v-982h268q310 0 355 311l49 -5l-40 -355h-1206v49q175 0 190 127v855q0 168 -192 168zM230 1199q71 -57 71 -168v-855q0 -1 -0.5 -3t-0.5 -3q-9 -79 -63 -121h350v982q0 113 70 168h-427zM328 1150h232q-22 -51 -22 -119v-933h-206 q14 38 18 67v11v855q0 68 -22 119zM1121 49h103l12 105q-45 -68 -115 -105z" />
<glyph unicode="M" horiz-adv-x="2616" d="M60 0v49q192 0 192 168v814q0 168 -192 168v49h480q22 0 49 -32t32 -32q124 86 255 86q373 0 520 -160q135 160 344 160q624 0 624 -454v-599q0 -168 192 -168v-49h-748v49q172 0 172 168v575q0 429 -240 429q-186 0 -313 -151q73 -98 73 -279v-574q0 -168 172 -168v-49 h-728v49q172 0 172 168v575q0 429 -240 429q-123 0 -244 -89q4 -40 4 -101v-814q0 -168 172 -168v-49h-748zM230 49h422q-65 57 -65 168v814q0 68 -3 95q-5 45 -48 73h-306q71 -57 71 -168v-814q0 -111 -71 -168zM328 98q22 51 22 119v814q0 68 -22 119h192q1 -1 2 -3t2 -3 q10 -11 11 -24q3 -24 3 -89v-814q0 -67 21 -119h-231zM1041 1212q124 -109 124 -420v-575q0 -111 -65 -168h416q-65 57 -65 168v574q0 165 -63 251q-25 32 -28 35q-99 108 -319 135zM1153 1140q113 -33 171 -96q2 -2 5 -6t8.5 -11.5t10.5 -14.5q54 -72 54 -221v-574 q0 -67 21 -119h-230q21 53 21 119v575q0 222 -61 348zM1905 1212q124 -109 124 -420v-575q0 -111 -65 -168h422q-71 57 -71 168v599q0 66 -13 118t-44 100t-78 82q-53 38 -116 60q-75 26 -159 36zM2017 1140q4 -1 11.5 -4t20 -7t22.5 -8q37 -13 79 -44q41 -30 67 -70 q24 -37 37 -86q12 -47 12 -105v-599q0 -68 22 -119h-231q21 53 21 119v575q0 222 -61 348z" />
<glyph unicode="N" horiz-adv-x="1752" d="M60 0v49q192 0 192 168v814q0 168 -192 168v49h478q21 0 48 -33t32 -33q125 88 258 88q624 0 624 -454v-599q0 -168 192 -168v-49h-748v49q172 0 172 168v575q0 429 -240 429q-123 0 -244 -89q4 -40 4 -101v-814q0 -168 172 -168v-49h-748zM230 49h422q-65 57 -65 168 v814q0 68 -3 95q-1 6 1 18q-2 1 -6 5q-6 5 -31 35q-9 10 -15 15h-303q71 -57 71 -168v-814q0 -111 -71 -168zM328 98q22 51 22 119v814q0 68 -22 119h184q23 -28 24 -32q2 -17 2 -87v-814q0 -67 21 -119h-231zM1041 1212q124 -109 124 -420v-575q0 -111 -65 -168h422 q-71 57 -71 168v599q0 66 -13 118t-44 100t-78 82q-53 38 -116 60q-75 26 -159 36zM1153 1140q4 -1 11.5 -4t20 -7t22.5 -8q37 -13 79 -44q41 -30 67 -70q24 -37 37 -86q12 -47 12 -105v-599q0 -68 22 -119h-231q21 53 21 119v575q0 222 -61 348z" />
<glyph unicode="O" d="M60 624q0 314 175 480t497 166t497 -166t175 -480q0 -315 -173 -480q-175 -166 -499 -166q-325 0 -499 166q-173 165 -173 480zM109 624q0 -294 159 -446q92 -88 234 -125q-48 45 -69 119q-38 135 -38 452t38 452q21 73 69 118q-143 -38 -233 -125q-160 -151 -160 -445z M158 624q0 272 144 410q34 33 86 62l-2 -7q-40 -143 -40 -465t40 -465l2 -9q-49 28 -87 64q-143 137 -143 410zM444 624q0 -310 36 -438q45 -159 252 -159q183 0 235 127q53 130 53 470t-53 470q-52 127 -235 127q-207 0 -252 -159q-36 -127 -36 -438zM956 52 q145 35 241 127q158 150 158 445q0 294 -160 445q-96 92 -239 127q36 -34 56 -84q57 -138 57 -488t-57 -488q-20 -51 -56 -84zM1068 146q50 152 50 478q0 328 -49 476q58 -33 93 -66q144 -138 144 -410q0 -274 -142 -410q-38 -36 -96 -68z" />
<glyph unicode="P" horiz-adv-x="1612" d="M60 0v49q192 0 192 168v835q-8 147 -192 147v49h820q303 0 470 -118q202 -142 202 -362t-202 -338q-161 -94 -470 -94h-244v-119q0 -168 192 -168v-49h-768zM230 49h428q-71 57 -71 168v982h-354q64 -51 68 -145v-837q0 -112 -71 -168zM328 98q22 51 22 119v838 q-3 56 -20 95h208v-933q0 -68 22 -119h-232zM636 385h244q288 0 288 383q0 431 -288 431h-244v-814zM1080 1183q15 -12 46 -51q29 -39 48 -86q19 -48 31 -120t12 -158q0 -78 -12 -142q-12 -66 -31 -108q-21 -47 -48 -78q-18 -22 -43 -42q151 21 241 75q89 52 134 125 q45 72 45 170q0 195 -181 322q-96 67 -242 93zM1206 1097q46 -19 87 -47q161 -114 161 -282q0 -82 -38 -144q-37 -62 -116 -109q-37 -23 -92 -40l11 23q23 51 35 119q12 69 12 151q0 91 -12 166q-11 71 -34 130q-7 18 -14 33z" />
<glyph unicode="Q" d="M60 624q0 312 175 480q177 166 497 166t497 -166q175 -168 175 -480q0 -315 -173 -480q-177 -166 -499 -166q-297 0 -297 -85q0 -34 81 -34l540 1q102 0 102 98h39q3 -18 3 -36q0 -210 -236 -210h-650q0 237 174 294q-153 40 -255 138q-173 165 -173 480zM109 624 q0 -294 159 -446q92 -88 234 -125q-48 45 -69 119q-38 135 -38 452t38 452q21 73 69 118q-143 -38 -233 -125q-160 -151 -160 -445zM158 624q0 272 144 410q34 33 86 62l-2 -7q-40 -143 -40 -465t40 -465l2 -9q-49 28 -87 64q-143 137 -143 410zM364 -239h600q115 0 160 61 q-30 -12 -68 -12h-282h-258q-40 0 -65 7q-48 13 -60 51q-21 -46 -27 -107zM444 624q0 -310 36 -438q45 -159 252 -159q183 0 235 127q53 130 53 470t-53 470q-52 127 -235 127q-207 0 -252 -159q-36 -127 -36 -438zM732 1221zM956 52q145 35 241 127q158 150 158 445 q0 294 -160 445q-96 92 -239 127q36 -34 56 -84q57 -138 57 -488t-57 -488q-20 -51 -56 -84zM1068 146q50 152 50 478q0 328 -49 476q58 -33 93 -66q144 -138 144 -410q0 -274 -142 -410q-38 -36 -96 -68z" />
<glyph unicode="R" horiz-adv-x="1626" d="M60 0v48q192 0 192 168v836q-7 146 -192 146v50h720q301 0 470 -119q202 -142 202 -290q0 -252 -356 -393q92 -5 128 -38l223 -322q27 -38 149 -38v-48q-136 -22 -273 -22q-241 0 -365 223l-128 230h-194v-215q0 -168 192 -168v-48h-768zM230 48h428q-71 57 -71 168v982 h-354q64 -51 68 -145v-837q0 -112 -71 -168zM328 98q22 51 22 118v838q-3 57 -20 96h208v-934q0 -67 22 -118h-232zM636 480h144q288 0 288 369q0 349 -288 349h-144v-718zM879 442l122 -217q56 -100 135 -149t187 -49q62 0 113 4q-10 7 -18 15l-11 12l-219 316 q-29 21 -95 24q-19 2 -31 12q-12 11 -15 28q-3 19 5 33q9 15 26 21q168 66 246 153q79 88 79 194q0 123 -181 250q-90 63 -224 90q5 -3 26 -25q31 -34 49 -72q21 -43 32 -100q12 -60 12 -133q0 -75 -12 -137q-13 -64 -31 -104q-21 -44 -48 -76q-27 -31 -56 -51 q-27 -17 -64 -30l-12 -4zM950 416q29 11 48 25q2 -21 8 -35q10 -21 24 -33q39 -24 60 -25q48 -3 63 -10l182 -262h-12q-93 0 -161 42q-69 44 -118 131zM1102 556q8 13 16 31q22 48 36 116q12 66 12 146q0 81 -13 143q-13 60 -29 96q44 -21 69 -39q161 -113 161 -210 q0 -87 -66 -161q-60 -66 -186 -122z" />
<glyph unicode="S" horiz-adv-x="1212" d="M60 0l40 360l50 -5q24 -174 213 -279q89 -49 213 -49q245 0 245 167q0 129 -144 204l-339 154q-124 56 -190 142q-62 82 -62 187q0 185 148 288q148 101 368 101q118 0 198 -31q82 -31 136 -31q53 0 59 38l44 5l27 -339l-50 -4q-8 78 -70 169q-41 60 -131 103 q-86 41 -213 41q-225 0 -225 -157q0 -91 55 -133q47 -36 134 -81l360 -168q226 -121 226 -312q0 -392 -576 -392q-86 0 -167 24q-95 28 -175 78q-36 22 -60 22q-55 0 -66 -107zM125 138q12 7 31 11q20 3 36 0q-31 35 -56 85zM136 881q0 -90 52 -158q57 -75 170 -127 l340 -154l27 -14q18 -11 31 -21q18 -13 33 -27q16 -14 30 -34q20 -28 27 -42q11 -22 17 -50q7 -33 7 -60q0 -91 -57 -145q76 16 135 47q57 30 90 72q37 46 50 91q16 53 16 111q0 80 -49 147t-151 121l-359 168q-85 43 -142 86q-75 57 -75 172q0 70 36 118q-50 -19 -102 -54 q-126 -87 -126 -247zM184 881v1q0 127 96 199q0 -3 -0.5 -8.5t-0.5 -8.5q0 -139 94 -211q53 -40 151 -91l359 -168q92 -49 133 -106q38 -53 38 -118v-1q0 -55 -13 -95q-14 -43 -41 -75q-26 -33 -75 -59l-12 -6q6 28 6 60q0 34 -8 71q-8 35 -21 61q-11 22 -32 50 q-21 26 -36 40q-14 14 -38 31q-15 12 -34 23q-5 3 -15 8t-15 8l-341 156q-105 47 -153 110q-42 56 -42 129zM937 1160q30 -27 49 -56q2 -3 8.5 -12t9.5 -14l-8 94q-10 -5 -26 -9q-3 -1 -33 -3z" />
<glyph unicode="T" d="M50 893l40 355h1284l40 -355l-49 -5q-45 311 -365 311h-76v-982q0 -168 192 -168v-49h-768v49q192 0 192 168v982h-76q-320 0 -365 -311zM122 1092q46 68 118 107h-106zM518 49h428q-71 57 -71 168v982h-286v-982q0 -111 -71 -168zM616 98q22 51 22 119v933h188v-933 q0 -68 22 -119h-232zM1224 1199q72 -39 118 -107l-12 107h-106z" />
<glyph unicode="U" horiz-adv-x="1722" d="M30 1199v49h480q96 0 96 -217v-742q0 -262 240 -262q123 0 244 89q-4 58 -4 101v1004q253 0 336 49h48v-1053q0 -168 192 -168v-49h-480q-22 0 -50 31t-33 31q-123 -84 -253 -84q-624 0 -624 454v599q0 168 -192 168zM200 1199q71 -57 71 -168v-599q0 -59 13 -114 q13 -53 40 -98t72 -80q43 -34 107 -60q63 -26 145 -39q-91 79 -91 248v742q0 101 -21 145q-11 23 -26 23h-310zM298 1150h196q14 -39 14 -119v-742q0 -99 28 -170l-15 6q-57 22 -95 53q-37 31 -60 68q-24 39 -35 84q-11 49 -11 102v599q0 68 -22 119zM1135 217q0 -56 3 -97 q2 -26 30 -56q9 -11 18 -15h306q-71 57 -71 168v999q-91 -40 -286 -44v-955zM1184 217v908q111 4 188 23v-931q0 -68 22 -119h-190q-15 16 -17 26q-3 39 -3 93z" />
<glyph unicode="V" horiz-adv-x="1429" d="M30 1199v49h456q81 0 146 -178l266 -654l264 654q17 42 17 52q0 77 -122 77v49h312v-49q-107 -3 -158 -138l-286 -711l-147 -372h-61q-53 0 -71 46l-59 154l-355 883q-34 85 -87 117q-36 21 -115 21zM198 1199q48 -42 79 -119l355 -884l59 -154q4 -10 8 -12q6 -3 18 -3 h27l136 341v2q-18 7 -27 28l-266 655q-39 106 -79 137q-9 7 -22 9h-288zM298 1150h182q28 -24 61 -115l267 -655q7 -16 14 -24l-101 -254l-43 112l-356 884q-16 37 -24 52zM1201 1199q12 -14 17 -26q13 16 24 26h-41z" />
<glyph unicode="W" horiz-adv-x="2197" d="M30 1199v49h456q81 0 146 -178l266 -654l181 448l-79 197q-34 85 -87 117q-36 21 -115 21v49h731v-49q-139 -2 -139 -81q0 -22 10 -48l266 -654l264 654q17 42 17 52q0 77 -122 77v49h312v-49q-107 -3 -158 -138l-286 -711l-147 -372h-61q-53 0 -71 46l-59 154l-250 620 l-180 -448l-147 -372h-61q-53 0 -71 46l-59 154l-355 883q-34 85 -87 117q-36 21 -115 21zM198 1199q48 -42 79 -119l355 -884l59 -154q4 -10 8 -12q6 -3 18 -3h27l136 341v2q-18 7 -27 28l-266 655q-39 106 -79 137q-9 7 -22 9h-288zM298 1150h182q28 -24 61 -115l267 -655 q7 -16 14 -24l-101 -254l-43 112l-356 884q-16 37 -24 52zM966 1199q48 -42 79 -119l355 -884l59 -154q4 -10 8 -12q6 -3 18 -3h27l136 341v2q-18 7 -27 28l-266 655q-13 35 -13 65q0 50 30 81h-406zM1066 1150h229q-3 -15 -3 -32q0 -37 17 -83l267 -655q7 -16 14 -24 l-101 -254l-43 112l-356 884q-16 37 -24 52zM1969 1199q12 -14 17 -26q13 16 24 26h-41z" />
<glyph unicode="X" horiz-adv-x="1436" d="M60 0v49q71 0 106 5q56 12 146 133l244 333l-274 541q-38 72 -92 113q-32 25 -110 25v49h456q83 -5 170 -178l133 -262l187 262q39 54 39 60q0 69 -129 69v49h388v-49q-78 0 -130 -27q-60 -36 -114 -111l-216 -303l289 -571q71 -138 223 -138v-49h-748v49q117 5 117 70 q0 25 -17 59l-148 292l-214 -292q-34 -46 -34 -76q0 -53 108 -53h8v-49h-388zM238 1199q51 -45 87 -116l447 -883q22 -43 22 -81q0 -41 -26 -70h439q-60 42 -97 116l-448 883q-37 74 -64 105q-37 43 -63 46h-297zM256 49h43q-11 16 -13 29q-17 -18 -30 -29zM343 1150h187 q12 -6 31 -29q24 -28 58 -95l447 -884q13 -25 26 -44h-250q1 7 1 21q0 49 -27 103l-447 884q-8 16 -26 44zM1089 1199q14 -16 19 -31q20 19 38 31h-57z" />
<glyph unicode="Y" horiz-adv-x="1513" d="M30 1199v49h478q78 0 170 -178l256 -445l256 445q16 28 16 55q0 72 -151 74v49h398v-49q-133 0 -213 -138l-266 -463v-381q0 -168 192 -168v-49h-768v49q192 0 192 168v239l-337 605q-76 138 -223 138zM196 1199q59 -40 100 -114l338 -605q6 -10 6 -24v-239 q0 -111 -71 -168h427q-70 57 -70 168v359q-22 3 -34 24l-257 447q-32 62 -60 98q-28 37 -51 49q-8 5 -16 5h-312zM312 1150h190q12 -7 34 -35q28 -38 56 -91l257 -448q10 -19 27 -31v-328q0 -65 23 -119h-233q22 51 22 119v239q0 26 -12 48l-338 604q-10 19 -26 42z M1225 1199q18 -18 25 -41q21 22 46 41h-71z" />
<glyph unicode="Z" d="M60 0v49q68 0 163 138l555 859q24 38 24 78q0 75 -165 75h-135q-310 0 -355 -311l-49 5l40 355h1266v-49q-50 0 -81 -23q-6 -4 -77 -115l-555 -859q-21 -33 -21 -78q0 -75 164 -75h166q310 0 355 311l49 -5l-40 -355h-1304zM170 49h481q-7 7 -13 16q-2 3 -8 15 q-5 10 -6 15q-2 10 -2 13q0 1 -0.5 4.5t-0.5 5.5l-1 6q0 60 30 105l556 859q54 84 73 111h-459q10 -10 14 -16q2 -3 8 -15q5 -10 6 -15q2 -10 2 -13q0 -1 0.5 -4.5t0.5 -5.5l1 -6q0 -55 -32 -105l-556 -859q-50 -73 -94 -111zM170 1094q44 67 115 105h-103zM280 98l24 34 l557 860q39 62 39 132q0 18 -2 26h290l-24 -36l-555 -858q-37 -56 -37 -132q0 -18 2 -26h-294zM1217 49h103l12 105q-45 -68 -115 -105z" />
<glyph unicode="[" horiz-adv-x="792" d="M60 -70v1385h672v-49h-96q-192 0 -192 -168v-952q0 -168 192 -168h96v-48h-672zM109 -22h357q-71 57 -71 168v952q0 111 71 168h-357v-1288zM158 28v1189h210q-22 -51 -22 -119v-952q0 -67 22 -118h-210z" />
<glyph unicode="\" horiz-adv-x="942" d="M60 1248l101 70l721 -1318l-98 -70zM124 1233l677 -1231l18 13l-675 1231z" />
<glyph unicode="]" horiz-adv-x="792" d="M60 -3h96q192 0 192 168v933q0 168 -192 168h-96v49h672v-1367h-672v49zM326 -3h357v1269h-357q71 -57 71 -168v-933q0 -111 -71 -168zM424 46q22 51 22 119v933q0 68 -22 119h210v-1171h-210z" />
<glyph unicode="^" horiz-adv-x="681" d="M60 1298l274 271h14l274 -271l-88 -88l-59 57q-82 82 -134 82t-135 -82l-58 -57zM130 1298l18 -20l24 24q75 74 132 90q18 6 37 6q17 0 37 -6q56 -17 128 -86l4 -4l23 -24l19 20l-211 209z" />
<glyph unicode="_" horiz-adv-x="1752" d="M60 50h1632v-120h-1632v120zM109 0v-22h1534v22h-1534z" />
<glyph unicode="`" horiz-adv-x="660" d="M162 1554v24h312q11 0 26 -20q15 -30 87 -218h-101l-153 144q-70 67 -171 70zM357 1528l9 -8l140 -132h10q-42 108 -56 140h-103z" />
<glyph unicode="a" horiz-adv-x="1626" d="M60 342q0 422 822 422h108v110q0 347 -317 347q-87 0 -170 -19q-55 -12 -55 -40q0 -19 26 -47q43 -42 43 -104q0 -61 -43 -104t-104 -43t-104 43q-44 44 -44 105q0 51 32 95q69 95 206 133q106 30 213 30q701 0 701 -636v-417q0 -168 192 -168v-49h-480q-23 0 -50 40 t-36 34q-122 -96 -298 -96q-642 0 -642 364zM109 342q0 -59 19 -106q18 -45 64 -86q45 -40 112 -67q70 -26 168 -41l36 -5q-13 11 -28 27q-28 31 -44 65q-18 37 -30 92q-11 49 -11 121q0 204 112 313q39 38 49 39q-116 -18 -193 -46q-89 -32 -146 -78q-57 -47 -83 -103 q-25 -54 -25 -125zM158 342q0 58 21 104t69 86q50 41 132 70q10 4 32 10q-66 -110 -66 -270q0 -71 12 -131q11 -57 34 -103v-1q-31 7 -70 22q-61 24 -98 57q-34 30 -50 69q-16 38 -16 87zM272 1012q0 -42 28 -70q29 -29 70 -29q40 0 69 29t29 69t-29 69q-25 27 -35 54v2 q-1 2 -1 4q0 1 -1 4.5t-1 5.5q0 9 -1 12v4q-68 -33 -106 -88q-22 -31 -22 -66zM320 1012q0 19 14 38q15 22 37 40q14 -24 33 -44q15 -15 15 -35q0 -21 -14 -35t-35 -14t-34 14q-16 16 -16 36zM444 342q0 -315 258 -315q169 0 293 101q-5 165 -5 312v275h-148 q-398 0 -398 -373zM916 1196q123 -99 123 -322v-434q0 -145 5 -310l1 -24l10 -10q5 -7 21 -29q9 -13 15 -18h305q-71 57 -71 168v417q0 91 -13 162t-44 139q-28 61 -78 116q-45 49 -116 88q-64 35 -158 57zM1049 1096h1q63 -34 104 -78q42 -45 69 -104q28 -59 40 -127 q13 -66 13 -153v-417q0 -68 22 -119h-184q-3 4 -7.5 10.5t-7.5 10.5t-6 7v6q-5 165 -5 308v434q0 129 -39 222z" />
<glyph unicode="b" horiz-adv-x="1612" d="M60 0v49q184 0 192 147v859q0 144 -192 144v49h628q672 0 672 -238q0 -239 -380 -296v-6q572 -69 572 -348q0 -360 -672 -360h-820zM233 49h354v1150h-349q63 -51 63 -144v-861q-4 -94 -68 -145zM329 98q18 43 21 95v862q0 51 -18 95h206v-1052h-209zM636 49h244 q288 0 288 311q0 312 -384 324h-148v-635zM636 732h52q352 0 352 260q0 207 -352 207h-52v-467zM987 1183q63 -46 79 -84q23 -53 23 -96q0 -109 -43 -176q-19 -35 -55 -61q320 53 320 243q0 87 -132 133q-65 22 -117 30zM1094 60q4 0 11 0.5t10 1.5l65 11q150 25 236 97 q87 73 87 190q0 207 -409 281q125 -96 125 -307q0 -164 -89 -244q-20 -20 -36 -30zM1110 846q28 75 28 126q0 84 -24 138q148 -39 148 -101q0 -110 -152 -163zM1218 130q48 94 48 182q0 162 -44 248q232 -67 232 -200q0 -96 -78 -162q-71 -59 -158 -68z" />
<glyph unicode="c" horiz-adv-x="1338" d="M60 624q0 314 175 480t497 166q207 0 347 -67q181 -85 181 -222q0 -61 -43 -105q-44 -46 -103 -46q-60 0 -103 43t-43 103q0 39 20 73q24 49 24 64q0 36 -46 57q-108 51 -234 51q-207 0 -252 -159q-36 -127 -36 -438q0 -365 36 -446q67 -151 252 -151t336 85 q105 59 176 138l34 -35q-75 -83 -186 -146q-163 -91 -360 -91q-325 0 -499 166q-173 165 -173 480zM109 624q0 -293 158 -445q98 -94 245 -129q-47 41 -82 120t-35 426q0 345 38 480q21 71 69 118q-143 -38 -233 -125q-160 -151 -160 -445zM158 624q0 343 230 472 q-42 -142 -42 -472q0 -364 39 -472q-227 129 -227 472zM1017 970q0 -33 29 -62q28 -28 67 -28t69 30q29 29 29 71q0 107 -165 183q9 -15 12 -36q3 -27 -2 -42q-6 -18 -22 -50q-17 -34 -17 -66zM1066 973q0 18 4 23l8 16q20 42 26 64q58 -43 58 -95q0 -21 -15 -37t-34 -16 t-33 14t-14 31z" />
<glyph unicode="d" horiz-adv-x="1612" d="M60 0v49q184 0 192 147v835q0 168 -192 168v49h820q322 0 497 -166t175 -458q0 -293 -173 -458q-175 -166 -499 -166h-820zM230 1199q71 -57 71 -168v-837q-4 -94 -68 -145h354v1150h-357zM328 1150h210v-1052h-208q17 39 20 95v838q0 68 -22 119zM636 49h244 q183 0 235 127q53 130 53 448t-53 448q-52 127 -235 127h-244v-1150zM1104 74q145 35 241 127q158 150 158 423q0 272 -160 423q-96 91 -239 127q36 -34 56 -84q57 -138 57 -466t-57 -466q-20 -51 -56 -84zM1216 168q50 150 50 456q0 307 -49 454q58 -33 93 -66 q144 -138 144 -388q0 -252 -142 -388q-38 -36 -96 -68z" />
<glyph unicode="e" d="M60 624q0 314 175 480t497 166t497 -166t175 -480h-960q0 -365 36 -446q67 -151 252 -151q222 0 356 75q153 86 242 226l42 -26q-94 -148 -260 -243q-141 -81 -380 -81q-325 0 -499 166q-173 165 -173 480zM109 624q0 -293 158 -445q98 -94 245 -129q-49 43 -77 108 q-40 89 -40 466v49q0 311 57 445q12 27 30 52q7 9 22 24q-143 -38 -235 -125q-160 -151 -160 -445zM158 624q0 272 144 410q42 39 91 65q-47 -146 -47 -426v-49q0 -362 39 -472q-52 30 -85 62q-142 136 -142 410zM444 673h576q0 323 -36 401q-68 147 -252 147 q-182 0 -235 -123q-53 -127 -53 -425zM954 1196q47 -42 74 -101q41 -90 41 -422h285q-12 257 -159 396q-96 91 -241 127zM1082 1093q47 -28 80 -59q116 -110 139 -312h-183q-3 271 -36 371z" />
<glyph unicode="f" horiz-adv-x="1398" d="M60 0v49q192 0 192 168v814q0 168 -192 168v49h1248l40 -355l-49 -5q-45 311 -355 311h-308v-539h120q168 0 168 180h49v-408h-49q0 180 -168 180h-120v-395q0 -168 192 -168v-49h-768zM230 49h428q-71 57 -71 168v982h-357q71 -57 71 -168v-814q0 -111 -71 -168zM327 98 q23 55 23 119v814q0 64 -23 119h211v-933q0 -64 23 -119h-234zM870 636q34 -18 54 -42v84q-20 -24 -54 -42zM1161 1199q70 -37 115 -105l-12 105h-103z" />
<glyph unicode="g" horiz-adv-x="1458" d="M60 624q0 315 175 480q177 166 499 166q121 0 199 -31q81 -31 139 -31q62 0 70 38h50l21 -338h-49q-6 68 -81 179q-43 62 -133 98q-92 36 -216 36q-209 0 -254 -159q-36 -127 -36 -438q0 -365 36 -446q67 -151 250 -151q94 0 152 43t58 137v200q0 168 -192 168v49h680 v-49q-152 0 -152 -168v-322q-22 2 -35 2q-99 0 -243 -63q-106 -46 -268 -46q-323 0 -497 166q-173 165 -173 480zM109 624q0 -294 157 -445q98 -94 246 -129q-48 42 -77 108q-40 89 -40 466q0 317 38 452q21 71 69 118q-139 -37 -233 -125q-160 -151 -160 -445zM158 624 q0 273 144 409q34 33 86 63l-2 -7q-40 -143 -40 -465q0 -362 39 -472q-52 30 -85 62q-142 136 -142 410zM918 575q71 -57 71 -168v-200q0 -96 -53 -154q34 11 42 15q149 65 249 68v271q0 113 59 168h-368zM1016 526h182q-20 -54 -20 -119v-227q-69 -9 -146 -37q6 30 6 64 v200q0 68 -22 119zM1084 1160q23 -22 40 -46q14 -21 30 -47l-7 109q-9 -5 -17 -8q-15 -6 -46 -8z" />
<glyph unicode="h" horiz-adv-x="1752" d="M60 0v49q192 0 192 168v814q0 168 -192 168v49h718v-49q-142 0 -142 -168v-359h480v359q0 168 -142 168v49h718v-49q-192 0 -192 -168v-814q0 -168 192 -168v-49h-718v49q142 0 142 168v407h-480v-407q0 -168 142 -168v-49h-718zM230 49h418q-61 49 -61 168v814 q0 110 61 168h-418q71 -57 71 -168v-814q0 -111 -71 -168zM328 98q22 51 22 119v814q0 68 -22 119h228q-18 -40 -18 -119v-814q0 -67 18 -119h-228zM1104 49h418q-71 57 -71 168v814q0 111 71 168h-418q61 -58 61 -168v-814q0 -119 -61 -168zM1196 98q18 52 18 119v814 q0 79 -18 119h228q-22 -51 -22 -119v-814q0 -68 22 -119h-228z" />
<glyph unicode="i" horiz-adv-x="888" d="M60 0v49q192 0 192 168v545q0 168 -192 168v49h768v-49q-192 0 -192 -168v-545q0 -168 192 -168v-49h-768zM230 49h428q-71 57 -71 168v545q0 111 71 168h-428q71 -57 71 -168v-545q0 -111 -71 -168zM252 1383q0 79 56 135q57 57 136 57t136 -57q56 -56 56 -135t-56 -135 q-57 -57 -136 -57t-136 57q-56 56 -56 135zM301 1383q0 -59 42 -101t101 -42t101 42t42 101t-42 101t-101 42t-101 -42t-42 -101zM328 98q22 51 22 119v545q0 68 -22 119h232q-22 -51 -22 -119v-545q0 -68 22 -119h-232zM350 1383q0 38 28 66t66 28t66 -28t28 -66t-28 -66 t-66 -28t-66 28t-28 66z" />
<glyph unicode="j" horiz-adv-x="770" d="M0 0v49q266 0 266 285v428q0 168 -192 168v49h192q254 0 336 49h48v-612q0 -438 -390 -438q-153 0 -260 22zM156 30q49 -3 104 -3q63 0 114 12t94 40q44 29 72 73q29 46 45 110t16 154v557q-99 -43 -335 -43h-22q71 -57 71 -168v-428q0 -115 -41 -192q-40 -76 -118 -112z M266 1383q0 79 56 135q57 57 136 57t136 -57q56 -56 56 -135t-56 -135q-57 -57 -136 -57t-136 57q-56 56 -56 135zM291 77q17 22 27 41q46 86 46 216v428q0 66 -23 120q129 5 211 24v-490q0 -85 -14 -142q-13 -55 -39 -96q-24 -36 -58 -58q-35 -23 -78 -34q-33 -8 -72 -9z M315 1383q0 -59 42 -101t101 -42t101 42t42 101t-42 101t-101 42t-101 -42t-42 -101zM364 1383q0 38 28 66t66 28t66 -28t28 -66t-28 -66t-66 -28t-66 28t-28 66z" />
<glyph unicode="k" horiz-adv-x="1626" d="M60 0v49q192 0 192 168v814q0 168 -192 168v49h768v-49q-192 0 -192 -168v-629l532 678q28 35 28 62q0 54 -133 57v49h408v-49q-70 0 -127 -27q-73 -39 -130 -111l-232 -296q80 0 114 -24q35 -24 90 -139l208 -415q69 -138 202 -138v-49q-136 -22 -273 -22 q-251 0 -365 223l-164 322l-158 -199v-107q0 -168 192 -168v-49h-768zM230 49h428q-71 57 -71 168v814q0 111 71 168h-428q71 -57 71 -168v-814q0 -111 -71 -168zM328 98q22 51 22 119v814q0 68 -22 119h232q-22 -51 -22 -119v-814q0 -68 22 -119h-232zM824 562q7 -5 14 -17 l164 -322q50 -99 131 -148q79 -48 190 -48q60 0 144 7q-73 44 -117 131l-208 415q-38 81 -68 114l-6 7q-21 15 -86 15q-19 0 -30 10zM885 561l84 107q13 4 63 -6h6q22 -24 60 -104l209 -415q19 -37 41 -67h-25q-97 0 -165 41q-67 40 -112 129zM1224 1199q13 -14 18 -38 q25 22 50 38h-68z" />
<glyph unicode="l" horiz-adv-x="1358" d="M60 1199v49h766v-49q-190 0 -190 -168v-982h268q310 0 355 311l49 -5l-40 -355h-1206v49q175 0 190 127v855q0 168 -192 168zM230 1199q71 -57 71 -168v-855q0 -1 -0.5 -3t-0.5 -3q-9 -79 -63 -121h350v982q0 113 70 168h-427zM328 1150h232q-22 -51 -22 -119v-933h-206 q14 38 18 67v11v855q0 68 -22 119zM1121 49h103l12 105q-45 -68 -115 -105z" />
<glyph unicode="m" horiz-adv-x="2616" d="M60 0v49q192 0 192 168v814q0 168 -192 168v49h480q22 0 49 -32t32 -32q124 86 255 86q373 0 520 -160q135 160 344 160q624 0 624 -454v-599q0 -168 192 -168v-49h-748v49q172 0 172 168v575q0 429 -240 429q-186 0 -313 -151q73 -98 73 -279v-574q0 -168 172 -168v-49 h-728v49q172 0 172 168v575q0 429 -240 429q-123 0 -244 -89q4 -40 4 -101v-814q0 -168 172 -168v-49h-748zM230 49h422q-65 57 -65 168v814q0 68 -3 95q-5 45 -48 73h-306q71 -57 71 -168v-814q0 -111 -71 -168zM328 98q22 51 22 119v814q0 68 -22 119h192q1 -1 2 -3t2 -3 q10 -11 11 -24q3 -24 3 -89v-814q0 -67 21 -119h-231zM1041 1212q124 -109 124 -420v-575q0 -111 -65 -168h416q-65 57 -65 168v574q0 165 -63 251q-25 32 -28 35q-99 108 -319 135zM1153 1140q113 -33 171 -96q2 -2 5 -6t8.5 -11.5t10.5 -14.5q54 -72 54 -221v-574 q0 -67 21 -119h-230q21 53 21 119v575q0 222 -61 348zM1905 1212q124 -109 124 -420v-575q0 -111 -65 -168h422q-71 57 -71 168v599q0 66 -13 118t-44 100t-78 82q-53 38 -116 60q-75 26 -159 36zM2017 1140q4 -1 11.5 -4t20 -7t22.5 -8q37 -13 79 -44q41 -30 67 -70 q24 -37 37 -86q12 -47 12 -105v-599q0 -68 22 -119h-231q21 53 21 119v575q0 222 -61 348z" />
<glyph unicode="n" horiz-adv-x="1752" d="M60 0v49q192 0 192 168v814q0 168 -192 168v49h478q21 0 48 -33t32 -33q125 88 258 88q624 0 624 -454v-599q0 -168 192 -168v-49h-748v49q172 0 172 168v575q0 429 -240 429q-123 0 -244 -89q4 -40 4 -101v-814q0 -168 172 -168v-49h-748zM230 49h422q-65 57 -65 168 v814q0 68 -3 95q-1 6 1 18q-2 1 -6 5q-6 5 -31 35q-9 10 -15 15h-303q71 -57 71 -168v-814q0 -111 -71 -168zM328 98q22 51 22 119v814q0 68 -22 119h184q23 -28 24 -32q2 -17 2 -87v-814q0 -67 21 -119h-231zM1041 1212q124 -109 124 -420v-575q0 -111 -65 -168h422 q-71 57 -71 168v599q0 66 -13 118t-44 100t-78 82q-53 38 -116 60q-75 26 -159 36zM1153 1140q4 -1 11.5 -4t20 -7t22.5 -8q37 -13 79 -44q41 -30 67 -70q24 -37 37 -86q12 -47 12 -105v-599q0 -68 22 -119h-231q21 53 21 119v575q0 222 -61 348z" />
<glyph unicode="o" d="M60 624q0 314 175 480t497 166t497 -166t175 -480q0 -315 -173 -480q-175 -166 -499 -166q-325 0 -499 166q-173 165 -173 480zM109 624q0 -294 159 -446q92 -88 234 -125q-48 45 -69 119q-38 135 -38 452t38 452q21 73 69 118q-143 -38 -233 -125q-160 -151 -160 -445z M158 624q0 272 144 410q34 33 86 62l-2 -7q-40 -143 -40 -465t40 -465l2 -9q-49 28 -87 64q-143 137 -143 410zM444 624q0 -310 36 -438q45 -159 252 -159q183 0 235 127q53 130 53 470t-53 470q-52 127 -235 127q-207 0 -252 -159q-36 -127 -36 -438zM956 52 q145 35 241 127q158 150 158 445q0 294 -160 445q-96 92 -239 127q36 -34 56 -84q57 -138 57 -488t-57 -488q-20 -51 -56 -84zM1068 146q50 152 50 478q0 328 -49 476q58 -33 93 -66q144 -138 144 -410q0 -274 -142 -410q-38 -36 -96 -68z" />
<glyph unicode="p" horiz-adv-x="1612" d="M60 0v49q192 0 192 168v835q-8 147 -192 147v49h820q303 0 470 -118q202 -142 202 -362t-202 -338q-161 -94 -470 -94h-244v-119q0 -168 192 -168v-49h-768zM230 49h428q-71 57 -71 168v982h-354q64 -51 68 -145v-837q0 -112 -71 -168zM328 98q22 51 22 119v838 q-3 56 -20 95h208v-933q0 -68 22 -119h-232zM636 385h244q288 0 288 383q0 431 -288 431h-244v-814zM1080 1183q15 -12 46 -51q29 -39 48 -86q19 -48 31 -120t12 -158q0 -78 -12 -142q-12 -66 -31 -108q-21 -47 -48 -78q-18 -22 -43 -42q151 21 241 75q89 52 134 125 q45 72 45 170q0 195 -181 322q-96 67 -242 93zM1206 1097q46 -19 87 -47q161 -114 161 -282q0 -82 -38 -144q-37 -62 -116 -109q-37 -23 -92 -40l11 23q23 51 35 119q12 69 12 151q0 91 -12 166q-11 71 -34 130q-7 18 -14 33z" />
<glyph unicode="q" d="M60 624q0 312 175 480q177 166 497 166t497 -166q175 -168 175 -480q0 -315 -173 -480q-177 -166 -499 -166q-297 0 -297 -85q0 -34 81 -34l540 1q102 0 102 98h39q3 -18 3 -36q0 -210 -236 -210h-650q0 237 174 294q-153 40 -255 138q-173 165 -173 480zM109 624 q0 -294 159 -446q92 -88 234 -125q-48 45 -69 119q-38 135 -38 452t38 452q21 73 69 118q-143 -38 -233 -125q-160 -151 -160 -445zM158 624q0 272 144 410q34 33 86 62l-2 -7q-40 -143 -40 -465t40 -465l2 -9q-49 28 -87 64q-143 137 -143 410zM364 -239h600q115 0 160 61 q-30 -12 -68 -12h-282h-258q-40 0 -65 7q-48 13 -60 51q-21 -46 -27 -107zM444 624q0 -310 36 -438q45 -159 252 -159q183 0 235 127q53 130 53 470t-53 470q-52 127 -235 127q-207 0 -252 -159q-36 -127 -36 -438zM732 1221zM956 52q145 35 241 127q158 150 158 445 q0 294 -160 445q-96 92 -239 127q36 -34 56 -84q57 -138 57 -488t-57 -488q-20 -51 -56 -84zM1068 146q50 152 50 478q0 328 -49 476q58 -33 93 -66q144 -138 144 -410q0 -274 -142 -410q-38 -36 -96 -68z" />
<glyph unicode="r" horiz-adv-x="1626" d="M60 0v48q192 0 192 168v836q-7 146 -192 146v50h720q301 0 470 -119q202 -142 202 -290q0 -252 -356 -393q92 -5 128 -38l223 -322q27 -38 149 -38v-48q-136 -22 -273 -22q-241 0 -365 223l-128 230h-194v-215q0 -168 192 -168v-48h-768zM230 48h428q-71 57 -71 168v982 h-354q64 -51 68 -145v-837q0 -112 -71 -168zM328 98q22 51 22 118v838q-3 57 -20 96h208v-934q0 -67 22 -118h-232zM636 480h144q288 0 288 369q0 349 -288 349h-144v-718zM879 442l122 -217q56 -100 135 -149t187 -49q62 0 113 4q-10 7 -18 15l-11 12l-219 316 q-29 21 -95 24q-19 2 -31 12q-12 11 -15 28q-3 19 5 33q9 15 26 21q168 66 246 153q79 88 79 194q0 123 -181 250q-90 63 -224 90q5 -3 26 -25q31 -34 49 -72q21 -43 32 -100q12 -60 12 -133q0 -75 -12 -137q-13 -64 -31 -104q-21 -44 -48 -76q-27 -31 -56 -51 q-27 -17 -64 -30l-12 -4zM950 416q29 11 48 25q2 -21 8 -35q10 -21 24 -33q39 -24 60 -25q48 -3 63 -10l182 -262h-12q-93 0 -161 42q-69 44 -118 131zM1102 556q8 13 16 31q22 48 36 116q12 66 12 146q0 81 -13 143q-13 60 -29 96q44 -21 69 -39q161 -113 161 -210 q0 -87 -66 -161q-60 -66 -186 -122z" />
<glyph unicode="s" horiz-adv-x="1272" d="M60 0l40 360l50 -5q24 -174 213 -279q89 -49 213 -49q305 0 305 167q0 114 -174 204l-339 154q-127 57 -192 142q-62 82 -62 187q0 185 148 288q148 101 370 101q118 0 198 -30q81 -30 136 -30q53 0 59 36l44 5l27 -339l-50 -4q-6 71 -72 169q-42 62 -129 103 q-86 41 -213 41q-238 0 -238 -157q0 -79 66 -133q49 -40 136 -81l360 -168q256 -120 256 -332q0 -372 -636 -372q-86 0 -167 24q-95 28 -175 78q-36 22 -60 22q-55 0 -66 -107zM125 138q12 7 31 11q20 3 36 0q-31 35 -56 85zM163 881q0 -90 52 -158q57 -74 173 -127 l340 -154q202 -106 202 -248q0 -88 -60 -140q80 18 135 46q57 28 91 67q35 40 51 83q17 46 17 100q0 87 -56 160t-172 127l-360 168q-98 47 -147 88q-83 67 -83 171q0 67 32 112q-47 -19 -88 -48q-127 -88 -127 -247zM212 881v1q0 120 84 191v-9q0 -126 102 -209 q60 -49 156 -94l361 -169q106 -49 155 -112q44 -57 44 -130v-1q0 -46 -13 -82q-14 -37 -41 -67q-29 -32 -77 -56l-9 -4q5 22 5 54q0 88 -58 161q-57 72 -171 131l-341 155q-106 47 -155 111q-42 56 -42 129zM966 1160q28 -24 49 -56q7 -10 19 -28l-8 97q-17 -8 -30 -10 q-2 0 -30 -3z" />
<glyph unicode="t" d="M50 893l40 355h1284l40 -355l-49 -5q-45 311 -365 311h-76v-982q0 -168 192 -168v-49h-768v49q192 0 192 168v982h-76q-320 0 -365 -311zM122 1092q46 68 118 107h-106zM518 49h428q-71 57 -71 168v982h-286v-982q0 -111 -71 -168zM616 98q22 51 22 119v933h188v-933 q0 -68 22 -119h-232zM1224 1199q72 -39 118 -107l-12 107h-106z" />
<glyph unicode="u" horiz-adv-x="1722" d="M30 1199v49h480q96 0 96 -217v-742q0 -262 240 -262q123 0 244 89q-4 58 -4 101v1004q253 0 336 49h48v-1053q0 -168 192 -168v-49h-480q-22 0 -50 31t-33 31q-123 -84 -253 -84q-624 0 -624 454v599q0 168 -192 168zM200 1199q71 -57 71 -168v-599q0 -59 13 -114 q13 -53 40 -98t72 -80q43 -34 107 -60q63 -26 145 -39q-91 79 -91 248v742q0 101 -21 145q-11 23 -26 23h-310zM298 1150h196q14 -39 14 -119v-742q0 -99 28 -170l-15 6q-57 22 -95 53q-37 31 -60 68q-24 39 -35 84q-11 49 -11 102v599q0 68 -22 119zM1135 217q0 -56 3 -97 q2 -26 30 -56q9 -11 18 -15h306q-71 57 -71 168v999q-91 -40 -286 -44v-955zM1184 217v908q111 4 188 23v-931q0 -68 22 -119h-190q-15 16 -17 26q-3 39 -3 93z" />
<glyph unicode="v" horiz-adv-x="1429" d="M30 1199v49h456q81 0 146 -178l266 -654l264 654q17 42 17 52q0 77 -122 77v49h312v-49q-107 -3 -158 -138l-286 -711l-147 -372h-61q-53 0 -71 46l-59 154l-355 883q-34 85 -87 117q-36 21 -115 21zM198 1199q48 -42 79 -119l355 -884l59 -154q4 -10 8 -12q6 -3 18 -3 h27l136 341v2q-18 7 -27 28l-266 655q-39 106 -79 137q-9 7 -22 9h-288zM298 1150h182q28 -24 61 -115l267 -655q7 -16 14 -24l-101 -254l-43 112l-356 884q-16 37 -24 52zM1201 1199q12 -14 17 -26q13 16 24 26h-41z" />
<glyph unicode="w" horiz-adv-x="2197" d="M30 1199v49h456q82 0 146 -177l266 -654l181 447l-79 197q-34 85 -87 117q-36 21 -115 21v49h731v-49q-139 -2 -139 -80q0 -22 10 -48l266 -654l264 654q17 42 17 51q0 77 -122 77v49h312v-49q-107 -3 -158 -138l-286 -710l-147 -373h-61q-53 0 -71 47l-59 153l-250 620 l-180 -447l-147 -373h-61q-53 0 -71 47l-59 153l-355 883q-34 85 -87 117q-36 21 -115 21zM198 1199q48 -42 79 -119l355 -884l59 -154q4 -10 8 -12q6 -3 18 -3h27l136 341v2q-18 7 -27 28l-266 655q-39 106 -79 137q-9 7 -22 9h-288zM298 1150h182q28 -24 61 -115l267 -655 q7 -16 14 -24l-101 -254l-43 112l-356 884q-16 37 -24 52zM966 1199q48 -42 79 -119l355 -884l59 -154q4 -10 8 -12q6 -3 18 -3h27l136 341v2q-18 7 -27 28l-266 655q-13 35 -13 65q0 50 30 81h-406zM1066 1150h229q-3 -15 -3 -31q0 -38 17 -84l267 -655q7 -16 14 -24 l-101 -254l-43 112l-356 884q-16 37 -24 52zM1969 1199q12 -14 17 -26q13 16 24 26h-41z" />
<glyph unicode="x" horiz-adv-x="1436" d="M60 0v49q71 0 106 5q56 12 146 133l244 333l-274 541q-38 72 -92 113q-32 25 -110 25v49h456q83 -5 170 -178l133 -262l187 262q39 54 39 60q0 69 -129 69v49h388v-49q-78 0 -130 -27q-60 -36 -114 -111l-216 -303l289 -571q71 -138 223 -138v-49h-748v49q117 5 117 70 q0 25 -17 59l-148 292l-214 -292q-34 -46 -34 -76q0 -53 108 -53h8v-49h-388zM238 1199q51 -45 87 -116l447 -883q22 -43 22 -81q0 -41 -26 -70h439q-60 42 -97 116l-448 883q-37 74 -64 105q-37 43 -63 46h-297zM256 49h43q-11 16 -13 29q-17 -18 -30 -29zM343 1150h187 q12 -6 31 -29q24 -28 58 -95l447 -884q13 -25 26 -44h-250q1 7 1 21q0 49 -27 103l-447 884q-8 16 -26 44zM1089 1199q14 -16 19 -31q20 19 38 31h-57z" />
<glyph unicode="y" horiz-adv-x="1513" d="M30 1199v49h478q78 0 170 -178l256 -445l256 445q16 28 16 55q0 72 -151 74v49h398v-49q-133 0 -213 -138l-266 -463v-381q0 -168 192 -168v-49h-768v49q192 0 192 168v239l-337 605q-76 138 -223 138zM196 1199q59 -40 100 -114l338 -605q6 -10 6 -24v-239 q0 -111 -71 -168h427q-70 57 -70 168v359q-22 3 -34 24l-257 447q-32 62 -60 98q-28 37 -51 49q-8 5 -16 5h-312zM312 1150h190q12 -7 34 -35q28 -38 56 -91l257 -448q10 -19 27 -31v-328q0 -65 23 -119h-233q22 51 22 119v239q0 26 -12 48l-338 604q-10 19 -26 42z M1225 1199q18 -18 25 -41q21 22 46 41h-71z" />
<glyph unicode="z" d="M60 0v49q68 0 163 138l555 859q24 38 24 78q0 75 -165 75h-135q-310 0 -355 -311l-49 5l40 355h1266v-49q-50 0 -81 -23q-6 -4 -77 -115l-555 -859q-21 -33 -21 -78q0 -75 164 -75h166q310 0 355 311l49 -5l-40 -355h-1304zM170 49h481q-7 7 -13 16q-2 3 -8 15 q-5 10 -6 15q-2 10 -2 13q0 1 -0.5 4.5t-0.5 5.5l-1 6q0 60 30 105l556 859q54 84 73 111h-459q10 -10 14 -16q2 -3 8 -15q5 -10 6 -15q2 -10 2 -13q0 -1 0.5 -4.5t0.5 -5.5l1 -6q0 -55 -32 -105l-556 -859q-50 -73 -94 -111zM170 1094q44 67 115 105h-103zM280 98l24 34 l557 860q39 62 39 132q0 18 -2 26h290l-24 -36l-555 -858q-37 -56 -37 -132q0 -18 2 -26h-294zM1217 49h103l12 105q-45 -68 -115 -105z" />
<glyph unicode="{" horiz-adv-x="689" d="M60 624q0 31 43 74q45 46 51 62q8 25 8 53q0 53 -16 139t-16 104q0 78 76 164q77 86 156 86h267v-48h-59q-47 0 -82 -32q-34 -31 -34 -90q0 -10 13 -128t13 -154q0 -43 -49 -77t-154 -52q-107 -18 -137 -44q-31 -27 -31 -57q0 -31 31 -59q33 -30 137 -49q103 -19 154 -53 q49 -33 49 -71q0 -42 -13 -162t-13 -130q0 -58 34 -83t82 -25h59v-50h-267q-80 0 -156 81q-76 80 -76 162q0 16 16 103t16 146q0 46 -20 72q-23 28 -39 44q-43 44 -43 74zM178 185q0 -60 64 -129q63 -66 120 -66h82q-28 28 -36 72q-3 18 -4 38q0 3 14 134q13 117 13 158 q0 10 -27 30q-43 29 -136 46q-35 6 -62 14q5 -22 6 -48q0 -60 -18 -154q-16 -91 -16 -95zM178 1056q0 -5 16 -95q18 -93 18 -148q0 -24 -8 -53q29 7 64 14q96 17 135 44q27 19 28 36q0 33 -13 149q-14 131 -14 133q0 77 46 122h-88q-56 0 -119 -70q-65 -73 -65 -132z M228 185q0 9 14 85q16 87 18 150q85 -16 116 -38l6 -4q-2 -41 -12 -138q-14 -134 -14 -142q2 -36 4 -46l3 -12h-1q-37 0 -84 50q-50 53 -50 95zM228 1056q0 40 52 98q0 1 2 3q47 48 77 51h3h4q-10 -31 -10 -72q0 -6 14 -138q10 -99 12 -135q-1 -1 -7 -5q-32 -21 -115 -36 q-1 58 -18 148q-14 74 -14 86z" />
<glyph unicode="|" horiz-adv-x="504" d="M60 -58v1364h384v-1364h-384zM109 -10h286v1268h-286v-1268zM158 40v1168h188v-1168h-188z" />
<glyph unicode="}" horiz-adv-x="595" d="M60 -8h58q48 0 82 25t34 83q0 6 -12 130q-13 135 -13 162q0 37 49 71t107 53q55 18 89 49q32 29 32 59t-32 57q-30 26 -89 44q-61 19 -107 52q-49 35 -49 77l25 282q0 59 -34 90q-35 32 -82 32h-58v48h174q78 0 155 -86t77 -164q0 -18 -16 -104t-16 -125t7 -61 q8 -25 51 -68t43 -73q0 -29 -35 -66q-29 -30 -50 -57q-16 -20 -16 -72q0 -55 16 -142t16 -103q0 -82 -76 -162q-76 -81 -156 -81h-174v50zM238 1258q46 -45 46 -122l-26 -282q0 -14 28 -36q44 -30 104 -50q-6 32 -6 62q0 35 17 126t17 100q0 58 -63 129q-63 70 -117 73z M244 -9q53 6 113 69q61 64 61 125q0 6 -17 99t-17 130q0 34 4 58q-62 -21 -96 -45t-34 -35q0 -34 12 -159q14 -129 14 -139q0 -63 -40 -103zM307 863v1q2 40 13 145q12 113 12 126q36 -47 36 -79q0 -11 -14 -84q-15 -79 -18 -129zM308 378q6 5 29 18q3 -49 17 -130 q14 -79 14 -81q0 -35 -36 -79z" />
<glyph unicode="~" horiz-adv-x="1370" d="M60 344l53 283q21 113 141 220q109 97 242 97q83 0 166 -46q79 -44 134 -99q56 -56 128 -100q74 -45 148 -45t117 48q43 50 55 115l17 93l49 -4l-53 -284q-19 -106 -143 -219q-106 -97 -237 -97q-84 0 -165 45q-77 43 -134 100q-53 53 -130 99t-152 46q-137 0 -170 -161 l-20 -93zM157 596q57 49 139 49q90 0 178 -53q79 -47 138 -106q51 -51 124 -92q72 -40 141 -40q109 0 204 86q110 99 128 192l5 24q-55 -52 -142 -52q-86 0 -174 54q-78 48 -136 106q-51 51 -124 92q-69 39 -142 39q-113 0 -210 -85q-107 -95 -125 -192zM244 690 q31 45 75 84q81 72 177 72q60 0 118 -33q69 -39 113 -83q68 -66 145 -114q98 -60 200 -60q29 0 52 4q-29 -42 -76 -84q-78 -72 -171 -72h-1q-58 0 -115 32q-67 38 -113 84q-62 62 -149 114q-99 60 -203 60q-29 0 -52 -4z" />
<glyph unicode="&#xa1;" horiz-adv-x="525" d="M60 -56q0 12 1 19q33 404 107 733h178l120 -846h-306q-33 0 -48 4q-52 13 -52 90zM72 1078q0 80 56 136t136 56q79 0 135 -56q57 -57 57 -136q0 -78 -57 -135t-135 -57q-79 0 -136 57q-56 56 -56 135zM109 -56q0 -18 3 -27q4 -13 14 -15q12 -2 34 -2h250l-106 748h-97 q-67 -312 -97 -690q-1 -7 -1 -14zM120 1078q0 -57 43 -100q42 -42 101 -42q58 0 100 42t42 100q0 59 -42 101q-43 43 -100 43q-58 0 -101 -43t-43 -101zM158 -46q29 358 88 644h15l92 -650h-194h-1v6zM170 1078q0 40 27 67t67 27q39 0 66 -27q28 -28 28 -67q0 -38 -28 -66 t-66 -28q-39 0 -67 28q-27 27 -27 66z" />
<glyph unicode="&#xa2;" horiz-adv-x="1338" d="M60 644q0 297 175 466q163 159 475 162v68h49v-68q191 -5 320 -66q181 -85 181 -222q0 -62 -43 -106q-43 -45 -103 -45t-103 43t-43 102q0 40 20 74q24 49 24 64q0 35 -46 56q-98 46 -207 51v-1175q168 6 309 84q102 56 176 138l34 -35q-80 -88 -186 -146 q-155 -85 -333 -91v-64h-49v64q-310 6 -477 166q-173 165 -173 480zM109 644q0 -293 158 -445q98 -94 246 -129q-12 10 -17 16q-18 18 -36 46q-15 24 -25 46q-40 89 -40 466q0 302 38 437q9 32 23 57q14 26 38 51l10 10q-143 -36 -235 -125q-160 -154 -160 -430zM158 644 q0 256 145 395q36 35 85 63l-2 -8q-40 -143 -40 -450q0 -362 39 -472q-52 30 -85 62q-142 136 -142 410zM444 644q0 -365 36 -446q62 -141 230 -150v1175q-188 -8 -230 -155q-36 -126 -36 -424zM1017 978q0 -39 29 -68q28 -28 68 -28t68 30q29 30 29 72q0 105 -153 177 l-12 5l4 -7q10 -19 10 -41q0 -26 -30 -90q-13 -22 -13 -50zM1066 978q0 11 9 30q25 56 29 70q58 -43 58 -94q0 -22 -16 -38q-15 -15 -32 -15q-20 0 -34 14t-14 33z" />
<glyph unicode="&#xa4;" horiz-adv-x="943" d="M60 1135l72 65l132 -134q88 69 206 69t208 -69l140 141l65 -69l-137 -139q68 -89 68 -207q0 -119 -68 -206l132 -132l-72 -65l-128 129q-90 -69 -208 -69t-206 69l-127 -129l-65 72l123 124q-69 90 -69 207t69 207zM223 792q0 -103 73 -175q74 -72 175 -72q102 0 174 72 q73 73 73 175t-73 175q-72 72 -174 72q-101 0 -175 -72q-73 -72 -73 -175z" />
<glyph unicode="&#xa5;" horiz-adv-x="1483" d="M60 1199v49h478q90 0 170 -178l226 -445l226 445q16 31 16 55q0 72 -151 74v49h398v-49q-143 0 -213 -138l-236 -463v-151h307l-12 -70h-295v-71h307l-12 -70h-295v-19q0 -168 192 -168v-49h-768v49q192 0 192 168v19h-325l12 70h313v71h-325l12 70h313v9l-307 605 q-70 138 -223 138zM229 1199q59 -40 97 -116l308 -605q6 -11 6 -22v-239q0 -111 -71 -168h427q-70 55 -70 168v359q-25 3 -36 27l-226 447q-33 74 -62 107q-31 35 -52 41q-3 1 -12 1h-309zM344 1150h192h1l9 -6q11 -11 18 -19q26 -29 56 -97l226 -448q10 -21 30 -35v-328 q0 -65 23 -119h-233q22 51 22 119v239q0 24 -10 44l-308 606q-8 16 -26 44zM1195 1199q15 -15 23 -39q16 18 44 39h-67z" />
<glyph unicode="&#xa6;" horiz-adv-x="504" d="M60 -70v638h384v-638h-384zM60 960v608h384v-608h-384zM109 -22h286v541h-286v-541zM109 1009h286v510h-286v-510zM158 28v442h188v-442h-188zM158 1058v412h188v-412h-188z" />
<glyph unicode="&#xa7;" horiz-adv-x="1038" d="M60 642q0 233 278 292q-142 134 -142 258q0 263 343 263q104 0 208 -71q105 -72 105 -164q0 -59 -35 -97q-36 -39 -83 -39q-51 0 -84 42t-33 91q0 31 16 66q17 37 17 67q0 71 -110 71q-150 0 -150 -77q0 -112 119 -215l325 -268q144 -120 144 -257q0 -233 -278 -292 q142 -134 142 -258q0 -263 -343 -263q-104 0 -208 71q-105 72 -105 164q0 58 36 97t88 39t86 -42q34 -41 34 -91q0 -28 -19 -66t-19 -67q0 -71 109 -71q147 0 147 77q0 111 -110 215l-331 268q-147 119 -147 257zM109 642q0 -114 129 -219l332 -269q128 -119 128 -252 q0 -8 -4 -26q98 50 98 178q0 104 -126 222l-28 27l-314 252q-102 83 -102 243l2 26q2 14 4 22q-36 -20 -60 -45q-59 -61 -59 -159zM158 642q0 52 20 90q18 -138 116 -216l312 -250l27 -26q111 -105 111 -186q0 -34 -10 -64q-30 106 -131 201l-335 270q-110 89 -110 181z M234 26q0 -66 84 -123q13 -10 26 -17v6v4q0 44 24 90q13 25 13 43q0 31 -23 60q-20 24 -48 24q-30 0 -52 -23q-24 -26 -24 -64zM246 1192q0 -104 126 -222l28 -28l314 -252q102 -81 102 -232v-8q0 -2 -0.5 -6.5t-0.5 -5.5q0 -7 -1 -12q0 -2 -1 -7t-1 -7q-1 -2 -2.5 -6 t-1.5 -6q37 20 62 45q59 61 59 159q0 113 -127 219l-324 269q-138 120 -138 252q0 8 4 26q-98 -50 -98 -178zM272 798q0 -138 83 -205l313 -252q99 17 99 117q0 127 -83 194l-314 252q-98 -17 -98 -106zM284 25q0 21 10 31q8 8 16 8q6 0 10 -6q12 -16 12 -29q0 -6 -8 -20 q-10 -20 -15 -35q-25 26 -25 51zM294 1192q0 34 10 64q31 -106 142 -202l325 -268q109 -90 109 -182q0 -51 -19 -88q-18 134 -116 213l-313 251l-26 26q-112 106 -112 186zM666 1217q0 -33 22 -61q7 -10 20 -17q8 -4 12 -5q2 -1 14 -1q26 0 47 23q23 26 23 64q0 66 -84 123 l-22 14v-1v-2v-2v-2q0 -45 -20 -88q-12 -26 -12 -45zM715 1216q0 11 7 26q8 18 11 26q21 -24 21 -48q0 -22 -10 -32q-6 -6 -13 -6q-16 10 -16 34z" />
<glyph unicode="&#xa8;" horiz-adv-x="1440" d="M248 1450q0 59 42 101q43 43 102 43t102 -43q42 -42 42 -101q0 -60 -42 -102t-102 -42t-102 42t-42 102zM297 1450q0 -39 28 -67q29 -29 67 -29t67 29q28 28 28 67q0 38 -28 66t-67 28t-67 -28t-28 -66zM346 1450q0 18 14 32t32 14t32 -14t14 -32q0 -19 -14 -33 q-13 -13 -32 -13t-32 13q-14 14 -14 33zM864 1450q0 58 43 101t101 43q59 0 102 -43q42 -42 42 -101q0 -60 -42 -102t-102 -42q-59 0 -101 42q-43 43 -43 102zM914 1450q0 -39 28 -67q29 -29 66 -29q38 0 67 29t29 67q0 37 -29 66q-28 28 -67 28q-38 0 -66 -28t-28 -66z M962 1450q0 18 14 32t32 14q19 0 33 -14q13 -13 13 -32q0 -20 -13 -33t-33 -13q-19 0 -32 13q-14 14 -14 33z" />
<glyph unicode="&#xa9;" horiz-adv-x="1873" d="M60 500q0 217 116 404q114 184 318 294q203 110 443 110q239 0 442 -110q204 -110 318 -294q116 -187 116 -404t-116 -404q-114 -184 -318 -294q-203 -110 -442 -110q-240 0 -443 110q-204 110 -318 294q-116 187 -116 404zM109 500q0 -205 109 -378q110 -175 300 -278 q188 -102 419 -102t419 102q191 104 299 278q109 176 109 378t-109 378q-107 173 -299 277q-190 103 -419 103t-419 -103q-191 -104 -300 -277t-109 -378zM403 499q0 233 140 367q139 132 397 132q168 0 278 -53q145 -69 145 -178q0 -47 -35 -84q-34 -36 -82 -36t-82 34 t-34 82q0 33 15 59q19 39 19 51q0 29 -36 45q-88 41 -188 41q-162 0 -200 -127q-30 -100 -30 -326q0 -280 30 -346q54 -121 201 -121t269 68q82 46 140 111l28 -28q-62 -68 -149 -117q-130 -73 -289 -73q-260 0 -398 132q-139 133 -139 367zM452 499q0 -212 124 -331 q62 -61 158 -91q-22 27 -39 63q-33 76 -33 366q0 235 31 340q12 43 36 74q-91 -30 -152 -90q-125 -119 -125 -331zM501 499q0 193 109 296q16 14 25 21q-23 -115 -23 -310q0 -217 20 -322q-8 6 -22 20q-109 104 -109 295zM1178 763q0 -27 20 -47t48 -20t47 21q21 23 21 50 q0 73 -104 127q2 -6 2 -12q0 -3 2 -8v-2q0 -4 -2 -12v-1l-2 -9q-2 -4 -3 -8q-3 -8 -19 -44q-10 -18 -10 -35zM1228 763q0 8 2 11q2 2 3 4l13 31q19 -22 19 -42q0 -9 -7 -16q-6 -6 -12 -6q-8 0 -13 5t-5 13z" />
<glyph unicode="&#xaa;" horiz-adv-x="1318" d="M60 915q0 133 142 235q143 102 382 102q114 0 225 -47v63q0 270 -243 270q-149 0 -290 -76l-20 32q149 82 310 82q542 0 542 -496v-325q0 -131 150 -131v-38h-374q-20 0 -42 30q-23 30 -26 30q-121 -78 -232 -78q-238 0 -381 107t-143 240zM109 915q0 -109 123 -201 q59 -44 138 -68q-60 74 -60 269q0 152 36 218q10 17 23 35l5 5t4 5q-82 -22 -147 -68q-122 -87 -122 -195zM158 915q0 83 102 155q10 8 16 12q-14 -62 -14 -167t14 -171l-14 10q-104 77 -104 161zM360 915q0 -181 48 -239q59 -69 176 -69q131 0 228 79q-3 102 -3 203v276 q-109 49 -225 49q-136 0 -194 -105q-30 -54 -30 -194zM788 1498q70 -82 70 -230v-63v-316q0 -68 4 -202q0 -15 20 -41q1 -1 3.5 -5t4.5 -6h208q-10 12 -18 27q-8 17 -11 26q-3 12 -6 26q-3 16 -3 22v19v325q0 57 -10 117q-9 54 -28 101t-52 86q-32 38 -77 68q-38 25 -105 46 zM894 1391q18 -14 38 -38q27 -33 44 -73q19 -43 26 -91q8 -44 8 -109v-326l2 -21q0 -12 2 -25q1 -11 5 -24h-105l-4 8l-2 65q-1 46 -1 132v379q0 70 -13 123z" />
<glyph unicode="&#xab;" horiz-adv-x="972" d="M60 603v42l444 448v-179l-202 -156q-81 -63 -81 -134t81 -134l202 -156v-179zM109 623l87 -87q-24 42 -24 88t24 88l-87 -87v-2zM304 426l151 -152v36zM304 822l151 116v36zM468 603v42l444 448v-179l-202 -156q-81 -63 -81 -134t81 -134l202 -156v-179zM517 623l87 -87 q-24 42 -24 88t24 88l-87 -87v-2zM712 426l151 -152v36zM712 822l151 116v36z" />
<glyph unicode="&#xad;" horiz-adv-x="980" d="M60 576l12 96h848l-12 -96h-848z" />
<glyph unicode="&#xae;" horiz-adv-x="1873" d="M60 500q0 217 116 404q114 184 318 294q203 110 443 110q239 0 442 -110q204 -110 318 -294q116 -187 116 -404t-116 -404q-114 -184 -318 -294q-203 -110 -442 -110q-240 0 -443 110q-204 110 -318 294q-116 187 -116 404zM109 500q0 -205 109 -378q110 -175 300 -278 q188 -102 419 -102t419 102q191 104 299 278q109 176 109 378t-109 378q-107 173 -299 277q-190 103 -419 103t-419 -103q-191 -104 -300 -277t-109 -378zM352 16v39q124 0 124 134v659q-6 117 -124 117v39h546q240 0 376 -95q162 -114 162 -227q0 -196 -286 -309 q73 -3 104 -31l178 -257q21 -30 119 -30v-39q-115 -37 -207 -37q-191 0 -292 179l-114 203h-155v-172q0 -134 123 -134v-39h-554zM489 64h281q-10 14 -14 22q-9 17 -14 36q-4 17 -6 31q-1 4 -1.5 17t-0.5 19v766h-244q10 -13 18 -30q8 -18 10 -27l2.5 -12.5t1.5 -8.5 q1 -7 3 -29v-659q0 -62 -22 -103q-4 -8 -14 -22zM566 114q8 31 8 75v662l-4 32q-3 20 -4 23h119v-718q2 -28 3 -40q1 -14 6 -34h-128zM783 400h115q230 0 230 290q0 275 -230 275h-115v-565zM992 364l102 -182q44 -77 105 -116q60 -38 145 -38q33 0 72 6l-6 4l-4 4l-6 6 l-8 9l-175 251l-1 1q0 1 -1 1t-2 1q-20 10 -65 13q-18 2 -30 12q-13 11 -16 29q-3 19 5 33t25 20q255 100 255 264q0 88 -141 187q-63 43 -140 63q19 -20 34 -52q16 -32 27 -82t11 -108q0 -55 -10 -110q-9 -49 -26 -85q-15 -31 -40 -61q-22 -26 -47 -42q-21 -13 -53 -25z M1084 300h1q2 -1 4 -2.5t5.5 -4t5.5 -3.5q6 -4 10 -6l8 -4q4 -2 12 -3q10 -2 16 -2q28 -2 38 -5l134 -192q-52 4 -93 30q-48 30 -87 98zM1189 266v2h1v-2q-1 -1 -1 0zM1198 503q11 31 18 67q10 53 10 120q0 68 -11 118q-4 18 -6 26l9 -5l25 -19q14 -11 31 -26q18 -17 32 -32 q13 -14 22 -34q10 -22 10 -36q0 -102 -140 -179z" />
<glyph unicode="&#xaf;" horiz-adv-x="1188" d="M60 1128l12 120h1056l-12 -120h-1056zM114 1177h958l2 22h-958z" />
<glyph unicode="&#xb0;" horiz-adv-x="600" d="M60 1328q0 93 76 167q74 73 164 73t164 -73q76 -74 76 -167t-76 -167q-74 -73 -164 -73t-164 74q-76 76 -76 166zM109 1328q0 -48 29 -92q-7 47 -7 92q0 8 0.5 20t0.5 16t4 40l2 17q-29 -44 -29 -93zM180 1328q0 -216 120 -216t120 216t-120 216t-120 -216zM462 1235 q29 44 29 93q0 50 -29 94q7 -49 7 -94q0 -8 -0.5 -20t-0.5 -16t-4 -40z" />
<glyph unicode="&#xb1;" horiz-adv-x="1188" d="M60 264l12 120h1056l-12 -120h-1056zM60 1032l5 96h480v492l96 -5v-487h480l-5 -96h-475v-473l-96 5v468h-485zM114 313h958l2 22h-958z" />
<glyph unicode="&#xb2;" horiz-adv-x="1022" d="M60 550v44q24 0 55 20q28 17 89 102l288 396q147 202 147 307q0 110 -157 110q-198 0 -266 -127q-31 -59 -31 -129h-29v180q155 120 326 120q420 0 420 -302q0 -113 -108 -261l-221 -303q-23 -30 -23 -53q0 -60 134 -60h19q212 0 230 259h29v-303h-902zM173 600h345 q-18 16 -18 54q0 24 14 50q14 23 20 32l221 302q97 133 97 233q0 45 -10 79q-11 37 -31 66q-19 27 -59 52q-35 22 -88 36q18 -29 22 -60l2 -25q0 -120 -156 -336l-288 -397q-38 -53 -71 -86zM276 648l7 10l289 396q165 228 165 366q20 -14 34 -33q17 -24 25 -51q8 -30 8 -65 q0 -84 -88 -203l-222 -304q-18 -28 -24 -39l-9 -21q-1 -2 -5 -16q-2 -8 -4 -22v-12v-6h-176zM874 600h40v39q-16 -20 -40 -39z" />
<glyph unicode="&#xb3;" horiz-adv-x="969" d="M60 642v199h29q10 -263 266 -263q247 0 247 265q0 267 -215 267q-16 0 -23.5 6.5t-6.5 19.5q98 8 145 65q43 52 43 141q0 187 -187 187q-101 0 -158 -51q-56 -51 -61 -186h-29v182q137 99 248 99q436 0 436 -224q0 -177 -300 -225q416 -54 416 -281q0 -309 -555 -309 q-155 0 -295 108zM538 1512q56 -62 56 -170q0 -96 -42 -157q46 11 79 25q32 14 56 31q20 15 35 34q11 14 18 36q6 18 6 38q0 61 -50 103t-158 60zM562 596q77 12 138 35q59 23 93 55q35 34 51 71q16 38 16 86q0 155 -260 213q52 -80 52 -213q0 -166 -90 -247zM632 1435 q19 -9 32 -20q32 -27 32 -66q0 -17 -2 -24q-3 -9 -12 -21q-11 -15 -24 -24q-6 -5 -22 -13q7 42 7 75q0 49 -11 93zM672 673q28 72 28 170q0 75 -15 137q127 -50 127 -137q0 -35 -13 -67q-10 -26 -40 -54q-26 -25 -57 -37z" />
<glyph unicode="&#xb4;" horiz-adv-x="1104" d="M376 1340q44 160 88 218q15 20 26 20h312v-24q-102 -3 -172 -70l-152 -144h-102zM442 1388h16l139 132l9 8h-104q-27 -36 -60 -140z" />
<glyph unicode="&#xb5;" horiz-adv-x="1752" d="M60 1199v49h480q96 0 96 -192v-575q0 -454 240 -454q111 0 244 99q-4 58 -4 91v814q0 168 -192 168v49h768v-49q-192 0 -192 -168v-814q0 -168 192 -168v-49h-480q-21 0 -51 37t-34 37q-161 -96 -251 -96q-340 0 -504 151v-270q45 15 77 15q38 0 76 -16q117 -50 117 -175 q0 -38 -16 -74q-50 -119 -177 -119q-38 0 -74 15q-113 47 -123 243v1283q0 168 -192 168zM230 1199q71 -57 71 -168v-1282q1 -38 10 -78q7 -32 17 -54q9 -19 23 -35t22 -21q11 -7 21 -11q28 -12 55 -12t51 8q25 8 38 20q17 16 26 28q11 16 18 34q12 28 12 55q0 50 -22 81 q-23 32 -66 50q-26 10 -57 10q-25 0 -62 -12q-23 -7 -44 8q-20 14 -20 39v270q0 33 29 45t53 -9q109 -100 307 -127q-125 113 -125 443v575q0 85 -17 120q-2 4 -8 13q-4 6 -8 7q-6 2 -7 2h-3q-2 1 -4 1h-310zM328 1150h199q11 -31 11 -94v-575q0 -234 63 -369 q-102 33 -163 89q-28 27 -64 27q-8 0 -24 -4v807q0 68 -22 119zM350 -237q10 -3 21 -3l78 16q20 0 39 -8q56 -24 56 -76q0 -28 -8 -45q-24 -59 -87 -59h-1q-89 0 -98 162v13zM1094 1199q71 -57 71 -168v-814q0 -47 3 -87q1 -12 -3 -22q14 -14 35 -40q9 -12 18 -19h304 q-71 57 -71 168v814q0 111 71 168h-428zM1192 1150h232q-22 -51 -22 -119v-814q0 -68 22 -119h-186l-20 25v3q0 2 -0.5 4t-0.5 4q-3 39 -3 83v814q0 68 -22 119z" />
<glyph unicode="&#xb6;" horiz-adv-x="1598" d="M60 998q0 153 113 264q111 110 261 110h1104v-49q-192 0 -192 -168v-997q0 -168 192 -168v-48h-480v1213q0 168 -144 168t-144 -168v-1213h-480v48q192 0 192 168v466h-48q-145 0 -260 112q-114 111 -114 262zM109 998q0 -143 94 -234t231 -91h48v650h-48 q-138 0 -232 -92q-93 -91 -93 -233zM461 -10h261v1165q0 113 56 168h-246v-1165q0 -111 -71 -168zM558 40q22 51 22 118v1116h112q-20 -54 -20 -119v-1115h-114zM1050 1323q58 -56 58 -168v-1165h260q-70 57 -70 168v997q0 111 70 168h-318zM1138 1274h133q-23 -54 -23 -119 v-997q0 -64 23 -118h-115v1115q0 68 -18 119z" />
<glyph unicode="&#xb7;" horiz-adv-x="504" d="M60 624q0 80 56 136t136 56t136 -56t56 -136t-56 -136t-136 -56t-136 56t-56 136zM109 624q0 -59 42 -101t101 -42t101 42t42 101t-42 101t-101 42t-101 -42t-42 -101zM158 624q0 38 28 66t66 28t66 -28t28 -66t-28 -66t-66 -28t-66 28t-28 66z" />
<glyph unicode="&#xb8;" horiz-adv-x="647" d="M60 -397l14 51q107 -116 217 -116q149 0 149 185q0 175 -144 175q-93 0 -142 -40l36 161l43 -2l-21 -93q32 16 82 16q145 0 232 -84q62 -60 62 -166q0 -96 -91 -158q-62 -43 -197 -43q-138 0 -240 114zM446 -440q15 7 24 13q68 47 68 117q0 85 -46 130q-8 8 -24 20 q21 -48 21 -117q0 -105 -43 -163z" />
<glyph unicode="&#xb9;" horiz-adv-x="734" d="M60 565v44q154 0 154 134v479q0 96 -116 96v39q183 51 231 211h192v-825q0 -134 153 -134v-44h-614zM200 1344q56 -32 62 -122v-479q0 -82 -46 -129h298q-42 50 -42 129v776h-108q-48 -117 -164 -175zM279 1334q73 52 116 136h28v-727q0 -41 11 -80h-134q12 41 12 80v480 q-1 67 -33 111z" />
<glyph unicode="&#xba;" horiz-adv-x="1168" d="M60 1072q0 246 136 376q134 128 388 128t388 -128q136 -130 136 -376q0 -245 -135 -374q-136 -130 -389 -130t-389 130q-135 129 -135 374zM109 1072q0 -225 120 -339q60 -57 144 -85q-8 11 -13 20q-13 25 -20 49q-30 105 -30 355q0 251 30 356q7 24 20 49q8 15 12 19 q-83 -28 -142 -84q-121 -115 -121 -340zM158 1072q0 202 106 304q6 6 18 16q-20 -107 -20 -320q0 -214 20 -321q-14 12 -19 17q-105 100 -105 304zM360 1072q0 -245 28 -342q35 -123 196 -123q144 0 184 99t40 366q0 268 -40 367t-184 99q-161 0 -196 -124q-28 -97 -28 -342 zM790 646q87 28 149 87q120 114 120 339t-121 340q-60 57 -148 86q15 -20 23 -40q45 -108 45 -386q0 -276 -45 -384q-8 -21 -23 -42zM882 748q24 110 24 324q0 207 -24 324q8 -6 22 -20q106 -100 106 -304t-104 -304q-16 -14 -24 -20z" />
<glyph unicode="&#xbb;" horiz-adv-x="972" d="M60 155v179l202 156q81 63 81 134t-81 134l-202 156v179l444 -448v-42zM109 274l151 152l-151 -116v-36zM109 938l151 -116l-151 152v-36zM368 536l87 87v2l-87 87q24 -42 24 -88t-24 -88zM468 155v179l202 156q81 63 81 134t-81 134l-202 156v179l444 -448v-42zM517 274 l151 152l-151 -116v-36zM517 938l151 -116l-151 152v-36zM776 536l87 87v2l-87 87q24 -42 24 -88t-24 -88z" />
<glyph unicode="&#xbf;" horiz-adv-x="979" d="M60 139q0 99 90 177q27 25 172 119q142 93 148 152l8 77h192q22 -263 22 -272q0 -82 -87 -141l-223 -141q-56 -39 -56 -100q0 -130 202 -130q148 0 236 78q104 89 104 168l52 1l-16 -264l-50 1q0 23 -11 48q-10 23 -25 23q-7 0 -32 -17l-54 -37q-27 -20 -84 -37 q-54 -16 -120 -16q-219 0 -344 84q-124 82 -124 227zM109 139q0 -117 103 -187q42 -28 100 -46q-34 41 -34 104q0 18 2 27q4 19 10 34q9 23 23 41q17 21 41 38l224 142q35 24 49 46q15 24 15 54l-18 223h-102l-2 -33q-3 -24 -18 -50q-34 -62 -153 -138q-139 -90 -167 -115 q-73 -64 -73 -140zM158 139q0 55 56 103q24 21 162 111q129 84 169 155q17 29 21 58h13l15 -176q0 -12 -8 -25q-10 -15 -34 -32l-225 -142q-31 -22 -52 -49q-21 -25 -32 -55q-7 -20 -11 -41q-4 -24 -4 -36v-10q-70 52 -70 139zM382 1078q0 80 56 136t136 56q79 0 135 -56 q57 -57 57 -136t-57 -136q-56 -56 -135 -56q-80 0 -136 56t-56 136zM430 1078q0 -58 43 -101q42 -42 101 -42q58 0 100 42t42 101t-42 101t-100 42q-59 0 -101 -42q-43 -43 -43 -101zM480 1078q0 39 27 66q28 28 67 28q38 0 66 -28t28 -66t-28 -66t-66 -28q-39 0 -67 28 q-27 27 -27 66zM850 -25q8 -4 12 -7v22z" />
<glyph unicode="&#xc0;" horiz-adv-x="1626" d="M60 342q0 422 822 422h108v110q0 347 -317 347q-87 0 -170 -19q-55 -12 -55 -40q0 -19 26 -47q43 -42 43 -104q0 -61 -43 -104t-104 -43t-104 43q-44 44 -44 105q0 51 32 95q69 95 206 133q106 30 213 30q701 0 701 -636v-417q0 -168 192 -168v-49h-480q-23 0 -50 40 t-36 34q-122 -96 -298 -96q-642 0 -642 364zM109 342q0 -59 19 -106q18 -45 64 -86q45 -40 112 -67q70 -26 168 -41l36 -5q-13 11 -28 27q-28 31 -44 65q-18 37 -30 92q-11 49 -11 121q0 204 112 313q39 38 49 39q-116 -18 -193 -46q-89 -32 -146 -78q-57 -47 -83 -103 q-25 -54 -25 -125zM158 342q0 58 21 104t69 86q50 41 132 70q10 4 32 10q-66 -110 -66 -270q0 -71 12 -131q11 -57 34 -103v-1q-31 7 -70 22q-61 24 -98 57q-34 30 -50 69q-16 38 -16 87zM272 1012q0 -42 28 -70q29 -29 70 -29q40 0 69 29t29 69t-29 69q-25 27 -35 54v2 q-1 2 -1 4q0 1 -1 4.5t-1 5.5q0 9 -1 12v4q-68 -33 -106 -88q-22 -31 -22 -66zM320 1012q0 19 14 38q15 22 37 40q14 -24 33 -44q15 -15 15 -35q0 -21 -14 -35t-35 -14t-34 14q-16 16 -16 36zM426 1554v24h312q11 0 26 -20q15 -30 87 -218h-101l-153 144q-70 67 -171 70z M444 342q0 -315 258 -315q169 0 293 101q-5 165 -5 312v275h-148q-398 0 -398 -373zM621 1528l9 -8l140 -132h10q-42 108 -56 140h-103zM916 1196q123 -99 123 -322v-434q0 -145 5 -310l1 -24l10 -10q5 -7 21 -29q9 -13 15 -18h305q-71 57 -71 168v417q0 91 -13 162t-44 139 q-28 61 -78 116q-45 49 -116 88q-64 35 -158 57zM1049 1096h1q63 -34 104 -78q42 -45 69 -104q28 -59 40 -127q13 -66 13 -153v-417q0 -68 22 -119h-184q-3 4 -7.5 10.5t-7.5 10.5t-6 7v6q-5 165 -5 308v434q0 129 -39 222z" />
<glyph unicode="&#xc1;" horiz-adv-x="1626" d="M60 342q0 422 822 422h108v110q0 347 -317 347q-87 0 -170 -19q-55 -12 -55 -40q0 -19 26 -47q43 -42 43 -104q0 -61 -43 -104t-104 -43t-104 43q-44 44 -44 105q0 51 32 95q69 95 206 133q106 30 213 30q701 0 701 -636v-417q0 -168 192 -168v-49h-480q-23 0 -50 40 t-36 34q-122 -96 -298 -96q-642 0 -642 364zM109 342q0 -59 19 -106q18 -45 64 -86q45 -40 112 -67q70 -26 168 -41l36 -5q-13 11 -28 27q-28 31 -44 65q-18 37 -30 92q-11 49 -11 121q0 204 112 313q39 38 49 39q-116 -18 -193 -46q-89 -32 -146 -78q-57 -47 -83 -103 q-25 -54 -25 -125zM158 342q0 58 21 104t69 86q50 41 132 70q10 4 32 10q-66 -110 -66 -270q0 -71 12 -131q11 -57 34 -103v-1q-31 7 -70 22q-61 24 -98 57q-34 30 -50 69q-16 38 -16 87zM272 1012q0 -42 28 -70q29 -29 70 -29q40 0 69 29t29 69t-29 69q-25 27 -35 54v2 q-1 2 -1 4q0 1 -1 4.5t-1 5.5q0 9 -1 12v4q-68 -33 -106 -88q-22 -31 -22 -66zM320 1012q0 19 14 38q15 22 37 40q14 -24 33 -44q15 -15 15 -35q0 -21 -14 -35t-35 -14t-34 14q-16 16 -16 36zM444 342q0 -315 258 -315q169 0 293 101q-5 165 -5 312v275h-148 q-398 0 -398 -373zM623 1340q45 162 87 218q15 20 26 20h312v-24q-101 -3 -171 -70l-153 -144h-101zM688 1388h16l140 132l9 8h-105q-27 -36 -60 -140zM916 1196q123 -99 123 -322v-434q0 -145 5 -310l1 -24l10 -10q5 -7 21 -29q9 -13 15 -18h305q-71 57 -71 168v417 q0 91 -13 162t-44 139q-28 61 -78 116q-45 49 -116 88q-64 35 -158 57zM1049 1096h1q63 -34 104 -78q42 -45 69 -104q28 -59 40 -127q13 -66 13 -153v-417q0 -68 22 -119h-184q-3 4 -7.5 10.5t-7.5 10.5t-6 7v6q-5 165 -5 308v434q0 129 -39 222z" />
<glyph unicode="&#xc2;" horiz-adv-x="1626" d="M60 342q0 422 822 422h108v110q0 347 -317 347q-87 0 -170 -19q-55 -12 -55 -40q0 -19 26 -47q43 -42 43 -104q0 -61 -43 -104t-104 -43t-104 43q-44 44 -44 105q0 51 32 95q69 95 206 133q106 30 213 30q701 0 701 -636v-417q0 -168 192 -168v-49h-480q-23 0 -50 40 t-36 34q-122 -96 -298 -96q-642 0 -642 364zM109 342q0 -59 19 -106q18 -45 64 -86q45 -40 112 -67q70 -26 168 -41l36 -5q-13 11 -28 27q-28 31 -44 65q-18 37 -30 92q-11 49 -11 121q0 204 112 313q39 38 49 39q-116 -18 -193 -46q-89 -32 -146 -78q-57 -47 -83 -103 q-25 -54 -25 -125zM158 342q0 58 21 104t69 86q50 41 132 70q10 4 32 10q-66 -110 -66 -270q0 -71 12 -131q11 -57 34 -103v-1q-31 7 -70 22q-61 24 -98 57q-34 30 -50 69q-16 38 -16 87zM272 1012q0 -42 28 -70q29 -29 70 -29q40 0 69 29t29 69t-29 69q-25 27 -35 54v2 q-1 2 -1 4q0 1 -1 4.5t-1 5.5q0 9 -1 12v4q-68 -33 -106 -88q-22 -31 -22 -66zM320 1012q0 19 14 38q15 22 37 40q14 -24 33 -44q15 -15 15 -35q0 -21 -14 -35t-35 -14t-34 14q-16 16 -16 36zM442 1340l139 234h383l140 -234h-92l-114 103q-69 63 -125 63t-125 -63 l-114 -103h-92zM444 342q0 -315 258 -315q169 0 293 101q-5 165 -5 312v275h-148q-398 0 -398 -373zM543 1414l72 66q29 26 62 46h-68zM869 1526q30 -18 61 -46l72 -66l-66 112h-67zM916 1196q123 -99 123 -322v-434q0 -145 5 -310l1 -24l10 -10q5 -7 21 -29q9 -13 15 -18 h305q-71 57 -71 168v417q0 91 -13 162t-44 139q-28 61 -78 116q-45 49 -116 88q-64 35 -158 57zM1049 1096h1q63 -34 104 -78q42 -45 69 -104q28 -59 40 -127q13 -66 13 -153v-417q0 -68 22 -119h-184q-3 4 -7.5 10.5t-7.5 10.5t-6 7v6q-5 165 -5 308v434q0 129 -39 222z " />
<glyph unicode="&#xc3;" horiz-adv-x="1626" d="M60 342q0 422 822 422h108v110q0 347 -317 347q-87 0 -170 -19q-55 -12 -55 -40q0 -19 26 -47q43 -42 43 -104q0 -61 -43 -104t-104 -43t-104 43q-44 44 -44 105q0 51 32 95q69 95 206 133q106 30 213 30q701 0 701 -636v-417q0 -168 192 -168v-49h-480q-23 0 -50 40 t-36 34q-122 -96 -298 -96q-642 0 -642 364zM109 342q0 -59 19 -106q18 -45 64 -86q45 -40 112 -67q70 -26 168 -41l36 -5q-13 11 -28 27q-28 31 -44 65q-18 37 -30 92q-11 49 -11 121q0 204 112 313q39 38 49 39q-116 -18 -193 -46q-89 -32 -146 -78q-57 -47 -83 -103 q-25 -54 -25 -125zM158 342q0 58 21 104t69 86q50 41 132 70q10 4 32 10q-66 -110 -66 -270q0 -71 12 -131q11 -57 34 -103v-1q-31 7 -70 22q-61 24 -98 57q-34 30 -50 69q-16 38 -16 87zM272 1012q0 -42 28 -70q29 -29 70 -29q40 0 69 29t29 69t-29 69q-25 27 -35 54v2 q-1 2 -1 4q0 1 -1 4.5t-1 5.5q0 9 -1 12v4q-68 -33 -106 -88q-22 -31 -22 -66zM320 1012q0 19 14 38q15 22 37 40q14 -24 33 -44q15 -15 15 -35q0 -21 -14 -35t-35 -14t-34 14q-16 16 -16 36zM424 1391q0 208 218 208q57 0 132 -27l184 -68q59 -22 100 -22q73 0 103 72h49 v-13q0 -215 -224 -215q-50 0 -123 27l-185 67q-72 26 -108 26q-77 0 -94 -86h-50q-2 22 -2 31zM444 342q0 -315 258 -315q169 0 293 101q-5 165 -5 312v275h-148q-398 0 -398 -373zM486 1470q28 22 79 22q58 0 129 -26l186 -67q63 -23 120 -23q118 0 149 84q-32 -25 -86 -25 q-57 0 -121 23l-186 68q-68 24 -123 24q-116 0 -147 -80zM916 1196q123 -99 123 -322v-434q0 -145 5 -310l1 -24l10 -10q5 -7 21 -29q9 -13 15 -18h305q-71 57 -71 168v417q0 91 -13 162t-44 139q-28 61 -78 116q-45 49 -116 88q-64 35 -158 57zM1049 1096h1q63 -34 104 -78 q42 -45 69 -104q28 -59 40 -127q13 -66 13 -153v-417q0 -68 22 -119h-184q-3 4 -7.5 10.5t-7.5 10.5t-6 7v6q-5 165 -5 308v434q0 129 -39 222z" />
<glyph unicode="&#xc4;" horiz-adv-x="1626" d="M60 342q0 422 822 422h108v110q0 347 -317 347q-87 0 -170 -19q-55 -12 -55 -40q0 -19 26 -47q43 -42 43 -104q0 -61 -43 -104t-104 -43t-104 43q-44 44 -44 105q0 51 32 95q69 95 206 133q106 30 213 30q701 0 701 -636v-417q0 -168 192 -168v-49h-480q-23 0 -50 40 t-36 34q-122 -96 -298 -96q-642 0 -642 364zM109 342q0 -59 19 -106q18 -45 64 -86q45 -40 112 -67q70 -26 168 -41l36 -5q-13 11 -28 27q-28 31 -44 65q-18 37 -30 92q-11 49 -11 121q0 204 112 313q39 38 49 39q-116 -18 -193 -46q-89 -32 -146 -78q-57 -47 -83 -103 q-25 -54 -25 -125zM158 342q0 58 21 104t69 86q50 41 132 70q10 4 32 10q-66 -110 -66 -270q0 -71 12 -131q11 -57 34 -103v-1q-31 7 -70 22q-61 24 -98 57q-34 30 -50 69q-16 38 -16 87zM272 1012q0 -42 28 -70q29 -29 70 -29q40 0 69 29t29 69t-29 69q-25 27 -35 54v2 q-1 2 -1 4q0 1 -1 4.5t-1 5.5q0 9 -1 12v4q-68 -33 -106 -88q-22 -31 -22 -66zM296 1498q0 58 43 101t101 43q59 0 102 -43q42 -42 42 -101q0 -60 -42 -102t-102 -42q-59 0 -101 42q-43 43 -43 102zM320 1012q0 19 14 38q15 22 37 40q14 -24 33 -44q15 -15 15 -35 q0 -21 -14 -35t-35 -14t-34 14q-16 16 -16 36zM346 1498q0 -39 28 -67q29 -29 66 -29q38 0 67 29t29 67q0 37 -29 66q-28 28 -67 28q-38 0 -66 -28t-28 -66zM394 1498q0 18 14 32t32 14q19 0 33 -14q13 -13 13 -32q0 -20 -13 -33t-33 -13q-19 0 -32 13q-14 14 -14 33z M444 342q0 -315 258 -315q169 0 293 101q-5 165 -5 312v275h-148q-398 0 -398 -373zM913 1498q0 58 43 101t101 43t101 -43t43 -101q0 -59 -43 -102q-42 -42 -101 -42t-101 42q-43 43 -43 102zM916 1196q123 -99 123 -322v-434q0 -145 5 -310l1 -24l10 -10q5 -7 21 -29 q9 -13 15 -18h305q-71 57 -71 168v417q0 91 -13 162t-44 139q-28 61 -78 116q-45 49 -116 88q-64 35 -158 57zM962 1498q0 -39 28 -67q29 -29 67 -29t67 29q28 28 28 67q0 38 -28 66t-67 28t-67 -28t-28 -66zM1011 1498q0 18 14 32t32 14t32 -14t14 -32q0 -19 -14 -33 q-13 -13 -32 -13t-32 13q-14 14 -14 33zM1049 1096h1q63 -34 104 -78q42 -45 69 -104q28 -59 40 -127q13 -66 13 -153v-417q0 -68 22 -119h-184q-3 4 -7.5 10.5t-7.5 10.5t-6 7v6q-5 165 -5 308v434q0 129 -39 222z" />
<glyph unicode="&#xc5;" horiz-adv-x="1626" d="M60 342q0 422 822 422h108v110q0 347 -317 347q-87 0 -170 -19q-55 -12 -55 -40q0 -19 26 -47q43 -42 43 -104q0 -61 -43 -104t-104 -43t-104 43q-44 44 -44 105q0 51 32 95q69 95 206 133q106 30 213 30q701 0 701 -636v-417q0 -168 192 -168v-49h-480q-23 0 -50 40 t-36 34q-122 -96 -298 -96q-642 0 -642 364zM109 342q0 -59 19 -106q18 -45 64 -86q45 -40 112 -67q70 -26 168 -41l36 -5q-13 11 -28 27q-28 31 -44 65q-18 37 -30 92q-11 49 -11 121q0 204 112 313q39 38 49 39q-116 -18 -193 -46q-89 -32 -146 -78q-57 -47 -83 -103 q-25 -54 -25 -125zM158 342q0 58 21 104t69 86q50 41 132 70q10 4 32 10q-66 -110 -66 -270q0 -71 12 -131q11 -57 34 -103v-1q-31 7 -70 22q-61 24 -98 57q-34 30 -50 69q-16 38 -16 87zM272 1012q0 -42 28 -70q29 -29 70 -29q40 0 69 29t29 69t-29 69q-25 27 -35 54v2 q-1 2 -1 4q0 1 -1 4.5t-1 5.5q0 9 -1 12v4q-68 -33 -106 -88q-22 -31 -22 -66zM320 1012q0 19 14 38q15 22 37 40q14 -24 33 -44q15 -15 15 -35q0 -21 -14 -35t-35 -14t-34 14q-16 16 -16 36zM444 342q0 -315 258 -315q169 0 293 101q-5 165 -5 312v275h-148 q-398 0 -398 -373zM578 1478q0 61 50 109q48 47 106 47q60 0 108 -47t48 -109q0 -61 -48 -108q-50 -48 -108 -48q-55 0 -106 49q-50 48 -50 107zM656 1478q0 -140 78 -140t78 140q0 141 -78 141t-78 -141zM916 1196q123 -99 123 -322v-434q0 -145 5 -310l1 -24l10 -10 q5 -7 21 -29q9 -13 15 -18h305q-71 57 -71 168v417q0 91 -13 162t-44 139q-28 61 -78 116q-45 49 -116 88q-64 35 -158 57zM1049 1096h1q63 -34 104 -78q42 -45 69 -104q28 -59 40 -127q13 -66 13 -153v-417q0 -68 22 -119h-184q-3 4 -7.5 10.5t-7.5 10.5t-6 7v6 q-5 165 -5 308v434q0 129 -39 222z" />
<glyph unicode="&#xc6;" horiz-adv-x="2394" d="M72 342q0 422 822 422h108v110q0 347 -317 347q-86 0 -155 -15q-70 -15 -70 -44q0 -19 26 -47q43 -42 43 -103q0 -62 -43 -105t-104 -43t-104 43t-43 99t31 101q68 95 189 129q120 34 230 34q321 0 511 -161q185 161 492 161q306 0 483 -172q175 -171 175 -474h-730 q-117 0 -230 38v-235q3 -223 58 -311q56 -89 230 -89q173 0 326 85q151 84 242 226l42 -26q-99 -153 -260 -243q-163 -91 -350 -91q-172 0 -281 53q-107 52 -197 159q-155 -129 -250 -168q-90 -44 -232 -44q-642 0 -642 364zM121 342q0 -258 399 -305q-113 92 -113 301 q0 251 161 356q-447 -68 -447 -352zM170 342q0 193 254 270q-66 -110 -66 -260q0 -153 46 -245q-234 57 -234 235zM282 1009q0 -37 30 -67q29 -29 70 -29q40 0 69 29t29 70q0 38 -28 68q-28 29 -32 42q-5 15 -5 18q0 1 -1 4.5t-1 5.5t-0.5 5.5t-0.5 4.5v4v2q-67 -33 -98 -76 q-32 -44 -32 -81zM332 1020q0 30 51 70q14 -22 31 -40q17 -17 17 -39q0 -21 -14 -35t-35 -14t-35 14q-15 15 -15 44zM456 342q0 -315 258 -315q164 0 288 101v587h-148q-398 0 -398 -373zM936 1190q115 -105 115 -316v-734q41 28 115 88q15 13 35 11q19 -1 33 -18 q81 -96 177 -144q-72 97 -73 357q-1 174 -1 326q6 323 99 428q-117 -37 -208 -116q-32 -27 -63 0q-95 80 -229 118zM1066 1082q35 -20 65 -46q31 -26 65 -26h1q37 0 67 27q31 28 68 50q-41 -129 -44 -327v-334q2 -131 18 -212q-19 19 -34 38q-31 37 -68 37q-42 0 -69 -23 l-35 -28v636q0 119 -34 208zM1386 714q112 -41 230 -41h346q0 371 -86 479q-56 69 -216 69q-161 0 -215 -111q-55 -112 -59 -350v-46zM1905 1192q106 -115 106 -519h285q-13 246 -160 391q-92 89 -231 128zM2011 1096q200 -114 231 -374h-182q-3 237 -49 374z" />
<glyph unicode="&#xc7;" horiz-adv-x="1401" d="M88 624q0 313 176 480q175 166 496 166q208 0 348 -67q180 -85 180 -222q0 -61 -43 -105q-44 -46 -103 -46q-60 0 -103 43t-43 103q0 39 20 73q24 49 24 64q0 36 -46 57q-108 51 -234 51q-207 0 -252 -159q-36 -127 -36 -438q0 -365 36 -446q67 -151 252 -151 q176 0 327 85q150 83 241 226l42 -26q-99 -154 -259 -243q-163 -91 -351 -91h-42l-17 -72q34 17 83 17q125 0 226 -95q67 -63 67 -156q0 -86 -101 -152q-75 -48 -187 -48q-138 0 -240 114l14 52q107 -116 217 -116q149 0 149 204q0 154 -144 154q-93 0 -142 -40l31 141 q-261 19 -412 163q-174 168 -174 480zM138 624q0 -293 158 -445q98 -94 245 -129q-49 43 -83 120t-34 426q0 345 38 480q21 73 68 118q-142 -38 -232 -125q-160 -151 -160 -445zM186 624q0 343 230 472q-42 -142 -42 -472q0 -361 40 -472q-228 130 -228 472zM938 -445 q2 1 6 3.5t6 3.5q78 51 78 110q0 71 -52 121l-6 6q8 -29 8 -73q0 -52 -9 -94q-9 -43 -25 -68zM1046 970q0 -34 28 -62t68 -28q38 0 68 30t30 71q0 106 -166 183q9 -15 12 -36q3 -27 -2 -42q-6 -18 -22 -50t-16 -66zM1094 973q0 18 4 23q3 4 9 16q18 37 25 64q58 -43 58 -95 q0 -21 -15 -37t-34 -16t-33 14t-14 31z" />
<glyph unicode="&#xc8;" d="M60 624q0 314 175 480t497 166t497 -166t175 -480h-960q0 -365 36 -446q67 -151 252 -151q222 0 356 75q153 86 242 226l42 -26q-94 -148 -260 -243q-141 -81 -380 -81q-325 0 -499 166q-173 165 -173 480zM109 624q0 -293 158 -445q98 -94 245 -129q-49 43 -77 108 q-40 89 -40 466v49q0 311 57 445q12 27 30 52q7 9 22 24q-143 -38 -235 -125q-160 -151 -160 -445zM158 624q0 272 144 410q42 39 91 65q-47 -146 -47 -426v-49q0 -362 39 -472q-52 30 -85 62q-142 136 -142 410zM438 1554v24h312q11 0 26 -20q15 -30 87 -218h-101l-153 144 q-70 67 -171 70zM444 673h576q0 323 -36 401q-68 147 -252 147q-182 0 -235 -123q-53 -127 -53 -425zM633 1528l9 -8l140 -132h10q-42 108 -56 140h-103zM954 1196q47 -42 74 -101q41 -90 41 -422h285q-12 257 -159 396q-96 91 -241 127zM1082 1093q47 -28 80 -59 q116 -110 139 -312h-183q-3 271 -36 371z" />
<glyph unicode="&#xc9;" d="M60 624q0 314 175 480t497 166t497 -166t175 -480h-960q0 -365 36 -446q67 -151 252 -151q222 0 356 75q153 86 242 226l42 -26q-94 -148 -260 -243q-141 -81 -380 -81q-325 0 -499 166q-173 165 -173 480zM109 624q0 -293 158 -445q98 -94 245 -129q-49 43 -77 108 q-40 89 -40 466v49q0 311 57 445q12 27 30 52q7 9 22 24q-143 -38 -235 -125q-160 -151 -160 -445zM158 624q0 272 144 410q42 39 91 65q-47 -146 -47 -426v-49q0 -362 39 -472q-52 30 -85 62q-142 136 -142 410zM444 673h576q0 323 -36 401q-68 147 -252 147 q-182 0 -235 -123q-53 -127 -53 -425zM676 1340q44 160 88 218q15 20 26 20h312v-24q-102 -3 -172 -70l-152 -144h-102zM742 1388h16l139 132l9 8h-104q-27 -36 -60 -140zM954 1196q47 -42 74 -101q41 -90 41 -422h285q-12 257 -159 396q-96 91 -241 127zM1082 1093 q47 -28 80 -59q116 -110 139 -312h-183q-3 271 -36 371z" />
<glyph unicode="&#xca;" d="M60 624q0 314 175 480t497 166t497 -166t175 -480h-960q0 -365 36 -446q67 -151 252 -151q222 0 356 75q153 86 242 226l42 -26q-94 -148 -260 -243q-141 -81 -380 -81q-325 0 -499 166q-173 165 -173 480zM109 624q0 -293 158 -445q98 -94 245 -129q-49 43 -77 108 q-40 89 -40 466v49q0 311 57 445q12 27 30 52q7 9 22 24q-143 -38 -235 -125q-160 -151 -160 -445zM158 624q0 272 144 410q42 39 91 65q-47 -146 -47 -426v-49q0 -362 39 -472q-52 30 -85 62q-142 136 -142 410zM426 1340l138 234h384l139 -234h-92l-114 103 q-69 63 -125 63q-55 0 -124 -63l-114 -103h-92zM444 673h576q0 323 -36 401q-68 147 -252 147q-182 0 -235 -123q-53 -127 -53 -425zM526 1414l72 66q29 26 62 46h-68zM852 1526q33 -20 62 -46l72 -66l-66 112h-68zM954 1196q47 -42 74 -101q41 -90 41 -422h285 q-12 257 -159 396q-96 91 -241 127zM1082 1093q47 -28 80 -59q116 -110 139 -312h-183q-3 271 -36 371z" />
<glyph unicode="&#xcb;" d="M60 624q0 314 175 480t497 166t497 -166t175 -480h-960q0 -365 36 -446q67 -151 252 -151q222 0 356 75q153 86 242 226l42 -26q-94 -148 -260 -243q-141 -81 -380 -81q-325 0 -499 166q-173 165 -173 480zM109 624q0 -293 158 -445q98 -94 245 -129q-49 43 -77 108 q-40 89 -40 466v49q0 311 57 445q12 27 30 52q7 9 22 24q-143 -38 -235 -125q-160 -151 -160 -445zM158 624q0 272 144 410q42 39 91 65q-47 -146 -47 -426v-49q0 -362 39 -472q-52 30 -85 62q-142 136 -142 410zM260 1498q0 59 42 101q43 43 102 43t102 -43q42 -42 42 -101 q0 -60 -42 -102t-102 -42t-102 42t-42 102zM309 1498q0 -39 28 -67q29 -29 67 -29t67 29q28 28 28 67q0 38 -28 66t-67 28t-67 -28t-28 -66zM358 1498q0 18 14 32t32 14t32 -14t14 -32q0 -19 -14 -33q-13 -13 -32 -13t-32 13q-14 14 -14 33zM444 673h576q0 323 -36 401 q-68 147 -252 147q-182 0 -235 -123q-53 -127 -53 -425zM876 1498q0 58 43 101t101 43q59 0 102 -43q42 -42 42 -101q0 -60 -42 -102t-102 -42q-59 0 -101 42q-43 43 -43 102zM926 1498q0 -39 28 -67q29 -29 66 -29q38 0 67 29t29 67q0 37 -29 66q-28 28 -67 28 q-38 0 -66 -28t-28 -66zM954 1196q47 -42 74 -101q41 -90 41 -422h285q-12 257 -159 396q-96 91 -241 127zM974 1498q0 18 14 32t32 14q19 0 33 -14q13 -13 13 -32q0 -20 -13 -33t-33 -13q-19 0 -32 13q-14 14 -14 33zM1082 1093q47 -28 80 -59q116 -110 139 -312h-183 q-3 271 -36 371z" />
<glyph unicode="&#xcc;" horiz-adv-x="888" d="M60 0v49q192 0 192 168v814q0 168 -192 168v49h768v-49q-192 0 -192 -168v-814q0 -168 192 -168v-49h-768zM150 1554v24h312q11 0 26 -20q15 -30 87 -218h-101l-153 144q-70 67 -171 70zM230 49h428q-71 57 -71 168v814q0 111 71 168h-428q71 -57 71 -168v-814 q0 -111 -71 -168zM328 98q22 51 22 119v814q0 68 -22 119h232q-22 -51 -22 -119v-814q0 -68 22 -119h-232zM345 1528l9 -8l140 -132h10q-42 108 -56 140h-103z" />
<glyph unicode="&#xcd;" horiz-adv-x="888" d="M60 0v49q192 0 192 168v814q0 168 -192 168v49h768v-49q-192 0 -192 -168v-814q0 -168 192 -168v-49h-768zM230 49h428q-71 57 -71 168v814q0 111 71 168h-428q71 -57 71 -168v-814q0 -111 -71 -168zM328 98q22 51 22 119v814q0 68 -22 119h232q-22 -51 -22 -119v-814 q0 -68 22 -119h-232zM340 1340q44 160 88 218q15 20 26 20h312v-24q-102 -3 -172 -70l-152 -144h-102zM406 1388h16l139 132l9 8h-104q-27 -36 -60 -140z" />
<glyph unicode="&#xce;" horiz-adv-x="888" d="M60 0v49q192 0 192 168v814q0 168 -192 168v49h768v-49q-192 0 -192 -168v-814q0 -168 192 -168v-49h-768zM114 1340l138 234h384l139 -234h-92l-114 103q-69 63 -125 63q-55 0 -124 -63l-114 -103h-92zM214 1414l72 66q29 26 62 46h-68zM230 49h428q-71 57 -71 168v814 q0 111 71 168h-428q71 -57 71 -168v-814q0 -111 -71 -168zM328 98q22 51 22 119v814q0 68 -22 119h232q-22 -51 -22 -119v-814q0 -68 22 -119h-232zM540 1526q33 -20 62 -46l72 -66l-66 112h-68z" />
<glyph unicode="&#xcf;" horiz-adv-x="888" d="M41 1498q0 59 43 102q42 42 101 42t101 -42q43 -43 43 -102t-43 -102q-42 -42 -101 -42t-101 42q-43 43 -43 102zM60 0v49q192 0 192 168v814q0 168 -192 168v49h768v-49q-192 0 -192 -168v-814q0 -168 192 -168v-49h-768zM90 1498q0 -39 28 -67t67 -28t67 28t28 67 t-28 67t-67 28t-67 -28t-28 -67zM139 1498q0 18 14 32t32 14t32 -14t14 -32t-14 -32t-32 -14t-32 14t-14 32zM230 49h428q-71 57 -71 168v814q0 111 71 168h-428q71 -57 71 -168v-814q0 -111 -71 -168zM328 98q22 51 22 119v814q0 68 -22 119h232q-22 -51 -22 -119v-814 q0 -68 22 -119h-232zM559 1498q0 59 43 102q42 42 101 42t101 -42q43 -43 43 -102t-43 -102q-42 -42 -101 -42t-101 42q-43 43 -43 102zM608 1498q0 -39 28 -67t67 -28t67 28t28 67t-28 67t-67 28t-67 -28t-28 -67zM657 1498q0 18 14 32t32 14t32 -14t14 -32t-14 -32 t-32 -14t-32 14t-14 32z" />
<glyph unicode="&#xd0;" horiz-adv-x="1612" d="M72 0v49q184 0 192 147v368h-180l12 120h168v347q0 168 -192 168v49h820q322 0 497 -166t175 -458q0 -293 -173 -458q-175 -166 -499 -166h-820zM242 1199q71 -57 71 -168v-837q-4 -94 -68 -145h354v1150h-357zM340 1150h210v-1052h-208q17 39 20 95v838q0 68 -22 119z M648 49h244q183 0 235 127q53 130 53 448t-53 448q-52 127 -235 127h-244v-515h232l-12 -120h-220v-515zM1116 74q145 35 241 127q158 150 158 423q0 272 -160 423q-96 91 -239 127q36 -34 56 -84q57 -138 57 -466t-57 -466q-20 -51 -56 -84zM1228 168q50 150 50 456 q0 307 -49 454q58 -33 93 -66q144 -138 144 -388q0 -252 -142 -388q-38 -36 -96 -68z" />
<glyph unicode="&#xd1;" horiz-adv-x="1752" d="M60 0v49q192 0 192 168v814q0 168 -192 168v49h478q21 0 48 -33t32 -33q125 88 258 88q624 0 624 -454v-599q0 -168 192 -168v-49h-748v49q172 0 172 168v575q0 429 -240 429q-123 0 -244 -89q4 -40 4 -101v-814q0 -168 172 -168v-49h-748zM230 49h422q-65 57 -65 168 v814q0 68 -3 95q-1 6 1 18q-2 1 -6 5q-6 5 -31 35q-9 10 -15 15h-303q71 -57 71 -168v-814q0 -111 -71 -168zM328 98q22 51 22 119v814q0 68 -22 119h184q23 -28 24 -32q2 -17 2 -87v-814q0 -67 21 -119h-231zM478 1398q0 208 218 208q53 0 131 -28l185 -67q59 -22 100 -22 q72 0 102 72h50v-13q0 -214 -224 -214q-53 0 -124 26l-185 67q-69 25 -108 25q-77 0 -94 -86h-49q-2 22 -2 32zM539 1476q30 24 79 24q56 0 130 -27l185 -67q66 -24 121 -24q116 0 148 86q-34 -26 -86 -26q-57 0 -121 23l-185 67q-70 25 -124 25q-116 0 -147 -81zM1041 1212 q124 -109 124 -420v-575q0 -111 -65 -168h422q-71 57 -71 168v599q0 66 -13 118t-44 100t-78 82q-53 38 -116 60q-75 26 -159 36zM1153 1140q4 -1 11.5 -4t20 -7t22.5 -8q37 -13 79 -44q41 -30 67 -70q24 -37 37 -86q12 -47 12 -105v-599q0 -68 22 -119h-231q21 53 21 119 v575q0 222 -61 348z" />
<glyph unicode="&#xd2;" d="M60 624q0 314 175 480t497 166t497 -166t175 -480q0 -315 -173 -480q-175 -166 -499 -166q-325 0 -499 166q-173 165 -173 480zM109 624q0 -294 159 -446q92 -88 234 -125q-48 45 -69 119q-38 135 -38 452t38 452q21 73 69 118q-143 -38 -233 -125q-160 -151 -160 -445z M158 624q0 272 144 410q34 33 86 62l-2 -7q-40 -143 -40 -465t40 -465l2 -9q-49 28 -87 64q-143 137 -143 410zM422 1554v24h312q11 0 26 -20q15 -30 87 -218h-101l-153 144q-70 67 -171 70zM444 624q0 -310 36 -438q45 -159 252 -159q183 0 235 127q53 130 53 470t-53 470 q-52 127 -235 127q-207 0 -252 -159q-36 -127 -36 -438zM617 1528l9 -8l140 -132h10q-42 108 -56 140h-103zM956 52q145 35 241 127q158 150 158 445q0 294 -160 445q-96 92 -239 127q36 -34 56 -84q57 -138 57 -488t-57 -488q-20 -51 -56 -84zM1068 146q50 152 50 478 q0 328 -49 476q58 -33 93 -66q144 -138 144 -410q0 -274 -142 -410q-38 -36 -96 -68z" />
<glyph unicode="&#xd3;" d="M60 624q0 314 175 480t497 166t497 -166t175 -480q0 -315 -173 -480q-175 -166 -499 -166q-325 0 -499 166q-173 165 -173 480zM109 624q0 -294 159 -446q92 -88 234 -125q-48 45 -69 119q-38 135 -38 452t38 452q21 73 69 118q-143 -38 -233 -125q-160 -151 -160 -445z M158 624q0 272 144 410q34 33 86 62l-2 -7q-40 -143 -40 -465t40 -465l2 -9q-49 28 -87 64q-143 137 -143 410zM444 624q0 -310 36 -438q45 -159 252 -159q183 0 235 127q53 130 53 470t-53 470q-52 127 -235 127q-207 0 -252 -159q-36 -127 -36 -438zM648 1340 q45 164 86 218q15 20 27 20h312v-24q-101 -3 -171 -70l-154 -144h-100zM713 1388h16l139 132l10 8h-105q-27 -36 -60 -140zM956 52q145 35 241 127q158 150 158 445q0 294 -160 445q-96 92 -239 127q36 -34 56 -84q57 -138 57 -488t-57 -488q-20 -51 -56 -84zM1068 146 q50 152 50 478q0 328 -49 476q58 -33 93 -66q144 -138 144 -410q0 -274 -142 -410q-38 -36 -96 -68z" />
<glyph unicode="&#xd4;" d="M60 624q0 314 175 480t497 166t497 -166t175 -480q0 -315 -173 -480q-175 -166 -499 -166q-325 0 -499 166q-173 165 -173 480zM109 624q0 -294 159 -446q92 -88 234 -125q-48 45 -69 119q-38 135 -38 452t38 452q21 73 69 118q-143 -38 -233 -125q-160 -151 -160 -445z M158 624q0 272 144 410q34 33 86 62l-2 -7q-40 -143 -40 -465t40 -465l2 -9q-49 28 -87 64q-143 137 -143 410zM402 1340l138 234h384l139 -234h-92l-114 103q-69 63 -125 63q-55 0 -124 -63l-114 -103h-92zM444 624q0 -310 36 -438q45 -159 252 -159q183 0 235 127 q53 130 53 470t-53 470q-52 127 -235 127q-207 0 -252 -159q-36 -127 -36 -438zM502 1414l72 66q29 26 62 46h-68zM828 1526q33 -20 62 -46l72 -66l-66 112h-68zM956 52q145 35 241 127q158 150 158 445q0 294 -160 445q-96 92 -239 127q36 -34 56 -84q57 -138 57 -488 t-57 -488q-20 -51 -56 -84zM1068 146q50 152 50 478q0 328 -49 476q58 -33 93 -66q144 -138 144 -410q0 -274 -142 -410q-38 -36 -96 -68z" />
<glyph unicode="&#xd5;" d="M60 624q0 314 175 480t497 166t497 -166t175 -480q0 -315 -173 -480q-175 -166 -499 -166q-325 0 -499 166q-173 165 -173 480zM109 624q0 -294 159 -446q92 -88 234 -125q-48 45 -69 119q-38 135 -38 452t38 452q21 73 69 118q-143 -38 -233 -125q-160 -151 -160 -445z M158 624q0 272 144 410q34 33 86 62l-2 -7q-40 -143 -40 -465t40 -465l2 -9q-49 28 -87 64q-143 137 -143 410zM332 1391q0 208 218 208q57 0 132 -27l184 -68q59 -22 100 -22q73 0 103 72h49v-13q0 -215 -224 -215q-50 0 -123 27l-185 67q-72 26 -108 26q-77 0 -94 -86h-50 q-2 22 -2 31zM394 1470q28 22 79 22q58 0 129 -26l186 -67q63 -23 120 -23q118 0 149 84q-32 -25 -86 -25q-57 0 -121 23l-186 68q-68 24 -123 24q-116 0 -147 -80zM444 624q0 -310 36 -438q45 -159 252 -159q183 0 235 127q53 130 53 470t-53 470q-52 127 -235 127 q-207 0 -252 -159q-36 -127 -36 -438zM956 52q145 35 241 127q158 150 158 445q0 294 -160 445q-96 92 -239 127q36 -34 56 -84q57 -138 57 -488t-57 -488q-20 -51 -56 -84zM1068 146q50 152 50 478q0 328 -49 476q58 -33 93 -66q144 -138 144 -410q0 -274 -142 -410 q-38 -36 -96 -68z" />
<glyph unicode="&#xd6;" d="M60 624q0 314 175 480t497 166t497 -166t175 -480q0 -315 -173 -480q-175 -166 -499 -166q-325 0 -499 166q-173 165 -173 480zM109 624q0 -294 159 -446q92 -88 234 -125q-48 45 -69 119q-38 135 -38 452t38 452q21 73 69 118q-143 -38 -233 -125q-160 -151 -160 -445z M158 624q0 272 144 410q34 33 86 62l-2 -7q-40 -143 -40 -465t40 -465l2 -9q-49 28 -87 64q-143 137 -143 410zM280 1498q0 59 42 101q43 43 102 43t102 -43q42 -42 42 -101q0 -60 -42 -102t-102 -42t-102 42t-42 102zM329 1498q0 -39 28 -67q29 -29 67 -29t67 29 q28 28 28 67q0 38 -28 66t-67 28t-67 -28t-28 -66zM378 1498q0 18 14 32t32 14t32 -14t14 -32q0 -19 -14 -33q-13 -13 -32 -13t-32 13q-14 14 -14 33zM444 624q0 -310 36 -438q45 -159 252 -159q183 0 235 127q53 130 53 470t-53 470q-52 127 -235 127q-207 0 -252 -159 q-36 -127 -36 -438zM896 1498q0 58 43 101t101 43q59 0 102 -43q42 -42 42 -101q0 -60 -42 -102t-102 -42q-59 0 -101 42q-43 43 -43 102zM946 1498q0 -39 28 -67q29 -29 66 -29q38 0 67 29t29 67q0 37 -29 66q-28 28 -67 28q-38 0 -66 -28t-28 -66zM956 52q145 35 241 127 q158 150 158 445q0 294 -160 445q-96 92 -239 127q36 -34 56 -84q57 -138 57 -488t-57 -488q-20 -51 -56 -84zM994 1498q0 18 14 32t32 14q19 0 33 -14q13 -13 13 -32q0 -20 -13 -33t-33 -13q-19 0 -32 13q-14 14 -14 33zM1068 146q50 152 50 478q0 328 -49 476 q58 -33 93 -66q144 -138 144 -410q0 -274 -142 -410q-38 -36 -96 -68z" />
<glyph unicode="&#xd7;" horiz-adv-x="943" d="M60 967l72 65l338 -341l348 348l65 -69l-345 -346l340 -338l-72 -65l-336 336l-333 -336l-65 72l331 331z" />
<glyph unicode="&#xd8;" d="M60 624q0 314 175 480t497 166q309 0 482 -152l151 150l34 -35l-150 -149q155 -166 155 -460q0 -315 -173 -480q-175 -166 -499 -166q-297 0 -466 136l-135 -133l-34 35l133 131q-170 165 -170 477zM109 624q0 -294 159 -446q92 -88 234 -125q-48 45 -69 119 q-38 135 -38 452t38 452q21 73 69 118q-143 -38 -233 -125q-160 -151 -160 -445zM158 624q0 272 144 410q34 33 86 62l-2 -7q-40 -143 -40 -465t40 -465l2 -9q-49 28 -87 64q-143 137 -143 410zM444 624q0 -162 8 -257l554 547q-14 120 -39 180q-52 127 -235 127 q-207 0 -252 -159q-36 -127 -36 -438zM458 304q9 -74 22 -118q45 -159 252 -159q183 0 235 127q53 130 53 470q0 121 -8 227zM956 52q145 35 241 127q158 150 158 445q0 294 -160 445q-96 92 -239 127q36 -34 56 -84q57 -138 57 -488t-57 -488q-20 -51 -56 -84zM1068 146 q50 152 50 478q0 328 -49 476q58 -33 93 -66q144 -138 144 -410q0 -274 -142 -410q-38 -36 -96 -68z" />
<glyph unicode="&#xd9;" horiz-adv-x="1722" d="M30 1199v49h480q96 0 96 -217v-742q0 -262 240 -262q123 0 244 89q-4 58 -4 101v1004q253 0 336 49h48v-1053q0 -168 192 -168v-49h-480q-22 0 -50 31t-33 31q-123 -84 -253 -84q-624 0 -624 454v599q0 168 -192 168zM200 1199q71 -57 71 -168v-599q0 -59 13 -114 q13 -53 40 -98t72 -80q43 -34 107 -60q63 -26 145 -39q-91 79 -91 248v742q0 101 -21 145q-11 23 -26 23h-310zM298 1150h196q14 -39 14 -119v-742q0 -99 28 -170l-15 6q-57 22 -95 53q-37 31 -60 68q-24 39 -35 84q-11 49 -11 102v599q0 68 -22 119zM502 1554v24h312 q11 0 26 -20q15 -30 87 -218h-101l-153 144q-70 67 -171 70zM697 1528l9 -8l140 -132h10q-42 108 -56 140h-103zM1135 217q0 -56 3 -97q2 -26 30 -56q9 -11 18 -15h306q-71 57 -71 168v999q-91 -40 -286 -44v-955zM1184 217v908q111 4 188 23v-931q0 -68 22 -119h-190 q-15 16 -17 26q-3 39 -3 93z" />
<glyph unicode="&#xda;" horiz-adv-x="1722" d="M30 1199v49h480q96 0 96 -217v-742q0 -262 240 -262q123 0 244 89q-4 58 -4 101v1004q253 0 336 49h48v-1053q0 -168 192 -168v-49h-480q-22 0 -50 31t-33 31q-123 -84 -253 -84q-624 0 -624 454v599q0 168 -192 168zM200 1199q71 -57 71 -168v-599q0 -59 13 -114 q13 -53 40 -98t72 -80q43 -34 107 -60q63 -26 145 -39q-91 79 -91 248v742q0 101 -21 145q-11 23 -26 23h-310zM298 1150h196q14 -39 14 -119v-742q0 -99 28 -170l-15 6q-57 22 -95 53q-37 31 -60 68q-24 39 -35 84q-11 49 -11 102v599q0 68 -22 119zM756 1340 q44 160 88 218q15 20 26 20h312v-24q-102 -3 -172 -70l-152 -144h-102zM822 1388h16l139 132l9 8h-104q-27 -36 -60 -140zM1135 217q0 -56 3 -97q2 -26 30 -56q9 -11 18 -15h306q-71 57 -71 168v999q-91 -40 -286 -44v-955zM1184 217v908q111 4 188 23v-931q0 -68 22 -119 h-190q-15 16 -17 26q-3 39 -3 93z" />
<glyph unicode="&#xdb;" horiz-adv-x="1722" d="M30 1199v49h480q96 0 96 -217v-742q0 -262 240 -262q123 0 244 89q-4 58 -4 101v1004q253 0 336 49h48v-1053q0 -168 192 -168v-49h-480q-22 0 -50 31t-33 31q-123 -84 -253 -84q-624 0 -624 454v599q0 168 -192 168zM200 1199q71 -57 71 -168v-599q0 -59 13 -114 q13 -53 40 -98t72 -80q43 -34 107 -60q63 -26 145 -39q-91 79 -91 248v742q0 101 -21 145q-11 23 -26 23h-310zM298 1150h196q14 -39 14 -119v-742q0 -99 28 -170l-15 6q-57 22 -95 53q-37 31 -60 68q-24 39 -35 84q-11 49 -11 102v599q0 68 -22 119zM516 1340l138 234h384 l139 -234h-92l-114 103q-69 63 -125 63q-55 0 -124 -63l-114 -103h-92zM616 1414l72 66q29 26 62 46h-68zM942 1526q33 -20 62 -46l72 -66l-66 112h-68zM1135 217q0 -56 3 -97q2 -26 30 -56q9 -11 18 -15h306q-71 57 -71 168v999q-91 -40 -286 -44v-955zM1184 217v908 q111 4 188 23v-931q0 -68 22 -119h-190q-15 16 -17 26q-3 39 -3 93z" />
<glyph unicode="&#xdc;" horiz-adv-x="1722" d="M30 1199v49h480q96 0 96 -217v-742q0 -262 240 -262q123 0 244 89q-4 58 -4 101v1004q253 0 336 49h48v-1053q0 -168 192 -168v-49h-480q-22 0 -50 31t-33 31q-123 -84 -253 -84q-624 0 -624 454v599q0 168 -192 168zM200 1199q71 -57 71 -168v-599q0 -59 13 -114 q13 -53 40 -98t72 -80q43 -34 107 -60q63 -26 145 -39q-91 79 -91 248v742q0 101 -21 145q-11 23 -26 23h-310zM298 1150h196q14 -39 14 -119v-742q0 -99 28 -170l-15 6q-57 22 -95 53q-37 31 -60 68q-24 39 -35 84q-11 49 -11 102v599q0 68 -22 119zM390 1498q0 59 42 101 q43 43 102 43t102 -43q42 -42 42 -101q0 -60 -42 -102t-102 -42t-102 42t-42 102zM439 1498q0 -39 28 -67q29 -29 67 -29t67 29q28 28 28 67q0 38 -28 66t-67 28t-67 -28t-28 -66zM488 1498q0 18 14 32t32 14t32 -14t14 -32q0 -19 -14 -33q-13 -13 -32 -13t-32 13 q-14 14 -14 33zM1006 1498q0 58 43 101t101 43q59 0 102 -43q42 -42 42 -101q0 -60 -42 -102t-102 -42q-59 0 -101 42q-43 43 -43 102zM1056 1498q0 -39 28 -67q29 -29 66 -29q38 0 67 29t29 67q0 37 -29 66q-28 28 -67 28q-38 0 -66 -28t-28 -66zM1104 1498q0 18 14 32 t32 14q19 0 33 -14q13 -13 13 -32q0 -20 -13 -33t-33 -13q-19 0 -32 13q-14 14 -14 33zM1135 217q0 -56 3 -97q2 -26 30 -56q9 -11 18 -15h306q-71 57 -71 168v999q-91 -40 -286 -44v-955zM1184 217v908q111 4 188 23v-931q0 -68 22 -119h-190q-15 16 -17 26q-3 39 -3 93z " />
<glyph unicode="&#xdd;" horiz-adv-x="1513" d="M30 1199v49h478q78 0 170 -178l256 -445l256 445q16 28 16 55q0 72 -151 74v49h398v-49q-133 0 -213 -138l-266 -463v-381q0 -168 192 -168v-49h-768v49q192 0 192 168v239l-337 605q-76 138 -223 138zM196 1199q59 -40 100 -114l338 -605q6 -10 6 -24v-239 q0 -111 -71 -168h427q-70 57 -70 168v359q-22 3 -34 24l-257 447q-32 62 -60 98q-28 37 -51 49q-8 5 -16 5h-312zM312 1150h190q12 -7 34 -35q28 -38 56 -91l257 -448q10 -19 27 -31v-328q0 -65 23 -119h-233q22 51 22 119v239q0 26 -12 48l-338 604q-10 19 -26 42z M606 1339q46 166 86 219q15 19 27 19h312v-24q-102 -3 -171 -69l-154 -145h-100zM671 1388h16l139 131l10 9h-105q-27 -36 -60 -140zM1225 1199q18 -18 25 -41q21 22 46 41h-71z" />
<glyph unicode="&#xde;" horiz-adv-x="1560" d="M72 0v49q192 0 192 168v814q0 168 -192 168v49h768v-49q-179 0 -190 -119h190q336 0 470 -94q202 -142 202 -302q0 -196 -202 -314q-140 -82 -470 -82h-192v-71q0 -168 192 -168v-49h-768zM242 49h428q-71 57 -71 168v814q0 40 1 53q6 72 60 115h-418q71 -57 71 -168 v-814q0 -111 -71 -168zM340 98q22 51 22 119v814q0 68 -22 119h226q-11 -30 -14 -62q-2 -28 -2 -57v-814q0 -68 22 -119h-232zM648 337h192q288 0 288 347t-288 347h-192v-694zM1046 348q159 18 239 65q92 54 134 119q44 68 44 152q0 135 -181 262q-77 54 -234 74 q22 -17 36 -33q30 -32 49 -71q21 -43 32 -100q12 -60 12 -132t-12 -132q-11 -54 -33 -100q-20 -42 -48 -71q-17 -19 -38 -33zM1171 420l5 10q23 47 36 112q14 67 14 142t-14 142q-13 65 -36 112l-2 5q49 -17 79 -37q161 -114 161 -222q0 -68 -36 -124q-37 -58 -118 -105 q-34 -20 -89 -35z" />
<glyph unicode="&#xdf;" horiz-adv-x="1704" d="M60 0v49q192 0 192 168v394h-92v49h92q28 610 744 610q271 0 394 -138v-40l-207 -120q-64 -40 -64 -92q0 -60 134 -153l221 -153q170 -118 170 -264q0 -332 -513 -332q-129 0 -224 89q-25 24 -51 24q-54 0 -54 -91h-50l20 326h49q0 -22 39 -102q96 -197 271 -197 q199 0 199 119q0 70 -106 144l-211 147q-176 122 -176 256q0 130 133 207l352 206v14q-95 101 -326 101q-360 0 -360 -561v-660h-576zM230 49h357v611q0 405 185 542q-450 -81 -471 -544q0 -12 -6 -22q6 -11 6 -25v-394q0 -111 -71 -168zM328 98q22 51 22 119v394v45 q7 169 76 282q68 113 203 172q-91 -163 -91 -450v-562h-210zM810 128q20 11 42 12q-22 34 -38 67zM886 690q0 -104 155 -212l211 -147q126 -89 126 -185q0 -60 -36 -100q253 53 253 264q0 120 -149 224l-221 153q-151 105 -155 189q0 19 2 28l-78 -46q-108 -63 -108 -168z M935 690q0 40 20 70t64 56l13 8q34 -87 165 -178l221 -153q128 -89 128 -183q0 -65 -30 -112q-29 -45 -90 -74q2 16 2 22q0 122 -148 225l-211 147q-134 93 -134 172z" />
<glyph unicode="&#xe0;" horiz-adv-x="1626" d="M60 342q0 422 822 422h108v110q0 347 -317 347q-87 0 -170 -19q-55 -12 -55 -40q0 -19 26 -47q43 -42 43 -104q0 -61 -43 -104t-104 -43t-104 43q-44 44 -44 105q0 51 32 95q69 95 206 133q106 30 213 30q701 0 701 -636v-417q0 -168 192 -168v-49h-480q-23 0 -50 40 t-36 34q-122 -96 -298 -96q-642 0 -642 364zM109 342q0 -59 19 -106q18 -45 64 -86q45 -40 112 -67q70 -26 168 -41l36 -5q-13 11 -28 27q-28 31 -44 65q-18 37 -30 92q-11 49 -11 121q0 204 112 313q39 38 49 39q-116 -18 -193 -46q-89 -32 -146 -78q-57 -47 -83 -103 q-25 -54 -25 -125zM158 342q0 58 21 104t69 86q50 41 132 70q10 4 32 10q-66 -110 -66 -270q0 -71 12 -131q11 -57 34 -103v-1q-31 7 -70 22q-61 24 -98 57q-34 30 -50 69q-16 38 -16 87zM272 1012q0 -42 28 -70q29 -29 70 -29q40 0 69 29t29 69t-29 69q-25 27 -35 54v2 q-1 2 -1 4q0 1 -1 4.5t-1 5.5q0 9 -1 12v4q-68 -33 -106 -88q-22 -31 -22 -66zM320 1012q0 19 14 38q15 22 37 40q14 -24 33 -44q15 -15 15 -35q0 -21 -14 -35t-35 -14t-34 14q-16 16 -16 36zM444 342q0 -315 258 -315q169 0 293 101q-5 165 -5 312v275h-148 q-398 0 -398 -373zM466 1554v24h312q11 0 26 -20q15 -30 87 -218h-101l-153 144q-70 67 -171 70zM661 1528l9 -8l140 -132h10q-42 108 -56 140h-103zM916 1196q123 -99 123 -322v-434q0 -145 5 -310l1 -24l10 -10q5 -7 21 -29q9 -13 15 -18h305q-71 57 -71 168v417 q0 91 -13 162t-44 139q-28 61 -78 116q-45 49 -116 88q-64 35 -158 57zM1049 1096h1q63 -34 104 -78q42 -45 69 -104q28 -59 40 -127q13 -66 13 -153v-417q0 -68 22 -119h-184q-3 4 -7.5 10.5t-7.5 10.5t-6 7v6q-5 165 -5 308v434q0 129 -39 222z" />
<glyph unicode="&#xe1;" horiz-adv-x="1626" d="M60 342q0 422 822 422h108v110q0 347 -317 347q-87 0 -170 -19q-55 -12 -55 -40q0 -19 26 -47q43 -42 43 -104q0 -61 -43 -104t-104 -43t-104 43q-44 44 -44 105q0 51 32 95q69 95 206 133q106 30 213 30q701 0 701 -636v-417q0 -168 192 -168v-49h-480q-23 0 -50 40 t-36 34q-122 -96 -298 -96q-642 0 -642 364zM109 342q0 -59 19 -106q18 -45 64 -86q45 -40 112 -67q70 -26 168 -41l36 -5q-13 11 -28 27q-28 31 -44 65q-18 37 -30 92q-11 49 -11 121q0 204 112 313q39 38 49 39q-116 -18 -193 -46q-89 -32 -146 -78q-57 -47 -83 -103 q-25 -54 -25 -125zM158 342q0 58 21 104t69 86q50 41 132 70q10 4 32 10q-66 -110 -66 -270q0 -71 12 -131q11 -57 34 -103v-1q-31 7 -70 22q-61 24 -98 57q-34 30 -50 69q-16 38 -16 87zM272 1012q0 -42 28 -70q29 -29 70 -29q40 0 69 29t29 69t-29 69q-25 27 -35 54v2 q-1 2 -1 4q0 1 -1 4.5t-1 5.5q0 9 -1 12v4q-68 -33 -106 -88q-22 -31 -22 -66zM320 1012q0 19 14 38q15 22 37 40q14 -24 33 -44q15 -15 15 -35q0 -21 -14 -35t-35 -14t-34 14q-16 16 -16 36zM444 342q0 -315 258 -315q169 0 293 101q-5 165 -5 312v275h-148 q-398 0 -398 -373zM623 1340q45 162 87 218q15 20 26 20h312v-24q-101 -3 -171 -70l-153 -144h-101zM688 1388h16l140 132l9 8h-105q-27 -36 -60 -140zM916 1196q123 -99 123 -322v-434q0 -145 5 -310l1 -24l10 -10q5 -7 21 -29q9 -13 15 -18h305q-71 57 -71 168v417 q0 91 -13 162t-44 139q-28 61 -78 116q-45 49 -116 88q-64 35 -158 57zM1049 1096h1q63 -34 104 -78q42 -45 69 -104q28 -59 40 -127q13 -66 13 -153v-417q0 -68 22 -119h-184q-3 4 -7.5 10.5t-7.5 10.5t-6 7v6q-5 165 -5 308v434q0 129 -39 222z" />
<glyph unicode="&#xe2;" horiz-adv-x="1626" d="M60 342q0 422 822 422h108v110q0 347 -317 347q-87 0 -170 -19q-55 -12 -55 -40q0 -19 26 -47q43 -42 43 -104q0 -61 -43 -104t-104 -43t-104 43q-44 44 -44 105q0 51 32 95q69 95 206 133q106 30 213 30q701 0 701 -636v-417q0 -168 192 -168v-49h-480q-23 0 -50 40 t-36 34q-122 -96 -298 -96q-642 0 -642 364zM109 342q0 -59 19 -106q18 -45 64 -86q45 -40 112 -67q70 -26 168 -41l36 -5q-13 11 -28 27q-28 31 -44 65q-18 37 -30 92q-11 49 -11 121q0 204 112 313q39 38 49 39q-116 -18 -193 -46q-89 -32 -146 -78q-57 -47 -83 -103 q-25 -54 -25 -125zM158 342q0 58 21 104t69 86q50 41 132 70q10 4 32 10q-66 -110 -66 -270q0 -71 12 -131q11 -57 34 -103v-1q-31 7 -70 22q-61 24 -98 57q-34 30 -50 69q-16 38 -16 87zM272 1012q0 -42 28 -70q29 -29 70 -29q40 0 69 29t29 69t-29 69q-25 27 -35 54v2 q-1 2 -1 4q0 1 -1 4.5t-1 5.5q0 9 -1 12v4q-68 -33 -106 -88q-22 -31 -22 -66zM320 1012q0 19 14 38q15 22 37 40q14 -24 33 -44q15 -15 15 -35q0 -21 -14 -35t-35 -14t-34 14q-16 16 -16 36zM442 1340l139 234h383l140 -234h-92l-114 103q-69 63 -125 63t-125 -63 l-114 -103h-92zM444 342q0 -315 258 -315q169 0 293 101q-5 165 -5 312v275h-148q-398 0 -398 -373zM543 1414l72 66q29 26 62 46h-68zM869 1526q30 -18 61 -46l72 -66l-66 112h-67zM916 1196q123 -99 123 -322v-434q0 -145 5 -310l1 -24l10 -10q5 -7 21 -29q9 -13 15 -18 h305q-71 57 -71 168v417q0 91 -13 162t-44 139q-28 61 -78 116q-45 49 -116 88q-64 35 -158 57zM1049 1096h1q63 -34 104 -78q42 -45 69 -104q28 -59 40 -127q13 -66 13 -153v-417q0 -68 22 -119h-184q-3 4 -7.5 10.5t-7.5 10.5t-6 7v6q-5 165 -5 308v434q0 129 -39 222z " />
<glyph unicode="&#xe3;" horiz-adv-x="1626" d="M60 342q0 422 822 422h108v110q0 347 -317 347q-87 0 -170 -19q-55 -12 -55 -40q0 -19 26 -47q43 -42 43 -104q0 -61 -43 -104t-104 -43t-104 43q-44 44 -44 105q0 51 32 95q69 95 206 133q106 30 213 30q701 0 701 -636v-417q0 -168 192 -168v-49h-480q-23 0 -50 40 t-36 34q-122 -96 -298 -96q-642 0 -642 364zM109 342q0 -59 19 -106q18 -45 64 -86q45 -40 112 -67q70 -26 168 -41l36 -5q-13 11 -28 27q-28 31 -44 65q-18 37 -30 92q-11 49 -11 121q0 204 112 313q39 38 49 39q-116 -18 -193 -46q-89 -32 -146 -78q-57 -47 -83 -103 q-25 -54 -25 -125zM158 342q0 58 21 104t69 86q50 41 132 70q10 4 32 10q-66 -110 -66 -270q0 -71 12 -131q11 -57 34 -103v-1q-31 7 -70 22q-61 24 -98 57q-34 30 -50 69q-16 38 -16 87zM272 1012q0 -42 28 -70q29 -29 70 -29q40 0 69 29t29 69t-29 69q-25 27 -35 54v2 q-1 2 -1 4q0 1 -1 4.5t-1 5.5q0 9 -1 12v4q-68 -33 -106 -88q-22 -31 -22 -66zM320 1012q0 19 14 38q15 22 37 40q14 -24 33 -44q15 -15 15 -35q0 -21 -14 -35t-35 -14t-34 14q-16 16 -16 36zM384 1391q0 208 218 208q57 0 132 -27l184 -68q59 -22 100 -22q73 0 103 72h49 v-13q0 -215 -224 -215q-50 0 -123 27l-185 67q-72 26 -108 26q-77 0 -94 -86h-50q-2 22 -2 31zM444 342q0 -315 258 -315q169 0 293 101q-5 165 -5 312v275h-148q-398 0 -398 -373zM446 1470q28 22 79 22q58 0 129 -26l186 -67q63 -23 120 -23q118 0 149 84q-32 -25 -86 -25 q-57 0 -121 23l-186 68q-68 24 -123 24q-116 0 -147 -80zM916 1196q123 -99 123 -322v-434q0 -145 5 -310l1 -24l10 -10q5 -7 21 -29q9 -13 15 -18h305q-71 57 -71 168v417q0 91 -13 162t-44 139q-28 61 -78 116q-45 49 -116 88q-64 35 -158 57zM1049 1096h1q63 -34 104 -78 q42 -45 69 -104q28 -59 40 -127q13 -66 13 -153v-417q0 -68 22 -119h-184q-3 4 -7.5 10.5t-7.5 10.5t-6 7v6q-5 165 -5 308v434q0 129 -39 222z" />
<glyph unicode="&#xe4;" horiz-adv-x="1626" d="M60 342q0 422 822 422h108v110q0 347 -317 347q-87 0 -170 -19q-55 -12 -55 -40q0 -19 26 -47q43 -42 43 -104q0 -61 -43 -104t-104 -43t-104 43q-44 44 -44 105q0 51 32 95q69 95 206 133q106 30 213 30q701 0 701 -636v-417q0 -168 192 -168v-49h-480q-23 0 -50 40 t-36 34q-122 -96 -298 -96q-642 0 -642 364zM109 342q0 -59 19 -106q18 -45 64 -86q45 -40 112 -67q70 -26 168 -41l36 -5q-13 11 -28 27q-28 31 -44 65q-18 37 -30 92q-11 49 -11 121q0 204 112 313q39 38 49 39q-116 -18 -193 -46q-89 -32 -146 -78q-57 -47 -83 -103 q-25 -54 -25 -125zM158 342q0 58 21 104t69 86q50 41 132 70q10 4 32 10q-66 -110 -66 -270q0 -71 12 -131q11 -57 34 -103v-1q-31 7 -70 22q-61 24 -98 57q-34 30 -50 69q-16 38 -16 87zM272 1012q0 -42 28 -70q29 -29 70 -29q40 0 69 29t29 69t-29 69q-25 27 -35 54v2 q-1 2 -1 4q0 1 -1 4.5t-1 5.5q0 9 -1 12v4q-68 -33 -106 -88q-22 -31 -22 -66zM296 1498q0 58 43 101t101 43q59 0 102 -43q42 -42 42 -101q0 -60 -42 -102t-102 -42q-59 0 -101 42q-43 43 -43 102zM320 1012q0 19 14 38q15 22 37 40q14 -24 33 -44q15 -15 15 -35 q0 -21 -14 -35t-35 -14t-34 14q-16 16 -16 36zM346 1498q0 -39 28 -67q29 -29 66 -29q38 0 67 29t29 67q0 37 -29 66q-28 28 -67 28q-38 0 -66 -28t-28 -66zM394 1498q0 18 14 32t32 14q19 0 33 -14q13 -13 13 -32q0 -20 -13 -33t-33 -13q-19 0 -32 13q-14 14 -14 33z M444 342q0 -315 258 -315q169 0 293 101q-5 165 -5 312v275h-148q-398 0 -398 -373zM913 1498q0 58 43 101t101 43t101 -43t43 -101q0 -59 -43 -102q-42 -42 -101 -42t-101 42q-43 43 -43 102zM916 1196q123 -99 123 -322v-434q0 -145 5 -310l1 -24l10 -10q5 -7 21 -29 q9 -13 15 -18h305q-71 57 -71 168v417q0 91 -13 162t-44 139q-28 61 -78 116q-45 49 -116 88q-64 35 -158 57zM962 1498q0 -39 28 -67q29 -29 67 -29t67 29q28 28 28 67q0 38 -28 66t-67 28t-67 -28t-28 -66zM1011 1498q0 18 14 32t32 14t32 -14t14 -32q0 -19 -14 -33 q-13 -13 -32 -13t-32 13q-14 14 -14 33zM1049 1096h1q63 -34 104 -78q42 -45 69 -104q28 -59 40 -127q13 -66 13 -153v-417q0 -68 22 -119h-184q-3 4 -7.5 10.5t-7.5 10.5t-6 7v6q-5 165 -5 308v434q0 129 -39 222z" />
<glyph unicode="&#xe5;" horiz-adv-x="1626" d="M60 342q0 422 822 422h108v110q0 347 -317 347q-87 0 -170 -19q-55 -12 -55 -40q0 -19 26 -47q43 -42 43 -104q0 -61 -43 -104t-104 -43t-104 43q-44 44 -44 105q0 51 32 95q69 95 206 133q106 30 213 30q701 0 701 -636v-417q0 -168 192 -168v-49h-480q-23 0 -50 40 t-36 34q-122 -96 -298 -96q-642 0 -642 364zM109 342q0 -59 19 -106q18 -45 64 -86q45 -40 112 -67q70 -26 168 -41l36 -5q-13 11 -28 27q-28 31 -44 65q-18 37 -30 92q-11 49 -11 121q0 204 112 313q39 38 49 39q-116 -18 -193 -46q-89 -32 -146 -78q-57 -47 -83 -103 q-25 -54 -25 -125zM158 342q0 58 21 104t69 86q50 41 132 70q10 4 32 10q-66 -110 -66 -270q0 -71 12 -131q11 -57 34 -103v-1q-31 7 -70 22q-61 24 -98 57q-34 30 -50 69q-16 38 -16 87zM272 1012q0 -42 28 -70q29 -29 70 -29q40 0 69 29t29 69t-29 69q-25 27 -35 54v2 q-1 2 -1 4q0 1 -1 4.5t-1 5.5q0 9 -1 12v4q-68 -33 -106 -88q-22 -31 -22 -66zM320 1012q0 19 14 38q15 22 37 40q14 -24 33 -44q15 -15 15 -35q0 -21 -14 -35t-35 -14t-34 14q-16 16 -16 36zM444 342q0 -315 258 -315q169 0 293 101q-5 165 -5 312v275h-148 q-398 0 -398 -373zM578 1478q0 61 50 109q48 47 106 47q60 0 108 -47t48 -109q0 -61 -48 -108q-50 -48 -108 -48q-55 0 -106 49q-50 48 -50 107zM656 1478q0 -140 78 -140t78 140q0 141 -78 141t-78 -141zM916 1196q123 -99 123 -322v-434q0 -145 5 -310l1 -24l10 -10 q5 -7 21 -29q9 -13 15 -18h305q-71 57 -71 168v417q0 91 -13 162t-44 139q-28 61 -78 116q-45 49 -116 88q-64 35 -158 57zM1049 1096h1q63 -34 104 -78q42 -45 69 -104q28 -59 40 -127q13 -66 13 -153v-417q0 -68 22 -119h-184q-3 4 -7.5 10.5t-7.5 10.5t-6 7v6 q-5 165 -5 308v434q0 129 -39 222z" />
<glyph unicode="&#xe6;" horiz-adv-x="2394" d="M60 342q0 422 822 422h108v110q0 347 -317 347q-86 0 -155 -15q-70 -15 -70 -44q0 -19 26 -47q43 -42 43 -103q0 -62 -43 -105t-104 -43t-104 43t-43 99t31 101q68 95 189 129q120 34 230 34q321 0 511 -161q185 161 492 161q306 0 483 -172q175 -171 175 -474h-730 q-117 0 -230 38v-235q3 -223 58 -311q56 -89 230 -89q173 0 326 85q151 84 242 226l42 -26q-99 -153 -260 -243q-163 -91 -350 -91q-172 0 -281 53q-107 52 -197 159q-155 -129 -250 -168q-90 -44 -232 -44q-642 0 -642 364zM109 342q0 -258 399 -305q-113 92 -113 301 q0 251 161 356q-447 -68 -447 -352zM158 342q0 193 254 270q-66 -110 -66 -260q0 -153 46 -245q-234 57 -234 235zM270 1009q0 -37 30 -67q29 -29 70 -29q40 0 69 29t29 70q0 38 -28 68q-28 29 -32 42q-5 15 -5 18q0 1 -1 4.5t-1 5.5t-0.5 5.5t-0.5 4.5v4v2q-67 -33 -98 -76 q-32 -44 -32 -81zM320 1020q0 30 51 70q14 -22 31 -40q17 -17 17 -39q0 -21 -14 -35t-35 -14t-35 14q-15 15 -15 44zM444 342q0 -315 258 -315q164 0 288 101v587h-148q-398 0 -398 -373zM924 1190q115 -105 115 -316v-734q41 28 115 88q15 13 35 11q19 -1 33 -18 q81 -96 177 -144q-72 97 -73 357q-1 174 -1 326q6 323 99 428q-117 -37 -208 -116q-32 -27 -63 0q-95 80 -229 118zM1054 1082q35 -20 65 -46q31 -26 65 -26h1q37 0 67 27q31 28 68 50q-41 -129 -44 -327v-334q2 -131 18 -212q-19 19 -34 38q-31 37 -68 37q-42 0 -69 -23 l-35 -28v636q0 119 -34 208zM1374 714q112 -41 230 -41h346q0 371 -86 479q-56 69 -216 69q-161 0 -215 -111q-55 -112 -59 -350v-46zM1893 1192q106 -115 106 -519h285q-13 246 -160 391q-92 89 -231 128zM1999 1096q200 -114 231 -374h-182q-3 237 -49 374z" />
<glyph unicode="&#xe7;" horiz-adv-x="1401" d="M60 624q0 314 175 480t497 166q207 0 347 -67q181 -85 181 -222q0 -61 -43 -105q-44 -46 -103 -46q-60 0 -103 43t-43 103q0 39 20 73q24 49 24 64q0 36 -46 57q-108 51 -234 51q-207 0 -252 -159q-36 -127 -36 -438q0 -365 36 -446q67 -151 252 -151q175 0 326 85 q151 84 242 226l42 -26q-99 -153 -260 -243q-163 -91 -350 -91h-43l-17 -72q34 17 84 17q125 0 226 -95q66 -62 66 -156q0 -86 -100 -152q-75 -48 -188 -48q-138 0 -240 114l14 52q107 -116 218 -116q148 0 148 204q0 154 -144 154q-93 0 -142 -40l32 141q-262 19 -413 163 q-173 167 -173 480zM109 624q0 -293 158 -445q98 -94 245 -129q-47 41 -82 120t-35 426q0 345 38 480q21 71 69 118q-143 -38 -233 -125q-160 -151 -160 -445zM158 624q0 343 230 472q-42 -142 -42 -472q0 -364 39 -472q-227 129 -227 472zM910 -445q2 1 5.5 3.5t5.5 3.5 q79 52 79 110q0 71 -52 121l-7 6q9 -33 9 -73q0 -47 -10 -94q-10 -45 -24 -68zM1017 970q0 -33 29 -62q28 -28 67 -28t69 30q29 29 29 71q0 107 -165 183q9 -15 12 -36q3 -27 -2 -42q-6 -18 -22 -50q-17 -34 -17 -66zM1066 973q0 18 4 23l8 16q20 42 26 64q58 -43 58 -95 q0 -21 -15 -37t-34 -16t-33 14t-14 31z" />
<glyph unicode="&#xe8;" d="M60 624q0 314 175 480t497 166t497 -166t175 -480h-960q0 -365 36 -446q67 -151 252 -151q222 0 356 75q153 86 242 226l42 -26q-94 -148 -260 -243q-141 -81 -380 -81q-325 0 -499 166q-173 165 -173 480zM109 624q0 -293 158 -445q98 -94 245 -129q-49 43 -77 108 q-40 89 -40 466v49q0 311 57 445q12 27 30 52q7 9 22 24q-143 -38 -235 -125q-160 -151 -160 -445zM158 624q0 272 144 410q42 39 91 65q-47 -146 -47 -426v-49q0 -362 39 -472q-52 30 -85 62q-142 136 -142 410zM438 1554v24h312q11 0 26 -20q15 -30 87 -218h-101l-153 144 q-70 67 -171 70zM444 673h576q0 323 -36 401q-68 147 -252 147q-182 0 -235 -123q-53 -127 -53 -425zM633 1528l9 -8l140 -132h10q-42 108 -56 140h-103zM954 1196q47 -42 74 -101q41 -90 41 -422h285q-12 257 -159 396q-96 91 -241 127zM1082 1093q47 -28 80 -59 q116 -110 139 -312h-183q-3 271 -36 371z" />
<glyph unicode="&#xe9;" d="M60 624q0 314 175 480t497 166t497 -166t175 -480h-960q0 -365 36 -446q67 -151 252 -151q222 0 356 75q153 86 242 226l42 -26q-94 -148 -260 -243q-141 -81 -380 -81q-325 0 -499 166q-173 165 -173 480zM109 624q0 -293 158 -445q98 -94 245 -129q-49 43 -77 108 q-40 89 -40 466v49q0 311 57 445q12 27 30 52q7 9 22 24q-143 -38 -235 -125q-160 -151 -160 -445zM158 624q0 272 144 410q42 39 91 65q-47 -146 -47 -426v-49q0 -362 39 -472q-52 30 -85 62q-142 136 -142 410zM444 673h576q0 323 -36 401q-68 147 -252 147 q-182 0 -235 -123q-53 -127 -53 -425zM676 1340q44 160 88 218q15 20 26 20h312v-24q-102 -3 -172 -70l-152 -144h-102zM742 1388h16l139 132l9 8h-104q-27 -36 -60 -140zM954 1196q47 -42 74 -101q41 -90 41 -422h285q-12 257 -159 396q-96 91 -241 127zM1082 1093 q47 -28 80 -59q116 -110 139 -312h-183q-3 271 -36 371z" />
<glyph unicode="&#xea;" d="M60 624q0 314 175 480t497 166t497 -166t175 -480h-960q0 -365 36 -446q67 -151 252 -151q222 0 356 75q153 86 242 226l42 -26q-94 -148 -260 -243q-141 -81 -380 -81q-325 0 -499 166q-173 165 -173 480zM109 624q0 -293 158 -445q98 -94 245 -129q-49 43 -77 108 q-40 89 -40 466v49q0 311 57 445q12 27 30 52q7 9 22 24q-143 -38 -235 -125q-160 -151 -160 -445zM158 624q0 272 144 410q42 39 91 65q-47 -146 -47 -426v-49q0 -362 39 -472q-52 30 -85 62q-142 136 -142 410zM426 1340l138 234h384l139 -234h-92l-114 103 q-69 63 -125 63q-55 0 -124 -63l-114 -103h-92zM444 673h576q0 323 -36 401q-68 147 -252 147q-182 0 -235 -123q-53 -127 -53 -425zM526 1414l72 66q29 26 62 46h-68zM852 1526q33 -20 62 -46l72 -66l-66 112h-68zM954 1196q47 -42 74 -101q41 -90 41 -422h285 q-12 257 -159 396q-96 91 -241 127zM1082 1093q47 -28 80 -59q116 -110 139 -312h-183q-3 271 -36 371z" />
<glyph unicode="&#xeb;" d="M60 624q0 314 175 480t497 166t497 -166t175 -480h-960q0 -365 36 -446q67 -151 252 -151q222 0 356 75q153 86 242 226l42 -26q-94 -148 -260 -243q-141 -81 -380 -81q-325 0 -499 166q-173 165 -173 480zM109 624q0 -293 158 -445q98 -94 245 -129q-49 43 -77 108 q-40 89 -40 466v49q0 311 57 445q12 27 30 52q7 9 22 24q-143 -38 -235 -125q-160 -151 -160 -445zM158 624q0 272 144 410q42 39 91 65q-47 -146 -47 -426v-49q0 -362 39 -472q-52 30 -85 62q-142 136 -142 410zM260 1498q0 59 42 101q43 43 102 43t102 -43q42 -42 42 -101 q0 -60 -42 -102t-102 -42t-102 42t-42 102zM309 1498q0 -39 28 -67q29 -29 67 -29t67 29q28 28 28 67q0 38 -28 66t-67 28t-67 -28t-28 -66zM358 1498q0 18 14 32t32 14t32 -14t14 -32q0 -19 -14 -33q-13 -13 -32 -13t-32 13q-14 14 -14 33zM444 673h576q0 323 -36 401 q-68 147 -252 147q-182 0 -235 -123q-53 -127 -53 -425zM876 1498q0 58 43 101t101 43q59 0 102 -43q42 -42 42 -101q0 -60 -42 -102t-102 -42q-59 0 -101 42q-43 43 -43 102zM926 1498q0 -39 28 -67q29 -29 66 -29q38 0 67 29t29 67q0 37 -29 66q-28 28 -67 28 q-38 0 -66 -28t-28 -66zM954 1196q47 -42 74 -101q41 -90 41 -422h285q-12 257 -159 396q-96 91 -241 127zM974 1498q0 18 14 32t32 14q19 0 33 -14q13 -13 13 -32q0 -20 -13 -33t-33 -13q-19 0 -32 13q-14 14 -14 33zM1082 1093q47 -28 80 -59q116 -110 139 -312h-183 q-3 271 -36 371z" />
<glyph unicode="&#xec;" horiz-adv-x="888" d="M60 0v49q192 0 192 168v545q0 168 -192 168v49h768v-49q-192 0 -192 -168v-545q0 -168 192 -168v-49h-768zM124 1484v24h312q12 0 27 -20q15 -30 87 -218h-101l-153 144q-70 67 -172 70zM230 49h428q-71 57 -71 168v545q0 111 71 168h-428q71 -57 71 -168v-545 q0 -111 -71 -168zM320 1458l10 -8l138 -132h10q-48 125 -55 140h-103zM328 98q22 51 22 119v545q0 68 -22 119h232q-22 -51 -22 -119v-545q0 -68 22 -119h-232z" />
<glyph unicode="&#xed;" horiz-adv-x="888" d="M60 0v49q192 0 192 168v545q0 168 -192 168v49h768v-49q-192 0 -192 -168v-545q0 -168 192 -168v-49h-768zM230 49h428q-71 57 -71 168v545q0 111 71 168h-428q71 -57 71 -168v-545q0 -111 -71 -168zM328 98q22 51 22 119v545q0 68 -22 119h232q-22 -51 -22 -119v-545 q0 -68 22 -119h-232zM340 1270q44 160 88 218q15 20 26 20h312v-24q-102 -3 -172 -70l-152 -144h-102zM406 1318h16l139 132l9 8h-104q-27 -36 -60 -140z" />
<glyph unicode="&#xee;" horiz-adv-x="888" d="M60 0v49q192 0 192 168v545q0 168 -192 168v49h768v-49q-192 0 -192 -168v-545q0 -168 192 -168v-49h-768zM114 1270l138 234h384l139 -234h-92l-114 103q-69 63 -125 63q-55 0 -124 -63l-114 -103h-92zM214 1344l72 66q29 26 62 46h-68zM230 49h428q-71 57 -71 168v545 q0 111 71 168h-428q71 -57 71 -168v-545q0 -111 -71 -168zM328 98q22 51 22 119v545q0 68 -22 119h232q-22 -51 -22 -119v-545q0 -68 22 -119h-232zM540 1456q33 -20 62 -46l72 -66l-66 112h-68z" />
<glyph unicode="&#xef;" horiz-adv-x="888" d="M42 1379q0 59 42 101q43 43 102 43t102 -43q42 -42 42 -101t-42 -101q-43 -43 -102 -43t-102 43q-42 42 -42 101zM60 0v49q192 0 192 168v545q0 168 -192 168v49h768v-49q-192 0 -192 -168v-545q0 -168 192 -168v-49h-768zM91 1379q0 -39 28 -67t67 -28q38 0 66 28 q29 29 29 67t-29 67q-28 28 -66 28q-39 0 -67 -28t-28 -67zM140 1379q0 18 14 32t32 14t32 -14t14 -32t-14 -32t-32 -14t-32 14t-14 32zM230 49h428q-71 57 -71 168v545q0 111 71 168h-428q71 -57 71 -168v-545q0 -111 -71 -168zM328 98q22 51 22 119v545q0 68 -22 119h232 q-22 -51 -22 -119v-545q0 -68 22 -119h-232zM558 1379q0 59 42 101q43 43 102 43t102 -43q42 -42 42 -101t-42 -101q-43 -43 -102 -43t-102 43q-42 42 -42 101zM607 1379q0 -38 29 -67q28 -28 66 -28q39 0 67 28t28 67t-28 67t-67 28q-38 0 -66 -28q-29 -29 -29 -67z M656 1379q0 18 14 32t32 14t32 -14t14 -32t-14 -32t-32 -14t-32 14t-14 32z" />
<glyph unicode="&#xf0;" horiz-adv-x="1612" d="M60 0v49q184 0 192 147v368h-180l12 120h168v347q0 168 -192 168v49h820q322 0 497 -166t175 -458q0 -293 -173 -458q-175 -166 -499 -166h-820zM230 1199q71 -57 71 -168v-837q-4 -94 -68 -145h354v1150h-357zM328 1150h210v-1052h-208q17 39 20 95v838q0 68 -22 119z M636 49h244q183 0 235 127q53 130 53 448t-53 448q-52 127 -235 127h-244v-515h232l-12 -120h-220v-515zM1104 74q145 35 241 127q158 150 158 423q0 272 -160 423q-96 91 -239 127q36 -34 56 -84q57 -138 57 -466t-57 -466q-20 -51 -56 -84zM1216 168q50 150 50 456 q0 307 -49 454q58 -33 93 -66q144 -138 144 -388q0 -252 -142 -388q-38 -36 -96 -68z" />
<glyph unicode="&#xf1;" horiz-adv-x="1752" d="M60 0v49q192 0 192 168v814q0 168 -192 168v49h478q21 0 48 -33t32 -33q125 88 258 88q624 0 624 -454v-599q0 -168 192 -168v-49h-748v49q172 0 172 168v575q0 429 -240 429q-123 0 -244 -89q4 -40 4 -101v-814q0 -168 172 -168v-49h-748zM230 49h422q-65 57 -65 168 v814q0 68 -3 95q-1 6 1 18q-2 1 -6 5q-6 5 -31 35q-9 10 -15 15h-303q71 -57 71 -168v-814q0 -111 -71 -168zM328 98q22 51 22 119v814q0 68 -22 119h184q23 -28 24 -32q2 -17 2 -87v-814q0 -67 21 -119h-231zM478 1398q0 208 218 208q53 0 131 -28l185 -67q59 -22 100 -22 q72 0 102 72h50v-13q0 -214 -224 -214q-53 0 -124 26l-185 67q-69 25 -108 25q-77 0 -94 -86h-49q-2 22 -2 32zM539 1476q30 24 79 24q56 0 130 -27l185 -67q66 -24 121 -24q116 0 148 86q-34 -26 -86 -26q-57 0 -121 23l-185 67q-70 25 -124 25q-116 0 -147 -81zM1041 1212 q124 -109 124 -420v-575q0 -111 -65 -168h422q-71 57 -71 168v599q0 66 -13 118t-44 100t-78 82q-53 38 -116 60q-75 26 -159 36zM1153 1140q4 -1 11.5 -4t20 -7t22.5 -8q37 -13 79 -44q41 -30 67 -70q24 -37 37 -86q12 -47 12 -105v-599q0 -68 22 -119h-231q21 53 21 119 v575q0 222 -61 348z" />
<glyph unicode="&#xf2;" d="M60 624q0 314 175 480t497 166t497 -166t175 -480q0 -315 -173 -480q-175 -166 -499 -166q-325 0 -499 166q-173 165 -173 480zM109 624q0 -294 159 -446q92 -88 234 -125q-48 45 -69 119q-38 135 -38 452t38 452q21 73 69 118q-143 -38 -233 -125q-160 -151 -160 -445z M158 624q0 272 144 410q34 33 86 62l-2 -7q-40 -143 -40 -465t40 -465l2 -9q-49 28 -87 64q-143 137 -143 410zM444 624q0 -310 36 -438q45 -159 252 -159q183 0 235 127q53 130 53 470t-53 470q-52 127 -235 127q-207 0 -252 -159q-36 -127 -36 -438zM462 1554v24h312 q11 0 26 -20q15 -30 87 -218h-101l-153 144q-70 67 -171 70zM657 1528l9 -8l140 -132h10q-42 108 -56 140h-103zM956 52q145 35 241 127q158 150 158 445q0 294 -160 445q-96 92 -239 127q36 -34 56 -84q57 -138 57 -488t-57 -488q-20 -51 -56 -84zM1068 146q50 152 50 478 q0 328 -49 476q58 -33 93 -66q144 -138 144 -410q0 -274 -142 -410q-38 -36 -96 -68z" />
<glyph unicode="&#xf3;" d="M60 624q0 314 175 480t497 166t497 -166t175 -480q0 -315 -173 -480q-175 -166 -499 -166q-325 0 -499 166q-173 165 -173 480zM109 624q0 -294 159 -446q92 -88 234 -125q-48 45 -69 119q-38 135 -38 452t38 452q21 73 69 118q-143 -38 -233 -125q-160 -151 -160 -445z M158 624q0 272 144 410q34 33 86 62l-2 -7q-40 -143 -40 -465t40 -465l2 -9q-49 28 -87 64q-143 137 -143 410zM444 624q0 -310 36 -438q45 -159 252 -159q183 0 235 127q53 130 53 470t-53 470q-52 127 -235 127q-207 0 -252 -159q-36 -127 -36 -438zM648 1340 q45 164 86 218q15 20 27 20h312v-24q-101 -3 -171 -70l-154 -144h-100zM713 1388h16l139 132l10 8h-105q-27 -36 -60 -140zM956 52q145 35 241 127q158 150 158 445q0 294 -160 445q-96 92 -239 127q36 -34 56 -84q57 -138 57 -488t-57 -488q-20 -51 -56 -84zM1068 146 q50 152 50 478q0 328 -49 476q58 -33 93 -66q144 -138 144 -410q0 -274 -142 -410q-38 -36 -96 -68z" />
<glyph unicode="&#xf4;" d="M60 624q0 314 175 480t497 166t497 -166t175 -480q0 -315 -173 -480q-175 -166 -499 -166q-325 0 -499 166q-173 165 -173 480zM109 624q0 -294 159 -446q92 -88 234 -125q-48 45 -69 119q-38 135 -38 452t38 452q21 73 69 118q-143 -38 -233 -125q-160 -151 -160 -445z M158 624q0 272 144 410q34 33 86 62l-2 -7q-40 -143 -40 -465t40 -465l2 -9q-49 28 -87 64q-143 137 -143 410zM402 1340l138 234h384l139 -234h-92l-114 103q-69 63 -125 63q-55 0 -124 -63l-114 -103h-92zM444 624q0 -310 36 -438q45 -159 252 -159q183 0 235 127 q53 130 53 470t-53 470q-52 127 -235 127q-207 0 -252 -159q-36 -127 -36 -438zM502 1414l72 66q29 26 62 46h-68zM828 1526q33 -20 62 -46l72 -66l-66 112h-68zM956 52q145 35 241 127q158 150 158 445q0 294 -160 445q-96 92 -239 127q36 -34 56 -84q57 -138 57 -488 t-57 -488q-20 -51 -56 -84zM1068 146q50 152 50 478q0 328 -49 476q58 -33 93 -66q144 -138 144 -410q0 -274 -142 -410q-38 -36 -96 -68z" />
<glyph unicode="&#xf5;" d="M60 624q0 314 175 480t497 166t497 -166t175 -480q0 -315 -173 -480q-175 -166 -499 -166q-325 0 -499 166q-173 165 -173 480zM109 624q0 -294 159 -446q92 -88 234 -125q-48 45 -69 119q-38 135 -38 452t38 452q21 73 69 118q-143 -38 -233 -125q-160 -151 -160 -445z M158 624q0 272 144 410q34 33 86 62l-2 -7q-40 -143 -40 -465t40 -465l2 -9q-49 28 -87 64q-143 137 -143 410zM332 1391q0 208 218 208q57 0 132 -27l184 -68q59 -22 100 -22q73 0 103 72h49v-13q0 -215 -224 -215q-50 0 -123 27l-185 67q-72 26 -108 26q-77 0 -94 -86h-50 q-2 22 -2 31zM394 1470q28 22 79 22q58 0 129 -26l186 -67q63 -23 120 -23q118 0 149 84q-32 -25 -86 -25q-57 0 -121 23l-186 68q-68 24 -123 24q-116 0 -147 -80zM444 624q0 -310 36 -438q45 -159 252 -159q183 0 235 127q53 130 53 470t-53 470q-52 127 -235 127 q-207 0 -252 -159q-36 -127 -36 -438zM956 52q145 35 241 127q158 150 158 445q0 294 -160 445q-96 92 -239 127q36 -34 56 -84q57 -138 57 -488t-57 -488q-20 -51 -56 -84zM1068 146q50 152 50 478q0 328 -49 476q58 -33 93 -66q144 -138 144 -410q0 -274 -142 -410 q-38 -36 -96 -68z" />
<glyph unicode="&#xf6;" d="M60 624q0 314 175 480t497 166t497 -166t175 -480q0 -315 -173 -480q-175 -166 -499 -166q-325 0 -499 166q-173 165 -173 480zM109 624q0 -294 159 -446q92 -88 234 -125q-48 45 -69 119q-38 135 -38 452t38 452q21 73 69 118q-143 -38 -233 -125q-160 -151 -160 -445z M158 624q0 272 144 410q34 33 86 62l-2 -7q-40 -143 -40 -465t40 -465l2 -9q-49 28 -87 64q-143 137 -143 410zM280 1498q0 59 42 101q43 43 102 43t102 -43q42 -42 42 -101q0 -60 -42 -102t-102 -42t-102 42t-42 102zM329 1498q0 -39 28 -67q29 -29 67 -29t67 29 q28 28 28 67q0 38 -28 66t-67 28t-67 -28t-28 -66zM378 1498q0 18 14 32t32 14t32 -14t14 -32q0 -19 -14 -33q-13 -13 -32 -13t-32 13q-14 14 -14 33zM444 624q0 -310 36 -438q45 -159 252 -159q183 0 235 127q53 130 53 470t-53 470q-52 127 -235 127q-207 0 -252 -159 q-36 -127 -36 -438zM896 1498q0 58 43 101t101 43q59 0 102 -43q42 -42 42 -101q0 -60 -42 -102t-102 -42q-59 0 -101 42q-43 43 -43 102zM946 1498q0 -39 28 -67q29 -29 66 -29q38 0 67 29t29 67q0 37 -29 66q-28 28 -67 28q-38 0 -66 -28t-28 -66zM956 52q145 35 241 127 q158 150 158 445q0 294 -160 445q-96 92 -239 127q36 -34 56 -84q57 -138 57 -488t-57 -488q-20 -51 -56 -84zM994 1498q0 18 14 32t32 14q19 0 33 -14q13 -13 13 -32q0 -20 -13 -33t-33 -13q-19 0 -32 13q-14 14 -14 33zM1068 146q50 152 50 478q0 328 -49 476 q58 -33 93 -66q144 -138 144 -410q0 -274 -142 -410q-38 -36 -96 -68z" />
<glyph unicode="&#xf7;" horiz-adv-x="1188" d="M60 575l12 120h1056l-12 -120h-1056zM114 624h958l2 22h-958zM372 143q0 79 56 135q57 57 136 57t136 -57q56 -56 56 -135t-56 -135q-57 -57 -136 -57t-136 57q-56 56 -56 135zM372 1103q0 79 56 135q57 57 136 57t136 -57q56 -56 56 -135t-56 -135q-57 -57 -136 -57 t-136 57q-56 56 -56 135zM421 143q0 -59 42 -101t101 -42t101 42t42 101t-42 101t-101 42t-101 -42t-42 -101zM421 1103q0 -59 42 -101t101 -42t101 42t42 101t-42 101t-101 42t-101 -42t-42 -101zM470 143q0 38 28 66t66 28t66 -28t28 -66t-28 -66t-66 -28t-66 28t-28 66z M470 1103q0 38 28 66t66 28t66 -28t28 -66t-28 -66t-66 -28t-66 28t-28 66z" />
<glyph unicode="&#xf8;" d="M60 624q0 314 175 480t497 166q309 0 482 -152l151 150l34 -35l-150 -149q155 -166 155 -460q0 -315 -173 -480q-175 -166 -499 -166q-297 0 -466 136l-135 -133l-34 35l133 131q-170 165 -170 477zM109 624q0 -294 159 -446q92 -88 234 -125q-48 45 -69 119 q-38 135 -38 452t38 452q21 73 69 118q-143 -38 -233 -125q-160 -151 -160 -445zM158 624q0 272 144 410q34 33 86 62l-2 -7q-40 -143 -40 -465t40 -465l2 -9q-49 28 -87 64q-143 137 -143 410zM444 624q0 -162 8 -257l554 547q-14 120 -39 180q-52 127 -235 127 q-207 0 -252 -159q-36 -127 -36 -438zM458 304q9 -74 22 -118q45 -159 252 -159q183 0 235 127q53 130 53 470q0 121 -8 227zM956 52q145 35 241 127q158 150 158 445q0 294 -160 445q-96 92 -239 127q36 -34 56 -84q57 -138 57 -488t-57 -488q-20 -51 -56 -84zM1068 146 q50 152 50 478q0 328 -49 476q58 -33 93 -66q144 -138 144 -410q0 -274 -142 -410q-38 -36 -96 -68z" />
<glyph unicode="&#xf9;" horiz-adv-x="1722" d="M30 1199v49h480q96 0 96 -217v-742q0 -262 240 -262q123 0 244 89q-4 58 -4 101v1004q253 0 336 49h48v-1053q0 -168 192 -168v-49h-480q-22 0 -50 31t-33 31q-123 -84 -253 -84q-624 0 -624 454v599q0 168 -192 168zM200 1199q71 -57 71 -168v-599q0 -59 13 -114 q13 -53 40 -98t72 -80q43 -34 107 -60q63 -26 145 -39q-91 79 -91 248v742q0 101 -21 145q-11 23 -26 23h-310zM298 1150h196q14 -39 14 -119v-742q0 -99 28 -170l-15 6q-57 22 -95 53q-37 31 -60 68q-24 39 -35 84q-11 49 -11 102v599q0 68 -22 119zM502 1554v24h312 q11 0 26 -20q15 -30 87 -218h-101l-153 144q-70 67 -171 70zM697 1528l9 -8l140 -132h10q-42 108 -56 140h-103zM1135 217q0 -56 3 -97q2 -26 30 -56q9 -11 18 -15h306q-71 57 -71 168v999q-91 -40 -286 -44v-955zM1184 217v908q111 4 188 23v-931q0 -68 22 -119h-190 q-15 16 -17 26q-3 39 -3 93z" />
<glyph unicode="&#xfa;" horiz-adv-x="1722" d="M30 1199v49h480q96 0 96 -217v-742q0 -262 240 -262q123 0 244 89q-4 58 -4 101v1004q253 0 336 49h48v-1053q0 -168 192 -168v-49h-480q-22 0 -50 31t-33 31q-123 -84 -253 -84q-624 0 -624 454v599q0 168 -192 168zM200 1199q71 -57 71 -168v-599q0 -59 13 -114 q13 -53 40 -98t72 -80q43 -34 107 -60q63 -26 145 -39q-91 79 -91 248v742q0 101 -21 145q-11 23 -26 23h-310zM298 1150h196q14 -39 14 -119v-742q0 -99 28 -170l-15 6q-57 22 -95 53q-37 31 -60 68q-24 39 -35 84q-11 49 -11 102v599q0 68 -22 119zM756 1340 q44 160 88 218q15 20 26 20h312v-24q-102 -3 -172 -70l-152 -144h-102zM822 1388h16l139 132l9 8h-104q-27 -36 -60 -140zM1135 217q0 -56 3 -97q2 -26 30 -56q9 -11 18 -15h306q-71 57 -71 168v999q-91 -40 -286 -44v-955zM1184 217v908q111 4 188 23v-931q0 -68 22 -119 h-190q-15 16 -17 26q-3 39 -3 93z" />
<glyph unicode="&#xfb;" horiz-adv-x="1722" d="M30 1199v49h480q96 0 96 -217v-742q0 -262 240 -262q123 0 244 89q-4 58 -4 101v1004q253 0 336 49h48v-1053q0 -168 192 -168v-49h-480q-22 0 -50 31t-33 31q-123 -84 -253 -84q-624 0 -624 454v599q0 168 -192 168zM200 1199q71 -57 71 -168v-599q0 -59 13 -114 q13 -53 40 -98t72 -80q43 -34 107 -60q63 -26 145 -39q-91 79 -91 248v742q0 101 -21 145q-11 23 -26 23h-310zM298 1150h196q14 -39 14 -119v-742q0 -99 28 -170l-15 6q-57 22 -95 53q-37 31 -60 68q-24 39 -35 84q-11 49 -11 102v599q0 68 -22 119zM516 1340l138 234h384 l139 -234h-92l-114 103q-69 63 -125 63q-55 0 -124 -63l-114 -103h-92zM616 1414l72 66q29 26 62 46h-68zM942 1526q33 -20 62 -46l72 -66l-66 112h-68zM1135 217q0 -56 3 -97q2 -26 30 -56q9 -11 18 -15h306q-71 57 -71 168v999q-91 -40 -286 -44v-955zM1184 217v908 q111 4 188 23v-931q0 -68 22 -119h-190q-15 16 -17 26q-3 39 -3 93z" />
<glyph unicode="&#xfc;" horiz-adv-x="1722" d="M30 1199v49h480q96 0 96 -217v-742q0 -262 240 -262q123 0 244 89q-4 58 -4 101v1004q253 0 336 49h48v-1053q0 -168 192 -168v-49h-480q-22 0 -50 31t-33 31q-123 -84 -253 -84q-624 0 -624 454v599q0 168 -192 168zM200 1199q71 -57 71 -168v-599q0 -59 13 -114 q13 -53 40 -98t72 -80q43 -34 107 -60q63 -26 145 -39q-91 79 -91 248v742q0 101 -21 145q-11 23 -26 23h-310zM298 1150h196q14 -39 14 -119v-742q0 -99 28 -170l-15 6q-57 22 -95 53q-37 31 -60 68q-24 39 -35 84q-11 49 -11 102v599q0 68 -22 119zM390 1498q0 59 42 101 q43 43 102 43t102 -43q42 -42 42 -101q0 -60 -42 -102t-102 -42t-102 42t-42 102zM439 1498q0 -39 28 -67q29 -29 67 -29t67 29q28 28 28 67q0 38 -28 66t-67 28t-67 -28t-28 -66zM488 1498q0 18 14 32t32 14t32 -14t14 -32q0 -19 -14 -33q-13 -13 -32 -13t-32 13 q-14 14 -14 33zM1006 1498q0 58 43 101t101 43q59 0 102 -43q42 -42 42 -101q0 -60 -42 -102t-102 -42q-59 0 -101 42q-43 43 -43 102zM1056 1498q0 -39 28 -67q29 -29 66 -29q38 0 67 29t29 67q0 37 -29 66q-28 28 -67 28q-38 0 -66 -28t-28 -66zM1104 1498q0 18 14 32 t32 14q19 0 33 -14q13 -13 13 -32q0 -20 -13 -33t-33 -13q-19 0 -32 13q-14 14 -14 33zM1135 217q0 -56 3 -97q2 -26 30 -56q9 -11 18 -15h306q-71 57 -71 168v999q-91 -40 -286 -44v-955zM1184 217v908q111 4 188 23v-931q0 -68 22 -119h-190q-15 16 -17 26q-3 39 -3 93z " />
<glyph unicode="&#xfd;" horiz-adv-x="1513" d="M30 1199v49h478q78 0 170 -178l256 -445l256 445q16 28 16 55q0 72 -151 74v49h398v-49q-133 0 -213 -138l-266 -463v-381q0 -168 192 -168v-49h-768v49q192 0 192 168v239l-337 605q-76 138 -223 138zM196 1199q59 -40 100 -114l338 -605q6 -10 6 -24v-239 q0 -111 -71 -168h427q-70 57 -70 168v359q-22 3 -34 24l-257 447q-32 62 -60 98q-28 37 -51 49q-8 5 -16 5h-312zM312 1150h190q12 -7 34 -35q28 -38 56 -91l257 -448q10 -19 27 -31v-328q0 -65 23 -119h-233q22 51 22 119v239q0 26 -12 48l-338 604q-10 19 -26 42z M652 1340q44 160 88 218q15 20 26 20h312v-24q-102 -3 -172 -70l-152 -144h-102zM718 1388h16l139 132l9 8h-104q-27 -36 -60 -140zM1225 1199q18 -18 25 -41q21 22 46 41h-71z" />
<glyph unicode="&#xfe;" horiz-adv-x="1560" d="M60 0v49q192 0 192 168v814q0 168 -192 168v49h768v-49q-179 0 -190 -119h190q336 0 470 -94q202 -142 202 -302q0 -196 -202 -314q-140 -82 -470 -82h-192v-71q0 -168 192 -168v-49h-768zM230 49h428q-71 57 -71 168v814q0 40 1 53q6 72 60 115h-418q71 -57 71 -168 v-814q0 -111 -71 -168zM328 98q22 51 22 119v814q0 68 -22 119h226q-11 -30 -14 -62q-2 -28 -2 -57v-814q0 -68 22 -119h-232zM636 337h192q288 0 288 347t-288 347h-192v-694zM1034 348q159 18 239 65q92 54 134 119q44 68 44 152q0 135 -181 262q-77 54 -234 74 q22 -17 36 -33q30 -32 49 -71q21 -43 32 -100q12 -60 12 -132t-12 -132q-11 -54 -33 -100q-20 -42 -48 -71q-17 -19 -38 -33zM1159 420l5 10q23 47 36 112q14 67 14 142t-14 142q-13 65 -36 112l-2 5q49 -17 79 -37q161 -114 161 -222q0 -68 -36 -124q-37 -58 -118 -105 q-34 -20 -89 -35z" />
<glyph unicode="&#xff;" horiz-adv-x="1513" d="M30 1199v49h478q78 0 170 -178l256 -445l256 445q16 28 16 55q0 72 -151 74v49h398v-49q-133 0 -213 -138l-266 -463v-381q0 -168 192 -168v-49h-768v49q192 0 192 168v239l-337 605q-76 138 -223 138zM196 1199q59 -40 100 -114l338 -605q6 -10 6 -24v-239 q0 -111 -71 -168h427q-70 57 -70 168v359q-22 3 -34 24l-257 447q-32 62 -60 98q-28 37 -51 49q-8 5 -16 5h-312zM300 1498q0 59 42 101q43 43 102 43t102 -43q42 -42 42 -101q0 -60 -42 -102t-102 -42t-102 42t-42 102zM312 1150h190q12 -7 34 -35q28 -38 56 -91l257 -448 q10 -19 27 -31v-328q0 -65 23 -119h-233q22 51 22 119v239q0 26 -12 48l-338 604q-10 19 -26 42zM349 1498q0 -39 28 -67q29 -29 67 -29t67 29q28 28 28 67q0 38 -28 66t-67 28t-67 -28t-28 -66zM398 1498q0 18 14 32t32 14t32 -14t14 -32q0 -19 -14 -33q-13 -13 -32 -13 t-32 13q-14 14 -14 33zM916 1498q0 58 43 101t101 43q59 0 102 -43q42 -42 42 -101q0 -60 -42 -102t-102 -42q-59 0 -101 42q-43 43 -43 102zM966 1498q0 -39 28 -67q29 -29 66 -29q38 0 67 29t29 67q0 37 -29 66q-28 28 -67 28q-38 0 -66 -28t-28 -66zM1014 1498 q0 18 14 32t32 14q19 0 33 -14q13 -13 13 -32q0 -20 -13 -33t-33 -13q-19 0 -32 13q-14 14 -14 33zM1225 1199q18 -18 25 -41q21 22 46 41h-71z" />
<glyph unicode="&#x152;" horiz-adv-x="2424" d="M72 624q0 314 175 480q174 166 497 166q278 0 480 -174q237 174 480 174q322 0 497 -166t175 -480h-960q0 -401 48 -467q95 -130 240 -130q175 0 326 85q151 84 242 226l42 -26q-99 -153 -260 -243q-163 -91 -350 -91q-296 0 -480 159q-196 -159 -480 -159 q-325 0 -499 166q-173 165 -173 480zM121 623q0 -292 158 -444q98 -93 250 -129q-35 29 -54 55q-20 27 -21 31q-47 94 -47 450q0 355 38 490q21 73 69 118q-143 -38 -233 -125q-160 -153 -160 -446zM170 623q0 273 144 411q35 33 86 62l-2 -7q-40 -143 -40 -503 q0 -312 36 -432q-47 27 -82 60q-142 136 -142 409zM456 624q0 -411 48 -477q88 -120 240 -120t240 120q48 66 48 477q0 341 -53 470q-52 127 -235 127q-207 0 -252 -159q-36 -127 -36 -438zM968 58q124 36 225 117q32 26 63 -1q103 -88 240 -123q-60 48 -78 86 q-19 41 -28 89q-10 55 -14 120q-9 142 -9 278v49q0 383 89 498q-100 -40 -203 -115q-32 -23 -61 2q-98 84 -210 124q23 -26 42 -70q57 -137 57 -488q-1 -287 -17 -374q-20 -104 -42 -134q-23 -32 -54 -58zM1088 1074q42 -27 72 -53l22 -15q19 -10 42 -10q1 0 2 0.5t3.5 1 t4.5 0.5l13 2q2 0 5 1l4 1q10 3 26 14q39 28 74 50q-38 -143 -38 -393v-49q0 -154 8 -282q4 -64 16 -126q7 -34 13 -54q-31 18 -67 49l-22 15q-19 10 -42 10q-2 -1 -7 -1.5t-7 -0.5q-5 -1 -10 -1l-6 -2q-6 -2 -10 -4q-14 -6 -22 -13q-39 -32 -66 -48q7 26 16 74 q18 100 18 384q0 298 -42 450zM1416 673h576q0 323 -36 401q-68 147 -252 147q-182 0 -235 -123q-53 -127 -53 -425zM1926 1196q47 -42 80 -114q35 -76 35 -409h285q-12 257 -159 396q-96 91 -241 127zM2056 1092q48 -28 78 -58q116 -112 139 -312h-183q-2 286 -34 370z" />
<glyph unicode="&#x153;" horiz-adv-x="2424" d="M60 624q0 314 175 480q174 166 497 166q278 0 480 -174q237 174 480 174q322 0 497 -166t175 -480h-960q0 -401 48 -467q95 -130 240 -130q175 0 326 85q151 84 242 226l42 -26q-99 -153 -260 -243q-163 -91 -350 -91q-296 0 -480 159q-196 -159 -480 -159 q-325 0 -499 166q-173 165 -173 480zM109 623q0 -292 158 -444q98 -93 250 -129q-35 29 -54 55q-20 27 -21 31q-47 94 -47 450q0 355 38 490q21 73 69 118q-143 -38 -233 -125q-160 -153 -160 -446zM158 623q0 273 144 411q35 33 86 62l-2 -7q-40 -143 -40 -503 q0 -312 36 -432q-47 27 -82 60q-142 136 -142 409zM444 624q0 -411 48 -477q88 -120 240 -120t240 120q48 66 48 477q0 341 -53 470q-52 127 -235 127q-207 0 -252 -159q-36 -127 -36 -438zM956 58q124 36 225 117q32 26 63 -1q103 -88 240 -123q-60 48 -78 86 q-19 41 -28 89q-10 55 -14 120q-9 142 -9 278v49q0 383 89 498q-100 -40 -203 -115q-32 -23 -61 2q-98 84 -210 124q23 -26 42 -70q57 -137 57 -488q-1 -287 -17 -374q-20 -104 -42 -134q-23 -32 -54 -58zM1076 1074q42 -27 72 -53l22 -15q19 -10 42 -10q1 0 2 0.5t3.5 1 t4.5 0.5l13 2q2 0 5 1l4 1q10 3 26 14q39 28 74 50q-38 -143 -38 -393v-49q0 -154 8 -282q4 -64 16 -126q7 -34 13 -54q-31 18 -67 49l-22 15q-19 10 -42 10q-2 -1 -7 -1.5t-7 -0.5q-5 -1 -10 -1l-6 -2q-6 -2 -10 -4q-14 -6 -22 -13q-39 -32 -66 -48q7 26 16 74 q18 100 18 384q0 298 -42 450zM1404 673h576q0 323 -36 401q-68 147 -252 147q-182 0 -235 -123q-53 -127 -53 -425zM1914 1196q47 -42 80 -114q35 -76 35 -409h285q-12 257 -159 396q-96 91 -241 127zM2044 1092q48 -28 78 -58q116 -112 139 -312h-183q-2 286 -34 370z" />
<glyph unicode="&#x178;" horiz-adv-x="1513" d="M30 1199v49h478q78 0 170 -178l256 -445l256 445q16 28 16 55q0 72 -151 74v49h398v-49q-133 0 -213 -138l-266 -463v-381q0 -168 192 -168v-49h-768v49q192 0 192 168v239l-337 605q-76 138 -223 138zM196 1199q59 -40 100 -114l338 -605q6 -10 6 -24v-239 q0 -111 -71 -168h427q-70 57 -70 168v359q-22 3 -34 24l-257 447q-32 62 -60 98q-28 37 -51 49q-8 5 -16 5h-312zM300 1498q0 59 42 101q43 43 102 43t102 -43q42 -42 42 -101q0 -60 -42 -102t-102 -42t-102 42t-42 102zM312 1150h190q12 -7 34 -35q28 -38 56 -91l257 -448 q10 -19 27 -31v-328q0 -65 23 -119h-233q22 51 22 119v239q0 26 -12 48l-338 604q-10 19 -26 42zM349 1498q0 -39 28 -67q29 -29 67 -29t67 29q28 28 28 67q0 38 -28 66t-67 28t-67 -28t-28 -66zM398 1498q0 18 14 32t32 14t32 -14t14 -32q0 -19 -14 -33q-13 -13 -32 -13 t-32 13q-14 14 -14 33zM916 1498q0 58 43 101t101 43q59 0 102 -43q42 -42 42 -101q0 -60 -42 -102t-102 -42q-59 0 -101 42q-43 43 -43 102zM966 1498q0 -39 28 -67q29 -29 66 -29q38 0 67 29t29 67q0 37 -29 66q-28 28 -67 28q-38 0 -66 -28t-28 -66zM1014 1498 q0 18 14 32t32 14q19 0 33 -14q13 -13 13 -32q0 -20 -13 -33t-33 -13q-19 0 -32 13q-14 14 -14 33zM1225 1199q18 -18 25 -41q21 22 46 41h-71z" />
<glyph unicode="&#x2c6;" horiz-adv-x="1632" d="M486 1340l138 234h384l139 -234h-92l-114 103q-69 63 -125 63q-55 0 -124 -63l-114 -103h-92zM586 1414l72 66q29 26 62 46h-68zM912 1526q33 -20 62 -46l72 -66l-66 112h-68z" />
<glyph unicode="&#x2dc;" horiz-adv-x="1180" d="M128 1391q0 208 218 208q57 0 132 -27l184 -68q59 -22 100 -22q73 0 103 72h49v-13q0 -215 -224 -215q-50 0 -123 27l-185 67q-72 26 -108 26q-77 0 -94 -86h-50q-2 22 -2 31zM190 1470q28 22 79 22q58 0 129 -26l186 -67q63 -23 120 -23q118 0 149 84q-32 -25 -86 -25 q-57 0 -121 23l-186 68q-68 24 -123 24q-116 0 -147 -80z" />
<glyph unicode="&#x2000;" horiz-adv-x="862" />
<glyph unicode="&#x2001;" horiz-adv-x="1724" />
<glyph unicode="&#x2002;" horiz-adv-x="862" />
<glyph unicode="&#x2003;" horiz-adv-x="1724" />
<glyph unicode="&#x2004;" horiz-adv-x="574" />
<glyph unicode="&#x2005;" horiz-adv-x="431" />
<glyph unicode="&#x2006;" horiz-adv-x="287" />
<glyph unicode="&#x2007;" horiz-adv-x="287" />
<glyph unicode="&#x2008;" horiz-adv-x="215" />
<glyph unicode="&#x2009;" horiz-adv-x="344" />
<glyph unicode="&#x200a;" horiz-adv-x="95" />
<glyph unicode="&#x2010;" horiz-adv-x="980" d="M60 576l12 96h848l-12 -96h-848z" />
<glyph unicode="&#x2011;" horiz-adv-x="980" d="M60 576l12 96h848l-12 -96h-848z" />
<glyph unicode="&#x2012;" horiz-adv-x="980" d="M60 576l12 96h848l-12 -96h-848z" />
<glyph unicode="&#x2013;" horiz-adv-x="1024" d="M60 576v96h904v-96h-904z" />
<glyph unicode="&#x2014;" horiz-adv-x="2048" d="M60 576v96h1928v-96h-1928z" />
<glyph unicode="&#x2018;" horiz-adv-x="504" d="M60 1311q0 185 88 300q87 113 193 113v-49q-53 0 -101 -39t-48 -85q0 -48 60 -48q79 0 136 -57q56 -56 56 -135t-56 -135q-57 -57 -136 -57t-136 57q-56 56 -56 135zM109 1311q0 -59 42 -101t101 -42t101 42t42 101t-42 101t-101 42q-18 0 -31 3q-57 12 -73 61 q-39 -86 -39 -207zM158 1311q0 59 11 112q21 -10 42 -14q17 -4 41 -4q38 0 66 -28t28 -66t-28 -66t-66 -28t-66 28t-28 66z" />
<glyph unicode="&#x2019;" horiz-adv-x="504" d="M60 1532q0 80 56 136t136 56t136 -56t56 -136q0 -185 -88 -300q-87 -113 -193 -113v49q53 0 101 39t48 85q0 48 -60 48q-80 0 -136 56t-56 136zM109 1532q0 -59 42 -101t101 -42q18 0 31 -3q57 -12 73 -60q39 85 39 206q0 59 -42 101t-101 42t-101 -42t-42 -101z M158 1532q0 38 28 66t66 28t66 -28t28 -66q0 -59 -11 -112q-21 10 -42 14q-17 4 -41 4q-38 0 -66 28t-28 66z" />
<glyph unicode="&#x201a;" horiz-adv-x="504" d="M60 24q0 80 56 136t136 56t136 -56t56 -136q0 -185 -88 -300q-87 -113 -193 -113v49q53 0 101 39t48 85q0 48 -60 48q-80 0 -136 56t-56 136zM109 24q0 -59 42 -101t101 -42q18 0 31 -3q57 -12 73 -60q39 86 39 206q0 59 -42 101t-101 42t-101 -42t-42 -101zM158 24 q0 38 28 66t66 28t66 -28t28 -66q0 -59 -11 -112q-21 10 -42 14q-17 4 -41 4q-38 0 -66 28t-28 66z" />
<glyph unicode="&#x201c;" horiz-adv-x="936" d="M60 1311q0 185 88 300q87 113 193 113v-49q-53 0 -101 -39t-48 -85q0 -48 60 -48q79 0 136 -57q56 -56 56 -135t-56 -135q-57 -57 -136 -57t-136 57q-56 56 -56 135zM109 1311q0 -59 42 -101t101 -42t101 42t42 101t-42 101t-101 42q-18 0 -31 3q-57 12 -73 61 q-39 -86 -39 -207zM158 1311q0 59 11 112q21 -10 42 -14q17 -4 41 -4q38 0 66 -28t28 -66t-28 -66t-66 -28t-66 28t-28 66zM492 1311q0 185 88 300q87 113 193 113v-49q-53 0 -101 -39t-48 -85q0 -48 60 -48q79 0 136 -57q56 -56 56 -135t-56 -135q-57 -57 -136 -57t-136 57 q-56 56 -56 135zM541 1311q0 -59 42 -101t101 -42t101 42t42 101t-42 101t-101 42q-18 0 -31 3q-57 12 -73 61q-39 -86 -39 -207zM590 1311q0 59 11 112q21 -10 42 -14q17 -4 41 -4q38 0 66 -28t28 -66t-28 -66t-66 -28t-66 28t-28 66z" />
<glyph unicode="&#x201d;" horiz-adv-x="936" d="M60 1532q0 80 56 136t136 56t136 -56t56 -136q0 -185 -88 -300q-87 -113 -193 -113v49q53 0 101 39t48 85q0 48 -60 48q-80 0 -136 56t-56 136zM109 1532q0 -59 42 -101t101 -42q18 0 31 -3q57 -12 73 -60q39 85 39 206q0 59 -42 101t-101 42t-101 -42t-42 -101z M158 1532q0 38 28 66t66 28t66 -28t28 -66q0 -59 -11 -112q-21 10 -42 14q-17 4 -41 4q-38 0 -66 28t-28 66zM492 1532q0 80 56 136t136 56t136 -56t56 -136q0 -185 -88 -300q-87 -113 -193 -113v49q53 0 101 39t48 85q0 48 -60 48q-80 0 -136 56t-56 136zM541 1532 q0 -59 42 -101t101 -42q18 0 31 -3q57 -12 73 -60q39 85 39 206q0 59 -42 101t-101 42t-101 -42t-42 -101zM590 1532q0 38 28 66t66 28t66 -28t28 -66q0 -59 -11 -112q-21 10 -42 14q-17 4 -41 4q-38 0 -66 28t-28 66z" />
<glyph unicode="&#x201e;" horiz-adv-x="936" d="M60 24q0 80 56 136t136 56t136 -56t56 -136q0 -185 -88 -300q-87 -113 -193 -113v49q53 0 101 39t48 85q0 48 -60 48q-80 0 -136 56t-56 136zM109 24q0 -59 42 -101t101 -42q18 0 31 -3q57 -12 73 -60q39 86 39 206q0 59 -42 101t-101 42t-101 -42t-42 -101zM158 24 q0 38 28 66t66 28t66 -28t28 -66q0 -59 -11 -112q-21 10 -42 14q-17 4 -41 4q-38 0 -66 28t-28 66zM492 24q0 80 56 136t136 56t136 -56t56 -136q0 -185 -88 -300q-87 -113 -193 -113v49q53 0 101 39t48 85q0 48 -60 48q-80 0 -136 56t-56 136zM541 24q0 -59 42 -101 t101 -42q18 0 31 -3q57 -12 73 -60q39 86 39 206q0 59 -42 101t-101 42t-101 -42t-42 -101zM590 24q0 38 28 66t66 28t66 -28t28 -66q0 -59 -11 -112q-21 10 -42 14q-17 4 -41 4q-38 0 -66 28t-28 66z" />
<glyph unicode="&#x2026;" d="M60 144q0 80 56 136t136 56t136 -56t56 -136t-56 -136t-136 -56t-136 56t-56 136zM109 144q0 -59 42 -101t101 -42t101 42t42 101t-42 101t-101 42t-101 -42t-42 -101zM158 144q0 38 28 66t66 28t66 -28t28 -66t-28 -66t-66 -28t-66 28t-28 66zM540 144q0 80 56 136 t136 56t136 -56t56 -136t-56 -136t-136 -56t-136 56t-56 136zM589 144q0 -59 42 -101t101 -42t101 42t42 101t-42 101t-101 42t-101 -42t-42 -101zM638 144q0 38 28 66t66 28t66 -28t28 -66t-28 -66t-66 -28t-66 28t-28 66zM1020 144q0 80 56 136t136 56t136 -56t56 -136 t-56 -136t-136 -56t-136 56t-56 136zM1069 144q0 -59 42 -101t101 -42t101 42t42 101t-42 101t-101 42t-101 -42t-42 -101zM1118 144q0 38 28 66t66 28t66 -28t28 -66t-28 -66t-66 -28t-66 28t-28 66z" />
<glyph unicode="&#x202f;" horiz-adv-x="344" />
<glyph unicode="&#x205f;" horiz-adv-x="431" />
<glyph unicode="&#x20ac;" horiz-adv-x="1438" d="M60 430l36 96l149 2q-5 50 -5 96t5 96l-149 -2l36 96l129 2q39 176 153 286q176 168 500 168q114 0 210 -37q94 -35 128 -35q61 0 70 38h50l21 -338h-49q-9 88 -76 179q-43 58 -139 101q-93 43 -215 43q-207 0 -253 -151q-27 -89 -34 -249l465 5l-36 -96l-430 -5 q-2 -60 -2 -96t2 -96l430 5l-36 -96l-394 -5q7 -203 35 -261q69 -149 249 -149q187 0 324 76q78 43 124 84l29 -39q-26 -27 -127 -84q-152 -86 -350 -86q-315 0 -497 176q-113 109 -152 278zM289 624q0 -43 5 -90q8 -62 15 -91q36 -155 138 -254q98 -95 243 -135 q-46 41 -74 102q-29 64 -38 279l-2 97q-1 31 -1 97t1 97l2 98q9 168 36 260q20 65 64 108q-139 -38 -230 -126q-103 -99 -139 -260q-10 -46 -15 -92q-5 -48 -5 -90zM338 624q0 50 4 86t14 85q33 146 126 235q40 39 84 64q-28 -94 -37 -269l-1 -97q-2 -62 -2 -99t2 -99v-96 q7 -188 34 -273q-44 27 -81 63q-94 91 -125 230q-10 45 -14 84q-4 36 -4 86zM1266 1150q29 -26 42 -44q5 -7 14 -20.5t11 -17.5l-6 98q-9 -5 -17 -8q-20 -7 -44 -8z" />
<glyph unicode="&#xe000;" horiz-adv-x="1247" d="M0 0v1248h1248v-1248h-1248z" />
</font>
</defs>
</svg>
