<?xml version="1.0" standalone="no"?>
<!DOCTYPE svg PUBLIC "-//W3C//DTD SVG 1.1//EN" "http://www.w3.org/Graphics/SVG/1.1/DTD/svg11.dtd" >
<svg xmlns="http://www.w3.org/2000/svg">
<metadata></metadata>
<defs>
<font id="znikomitno24regular" horiz-adv-x="1136" >
<font-face units-per-em="2048" ascent="1556" descent="-492" />
<missing-glyph horiz-adv-x="819" />
<glyph unicode="&#xfb01;" horiz-adv-x="1187" d="M61 0v15h41q67 0 102 7.5t43.5 17.5t8.5 27v943q0 19 -8.5 26.5t-28.5 7.5h-127v21h127q36 0 33 36q-8 82 -8 127q0 181 88 285.5t257 104.5q203 0 319 -61.5t116 -163.5q0 -46 -25.5 -74.5t-66.5 -28.5t-66.5 28.5t-25.5 74.5q0 94 -65.5 149t-184.5 55q-158 0 -240 -99 t-82 -271q0 -24 10 -124q4 -38 40 -38h496l133 3v-996q0 -18 8.5 -29t44 -19.5t101.5 -8.5h36v-15h-410v15h41q66 0 101.5 8.5t44 19.5t8.5 29v921q0 28 -24 39.5t-84 11.5h-496q-20 0 -28 -8.5t-8 -26.5v-942q0 -18 8 -27.5t43 -17t102 -7.5h26v-15h-400z" />
<glyph unicode="&#xfb02;" horiz-adv-x="1249" d="M51 0v15h41q67 0 102 7.5t43.5 17.5t8.5 27v922q0 35 -37 35h-127v20h127q36 0 33 36q-9 92 -9 127q0 157 78 253t206 96q122 0 196.5 -59.5t74.5 -156.5q0 -82 -42.5 -131t-113.5 -49q-47 0 -77 26.5t-30 69.5q0 26 18.5 51t37.5 54t19 64q0 50 -22.5 80.5t-59.5 30.5 q-117 0 -188.5 -90.5t-71.5 -239.5q0 -34 9 -124q4 -38 41 -38h265v-20h-265q-37 0 -37 -36v-921q0 -17 8.5 -27t43.5 -17.5t102 -7.5h26v-15h-400zM660 1556h216l133 4v-1488q0 -13 4.5 -22t19 -17.5t47 -13t82.5 -4.5h36v-15h-410v15h41q66 0 101.5 8.5t44 19.5t8.5 29 v1418q0 28 -24 39.5t-83 11.5h-175z" />
<glyph unicode="&#xfb03;" horiz-adv-x="1658" d="M51 0v15h41q67 0 102 7.5t43.5 17.5t8.5 27v922q0 35 -37 35h-127v20h127q36 0 33 36q-9 92 -9 127q0 231 163 372t429 141q143 0 255.5 -36.5t181.5 -102.5q109 -24 171 -79t62 -130q0 -46 -25.5 -74t-66.5 -28t-66.5 28t-25.5 74q0 92 -57.5 148.5t-151.5 56.5 q-126 0 -203.5 -102.5t-77.5 -268.5q0 -34 9 -124q4 -38 41 -38h414l133 4v-976q0 -18 8.5 -29t44 -19.5t101.5 -8.5h36v-15h-410v15h41q66 0 101.5 8.5t44 19.5t8.5 29v901q0 28 -24 39.5t-84 11.5h-414q-36 0 -36 -36v-921q0 -18 8 -27.5t43 -17t102 -7.5h26v-15h-400v15 h41q67 0 102 7.5t43.5 17.5t8.5 27v922q0 35 -37 35h-188v20h188q36 0 33 36q-8 82 -8 127q0 175 83.5 282.5t220.5 107.5q53 0 101 -6q-134 109 -377 109q-255 0 -411 -136t-156 -358q0 -34 9 -124q4 -38 41 -38h173v-20h-173q-37 0 -37 -36v-921q0 -17 8.5 -27t43.5 -17.5 t102 -7.5h26v-15h-400z" />
<glyph unicode="&#xfb04;" horiz-adv-x="1812" d="M51 0v15h41q67 0 102 7.5t43.5 17.5t8.5 27v922q0 35 -37 35h-127v20h127q36 0 33 36q-9 92 -9 127q0 231 146 372t385 141q162 0 279 -45.5t168 -127.5q85 -20 133.5 -74.5t48.5 -132.5q0 -82 -43 -131t-114 -49q-47 0 -77 26.5t-30 69.5q0 26 18.5 51t37.5 54t19 64 q0 50 -22.5 80.5t-59.5 30.5q-55 0 -106.5 -19t-96 -56.5t-71.5 -103.5t-27 -151q0 -34 9 -124q4 -38 41 -38h266v-20h-266q-36 0 -36 -36v-921q0 -18 8 -27.5t43 -17t102 -7.5h26v-15h-400v15h41q67 0 102 7.5t43.5 17.5t8.5 27v922q0 35 -37 35h-209v20h209q36 0 33 36 q-8 82 -8 127q0 88 29 157.5t77 110t103.5 61t114.5 20.5h39q-52 68 -155.5 106t-240.5 38q-227 0 -366.5 -136t-139.5 -358q0 -34 9 -124q4 -38 41 -38h173v-20h-173q-37 0 -37 -36v-921q0 -17 8.5 -27t43.5 -17.5t102 -7.5h26v-15h-400zM1270 1556h169l133 4v-1488 q0 -13 4.5 -22t19 -17.5t47 -13t82.5 -4.5h36v-15h-409v15h41q50 0 82.5 4.5t47 13t19 17.5t4.5 22v1418q0 28 -24 39.5t-83 11.5h-139z" />
<glyph horiz-adv-x="2048" />
<glyph horiz-adv-x="2048" />
<glyph unicode="&#xd;" horiz-adv-x="743" />
<glyph unicode=" "  horiz-adv-x="819" />
<glyph unicode="&#x09;" horiz-adv-x="819" />
<glyph unicode="&#xa0;" horiz-adv-x="819" />
<glyph unicode="!" horiz-adv-x="430" d="M133 36q0 17 12 29t29 12t29 -12t12 -29t-12 -29t-29 -12t-29 12t-12 29zM159 1434q0 501 311 501q58 0 93.5 -37t35.5 -99q0 -49 -34 -83t-83 -34q-20 0 -64 8.5t-63 8.5q-39 0 -67 -13.5t-53 -49t-38 -106.5t-13 -178v-860h-20q0 368 -2.5 639t-2.5 303z" />
<glyph unicode="&#x22;" horiz-adv-x="368" d="M98 1196l10 66q10 83 10 199q0 45 -8 88q0 3 3.5 8t9.5 5q5 0 8.5 -3.5t3.5 -5.5q8 -45 8 -92q0 -66 -16 -203l-8 -65zM221 1196l9 66q11 91 11 199q0 39 -9 88q0 3 4 8t10 5q5 0 8.5 -3.5t3.5 -5.5q8 -45 8 -92q0 -66 -16 -203l-8 -65z" />
<glyph unicode="#" horiz-adv-x="901" d="M95 522l1 21h163l35 389h-164l2 20h163l21 246h21l-22 -246h308l21 246h21l-22 -246h163l-1 -20h-163l-35 -389h164l-2 -21h-163l-21 -246h-21l22 246h-307l-22 -246h-20l21 246h-163zM280 543h307l35 389h-308z" />
<glyph unicode="$" horiz-adv-x="1064" d="M77 82l12 338h15v-11q0 -119 96 -198q74 -61 144.5 -86.5t167.5 -27.5v693q-184 82 -248 124q-121 79 -121 172q0 135 103 223.5t261 88.5h5v118h26v-118q191 0 308 -78.5t117 -206.5q0 -91 -43 -146t-114 -55q-52 0 -84.5 32t-32.5 85q0 21 13.5 43t29 39t29 43t13.5 54 q0 76 -65 122.5t-171 46.5v-565q56 -25 93.5 -42.5t88 -44.5t84.5 -51t71 -56.5t58.5 -65t35.5 -74t14 -85.5q0 -137 -126 -226.5t-319 -89.5v-118h-26v118q-103 2 -178.5 28.5t-151.5 91.5q-51 47 -64 47q-19 0 -22 -66l-4 -96h-15zM169 1086q0 -17 4 -32.5t15 -31 t20.5 -28t30 -27.5t33.5 -25t42 -25.5t44 -23.5t50 -24t50 -22.5t54 -23.5v554h-5q-147 0 -242.5 -82t-95.5 -209zM538 97q183 0 301 83.5t118 212.5q0 40 -13 77t-33 66.5t-54 59.5t-66 52t-80 47.5t-84 42t-89 40.5v-681z" />
<glyph unicode="%" horiz-adv-x="1474" d="M58 104l670 639q407 389 407 709q0 34 -15 80t-15 70q0 55 35.5 92t83.5 37q64 0 105.5 -58.5t41.5 -139.5q0 -35 -10.5 -73t-24.5 -72.5t-44 -79t-54 -77.5t-69.5 -83.5t-76 -82.5t-88.5 -89t-90.5 -88t-99 -94t-99.5 -94l-641 -611zM82 1178q0 129 81 213t206 84 q124 0 205 -84t81 -213t-81 -213t-205 -84q-125 0 -206 84t-81 213zM108 1178q0 -121 73.5 -199t187.5 -78t187.5 78t73.5 199t-73.5 198.5t-187.5 77.5t-187.5 -77.5t-73.5 -198.5zM819 297q0 129 81 213t206 84t206 -84t81 -213t-81 -213t-206 -84t-206 84t-81 213z M845 297q0 -121 73.5 -199t187.5 -78t187.5 78t73.5 199t-73.5 198.5t-187.5 77.5t-187.5 -77.5t-73.5 -198.5z" />
<glyph unicode="&#x26;" horiz-adv-x="1536" d="M72 397q0 169 95 280t243 111q36 0 75 -8q26 -5 32 11t-6 28l-42 53q-91 117 -91 239q0 131 83.5 216.5t212.5 85.5q164 0 264 -62.5t100 -164.5q0 -82 -42.5 -131t-113.5 -49q-38 0 -62 20.5t-24 54.5q0 26 18.5 51t37 54t18.5 64q0 59 -57 101t-139 42 q-119 0 -196 -79.5t-77 -202.5q0 -120 83 -226l554 -701q17 -22 39 -47q94 61 145 144.5t51 180.5q0 148 -92 277q-33 46 -60 68t-59 22q-46 -4 -76 -19q-51 -26 -51 -83q0 -17 7 -41q1 -1 1 -4q0 -9 -10 -9q-8 0 -10 7q-9 31 -9 48q0 70 61 101q49 26 112 26q18 0 54 -2.5 t53 -2.5q57 0 98 21q51 26 51 83q0 15 -7 41v1q-1 2 -1 3q0 11 11 11q6 0 10 -9q8 -27 8 -49q0 -70 -60 -100q-54 -27 -116 -27q-22 0 -22 -12q0 -4 2.5 -10t7.5 -14t9.5 -15t13 -19t13.5 -20q86 -128 86 -273q0 -102 -53.5 -189.5t-151.5 -150.5q48 -55 87 -94.5 t95.5 -85.5t111 -74.5t125 -48t145.5 -19.5q44 0 97 22t82 22q53 0 90 -33.5t37 -82.5q0 -65 -61.5 -111t-149.5 -46q-60 0 -112.5 11t-94.5 27.5t-85 49t-74 62t-73.5 80t-72.5 90t-80 105t-88 113.5q-193 -114 -473 -114q-229 0 -378 113.5t-149 288.5zM97 397 q0 -166 142 -274t360 -108q275 0 461 111l-38 45l-422 535q-22 28 -82.5 45t-107.5 17q-138 0 -225.5 -104.5t-87.5 -266.5z" />
<glyph unicode="'" horiz-adv-x="245" d="M98 1196l10 66q10 83 10 199q0 45 -8 88q0 3 3.5 8t9.5 5q5 0 8.5 -3.5t3.5 -5.5q8 -45 8 -92q0 -66 -16 -203l-8 -65z" />
<glyph unicode="(" horiz-adv-x="655" d="M82 573q0 441 92.5 778.5t261.5 522t389 184.5q72 0 135 -43.5t63 -114.5q0 -46 -42 -83t-93 -37q-29 0 -92.5 18t-102.5 18q-188 0 -320.5 -151.5t-198.5 -429t-66 -662.5q0 -347 130 -618t325 -388l-10 -18q-202 122 -336.5 397.5t-134.5 626.5z" />
<glyph unicode=")" horiz-adv-x="655" d="M-368 -753q0 46 42.5 83t93.5 37q29 0 92 -18t102 -18q286 0 436 318t150 924q0 347 -130 618.5t-326 388.5l10 17q202 -122 336.5 -397.5t134.5 -626.5q0 -441 -92.5 -778.5t-261.5 -521.5t-389 -184q-72 0 -135 43.5t-63 114.5z" />
<glyph unicode="*" horiz-adv-x="737" d="M96 1268q2 6 5 10t5.5 5.5t7 3.5t5.5 3q10 -5 29.5 -17t46 -22.5t81.5 -29.5l71 -25q1 1 3.5 1t3.5 1q1 0 2 2.5t2 3.5l-1 75q-1 58 -4 88t-7.5 50t-6.5 34q14 14 29 14q16 0 30 -14q-2 -14 -6.5 -34t-7.5 -50t-4 -88l-1 -75q1 0 2.5 -2.5t2.5 -3.5t3.5 -1t3.5 -1l71 25 q55 19 81.5 29.5t47 23t29.5 16.5q1 -1 4 -2t5 -2.5t5 -3.5t5 -5.5t3 -8.5q5 -18 -4 -34q-12 -2 -34.5 -3.5t-51.5 -8t-84 -23.5l-71 -22q0 -1 -2 -3.5t-2 -3.5q-1 -1 -1 -4v-4l45 -60q35 -46 54 -68.5t35.5 -36.5t25.5 -24q-3 -21 -14 -29q-15 -11 -34 -6q-7 12 -14.5 32 t-22.5 46t-48 73l-43 61q-1 0 -4 1t-4 1q-2 0 -4 -1t-3 -1l-43 -61q-34 -47 -49.5 -72.5t-23.5 -45t-15 -31.5q-20 -3 -30 5q-15 12 -17 30q9 10 25.5 23.5t36.5 35.5t55 68l45 59q-1 1 0 4.5t0 4.5q0 1 -2 3.5t-2 3.5l-71 22q-55 17 -84 23.5t-51.5 8t-34.5 3.5 q-9 16 -4 34z" />
<glyph unicode="+" horiz-adv-x="1064" d="M82 768v20h440v441h21v-441h440l-1 -20h-439v-440h-21v440h-440z" />
<glyph unicode="," horiz-adv-x="327" d="M94 -170q85 93 85 168h-1q-6 -3 -14 -3q-17 0 -29 12t-12 29t12 29t29 12t29 -12t12 -29q0 -66 -21.5 -114t-73.5 -105z" />
<glyph unicode="-" horiz-adv-x="737" d="M80 768l4 20h573l-4 -20h-573z" />
<glyph unicode="." horiz-adv-x="327" d="M123 36q0 17 12 29t29 12t29 -12t12 -29t-12 -29t-29 -12t-29 12t-12 29z" />
<glyph unicode="/" horiz-adv-x="1228" d="M65 -102l1078 1683l21 -13l-1078 -1684z" />
<glyph unicode="0" horiz-adv-x="1105" d="M61 727q0 210 63 377t175.5 261t253.5 94t253 -94t175 -261t63 -377t-63 -377.5t-175.5 -261t-252.5 -93.5q-169 0 -272.5 108t-103.5 283q0 91 43 146t114 55q52 0 84.5 -32.5t32.5 -84.5q0 -21 -13.5 -43t-29 -39t-29 -43t-13.5 -54q0 -124 51 -200t136 -76 q133 0 239.5 91.5t166.5 254t60 366.5t-60 366.5t-166.5 254t-239.5 91.5t-239.5 -91.5t-166.5 -254t-60 -366.5q0 -198 57 -357l-2 -63q-81 182 -81 420z" />
<glyph unicode="1" horiz-adv-x="593" d="M31 1246q0 80 188 162q74 33 88 67q11 0 18.5 -7.5t7.5 -18.5v-1377q0 -13 4.5 -22t19 -17.5t47 -13t82.5 -4.5h57v-15h-492v15h103q50 0 82.5 4.5t47 13t19 17.5t4.5 22v1271q0 60 -40 60q-32 0 -55 -20t-23 -48q0 -8 10 -17t22 -17t22 -25.5t10 -40.5q0 -43 -30 -73 t-72 -30q-54 0 -87 31t-33 83z" />
<glyph unicode="2" horiz-adv-x="1024" d="M41 10v13q0 9 9 10q8 1 38.5 24.5t82.5 72t108 107.5l342 364q153 163 206.5 277t53.5 223q0 147 -104.5 242.5t-264.5 95.5q-114 0 -183.5 -50.5t-69.5 -133.5q0 -35 21.5 -66.5t42.5 -59t21 -53.5q0 -52 -32 -84.5t-85 -32.5q-70 0 -113 55t-43 146q0 134 121 216.5 t320 82.5q171 0 282.5 -101t111.5 -257q0 -112 -57 -230t-212 -284l-342 -365q-102 -110 -175 -167q-23 -18 -23 -23q0 -6 25 -6h733q38 0 62.5 25.5t24.5 64.5v176h21v-282q0 -10 -11 -10h-901q-10 0 -10 10z" />
<glyph unicode="3" horiz-adv-x="1105" d="M61 230v98h21v-23q0 -26 14.5 -71t33.5 -67q131 -152 382 -152q225 0 371 118.5t146 301.5q0 166 -100.5 261.5t-286.5 122.5h-17q-23 0 -23 10v25q0 10 23 10h17q142 37 213.5 112.5t71.5 170.5q0 127 -112 209.5t-283 82.5q-114 0 -183 -50.5t-69 -133.5 q0 -35 21.5 -66.5t42.5 -59t21 -53.5q0 -52 -32.5 -84.5t-84.5 -32.5q-71 0 -114 55t-43 146q0 134 121 216.5t320 82.5q182 0 301 -88t119 -224q0 -103 -79 -184t-228 -119v-4q192 -28 301 -129t109 -276q0 -191 -153.5 -315.5t-389.5 -124.5q-82 0 -153 17t-116 40.5 t-84 58t-58 59.5t-38 55q-2 4 -2 5z" />
<glyph unicode="4" horiz-adv-x="1167" d="M51 282v30q13 15 82.5 95t98.5 114.5t78 96.5t83 112q208 304 208 606q0 73 -50 117t-133 44q-35 0 -66.5 -21.5t-59 -42.5t-53.5 -21q-53 0 -85 32t-32 85q0 71 55 114t146 43q135 0 218 -96t83 -255q-5 -309 -208 -608q-84 -124 -313 -385q-8 -9 -11 -16.5t2 -13 t18 -5.5h732q37 0 37 35v708q0 11 7 18t18 7v-733q0 -35 37 -35h132v-25h-132q-37 0 -37 -36v-174q0 -18 8.5 -29t44 -19.5t101.5 -8.5h46v-15h-481v15h102q66 0 101.5 8.5t44 19.5t8.5 29v174q0 36 -37 36h-793z" />
<glyph unicode="5" horiz-adv-x="1126" d="M51 294q0 91 43 146t114 55q52 0 84.5 -32.5t32.5 -84.5q0 -21 -13.5 -43t-29 -39t-29 -43t-13.5 -54q0 -83 72.5 -133.5t190.5 -50.5q132 0 237.5 42t170.5 112.5t99 158.5t34 184q0 95 -33 181.5t-94.5 156.5t-161.5 112t-223 42q-96 0 -203.5 -39.5t-186.5 -102.5 l-36 -2l38 517q2 30 2 67v10h808q11 0 11 -9l18 -236l-17 -2l-11 110q-9 111 -118 111h-670q0 -22 -2 -53l-32 -441q-2 -28 11 -33t27 7q79 53 176 84.5t185 31.5q128 0 231.5 -43.5t168 -116.5t99 -163.5t34.5 -188.5q0 -79 -22 -154t-68 -141t-111.5 -115.5t-158 -78 t-202.5 -28.5q-203 0 -327.5 82.5t-124.5 216.5z" />
<glyph unicode="6" horiz-adv-x="1085" d="M61 705q1 356 141 555t371 199q146 0 271 -52q6 -2 6 -9v-98h-21v23q0 24 -18.5 53t-48.5 37q-93 26 -189 26q-221 0 -353.5 -191.5t-132.5 -542.5q0 -205 54 -362t153 -242.5t228 -85.5q209 0 342.5 143t133.5 364q0 223 -125.5 367.5t-319.5 144.5q-94 0 -151 -59 t-57 -155q0 -35 20 -61.5t40 -51t20 -54.5q0 -40 -29 -66.5t-72 -26.5q-71 0 -114 48t-43 127q0 143 106.5 231.5t279.5 88.5q205 0 338 -150.5t133 -382.5q0 -230 -141.5 -378.5t-360.5 -148.5q-207 0 -334 195.5t-127 514.5z" />
<glyph unicode="7" horiz-adv-x="1085" d="M61 1229l11 225h998v-10l-149 -225q-10 -15 -68.5 -101.5t-80 -120t-60.5 -101.5t-66 -128q-2 -3 -31.5 -67t-36 -80t-28.5 -71.5t-29 -85t-15 -75t-8 -84.5q0 -98 22 -185q11 -42 35.5 -76t51 -55.5t51.5 -43t41.5 -51t16.5 -68.5q0 -53 -32.5 -85.5t-85.5 -32.5 q-105 0 -169.5 91t-64.5 241q0 110 72.5 298.5t189.5 439.5q28 61 67 128.5t63.5 105t78.5 117.5t69 102l108 162q12 19 7.5 27t-26.5 8h-787q-114 0 -120 -113l-4 -86h-21z" />
<glyph unicode="8" horiz-adv-x="1146" d="M61 428q0 321 440 412q-133 33 -214.5 115.5t-81.5 202.5q0 132 105 216.5t263 84.5q160 0 264.5 -85t104.5 -216q0 -125 -87.5 -203.5t-230.5 -111.5q75 -15 139.5 -38.5t125 -60.5t103 -84t68 -112.5t25.5 -143.5q0 -179 -141.5 -294t-370.5 -115q-173 0 -279 76.5 t-107 201.5q0 82 37.5 131.5t99.5 49.5q50 0 80 -32t30 -85q0 -26 -29 -75.5t-29 -83.5q1 -73 54.5 -118t142.5 -45q222 0 354.5 109.5t132.5 279.5q0 79 -28 144.5t-75 111t-113.5 80.5t-137 55.5t-152.5 33.5q-472 -79 -472 -401q0 -139 82 -243v-30q-103 114 -103 273z M230 1158q0 -121 89.5 -200.5t239.5 -103.5l10 -1q158 27 255.5 103t97.5 202q0 121 -97.5 201t-251.5 80q-150 0 -246 -79t-97 -202z" />
<glyph unicode="9" horiz-adv-x="1085" d="M61 932q0 230 141.5 378.5t360.5 148.5q207 0 334 -195t127 -514q-1 -356 -141 -555.5t-371 -199.5q-145 0 -270 52q-6 2 -6 9v98h20v-23q0 -24 19 -53t49 -37q93 -26 188 -26q221 0 353.5 192t132.5 543q0 310 -119.5 499.5t-315.5 189.5q-209 0 -342.5 -143 t-133.5 -364q0 -223 125.5 -367.5t319.5 -144.5q94 0 151 59t57 155q0 35 -20 61.5t-40 51t-20 54.5q0 40 29.5 66.5t72.5 26.5q71 0 114 -48t43 -127q0 -143 -107 -231.5t-280 -88.5q-205 0 -338 150.5t-133 382.5z" />
<glyph unicode=":" horiz-adv-x="327" d="M123 36q0 17 12 29t29 12t29 -12t12 -29t-12 -29t-29 -12t-29 12t-12 29zM123 988q0 17 12 29t29 12t29 -12t12 -29t-12 -29t-29 -12t-29 12t-12 29z" />
<glyph unicode=";" horiz-adv-x="409" d="M94 -170q85 93 85 168h-1q-6 -3 -14 -3q-17 0 -29 12t-12 29t12 29t29 12t29 -12t12 -29q0 -66 -21.5 -114t-73.5 -105zM123 988q0 17 12 29t29 12t29 -12t12 -29t-12 -29t-29 -12t-29 12t-12 29z" />
<glyph unicode="&#x3c;" horiz-adv-x="737" d="M61 730v14l561 382l12 -16l-542 -369v-7l541 -384l-11 -17z" />
<glyph unicode="=" horiz-adv-x="1064" d="M82 522v21h901v-21h-901zM82 932v20h901v-20h-901z" />
<glyph unicode="&#x3e;" horiz-adv-x="737" d="M103 1110l13 16l560 -382v-14l-560 -397l-12 17l541 384v7z" />
<glyph unicode="?" horiz-adv-x="983" d="M46 1262q0 134 121 216.5t320 82.5q180 0 297 -93.5t117 -238.5q0 -158 -77 -263t-241 -201q-92 -54 -114 -73q-44 -40 -45 -88q0 -33 11 -132l-20 -2l-17 121q0 3 -0.5 7t-0.5 6q0 30 12.5 55.5t36.5 46.5t48.5 37t58.5 36q11 6 16 9q108 63 171.5 121t99.5 137.5 t36 182.5q0 135 -110 223t-279 88q-114 0 -183.5 -50.5t-69.5 -132.5q0 -35 21.5 -66.5t42.5 -59t21 -53.5q0 -53 -32 -85t-84 -32q-71 0 -114 55t-43 146zM389 36q0 17 12 29t29 12t29 -12t12 -29t-12 -29t-29 -12t-29 12t-12 29z" />
<glyph unicode="@" horiz-adv-x="1843" d="M82 428q0 196 71.5 367t196.5 292.5t302.5 191t381.5 69.5q207 0 373 -86.5t260 -241.5t94 -350q0 -216 -80 -378l-17 12q77 156 77 366q0 189 -91 339t-252.5 234t-363.5 84q-201 0 -374.5 -68t-295.5 -186.5t-192 -285.5t-70 -359q0 -198 97.5 -357.5t265.5 -248 t373 -88.5q290 0 467 122.5t177 322.5q0 46 28 75t73 29q40 0 65.5 -27t25.5 -71q0 -212 -230 -342t-606 -130q-210 0 -382.5 91t-273 255.5t-100.5 368.5zM463 425q0 130 49 240t132.5 183.5t195.5 114.5t237 41h233l-136 -697q-17 -90 -17 -101q0 -65 43.5 -107.5 t110.5 -42.5q54 0 107 17l-5 -23q-51 -14 -102 -14q-78 0 -128.5 48t-50.5 122q0 23 12 85q3 15 3 20t-2 5q-5 0 -18 -20q-167 -260 -345 -260q-161 0 -240 102.5t-79 286.5zM488 425q0 -369 294 -369q170 0 329 250l52 83l108 546q1 4 1 12q0 36 -48 36h-147 q-162 0 -295 -66.5t-213.5 -195t-80.5 -296.5z" />
<glyph unicode="A" horiz-adv-x="1361" d="M20 0v15h6q64 0 93 17t44 59l522 1458q3 7 9 7h28q10 0 10 -10q0 -33 26 -106l438 -1223q54 -152 69 -185q87 -198 228 -261q74 -32 165 -32q44 0 97 22t82 22q53 0 90 -34t37 -83q0 -65 -61.5 -110.5t-149.5 -45.5q-198 0 -325 156q-93 113 -193 373q-23 62 -72 198 l-1 1v1l-1 1v1v1l-1 1v1v1l-1 2l-88 245h-743l-147 -407q-5 -17 -5 -26q0 -27 34 -35.5t117 -8.5h42v-15h-349zM335 512h729l-330 922q-17 48 -21 68h-24z" />
<glyph unicode="B" horiz-adv-x="1372" d="M51 0v15h41q66 0 101.5 8.5t44 19.5t8.5 29v1412q0 28 -30.5 42.5t-123.5 14.5h-41v15h563q259 0 396 -95.5t137 -248.5q0 -131 -76.5 -222t-224.5 -112h-4v-5h4q114 -12 200 -45t135 -74.5t79.5 -96.5t40.5 -103.5t10 -102.5q0 -197 -151.5 -324t-381.5 -127h-727z M271 20h507q222 0 364.5 121.5t142.5 309.5q0 37 -4 69t-16 70.5t-32 70.5t-53.5 64t-79 56.5t-111 43.5t-145.5 28q-113 12 -120 12q-96 0 -154.5 -45t-58.5 -118q0 -35 21.5 -66.5t42.5 -59t21 -53.5q0 -52 -32 -84t-85 -32q-71 0 -113.5 54.5t-42.5 145.5q0 125 111 202 t294 77q8 0 116 12q140 20 208.5 104t68.5 210q0 143 -127 233.5t-380 90.5h-342z" />
<glyph unicode="C" horiz-adv-x="1167" d="M67 780q0 232 77.5 410t219.5 275t327 97q187 0 301.5 -82.5t114.5 -216.5q0 -91 -43 -146t-114 -55q-52 0 -84 32t-32 85q0 26 21 53.5t42.5 59t21.5 66.5q0 82 -63 132.5t-165 50.5q-271 0 -437.5 -209.5t-166.5 -551.5q0 -224 71.5 -397t209.5 -270.5t323 -97.5 q237 0 407 168l14 -14q-178 -174 -421 -174q-192 0 -334.5 101.5t-216 278.5t-73.5 405z" />
<glyph unicode="D" horiz-adv-x="1454" d="M51 0v15l221 5h363q208 0 374.5 97.5t259.5 270.5t93 390t-93 390t-259.5 270.5t-374.5 97.5h-364v-1104q0 -73 48.5 -117.5t130.5 -44.5q35 0 66.5 21.5t59 42.5t53.5 21q53 0 84.5 -31.5t31.5 -84.5q0 -71 -54.5 -114t-145.5 -43q-134 0 -216.5 97t-82.5 257v1048 q0 18 -8.5 29t-44 19.5t-101.5 8.5h-41v15h589q160 0 299 -58.5t237.5 -160.5t155 -247t56.5 -312t-56.5 -312t-155 -247t-237.5 -160.5t-299 -58.5h-589z" />
<glyph unicode="E" horiz-adv-x="1320" d="M51 0v15h41q66 0 101.5 9t44 20t8.5 29v1417q0 27 -30 39t-124 12h-41v15h1096q10 0 10 -9l26 -389l-21 -2l-16 260q-4 67 -33 93.5t-97 26.5h-744l-1 -829h210q88 0 141.5 44.5t53.5 117.5q0 28 -13.5 54.5t-29 43.5t-29 39t-13.5 43q0 52 32 84t85 32q71 0 113.5 -54.5 t42.5 -145.5q0 -125 -105.5 -202t-277.5 -77h-210v-666h827q69 0 97 27t33 93l16 260l21 -2l-26 -389q0 -9 -10 -9h-1178z" />
<glyph unicode="F" horiz-adv-x="1274" d="M51 0v15h41q66 0 101.5 9t44 20t8.5 29v1416q0 27 -30 39.5t-124 12.5h-41v15h1142q10 0 10 -9l26 -389l-21 -2l-18 260q-4 68 -32 94t-96 26h-790l-1 -594h210q172 0 277.5 -76.5t105.5 -201.5q0 -91 -43 -146t-113 -55q-52 0 -84.5 32.5t-32.5 84.5q0 21 13.5 43t29 39 t29 43t13.5 54q0 73 -53.5 118t-141.5 45h-210v-849q0 -18 8.5 -29t44 -20t101.5 -9h41v-15h-415z" />
<glyph unicode="G" horiz-adv-x="1346" d="M67 780q0 232 77.5 410t219.5 275t327 97q200 0 322.5 -82.5t122.5 -216.5q0 -91 -43 -146t-114 -55q-53 0 -85 32t-32 85q0 26 21 53.5t42.5 59t21.5 66.5q0 83 -70.5 133t-185.5 50q-269 0 -434 -209.5t-165 -551.5q0 -219 71.5 -393.5t199 -273t287.5 -98.5 q176 0 386 169q70 58 96 89v402q0 27 -30 39.5t-124 12.5h-205v21h543v-21h-22q-87 0 -114.5 -13t-27.5 -39v-680q0 -10 -10 -10t-10 10v151q0 57 -20 57q-17 0 -62 -34q-218 -174 -400 -174q-167 0 -300.5 100.5t-208 280t-74.5 404.5z" />
<glyph unicode="H" horiz-adv-x="1495" d="M51 0v15h41q66 0 101.5 9.5t44 20.5t8.5 29v1414q0 18 -8.5 28t-44 17.5t-101.5 7.5h-41v15h451v-15h-77q-66 0 -101.5 -7.5t-44 -17.5t-8.5 -28v-648h953v430q0 235 61.5 408t188.5 271t308 98q88 0 149.5 -46t61.5 -111q0 -49 -37 -82.5t-90 -33.5q-29 0 -82 22t-97 22 q-145 0 -245.5 -82.5t-146.5 -216.5t-46 -308v-1137q0 -18 8.5 -29t44 -20.5t101.5 -9.5h41v-15h-451v15h77q66 0 101.5 9.5t44 20.5t8.5 29v745h-953v-745q0 -18 8.5 -29t44 -20.5t101.5 -9.5h77v-15h-451z" />
<glyph unicode="I" horiz-adv-x="512" d="M51 0v15h41q66 0 101.5 8.5t44 19.5t8.5 29v1416q0 27 -30 40t-124 13h-41v15h410v-15h-36q-94 0 -124 -13t-30 -40v-1416q0 -18 8.5 -29t44 -19.5t101.5 -8.5h36v-15h-410z" />
<glyph unicode="J" horiz-adv-x="552" d="M-271 -335q0 49 37 83t90 34q29 0 82 -22t97 -22q132 0 202 79t70 214v1459q0 27 -29.5 39t-123.5 12h-103v15h471v-15h-36q-94 0 -123.5 -12t-29.5 -39v-1459q0 -227 -111.5 -375t-281.5 -148q-88 0 -149.5 46t-61.5 111z" />
<glyph unicode="K" horiz-adv-x="1252" d="M51 0v15h41q66 0 101.5 8.5t44 19.5t8.5 29v1415q0 18 -9.5 28.5t-44.5 18t-100 7.5h-41v15h430v-15h-56q-65 0 -100 -7.5t-44.5 -18t-9.5 -28.5v-668h171q16 0 37.5 12t32.5 26l488 618q24 30 24 43q0 23 -74 23h-112v15h391v-15h-16q-134 0 -196 -79l-516 -653 q83 -105 242 -330t311 -410q52 -64 89.5 -104.5t94 -88t111.5 -74t130.5 -45t162.5 -18.5q44 0 97.5 22t82.5 22q53 0 90 -34t37 -83q0 -65 -61.5 -110.5t-149.5 -45.5q-99 0 -175 25t-162 102.5t-140.5 140t-177.5 216.5q-30 37 -45 56q-139 172 -292.5 387.5t-239.5 324.5 q-10 13 -29 25t-35 12h-171v-727q0 -18 8.5 -29t44 -19.5t101.5 -8.5h56v-15h-430z" />
<glyph unicode="L" horiz-adv-x="1320" d="M51 0v15h41q66 0 101.5 9t44 20t8.5 29v1414q0 18 -9.5 28.5t-44.5 18t-100 7.5h-41v15h410v-15h-36q-65 0 -100 -7.5t-44.5 -18t-9.5 -28.5v-1467h844q51 0 83 25.5t32 66.5q0 72 -28 115.5t-72 43.5q-32 0 -82 -25.5t-73 -25.5q-49 0 -79 30.5t-30 80.5q0 67 47 107.5 t124 40.5q100 0 161.5 -89t61.5 -235q0 -5 -9 -146q0 -9 -10 -9h-1190z" />
<glyph unicode="M" horiz-adv-x="1904" d="M31 0v16h22q46 0 76 5.5t43.5 16.5t17.5 20.5t5 24.5l103 1341q1 17 1 24q0 59 -34.5 76t-131.5 17v15h194q6 0 9 -6l613 -1300q11 -23 20 -23t20 23l604 1300q3 6 10 6h189v-15q-98 0 -132.5 -17t-34.5 -77l1 -24l85 -1078q49 -606 437 -606q44 0 97.5 22t82.5 22 q53 0 90 -34t37 -83q0 -65 -61.5 -110.5t-149.5 -45.5q-109 0 -196 37t-148.5 103t-105.5 164t-68.5 214t-35.5 259l-95 1218l-604 -1299q-3 -7 -5.5 -21.5t-3.5 -25.5l-1 -11h-29q-2 44 -9 58l-617 1308l-111 -1433v-10q0 -27 25.5 -41t106.5 -14h115v-16h-431z" />
<glyph unicode="N" horiz-adv-x="1464" d="M51 1541v15h235q6 0 8 -5l911 -1461q11 -18 22 -18q12 0 12 26v1172q0 236 60.5 408.5t186.5 270.5t307 98q88 0 149.5 -46t61.5 -111q0 -49 -37 -82.5t-90 -33.5q-29 0 -82 22t-97 22q-88 0 -160 -30.5t-123 -85.5t-86 -131.5t-51.5 -166.5t-16.5 -193l-1 -1211h-22 q-6 0 -9 5l-956 1531h-9q12 -49 12 -114v-1350q0 -18 8.5 -29t44 -19.5t101.5 -8.5h36v-15h-405v15h41q66 0 101.5 8.5t44 19.5t8.5 29v1351q0 32 -9 54t-23 34.5t-40.5 19t-52.5 8.5t-68 2h-12z" />
<glyph unicode="O" horiz-adv-x="1443" d="M67 778q0 165 46.5 307.5t132.5 247.5v-39q-154 -211 -154 -516q0 -218 80.5 -392.5t224.5 -272.5t325 -98t325 98t224.5 272.5t80.5 392.5t-81 392.5t-225 272.5t-324 98q-112 0 -180.5 -50t-68.5 -133q0 -35 21.5 -66.5t42.5 -59t21 -53.5q0 -53 -32 -85t-85 -32 q-70 0 -113 55t-43 146q0 134 120.5 216.5t316.5 82.5q187 0 337 -100.5t234 -280t84 -403.5q0 -168 -49 -314t-135.5 -248.5t-208 -161.5t-262.5 -59t-262.5 59t-208 161.5t-135.5 248.5t-49 314z" />
<glyph unicode="P" horiz-adv-x="1326" d="M51 0v15h41q66 0 101.5 8.5t44 19.5t8.5 29v1418q0 27 -30 39t-124 12h-41v15h625q125 0 227 -36t166.5 -92t109 -128t63 -141t18.5 -135q0 -67 -18.5 -136.5t-63.5 -141.5t-109.5 -127.5t-166.5 -91t-225 -35.5q-160 0 -257 82.5t-97 216.5q0 91 42.5 145.5t113.5 54.5 q53 0 85 -32.5t32 -84.5q0 -26 -21 -53.5t-42.5 -59t-21.5 -66.5q0 -82 44.5 -132.5t117.5 -50.5q101 0 186.5 23.5t145 64.5t105 92t72 109.5t39.5 114t13 108.5q0 63 -17 129.5t-59.5 136t-104 123.5t-160.5 88.5t-220 34.5h-401l-1 -1464q0 -18 8.5 -29t44 -19.5 t101.5 -8.5h36v-15h-410z" />
<glyph unicode="Q" horiz-adv-x="1443" d="M67 778q0 168 49 313.5t135.5 248.5t208 161.5t262.5 58.5t262.5 -58.5t208 -161.5t135.5 -248.5t49 -313.5q0 -220 -81.5 -396.5t-226 -278.5t-326.5 -108q23 -142 104 -209.5t202 -67.5q43 0 75 10t48.5 22.5t43.5 22.5t61 10q53 0 90 -34t37 -83q0 -65 -61.5 -110.5 t-149.5 -45.5q-152 0 -253 82.5t-181 246.5q-23 52 -40 156q-187 1 -336 101.5t-232.5 279t-83.5 402.5zM92 778q0 -206 70.5 -369.5t197.5 -267.5q-2 12 -2 19q0 52 47.5 88t114.5 36q36 0 65 -8.5t49.5 -21t37 -35.5t26 -41.5t18.5 -51.5t13.5 -53.5t10.5 -57.5 q267 8 439.5 222.5t172.5 540.5q0 163 -47.5 304.5t-130 241.5t-200 157.5t-252.5 57.5t-252.5 -57.5t-200 -157.5t-130 -241.5t-47.5 -304.5zM374 160q0 -25 17 -42q143 -100 325 -103q-8 48 -14.5 75.5t-21 65t-33 57.5t-51.5 35t-76 15q-61 0 -103.5 -30t-42.5 -73z" />
<glyph unicode="R" horiz-adv-x="1289" d="M51 0v15h41q66 0 101.5 8.5t44 19.5t8.5 29v1418q0 27 -30 39t-124 12h-41v15h599q254 0 419 -127t165 -323q0 -184 -146 -309t-377 -140q84 -21 131.5 -54t85 -97t84.5 -193q73 -195 116 -278q151 -290 375 -296h10q44 0 97.5 22t82.5 22q53 0 90 -34t37 -83 q0 -65 -61.5 -110.5t-149.5 -45.5q-69 0 -129 19t-107.5 54.5t-89.5 86t-76.5 112.5t-66.5 135t-62.5 153.5t-61.5 168.5q-5 15 -8 23.5t-7.5 21t-8.5 23.5q-29 79 -55 131.5t-62 97t-81.5 69t-108 37.5t-147.5 13h-267v-583q0 -18 8.5 -29t44 -19.5t101.5 -8.5h36v-15h-410 zM271 676h267h109q245 0 403 121t158 309t-158 309t-403 121h-375z" />
<glyph unicode="S" horiz-adv-x="1173" d="M72 -20l13 389h15v-12q0 -81 45.5 -147.5t119.5 -107.5t163 -63t182 -22q209 0 342.5 86t133.5 219q0 58 -15.5 109t-46.5 92t-64.5 73t-83 63t-87.5 52t-92 49t-84 46q-29 17 -89.5 48t-103.5 53.5t-97 61.5t-88 77.5t-58 94.5t-24 120q0 132 119 216.5t297 84.5 q201 0 324 -82.5t123 -216.5q0 -91 -43 -146t-114 -55q-53 0 -85 32t-32 85q0 26 21 53.5t42.5 59t21.5 66.5q0 82 -71 132.5t-187 50.5q-172 -2 -281.5 -80.5t-109.5 -199.5q0 -60 22.5 -112.5t54 -88t83.5 -72.5t93.5 -58.5t101.5 -52.5t91 -49q29 -17 97.5 -53t111.5 -60 t101.5 -68t93 -86t59.5 -105t25 -134q0 -142 -142 -234.5t-360 -92.5q-125 0 -243.5 38t-193.5 111q-45 49 -59 49q-21 0 -22 -66l-5 -147h-15z" />
<glyph unicode="T" horiz-adv-x="1341" d="M46 1402q0 20 8 145q0 9 11 9h1199q10 0 10 -9l21 -327l-16 -2l-12 190q-5 73 -34.5 100.5t-106.5 27.5h-440v-1464q0 -18 8.5 -29t44 -19.5t101.5 -8.5h36v-15h-410v15h41q50 0 82.5 4.5t47 13t19 17.5t4.5 22v1464h-470q-52 0 -83 -25t-31 -66q0 -72 33 -116t87 -44 q33 0 82.5 25.5t72.5 25.5q49 0 79 -30t30 -80q0 -67 -47 -108t-124 -41q-109 0 -176 89.5t-67 235.5z" />
<glyph unicode="U" horiz-adv-x="1410" d="M31 1541v15h450v-15h-77q-66 0 -101.5 -8.5t-43.5 -19t-8 -28.5v-988q0 -210 130.5 -346t335.5 -136q214 0 352.5 135.5t138.5 346.5v773q0 236 60.5 408.5t186.5 270.5t307 98q88 0 149.5 -46t61.5 -111q0 -49 -37 -82.5t-90 -33.5q-29 0 -82 22t-97 22 q-88 0 -160 -30.5t-123 -85.5t-86 -131.5t-51.5 -166.5t-16.5 -193l-1 -714q0 -219 -145.5 -360.5t-366.5 -141.5q-215 0 -353.5 142.5t-138.5 359.5v988q0 18 -8 28.5t-43.5 19t-101.5 8.5h-41z" />
<glyph unicode="V" horiz-adv-x="1341" d="M10 1541v15h531v-15h-206q-91 0 -121 -6t-30 -31q0 -15 7 -33l502 -1445l446 1284q47 134 74.5 208t72 174t84 152.5t94.5 105.5t121.5 75t147.5 22q88 0 149.5 -46t61.5 -111q0 -49 -37 -82.5t-90 -33.5q-29 0 -82.5 22t-97.5 22q-62 0 -117 -17t-93.5 -38t-75.5 -65 t-58 -72.5t-47 -87.5t-35 -83.5t-30 -84.5q-7 -21 -11 -31l-470 -1353h-19l-514 1479q-14 41 -51 58.5t-103 17.5h-3z" />
<glyph unicode="W" horiz-adv-x="2170" d="M10 1541v15h409v-15h-73h-23q-82 0 -110.5 -6t-28.5 -30q0 -11 6 -28l475 -1394q10 -33 22 -33t22 32l366 1079l-5 15q-52 143 -52 306q0 181 96 291t253 110q88 0 149.5 -46t61.5 -111q0 -49 -37 -82.5t-90 -33.5q-29 0 -82 22t-97 22q-95 0 -153.5 -71.5t-58.5 -188.5 t46 -248l361 -1063q10 -33 23 -33q11 0 21 32l475 1395q6 17 6 27q0 24 -29.5 30.5t-111.5 6.5h-53v15h363v-15q-68 0 -105.5 -15.5t-51.5 -55.5l-501 -1473h-33l-385 1132l-385 -1132h-32l-501 1473q-14 40 -51.5 55.5t-105.5 15.5z" />
<glyph unicode="X" horiz-adv-x="1351" d="M20 0v15h16q18 0 41 3q85 10 123 69l439 700q9 13 9 33q0 24 -11 41l-384 610q-19 31 -59.5 48.5t-71.5 19.5l-30 2h-31v15h420v-15h-74q-138 0 -138 -39q0 -9 7 -20l384 -613q7 -12 16 -12q8 0 15 11l349 557q161 257 221 338q126 170 247 233q100 51 225 51 q88 0 149.5 -46t61.5 -111q0 -49 -37 -82.5t-90 -33.5q-29 0 -82.5 22t-97.5 22q-95 0 -176 -25t-136.5 -61.5t-109 -96t-86.5 -108.5t-76 -118l-6 -10.5t-5.5 -9t-6.5 -10.5l-323 -516q-11 -17 -11 -40q0 -17 10 -32l441 -704q38 -59 123 -69q23 -3 41 -3h15q1 -15 0 -15 h-423v15h99q137 0 137 30q0 10 -14 32l-442 703q-7 12 -14 12q-8 0 -16 -14l-442 -701q-13 -21 -13 -32q0 -30 137 -30h103v-15h-423z" />
<glyph unicode="Y" horiz-adv-x="1332" d="M10 1541v15h414v-15h-145q-54 0 -78 -7t-24 -27q0 -14 11 -36l486 -887l461 841q39 72 70 125.5t70.5 115.5t75 107t78 91t86 77t93 56.5t105 37.5t115.5 12q88 0 149.5 -46t61.5 -111q0 -49 -37 -82.5t-90 -33.5q-29 0 -82 22t-97 22q-74 0 -141 -16t-116.5 -38t-98 -62 t-79 -72t-66 -85t-53 -83t-46.5 -83l-447 -816v-491q0 -18 8.5 -29t44 -19.5t101.5 -8.5h36v-15h-410v15h41q50 0 82.5 4.5t47 13t19 17.5t4.5 22v483l-4 8l-491 898q-19 36 -44.5 55t-42 22t-40.5 3h-28z" />
<glyph unicode="Z" horiz-adv-x="1249" d="M51 0v20q34 0 76 34t84 102l784 1257q27 44 65 78q13 12 13 23q0 9 -8.5 15.5t-21.5 6.5h-802q-52 0 -83.5 -25t-31.5 -66q0 -72 44.5 -116t116.5 -44q33 0 82 25.5t73 25.5q49 0 79 -30t30 -80q0 -67 -47 -108t-124 -41q-128 0 -206 89.5t-78 235.5q0 42 18 145 q0 9 10 9h1055v-20q-34 0 -79.5 -34t-87.5 -101l-785 -1258q-47 -74 -116 -123h941q110 0 119 114l12 144l15 -3l-20 -266q0 -9 -11 -9h-1116z" />
<glyph unicode="[" horiz-adv-x="368" d="M82 -451v2048h230v-20h-41l-163 2v-2011l163 2h41v-21h-230z" />
<glyph unicode="\" horiz-adv-x="1228" d="M65 1568l21 13l1078 -1683l-21 -14z" />
<glyph unicode="]" horiz-adv-x="368" d="M56 -430h41l164 -2v2011l-164 -2h-41v20h231v-2048h-231v21z" />
<glyph unicode="^" horiz-adv-x="1121" d="M110 1006l445 559q4 4 8 4q5 0 8 -4l430 -559l-16 -13l-405 528q-5 8 -17 8q-10 0 -16 -8l-422 -529z" />
<glyph unicode="_" horiz-adv-x="1617" d="M82 -410h1393v-20h-1393v20z" />
<glyph unicode="`" horiz-adv-x="491" d="M98 1530q-8 8 2 17q9 9 18 0l295 -277l-15 -15z" />
<glyph unicode="a" d="M67 266q0 245 398 287q12 1 52 5t63.5 6t64.5 8t67.5 12.5t60 17.5t54.5 24t39 32t25 41q5 18 5 33v6q-1 135 -87 223.5t-221 88.5q-104 0 -167.5 -33.5t-63.5 -88.5q0 -35 18.5 -64t37.5 -54t19 -51q0 -43 -29.5 -69.5t-76.5 -26.5q-71 0 -114 49t-43 131 q0 102 114.5 164.5t301.5 62.5q148 0 242.5 -93.5t94.5 -238.5v-497l16 -98q20 -122 62 -123l110 11l2 -21l-112 -15h-1q-64 0 -87 144q-2 11 -6 37t-7 43t-3 21v22q0 28 -7 28t-16 -22q-56 -119 -165 -196t-242 -77q-174 0 -286.5 76.5t-112.5 194.5zM92 266 q0 -109 105.5 -180t268.5 -71q117 0 217.5 65t156.5 166.5t56 209.5v206q-14 -23 -38.5 -42t-58 -32t-64.5 -21.5t-74.5 -14.5t-70 -9t-69 -6.5t-54.5 -4.5q-83 -9 -147 -26t-117.5 -47.5t-82 -79t-28.5 -113.5z" />
<glyph unicode="b" horiz-adv-x="1100" d="M31 1541v15h36l133 4v-1244q42 -137 143.5 -219t237.5 -82q186 0 307 146t121 371t-118 371.5t-300 146.5q-64 0 -102.5 -53.5t-38.5 -140.5q0 -35 18.5 -64t37 -54t18.5 -51q0 -43 -29.5 -69.5t-76.5 -26.5q-71 0 -114 49t-43 131q0 134 91 216.5t239 82.5 q193 0 318 -152.5t125 -385.5t-128 -385t-325 -152q-112 0 -203 54t-148 149q-11 19 -20 19q-10 0 -11 -27l-4 -190h-21v1490q0 28 -24 39.5t-83 11.5h-36z" />
<glyph unicode="c" horiz-adv-x="1034" d="M67 530q0 234 142 387t359 153q187 0 301.5 -71t114.5 -187q0 -82 -43 -131t-114 -49q-47 0 -76.5 26.5t-29.5 69.5q0 26 18.5 51t37.5 54t19 64q0 153 -231 153q-206 0 -339.5 -146.5t-133.5 -373.5q0 -226 139 -370.5t358 -144.5q101 0 200 34t176 99l13 -15 q-80 -68 -182.5 -103t-206.5 -35q-228 0 -375 150.5t-147 384.5z" />
<glyph unicode="d" horiz-adv-x="1152" d="M67 532q0 233 125.5 385.5t317.5 152.5q148 0 239 -82.5t91 -216.5q0 -82 -43 -131t-114 -49q-47 0 -76.5 26.5t-29.5 69.5q0 26 18.5 51t37 54t18.5 64q0 87 -38.5 140.5t-102.5 53.5q-182 0 -300 -146.5t-118 -371.5t121 -371t307 -146q136 0 237.5 83t143.5 220v1172 q0 28 -24 39.5t-83 11.5h-46v15h46l133 4v-1305l9 -102q5 -58 24 -98.5t42 -41.5l100 19l4 -21l-100 -16h-2q-37 0 -62.5 47t-31.5 109l-4 46q-3 27 -11 27q-9 0 -21 -21q-57 -97 -148.5 -152.5t-205.5 -55.5q-197 0 -325 152t-128 385z" />
<glyph unicode="e" horiz-adv-x="1116" d="M67 532q0 120 37 218l15 -35q-27 -87 -27 -183q0 -225 130.5 -371t335.5 -146q165 0 276.5 64t173.5 173l18 -10q-64 -114 -181 -180.5t-287 -66.5q-215 0 -353 152.5t-138 384.5zM148 770q0 82 43 131t114 49q47 0 77 -26.5t30 -69.5q0 -26 -19 -51t-37.5 -54t-18.5 -64 q0 -55 46.5 -88.5t122.5 -33.5h466q46 0 46 70q0 17 -3 31q-31 175 -149.5 280.5t-297.5 105.5q-140 0 -254 -72h-39q128 92 293 92q217 0 349.5 -145.5t132.5 -371.5q0 -10 -11 -10h-536q-160 0 -257.5 62.5t-97.5 164.5z" />
<glyph unicode="f" horiz-adv-x="737" d="M51 0v15h41q67 0 102 7.5t43.5 17.5t8.5 27v922q0 35 -37 35h-127v20h127q36 0 33 36q-9 92 -9 127q0 88 29.5 157.5t77.5 110t103.5 61t114.5 20.5q122 0 196.5 -59.5t74.5 -156.5q0 -82 -42.5 -131t-113.5 -49q-47 0 -77 26.5t-30 69.5q0 26 19 51t37.5 54t18.5 64 q0 50 -22.5 80.5t-59.5 30.5q-55 0 -106.5 -19t-96 -56.5t-71.5 -103.5t-27 -151q0 -34 9 -124q4 -38 41 -38h265v-20h-265q-37 0 -37 -36v-921q0 -17 8.5 -27t43.5 -17.5t102 -7.5h26v-15h-400z" />
<glyph unicode="g" horiz-adv-x="1146" d="M31 -152q0 91 43 146t113 55q53 0 85 -32.5t32 -84.5q0 -26 -21 -53.5t-42.5 -59t-21.5 -66.5q0 -98 93 -158.5t244 -60.5q266 0 403 64t137 188q0 128 -104.5 206.5t-275.5 78.5q-28 1 -76 2.5t-78.5 2.5t-71.5 4.5t-69.5 10t-57.5 17t-49.5 28t-33.5 41.5 q-16 30 -16 72q0 55 64 119q-93 45 -144 129.5t-51 198.5q0 179 115.5 276.5t294.5 97.5q166 0 270 -90q13 -11 21 -11t14 14q30 86 109 87q101 0 101 -29q0 -10 -6 -16.5t-15 -6.5q-13 0 -38 16t-44 16q-38 0 -64.5 -30.5t-33.5 -85.5q75 -95 75 -238q0 -178 -109 -275.5 t-280 -97.5q-114 0 -196 35q-62 -60 -62 -109q0 -38 13 -63q10 -19 27 -33t44.5 -23t51.5 -15t66 -9t69.5 -4.5t80 -3.5t80.5 -3q180 0 289.5 -85t109.5 -224q0 -137 -145.5 -207.5t-414.5 -70.5q-236 0 -380.5 93.5t-144.5 246.5zM159 696q0 -163 102 -258t282 -95 q163 0 263 92t100 261q0 162 -96.5 258t-266.5 96q-172 0 -278 -92t-106 -262z" />
<glyph unicode="h" horiz-adv-x="1280" d="M51 0v15h41q66 0 101.5 8.5t44 19.5t8.5 29v1418q0 28 -24 39.5t-84 11.5h-46v15h46l133 4v-852q0 -32 8 -32q6 0 16 25q62 159 187.5 264t265.5 105q164 0 250.5 -73.5t86.5 -213.5v-705q0 -78 21.5 -128t49.5 -50q31 0 72 24.5t71 24.5q49 0 79 -26t30 -69 q0 -60 -47 -97t-124 -37q-80 0 -128.5 75.5t-48.5 199.5v785q0 130 -80 198.5t-232 68.5q-116 0 -227.5 -83t-180.5 -217t-69 -274v-401q0 -18 8.5 -29t44 -19.5t101.5 -8.5h56v-15h-430z" />
<glyph unicode="i" horiz-adv-x="512" d="M-17 1205q0 128 72.5 206.5t192.5 78.5q32 0 54.5 -23t22.5 -54t-22.5 -54t-54.5 -23q-24 0 -63.5 21t-67.5 21q-52 0 -83 -47.5t-31 -125.5q0 -63 37.5 -101.5t99.5 -38.5h131v-993q0 -18 8.5 -29t44 -19.5t101.5 -8.5h36v-15h-410v15h41q66 0 101.5 8.5t44 19.5t8.5 29 v926q0 29 -24.5 40.5t-83.5 11.5q-70 0 -112.5 42.5t-42.5 112.5z" />
<glyph unicode="j" horiz-adv-x="389" d="M-282 -335q0 47 30 77t77 30q29 0 82 -22t97 -22q91 0 146 80t55 212v978q0 29 -24.5 40.5t-83.5 11.5h-46v15h46l133 3v-1048q0 -230 -88 -371t-233 -141q-86 0 -138.5 43t-52.5 114zM140 1413q0 34 23.5 55.5t53.5 21.5q34 0 55.5 -23.5t21.5 -53.5q0 -34 -23.5 -55.5 t-53.5 -21.5q-34 0 -55.5 23.5t-21.5 53.5z" />
<glyph unicode="k" horiz-adv-x="1075" d="M51 0v15h41q66 0 101.5 8.5t44 19.5t8.5 29v1418q0 28 -24 39.5t-84 11.5h-46v15h46l133 4v-987h171q16 0 37.5 12t32.5 26l294 372q21 27 21 41q0 26 -78 26h-106v15h391v-15q-29 0 -50 -2t-53 -8.5t-60 -24t-49 -44.5l-321 -408l327 -417q67 -85 114.5 -139.5 t110 -110.5t120 -87t131.5 -50.5t159 -19.5q44 0 97 22t82 22q53 0 90 -34t37 -83q0 -65 -61 -110.5t-149 -45.5q-55 0 -108.5 14t-99.5 37.5t-96 63.5t-92.5 81.5t-95 102.5t-96 115.5t-103.5 131.5q-40 52 -61 78l-300 382q-9 13 -29 25t-36 12h-171v-481q0 -18 8.5 -29 t44 -19.5t101.5 -8.5h36v-15h-410z" />
<glyph unicode="l" horiz-adv-x="512" d="M51 0v15h41q66 0 101.5 8.5t44 19.5t8.5 29v1418q0 28 -24 39.5t-84 11.5h-46v15h46l133 4v-1488q0 -18 8.5 -29t44 -19.5t101.5 -8.5h36v-15h-410z" />
<glyph unicode="m" horiz-adv-x="1935" d="M51 0v15h41q66 0 101.5 8.5t44 19.5t8.5 29v926q0 29 -24.5 40.5t-83.5 11.5h-25v15h25l133 3v-362q0 -30 5 -30q6 0 13 26q54 161 166.5 264.5t251.5 103.5q145 0 223.5 -74t78.5 -213v-77q0 -30 5 -30q4 0 12 27q54 160 167 263.5t251 103.5q145 0 221 -73.5t76 -213.5 v-705q0 -78 21 -128t49 -50q31 0 72.5 24.5t71.5 24.5q49 0 78.5 -26t29.5 -69q0 -60 -47 -97t-124 -37q-80 0 -128.5 75.5t-48.5 199.5v785q0 131 -68.5 199t-202.5 68q-118 0 -219 -81.5t-158.5 -213.5t-57.5 -279v-401q0 -13 4.5 -22t19 -17.5t47 -13t82.5 -4.5h31v-15 h-394v15h30q66 0 101.5 8.5t44 19.5t8.5 29v708q0 130 -70.5 198.5t-205.5 68.5q-118 0 -219 -81.5t-159 -213.5t-58 -279v-401q0 -18 8.5 -29t44 -19.5t101.5 -8.5h56v-15h-430z" />
<glyph unicode="n" horiz-adv-x="1280" d="M51 0v15h41q66 0 101.5 8.5t44 19.5t8.5 29v926q0 29 -24.5 40.5t-83.5 11.5h-25v15h25l133 3v-360q0 -32 8 -32q6 0 16 25q62 159 187.5 264t265.5 105q164 0 250.5 -73.5t86.5 -213.5v-705q0 -78 21.5 -128t49.5 -50q31 0 72 24.5t71 24.5q49 0 79 -26t30 -69 q0 -60 -47 -97t-124 -37q-80 0 -128.5 75.5t-48.5 199.5v785q0 131 -79 199t-233 68q-119 0 -229.5 -81t-179 -214.5t-68.5 -278.5v-401q0 -18 8.5 -29t44 -19.5t101.5 -8.5h56v-15h-430z" />
<glyph unicode="o" d="M67 532q0 154 64 276.5t178.5 192t258.5 69.5q173 0 279 -76.5t107 -201.5q0 -82 -37.5 -131.5t-98.5 -49.5q-50 0 -80 32t-30 85q0 26 29 75.5t29 83.5q-1 73 -55 118t-143 45q-208 0 -342 -146.5t-134 -371.5t134.5 -371t341.5 -146t341.5 146t134.5 371q0 148 -60 265 l-1 51q87 -138 87 -316q0 -233 -142 -385t-360 -152t-359.5 152t-141.5 385z" />
<glyph unicode="p" horiz-adv-x="1172" d="M51 -476h41q66 0 101.5 8.5t44 19t8.5 28.5v1418q0 29 -24.5 40.5t-83.5 11.5h-25v15h25l133 3v-149q205 151 392 151q193 0 318 -152.5t125 -385.5t-128 -385t-326 -152q-144 0 -231.5 87.5t-87.5 231.5q0 82 37.5 131.5t98.5 49.5q50 0 80.5 -32t30.5 -85 q0 -26 -29.5 -75.5t-29.5 -83.5q0 -92 35.5 -148t95.5 -56q187 0 307.5 146t120.5 371t-117.5 371.5t-299.5 146.5q-184 0 -392 -157v-1313q0 -18 8.5 -28.5t44 -19t101.5 -8.5h77v-16h-451v16z" />
<glyph unicode="q" horiz-adv-x="1029" d="M67 532q0 233 125 385.5t318 152.5q186 0 391 -151l5 146h21v-1490q0 -14 3 -21t15.5 -15t43 -11.5t81.5 -3.5h10v-16h-363v16h31q67 0 101.5 7t43 17t8.5 27v1318q-208 157 -391 157q-182 0 -300 -146.5t-118 -371.5t120 -371t306 -146q60 0 96.5 56t36.5 148 q0 34 -29 83.5t-29 75.5q0 53 30 85t80 32q62 0 99.5 -49.5t37.5 -131.5q0 -143 -88.5 -231t-233.5 -88q-197 0 -324 151.5t-127 385.5z" />
<glyph unicode="r" horiz-adv-x="921" d="M51 0v15h41q66 0 101.5 8.5t44 19.5t8.5 29v926q0 29 -24.5 40.5t-83.5 11.5h-25v15h25l133 3v-338q38 148 135.5 244t224.5 96q109 0 176 -54t67 -143q0 -82 -37 -131t-99 -49q-50 0 -80 32t-30 85q0 26 29 75.5t29 83.5q0 36 -15 58.5t-40 22.5q-100 0 -183.5 -67 t-130 -177.5t-46.5 -237.5v-496q0 -18 8.5 -29t44 -19.5t101.5 -8.5h56v-15h-430z" />
<glyph unicode="s" horiz-adv-x="1034" d="M67 263q0 82 42.5 131t113.5 49q47 0 77 -26.5t30 -69.5q0 -26 -19 -51t-37.5 -54t-18.5 -64q0 -73 74.5 -118t197.5 -45q183 0 301.5 66.5t118.5 168.5q0 76 -45 134t-116.5 93.5t-158.5 63.5t-174 52.5t-158.5 52.5t-116.5 72t-45 102q0 109 103 179.5t261 70.5 q192 0 321 -103q7 -6 16.5 -14.5t14.5 -12.5t9 -4q15 0 15 47q0 2 -0.5 9.5t-1 28t-1.5 44.5h17l11 -307q0 -7 -8 -7t-8 7l-1 8q-18 137 -75 184q-121 100 -309 100q-147 0 -242.5 -65t-95.5 -165q0 -51 45 -90t116.5 -65t158.5 -50t174 -53.5t158.5 -67.5t116.5 -100.5 t45 -143.5q0 -110 -126 -182.5t-320 -72.5q-207 0 -333.5 73.5t-126.5 194.5z" />
<glyph unicode="t" horiz-adv-x="849" d="M41 1024v20h92q67 0 85 22t18 104v182h20v-273q0 -35 37 -35h223q43 0 62.5 18t19.5 44q0 20 -17 65t-17 67q0 49 32.5 83t78.5 35q61 0 97.5 -37.5t36.5 -99.5q0 -88 -80.5 -141.5t-212.5 -53.5h-223q-37 0 -37 -36v-589q0 -167 75.5 -275.5t191.5 -108.5q74 0 141 32 t106 93l16 -10q-41 -66 -113 -100.5t-150 -34.5q-127 0 -210 114t-83 290v589q0 36 -36 36h-153z" />
<glyph unicode="u" horiz-adv-x="1249" d="M51 1050v15h26l133 3v-783q0 -131 79 -199t233 -68q119 0 229.5 81t178.5 214.5t68 278.5v104q0 128 -52 206t-137 78q-58 0 -93 27.5t-35 71.5q0 51 33.5 82.5t88.5 31.5q99 0 160 -115.5t61 -303.5v-519l9 -102q5 -57 24.5 -97t42.5 -41l98 17l4 -21l-99 -16h-2 q-37 0 -62 47t-31 109l-10 103v103q0 32 -7 32q-6 0 -16 -25q-62 -159 -187.5 -264t-265.5 -105q-164 0 -251 74t-87 213v716q0 29 -24 40.5t-83 11.5h-26z" />
<glyph unicode="v" horiz-adv-x="1228" d="M20 1050v15h408v-15h-78q-88 0 -120.5 -6.5t-32.5 -30.5q0 -13 9 -33l382 -898q13 -32 23 -32q12 0 25 32l364 836q91 208 116 255q72 136 156 180q55 28 125 28q72 0 115.5 -34.5t43.5 -91.5q0 -43 -26.5 -69.5t-69.5 -26.5q-29 0 -77 17t-92 17q-39 0 -73.5 -16 t-60.5 -40t-52 -64t-43.5 -75.5t-40.5 -86.5l-399 -914h-28l-411 977q-17 41 -52 58.5t-99 17.5h-12z" />
<glyph unicode="w" horiz-adv-x="1925" d="M19 1050v15h408v-15h-78q-88 0 -120.5 -6.5t-32.5 -30.5q0 -13 9 -33l394 -898q13 -32 25 -32q10 0 23 32l295 697l-85 195q-18 41 -52.5 58.5t-97.5 17.5h-11v15h413v-15h-83q-89 0 -122 -7t-33 -30q0 -11 10 -33l394 -898q13 -32 24 -32t24 32l353 836q89 210 124 273 q73 131 165 170q48 20 108 20q72 0 115.5 -34.5t43.5 -91.5q0 -43 -26.5 -69.5t-69.5 -26.5q-29 0 -77 17t-92 17q-48 0 -89 -21.5t-74 -63.5t-58 -87.5t-51 -109.5l-384 -914h-28l-308 705q-11 24 -22 24q-10 0 -20 -23l-298 -706h-28l-425 976q-18 41 -53 59t-98 18h-12z " />
<glyph unicode="x" horiz-adv-x="1187" d="M20 0v15h41q62 0 99 24t79 84l306 439q11 16 11 31q0 10 -19 34l-276 353q-54 70 -162 70h-27v15h420v-15h-104q-65 0 -88.5 -8t-23.5 -27q0 -11 12 -27l274 -352q13 -16 19 -16q3 0 19 20l200 285q134 191 192 258q135 155 274 188q43 10 90 10q72 0 116 -34.5t44 -91.5 q0 -43 -27 -69.5t-70 -26.5q-29 0 -77 17t-92 17q-74 0 -140.5 -24t-120.5 -67.5t-93.5 -87.5t-79.5 -101l-202 -285q-8 -11 -8 -35q0 -13 16 -34l367 -472q56 -72 159 -72h19q1 -15 0 -15h-402v15h88q127 0 127 30q0 16 -13 32l-370 472q-13 16 -19 16q-4 0 -9.5 -5 t-6.5 -8l-306 -439q-24 -35 -24 -54q0 -24 23.5 -34t79.5 -10h109v-15h-424z" />
<glyph unicode="y" horiz-adv-x="1187" d="M-97 -334q0 49 37 83t90 34q34 0 61 -10t43.5 -22.5t48.5 -22.5t75 -10q88 0 162.5 33.5t106.5 103.5l56 119q1 2 1 8q0 17 -16 57l-360 872q-33 79 -55 100t-72 21q-24 0 -48 -8q-4 -2 -7 -2q-20 0 -20 19q0 29 70 29q64 0 91 -29t65 -123l352 -847q12 -30 19 -30t20 31 l384 908q9 23 9 33q0 23 -32.5 30t-121.5 7h-102v15h407v-15h-11q-54 0 -84 -17.5t-47 -58.5l-476 -1133q-69 -163 -174.5 -247t-260.5 -84q-88 0 -149.5 45.5t-61.5 110.5z" />
<glyph unicode="z" horiz-adv-x="1085" d="M51 0l1 20q30 0 65 32t94 104l622 766q35 43 70 78q15 15 15 26q0 18 -29 18h-679q-52 0 -83.5 -25t-31.5 -66q0 -63 39 -101t102 -38q30 0 73 18t62 18q44 0 71 -29.5t27 -76.5q0 -58 -44.5 -93t-116.5 -35q-109 0 -175.5 81t-66.5 213q0 48 17 146q0 9 10 9h923v-21 q-58 0 -167 -135l-622 -766q-79 -97 -116 -123h777q54 0 85 29t35 85l11 144l15 -3l-20 -266q0 -9 -10 -9h-953z" />
<glyph unicode="{" horiz-adv-x="573" d="M41 560v27q0 8 41 8q16 0 34 5t40 18.5t39.5 34.5t29 56.5t11.5 80.5v510q0 225 73.5 397.5t207 266.5t308.5 94q72 0 135 -43.5t63 -114.5q0 -46 -42 -83t-93 -37q-29 0 -92.5 18t-102.5 18q-194 0 -313 -142t-119 -374v-510q0 -56 -17.5 -99.5t-45.5 -67t-54.5 -35.5 t-51.5 -14v-2q18 -2 38.5 -8.5t44.5 -22t42.5 -38.5t31 -61t12.5 -85v-511q0 -121 76 -198.5t195 -77.5v-21q-129 0 -212.5 84t-83.5 213v511q0 57 -17.5 98.5t-44 60.5t-49.5 27.5t-43 8.5q-41 0 -41 8z" />
<glyph unicode="|" horiz-adv-x="204" d="M82 -410v1966h26v-1966h-26z" />
<glyph unicode="}" horiz-adv-x="573" d="M-450 -753q0 46 42.5 83t93.5 37q29 0 92 -18t102 -18q194 0 313 141.5t119 373.5v511q0 56 17.5 99.5t45.5 66.5t54.5 35t51.5 14v2q-24 2 -50 13.5t-54.5 34t-46.5 66.5t-18 102v510q0 121 -76.5 199t-194.5 78v20q129 0 213 -84t84 -213v-510q0 -57 17.5 -98.5 t44 -60.5t49.5 -27.5t43 -8.5q40 0 40 -8v-27q0 -8 -40 -8q-16 0 -34 -5t-40 -18.5t-39.5 -34.5t-29 -56.5t-11.5 -80.5v-511q0 -341 -162.5 -549t-427.5 -208q-72 0 -135 43.5t-63 114.5z" />
<glyph unicode="~" horiz-adv-x="819" d="M102 741q9 51 40.5 80t75.5 29q46 0 100 -20.5t96 -45t93.5 -45t93.5 -20.5q35 0 61 22t34 68q0 3 3.5 6t9.5 2q8 -2 8 -12q-9 -53 -41.5 -81t-74.5 -28q-47 0 -101.5 20.5t-96.5 45t-93 45t-92 20.5q-36 0 -62 -22.5t-34 -66.5q-2 -9 -11 -9q-3 0 -6.5 3t-2.5 9z" />
<glyph unicode="&#xa1;" horiz-adv-x="409" d="M236 1029q0 17 11.5 29t28.5 12t29 -12t12 -29t-12 -29t-29 -12t-28.5 12t-11.5 29zM261 -421q0 31 2.5 329t2.5 665h21v-1065h-26v71z" />
<glyph unicode="&#xa2;" horiz-adv-x="1024" d="M51 612q0 229 135.5 380.5t345.5 159.5v118h26v-118q182 0 293.5 -71t111.5 -187q0 -82 -43 -131t-114 -49q-47 0 -77 26.5t-30 69.5q0 26 18.5 51t37.5 54t19 64q0 68 -59.5 110.5t-156.5 42.5v-1037h15q101 0 200 34t176 99l14 -15q-80 -68 -182.5 -103t-207.5 -35h-15 v-116h-26v117q-212 14 -346.5 163.5t-134.5 372.5zM77 612q0 -215 126.5 -358.5t328.5 -157.5v1036q-200 -7 -327.5 -152.5t-127.5 -367.5z" />
<glyph unicode="&#xa3;" horiz-adv-x="1172" d="M37 140q0 62 50 100t132 38q48 0 115 -19q22 137 22 393v88h-194l4 21h190v328q0 166 87.5 268t228.5 102q153 0 246 -71t93 -187q0 -91 -43 -146t-114 -55q-52 0 -84.5 32t-32.5 85q0 21 13.5 43t29 39t29 43t13.5 54q0 64 -41.5 103.5t-108.5 39.5q-132 0 -211 -95 t-79 -255v-328h357l-4 -21h-353v-88q0 -246 -25 -400q73 -24 191.5 -85.5t219.5 -104t179 -42.5q126 0 158 137l16 71l21 -4l-17 -71q-17 -78 -65.5 -118t-112.5 -40q-65 0 -147 28t-148.5 63.5t-153.5 79t-145 64.5q-23 -118 -67 -176.5t-116 -58.5q-59 0 -96 40t-37 105z " />
<glyph unicode="&#xa4;" horiz-adv-x="737" d="M61 1002l16 14l96 -96q9 -9 22 -9t18 5q69 49 152 49q90 0 159 -55q21 -16 40 3l96 97l15 -16l-96 -96q-9 -9 -9.5 -21.5t5.5 -18.5q52 -68 52 -156q0 -81 -48 -151q-7 -12 -5 -23t8 -17l89 -89l-16 -13l-87 86q-11 9 -22.5 8.5t-18.5 -6.5q-70 -57 -162 -57 q-87 0 -156 52q-12 7 -22.5 5t-17.5 -9l-89 -88l-13 16l87 87q9 11 8.5 22t-5.5 18q-55 70 -55 159q0 92 57 163q8 12 6 23.5t-8 17.5zM128 702q0 -96 70 -166t167 -70q96 0 166 70t70 166q0 97 -70 167t-166 70q-97 0 -167 -70t-70 -167z" />
<glyph unicode="&#xa5;" horiz-adv-x="1146" d="M12 1439v15h414v-15h-145q-54 0 -78 -7t-24 -27q0 -17 11 -36l463 -847q179 216 273 426t94 386q0 230 -158 361q-25 21 -69 42.5t-74.5 36t-55 47.5t-24.5 81q0 52 36.5 83.5t95.5 31.5q155 0 250 -143.5t95 -377.5q0 -218 -112.5 -474.5t-337.5 -523.5v-6h338v-21h-338 v-184h338v-21h-338v-194q0 -13 4.5 -22t19 -17.5t47 -13t82.5 -4.5h36v-15h-410v15h41q66 0 101.5 8.5t44 19.5t8.5 29v194h-292v21h292v184h-292v21h292v2l-4 8l-469 857q-19 36 -44.5 55t-42 22t-40.5 3h-28z" />
<glyph unicode="&#xa6;" horiz-adv-x="204" d="M82 -410v820h26v-820h-26zM82 819v737h26v-737h-26z" />
<glyph unicode="&#xa7;" horiz-adv-x="1310" d="M51 621q0 81 61 150t161 112.5t221 57.5q-112 49 -173.5 124.5t-61.5 195.5q0 131 106 216t270 85q201 0 323.5 -82.5t122.5 -216.5q0 -91 -43 -146t-113 -55q-53 0 -85 32t-32 85q0 26 21 53.5t42.5 59t21.5 66.5q0 82 -71 132.5t-187 50.5q-152 0 -251 -79t-99 -201 q0 -124 70 -199t198 -123q47 -18 113 -38t120 -34.5t117 -36t112.5 -43t96.5 -54.5t78.5 -72t50.5 -94.5t19 -122.5q0 -121 -127.5 -209t-314.5 -111q111 -49 172.5 -124.5t61.5 -195.5q0 -131 -106 -216t-270 -85q-92 0 -188.5 36t-160.5 109q-25 29 -39 29q-15 0 -15 -47 v-15l1 -45h-16l-12 307q0 7 8 7t8 -7l3 -30q7 -70 37.5 -126.5t72.5 -92t95.5 -59.5t104.5 -33.5t101 -9.5q152 0 251 78.5t99 199.5q0 124 -69.5 198.5t-196.5 122.5q-52 20 -129.5 43t-138.5 40.5t-131.5 42t-122.5 56t-96.5 74t-67.5 103.5t-23 137zM77 621 q0 -65 18.5 -118t49 -91t77 -70t95 -52.5t110.5 -41t115.5 -35t118.5 -34t112 -37.5q126 8 230.5 48t167.5 107t63 147q0 65 -18.5 118t-49 91t-77 70t-94.5 52.5t-110 41t-115.5 35t-118.5 34t-112 37.5q-126 -8 -231 -48t-168 -107t-63 -147z" />
<glyph unicode="&#xa8;" horiz-adv-x="819" d="M123 1372q0 17 12 29t29 12t29 -12t12 -29t-12 -29t-29 -12t-29 12t-12 29zM614 1372q0 17 12 29t29 12t29 -12t12 -29t-12 -29t-29 -12t-29 12t-12 29z" />
<glyph unicode="&#xa9;" horiz-adv-x="1925" d="M61 776q0 134 45.5 259.5t129 226.5t194.5 177t248.5 117.5t284.5 41.5q183 0 350 -65t287.5 -175t192 -262.5t71.5 -319.5q0 -168 -71.5 -321t-192 -263.5t-287.5 -176t-350 -65.5t-350.5 65.5t-288 176t-192 263.5t-71.5 321zM82 776q0 -164 70 -313t188 -257t281 -172 t342 -64t342 64t281 172t187.5 257t69.5 313q0 109 -31.5 213t-88.5 191.5t-138 162t-177.5 126t-210.5 80.5t-234 29q-179 0 -342 -63.5t-281 -171t-188 -256t-70 -311.5zM507 774q0 211 121 339.5t319 128.5q187 0 301.5 -71t114.5 -187q0 -82 -43 -131t-114 -49 q-47 0 -76.5 26.5t-29.5 69.5q0 26 19 51t37.5 54t18.5 64q0 68 -64.5 110.5t-166.5 42.5q-185 0 -298.5 -123.5t-113.5 -324.5q0 -204 118 -328.5t313 -124.5q212 0 363 128l13 -16q-157 -133 -376 -133q-207 0 -331.5 130t-124.5 344z" />
<glyph unicode="&#xaa;" horiz-adv-x="778" d="M61 1040q0 164 263 190q7 1 30.5 3t36 3.5t36.5 4.5t39 6.5t35.5 8.5t34 11.5t27 14.5t22 18.5t12.5 22.5q3 9 3 20v5q-1 87 -56 142.5t-141 55.5q-99 0 -167.5 -38.5t-68.5 -90.5q0 -17 -19 -17q-17 0 -17 17q0 63 80 106.5t190 43.5q98 0 161.5 -62.5t63.5 -156.5v-324 l10 -63q13 -77 36 -77l70 7h3l4 -20l-77 -11h-1q-44 0 -60 97l-11 64v265q-16 -20 -42 -33.5t-61.5 -21t-59.5 -11t-64 -6.5t-47 -4q-239 -25 -239 -170q0 -70 67 -114.5t171 -44.5q44 0 71.5 23t27.5 61q0 31 -26.5 64.5t-26.5 53.5q0 30 20.5 49t53.5 19q49 0 79.5 -35 t30.5 -92q0 -74 -63.5 -119t-166.5 -45q-115 0 -189.5 51t-74.5 129z" />
<glyph unicode="&#xab;" horiz-adv-x="696" d="M76 531v3q0 4 10 14l266 304l17 -14l-265 -301v-9l265 -299l-17 -14l-266 302q-10 10 -10 14zM322 531v3q0 4 10 14l266 304l16 -14l-264 -301v-9l264 -299l-16 -14l-266 302q-10 10 -10 14z" />
<glyph unicode="&#xac;" horiz-adv-x="1146" d="M82 466v26h983v-492h-21v466h-962z" />
<glyph unicode="&#xad;" horiz-adv-x="737" d="M80 768l4 20h573l-4 -20h-573z" />
<glyph unicode="&#xae;" horiz-adv-x="1925" d="M61 776q0 134 45.5 259.5t129 226.5t194.5 177t248.5 117.5t284.5 41.5q183 0 350 -65t287.5 -175t192 -262.5t71.5 -319.5q0 -210 -107 -390.5t-290 -293.5l-12 17q179 111 283.5 287t104.5 380q0 109 -31.5 213t-88.5 191.5t-138 162t-177.5 126t-210.5 80.5t-234 29 q-179 0 -342 -63.5t-281 -171t-188 -256t-70 -311.5q0 -164 70 -313t188 -257t281 -172t342 -64q151 0 295 47l8 -19q-147 -48 -303 -48q-183 0 -350.5 65.5t-288 176t-192 263.5t-71.5 321zM518 225v16h34q50 0 77 6.5t32 14t5 19.5v1034q0 12 -7.5 19.5t-33.5 12.5t-73 5 h-34v15h422q199 0 320 -88t121 -233q0 -135 -106 -222.5t-276 -102.5q81 -25 130.5 -86.5t88.5 -170.5q10 -26 31.5 -87.5t36 -103t41.5 -104t51 -105t60 -90.5t73 -77.5t86.5 -49t103.5 -19.5q44 0 97 22t82 22q53 0 90 -34t37 -83q0 -65 -61.5 -110.5t-149.5 -45.5 q-51 0 -97.5 13t-83.5 33.5t-72.5 57t-62.5 72t-55.5 90.5t-48.5 101t-46 114.5t-43.5 119.5t-44 128.5t-45.5 129.5q-27 74 -53 119.5t-65 79.5t-92.5 47.5t-131.5 13.5h-165v-437q0 -13 6.5 -20.5t32.5 -13.5t75 -6h30v-16h-316zM691 738h247q185 0 301.5 85t116.5 223 q0 135 -115 218t-303 83h-247v-609z" />
<glyph unicode="&#xaf;" horiz-adv-x="819" d="M82 1423v21h655v-21h-655z" />
<glyph unicode="&#xb0;" horiz-adv-x="430" d="M82 1352q0 52 41.5 92.5t91.5 40.5q47 0 90 -40t43 -93q0 -52 -41.5 -92.5t-91.5 -40.5q-47 0 -90 40t-43 93zM102 1352q0 -44 37 -78.5t76 -34.5q40 0 76.5 35.5t36.5 77.5q0 44 -37 78t-76 34q-40 0 -76.5 -35t-36.5 -77z" />
<glyph unicode="&#xb1;" horiz-adv-x="1064" d="M82 225v21h901v-21h-901zM82 850v20h440v441h21v-441h440l-1 -20h-439v-440h-21v440h-440z" />
<glyph unicode="&#xb2;" horiz-adv-x="593" d="M41 948v10q0 7 7 8t30 19t63.5 55.5t83.5 83.5l149 158q86 92 114 156t28 128q0 85 -56 137t-148 52q-59 0 -94.5 -37.5t-35.5 -99.5q0 -31 30 -68t30 -57q0 -37 -22.5 -59.5t-59.5 -22.5q-50 0 -80 38.5t-30 101.5q0 99 72 159t190 60q101 0 162.5 -56t61.5 -148 q0 -65 -30.5 -132t-117.5 -160l-150 -161q-79 -84 -136 -130q-17 -14 -17 -17q0 -5 18 -5h376q29 0 48.5 19.5t19.5 49.5v136h16v-218q0 -7 -8 -7h-506q-8 0 -8 7z" />
<glyph unicode="&#xb3;" horiz-adv-x="655" d="M61 1071v79h16v-36q0 -15 7.5 -39.5t18.5 -36.5q76 -86 213 -86q129 0 208.5 65t79.5 170q0 186 -213 216h-10q-13 0 -13 6v17q0 7 13 7h10q156 42 156 158q0 73 -60 118.5t-158 45.5q-54 0 -87 -32t-33 -85q0 -31 24.5 -62.5t24.5 -51.5q0 -37 -22.5 -59.5t-59.5 -22.5 q-44 0 -71.5 36t-27.5 94q0 90 69 144t183 54q107 0 172.5 -49.5t65.5 -129.5q0 -58 -45 -104t-130 -68v-2q109 -16 171 -73.5t62 -156.5q0 -112 -85.5 -181t-223.5 -69q-171 0 -254 131q-1 1 -1 3z" />
<glyph unicode="&#xb4;" horiz-adv-x="491" d="M78 1268l295 277q9 9 17 0q10 -9 2 -17l-300 -275z" />
<glyph unicode="&#xb5;" horiz-adv-x="1249" d="M51 1050v15h26l133 3v-783q0 -131 79 -199t233 -68q119 0 229.5 81t178.5 214.5t68 278.5v406q0 29 -24 40.5t-83 11.5h-26v15h26l133 3v-813l9 -102q5 -57 24.5 -97t42.5 -41l98 17l4 -21l-99 -16h-2q-37 0 -62 47t-31 109l-10 103v143q0 27 -2 27q-1 0 -9 -27 q-57 -171 -187 -286.5t-278 -115.5q-252 0 -317 167l5 -223q2 -96 39.5 -153.5t99.5 -57.5q44 0 97 22t82 22q47 0 77 -30t30 -77q0 -71 -52.5 -114t-138.5 -43q-117 0 -188.5 118.5t-71.5 312.5v1059q0 29 -24 40.5t-83 11.5h-26z" />
<glyph unicode="&#xb6;" horiz-adv-x="1187" d="M51 1187q0 130 81.5 209t215.5 79h768v-16h-41q-97 0 -130.5 -14t-33.5 -47v-1731q0 -33 33.5 -47t130.5 -14h41v-16h-230v1808q0 32 -40.5 46.5t-144.5 14.5t-144 -14.5t-40 -46.5v-1808h-230v16h41q97 0 130.5 14t33.5 47v1152v630h-144q-125 0 -200.5 -72t-75.5 -190 q0 -78 30 -125.5t80 -47.5q22 0 59.5 20.5t67.5 20.5q52 0 84.5 -28t32.5 -72q0 -62 -38 -99t-101 -37q-106 0 -171 101.5t-65 266.5z" />
<glyph unicode="&#xb7;" horiz-adv-x="409" d="M123 548q0 17 12 29t29 12t29 -12t12 -29t-12 -29t-29 -12t-29 12t-12 29z" />
<glyph unicode="&#xb8;" horiz-adv-x="921" d="M246 -362q-4 9 3 13q10 6 14 -3q22 -36 63 -57t89 -21q69 0 116.5 41.5t47.5 97.5q0 67 -46.5 113.5t-110.5 46.5q-13 0 -23.5 -1t-21 -3.5t-17.5 -4.5t-18.5 -6t-17.5 -6q-10 -3 -13 7v6l39 159l21 -5l-36 -142q56 16 87 16q73 0 125 -52.5t52 -127.5q0 -66 -54 -113 t-130 -47q-53 0 -98.5 24t-70.5 65z" />
<glyph unicode="&#xb9;" horiz-adv-x="440" d="M26 1599q0 58 140 121q57 26 66 50q8 0 14.5 -6t6.5 -13v-755q0 -14 6 -22t34 -15t79 -7h27v-10h-358v10h73q51 0 78.5 7t33.5 15t6 22v676q0 44 -29 44q-25 0 -42.5 -14.5t-17.5 -35.5q0 -7 12 -15.5t24 -23t12 -36.5q0 -32 -22.5 -55t-53.5 -23q-40 0 -64.5 24 t-24.5 62z" />
<glyph unicode="&#xba;" horiz-adv-x="761" d="M51 1213q0 155 94 254.5t236 99.5q112 0 181 -55.5t69 -146.5q0 -57 -26 -91.5t-69 -34.5q-35 0 -56.5 22.5t-21.5 59.5q0 19 20.5 53.5t20.5 57.5q0 52 -32.5 83t-85.5 31q-133 0 -218.5 -94.5t-85.5 -238.5q0 -146 86 -239t218 -93q134 0 219 94t85 238q0 83 -30 152 v52q56 -87 56 -204q0 -154 -93.5 -253.5t-236.5 -99.5q-145 0 -237.5 100t-92.5 253z" />
<glyph unicode="&#xbb;" horiz-adv-x="696" d="M82 227l264 301v9l-264 299l16 14l267 -302q10 -10 10 -14v-3q0 -4 -10 -14l-267 -304zM328 227l264 301v9l-264 299l16 14l266 -302q11 -11 11 -14v-3q0 -3 -11 -14l-266 -304z" />
<glyph unicode="&#xbc;" horiz-adv-x="1392" d="M26 1364q0 58 140 121q57 26 66 50q8 0 14.5 -6t6.5 -13v-755q0 -14 6 -22t34 -15t79 -7h27v-10h-358v10h73q51 0 78.5 7t33.5 15t6 22v676q0 44 -29 44q-25 0 -42.5 -14.5t-17.5 -35.5q0 -7 12 -15.5t24 -23t12 -36.5q0 -32 -22.5 -55t-53.5 -23q-40 0 -64.5 24 t-24.5 62zM43 91l591 672l14 -14l-590 -671zM671 860q0 49 39 79.5t102 30.5q95 0 153 -66.5t58 -174.5q0 -177 -118 -349q-18 -27 -40.5 -56t-37.5 -47t-46.5 -54t-43.5 -51q-6 -7 -8.5 -13t1 -10t13.5 -4h393q28 0 28 27v382q0 19 21 19v-401q0 -27 28 -27h103v-20h-103 q-28 0 -28 -28v-80q0 -14 6 -22t34 -15t79 -7h37v-10h-374v10h79q51 0 78.5 7t33.5 15t6 22v80q0 28 -28 28h-440v25q14 17 61 70t77.5 90t54.5 73q118 173 118 338q0 53 -35 85t-93 32q-31 0 -68.5 -30t-57.5 -30q-37 0 -59.5 22.5t-22.5 59.5zM865 1026l326 371l15 -14 l-317 -361z" />
<glyph unicode="&#xbd;" horiz-adv-x="1464" d="M26 1364q0 58 140 121q57 26 66 50q8 0 14.5 -6t6.5 -13v-755q0 -14 6 -22t34 -15t79 -7h27v-10h-358v10h73q51 0 78.5 7t33.5 15t6 22v676q0 44 -29 44q-25 0 -42.5 -14.5t-17.5 -35.5q0 -7 12 -15.5t24 -23t12 -36.5q0 -32 -22.5 -55t-53.5 -23q-40 0 -64.5 24 t-24.5 62zM43 91l1148 1306l15 -14l-1148 -1305zM870 -19q0 5 8 7q7 1 30 19t63.5 55.5t83.5 83.5l148 158q86 92 114.5 156.5t28.5 127.5q0 85 -56 137t-148 52q-59 0 -94.5 -37.5t-35.5 -99.5q0 -31 29.5 -68.5t29.5 -57.5q0 -37 -22.5 -59.5t-59.5 -22.5q-49 0 -79 39 t-30 102q0 99 72 159.5t190 60.5q100 0 161.5 -56.5t61.5 -148.5q0 -66 -30 -132.5t-117 -159.5l-151 -161q-81 -87 -135 -130q-18 -15 -18 -17q0 -5 19 -5h376q29 0 48 19t19 50v136h17v-218q0 -7 -9 -7h-505q-9 0 -9 7v11z" />
<glyph unicode="&#xbe;" horiz-adv-x="1556" d="M61 836v78h16v-35q0 -15 7.5 -39.5t18.5 -36.5q76 -86 213 -86q130 0 209 64.5t79 169.5q0 186 -213 216h-10q-13 0 -13 7v17q0 6 13 6h10q156 42 156 159q0 73 -60 118.5t-158 45.5q-54 0 -87 -32t-33 -85q0 -31 24.5 -63t24.5 -52q0 -37 -22.5 -59.5t-59.5 -22.5 q-44 0 -71.5 36t-27.5 94q0 90 69.5 144.5t182.5 54.5q107 0 172.5 -49.5t65.5 -129.5q0 -58 -45 -104t-130 -68v-2q108 -16 170.5 -74t62.5 -157q0 -112 -85.5 -181t-223.5 -69q-170 0 -254 132q-1 1 -1 3zM207 91l591 672l14 -14l-590 -671zM835 860q0 49 39 79.5 t102 30.5q95 0 153 -66.5t58 -174.5q0 -177 -118 -349q-18 -27 -40.5 -56t-37.5 -47t-46.5 -54t-43.5 -51q-6 -7 -8.5 -13t1 -10t13.5 -4h392q29 0 29 27v382q0 19 21 19v-401q0 -27 28 -27h103v-20h-103q-28 0 -28 -28v-80q0 -14 6 -22t33.5 -15t78.5 -7h38v-10h-375v10h79 q51 0 79 7t34 15t6 22v80q0 28 -29 28h-439v25q14 17 61 70t77.5 90t54.5 73q117 171 117 338q0 53 -35 85t-93 32q-31 0 -68.5 -30t-57.5 -30q-37 0 -59 22.5t-22 59.5zM1029 1026l326 371l15 -14l-317 -361z" />
<glyph unicode="&#xbf;" horiz-adv-x="983" d="M82 -164q0 158 77 263t241 201q92 54 114 73q45 39 45 88q0 33 -11 132l20 2l17 -121q0 -3 0.5 -7t0.5 -6q0 -30 -11 -55t-41 -49.5t-45.5 -35t-61.5 -37.5q-2 -1 -3 -2t-3 -2t-3.5 -2t-3.5 -2q-162 -94 -234 -191.5t-72 -248.5q0 -135 109.5 -223t278.5 -88 q114 0 183.5 50.5t69.5 132.5q0 35 -21.5 66.5t-42.5 59t-21 53.5q0 53 32 85t84 32q71 0 114 -55t43 -146q0 -134 -121 -216.5t-320 -82.5q-180 0 -297 93.5t-117 238.5zM512 1029q0 17 12 29t29 12t29 -12t12 -29t-12 -29t-29 -12t-29 12t-12 29z" />
<glyph unicode="&#xc0;" horiz-adv-x="1361" d="M20 0v15h6q64 0 93 17t44 59l522 1458q3 7 9 7h28q10 0 10 -10q0 -33 26 -106l438 -1223q54 -152 69 -185q87 -198 228 -261q74 -32 165 -32q44 0 97 22t82 22q53 0 90 -34t37 -83q0 -65 -61.5 -110.5t-149.5 -45.5q-198 0 -325 156q-93 113 -193 373q-23 62 -72 198 l-1 1v1l-1 1v1v1l-1 1v1v1l-1 2l-88 245h-743l-147 -407q-5 -17 -5 -26q0 -27 34 -35.5t117 -8.5h42v-15h-349zM335 512h729l-330 922q-17 48 -21 68h-24zM507 1939q-8 8 2 18q9 9 17 0l295 -278l-14 -14z" />
<glyph unicode="&#xc1;" horiz-adv-x="1361" d="M20 0v15h6q64 0 93 17t44 59l522 1458q3 7 9 7h28q10 0 10 -10q0 -33 26 -106l438 -1223q54 -152 69 -185q87 -198 228 -261q74 -32 165 -32q44 0 97 22t82 22q53 0 90 -34t37 -83q0 -65 -61.5 -110.5t-149.5 -45.5q-198 0 -325 156q-93 113 -193 373q-23 62 -72 198 l-1 1v1l-1 1v1v1l-1 1v1v1l-1 2l-88 245h-743l-147 -407q-5 -17 -5 -26q0 -27 34 -35.5t117 -8.5h42v-15h-349zM335 512h729l-330 922q-17 48 -21 68h-24zM600 1679l295 278q9 9 17 0q10 -10 2 -18l-300 -274z" />
<glyph unicode="&#xc2;" horiz-adv-x="1361" d="M20 0v15h6q64 0 93 17t44 59l522 1458q3 7 9 7h28q10 0 10 -10q0 -33 26 -106l438 -1223q54 -152 69 -185q87 -198 228 -261q74 -32 165 -32q44 0 97 22t82 22q53 0 90 -34t37 -83q0 -65 -61.5 -110.5t-149.5 -45.5q-198 0 -325 156q-93 113 -193 373q-23 62 -72 198 l-1 1v1l-1 1v1v1l-1 1v1v1l-1 2l-88 245h-743l-147 -407q-5 -17 -5 -26q0 -27 34 -35.5t117 -8.5h42v-15h-349zM335 512h729l-330 922q-17 48 -21 68h-24zM374 1664l320 282h23l320 -282l-14 -15l-314 276h-7l-314 -276z" />
<glyph unicode="&#xc3;" horiz-adv-x="1361" d="M20 0v15h6q64 0 93 17t44 59l522 1458q3 7 9 7h28q10 0 10 -10q0 -33 26 -106l438 -1223q54 -152 69 -185q87 -198 228 -261q74 -32 165 -32q44 0 97 22t82 22q53 0 90 -34t37 -83q0 -65 -61.5 -110.5t-149.5 -45.5q-198 0 -325 156q-93 113 -193 373q-23 62 -72 198 l-1 1v1l-1 1v1v1l-1 1v1v1l-1 2l-88 245h-743l-147 -407q-5 -17 -5 -26q0 -27 34 -35.5t117 -8.5h42v-15h-349zM335 512h729l-330 922q-17 48 -21 68h-24zM439 1796q9 51 40.5 80t75.5 29q42 0 84 -17.5t71 -38t68.5 -38t77.5 -17.5q35 0 61 22t34 68q0 3 3.5 6t9.5 2 q8 -2 8 -12q-9 -53 -41.5 -80.5t-74.5 -27.5q-44 0 -86 17t-71 38t-68 38t-76 17q-36 0 -61.5 -22.5t-33.5 -66.5q-2 -9 -13 -9q-3 0 -6 3t-2 9z" />
<glyph unicode="&#xc4;" horiz-adv-x="1361" d="M20 0v15h6q64 0 93 17t44 59l522 1458q3 7 9 7h28q10 0 10 -10q0 -33 26 -106l438 -1223q54 -152 69 -185q87 -198 228 -261q74 -32 165 -32q44 0 97 22t82 22q53 0 90 -34t37 -83q0 -65 -61.5 -110.5t-149.5 -45.5q-198 0 -325 156q-93 113 -193 373q-23 62 -72 198 l-1 1v1l-1 1v1v1l-1 1v1v1l-1 2l-88 245h-743l-147 -407q-5 -17 -5 -26q0 -27 34 -35.5t117 -8.5h42v-15h-349zM335 512h729l-330 922q-17 48 -21 68h-24zM419 1782q0 17 12 29t29 12t29 -12t12 -29t-12 -29t-29 -12t-29 12t-12 29zM910 1782q0 17 12 29t29 12t29 -12 t12 -29t-12 -29t-29 -12t-29 12t-12 29z" />
<glyph unicode="&#xc5;" horiz-adv-x="1361" d="M20 0v15h6q64 0 93 17t44 59l520 1454q-57 8 -93.5 49.5t-36.5 102.5q0 65 43.5 109t110.5 44q65 0 109 -43t44 -110q0 -59 -35.5 -101.5t-92.5 -50.5q0 -30 26 -105l438 -1223q54 -152 69 -185q87 -198 228 -261q74 -32 165 -32q44 0 97 22t82 22q53 0 90 -34t37 -83 q0 -65 -61.5 -110.5t-149.5 -45.5q-198 0 -325 156q-93 113 -193 373q-23 62 -72 198l-1 1v1l-1 1v1v1l-1 1v1v1l-1 2l-88 245h-743l-147 -407q-5 -17 -5 -26q0 -27 34 -35.5t117 -8.5h42v-15h-349zM335 512h729l-330 922q-17 48 -21 68h-24zM573 1697q0 -59 38 -96t96 -37 q59 0 96 37.5t37 95.5q0 59 -37.5 96t-95.5 37q-59 0 -96.5 -37.5t-37.5 -95.5z" />
<glyph unicode="&#xc6;" horiz-adv-x="2048" d="M20 0v15h6q63 0 90.5 16.5t46.5 59.5l593 1384q4 12 4 19q0 19 -12.5 33t-37.5 14h-39v15h1203q10 0 10 -9l26 -389l-21 -2l-16 260q-4 67 -33 93.5t-97 26.5h-641l-1 -901h191q88 0 141.5 45t53.5 118q0 35 -21.5 66.5t-42.5 59t-21 53.5q0 53 32 85t85 32q70 0 113 -55 t43 -146q0 -125 -105.5 -202t-277.5 -77h-191v-594h724q69 0 97 27t33 93l16 260l21 -2l-26 -389q0 -9 -10 -9h-1075v15h41q66 0 101.5 9t43.5 20t8 29v541h-665l-228 -529q-7 -15 -7 -28q0 -26 35 -34t118 -8h41v-15h-349zM418 635h657v829q0 39 -16 55.5t-55 16.5h-155 q-47 0 -74 -67z" />
<glyph unicode="&#xc7;" horiz-adv-x="1167" d="M67 780q0 232 77 410t219 275t328 97q187 0 301.5 -82.5t114.5 -216.5q0 -91 -43 -146t-114 -55q-52 0 -84 32t-32 85q0 26 21 53.5t42.5 59t21.5 66.5q0 82 -63 132.5t-165 50.5q-180 0 -317.5 -94.5t-212 -267.5t-74.5 -399q0 -224 71.5 -397t209.5 -270.5t323 -97.5 q237 0 407 168l14 -14q-178 -174 -421 -174h-22l-34 -132q56 16 87 16q73 0 125 -52.5t52 -127.5q0 -66 -54 -113t-130 -47q-53 0 -98.5 23.5t-70.5 64.5q-5 10 3 14q10 6 14 -3q22 -36 63 -57t89 -21q69 0 116.5 41.5t47.5 97.5q0 67 -46.5 113.5t-110.5 46.5 q-13 0 -23.5 -1t-21 -3.5t-17.5 -4.5t-18.5 -6t-17.5 -6q-11 -3 -13 6v6l36 146q-179 12 -311.5 116.5t-200.5 276.5t-68 391z" />
<glyph unicode="&#xc8;" horiz-adv-x="1320" d="M51 0v15h41q66 0 101.5 9t44 20t8.5 29v1417q0 27 -30 39t-124 12h-41v15h1096q10 0 10 -9l26 -389l-21 -2l-16 260q-4 67 -33 93.5t-97 26.5h-744l-1 -829h210q88 0 141.5 44.5t53.5 117.5q0 28 -13.5 54.5t-29 43.5t-29 39t-13.5 43q0 52 32 84t85 32q71 0 113.5 -54.5 t42.5 -145.5q0 -125 -105.5 -202t-277.5 -77h-210v-666h827q69 0 97 27t33 93l16 260l21 -2l-26 -389q0 -9 -10 -9h-1178zM477 1939q-8 8 2 18q9 9 18 0l295 -278l-15 -14z" />
<glyph unicode="&#xc9;" horiz-adv-x="1320" d="M51 0v15h41q66 0 101.5 9t44 20t8.5 29v1417q0 27 -30 39t-124 12h-41v15h1096q10 0 10 -9l26 -389l-21 -2l-16 260q-4 67 -33 93.5t-97 26.5h-744l-1 -829h210q88 0 141.5 44.5t53.5 117.5q0 28 -13.5 54.5t-29 43.5t-29 39t-13.5 43q0 52 32 84t85 32q71 0 113.5 -54.5 t42.5 -145.5q0 -125 -105.5 -202t-277.5 -77h-210v-666h827q69 0 97 27t33 93l16 260l21 -2l-26 -389q0 -9 -10 -9h-1178zM570 1679l295 278q9 9 18 0q10 -10 2 -18l-300 -274z" />
<glyph unicode="&#xca;" horiz-adv-x="1320" d="M51 0v15h41q66 0 101.5 9t44 20t8.5 29v1417q0 27 -30 39t-124 12h-41v15h1096q10 0 10 -9l26 -389l-21 -2l-16 260q-4 67 -33 93.5t-97 26.5h-744l-1 -829h210q88 0 141.5 44.5t53.5 117.5q0 28 -13.5 54.5t-29 43.5t-29 39t-13.5 43q0 52 32 84t85 32q71 0 113.5 -54.5 t42.5 -145.5q0 -125 -105.5 -202t-277.5 -77h-210v-666h827q69 0 97 27t33 93l16 260l21 -2l-26 -389q0 -9 -10 -9h-1178zM344 1664l321 282h22l321 -282l-15 -15l-314 276h-6l-315 -276z" />
<glyph unicode="&#xcb;" horiz-adv-x="1320" d="M51 0v15h41q66 0 101.5 9t44 20t8.5 29v1417q0 27 -30 39t-124 12h-41v15h1096q10 0 10 -9l26 -389l-21 -2l-16 260q-4 67 -33 93.5t-97 26.5h-744l-1 -829h210q88 0 141.5 44.5t53.5 117.5q0 28 -13.5 54.5t-29 43.5t-29 39t-13.5 43q0 52 32 84t85 32q71 0 113.5 -54.5 t42.5 -145.5q0 -125 -105.5 -202t-277.5 -77h-210v-666h827q69 0 97 27t33 93l16 260l21 -2l-26 -389q0 -9 -10 -9h-1178zM389 1782q0 17 12 29t29 12t29 -12t12 -29t-12 -29t-29 -12t-29 12t-12 29zM881 1782q0 17 12 29t29 12t29 -12t12 -29t-12 -29t-29 -12t-29 12 t-12 29z" />
<glyph unicode="&#xcc;" horiz-adv-x="512" d="M50 1939q-8 8 2 18q9 9 18 0l295 -278l-15 -14zM51 0v15h41q66 0 101.5 8.5t44 19.5t8.5 29v1416q0 27 -30 40t-124 13h-41v15h410v-15h-36q-94 0 -124 -13t-30 -40v-1416q0 -18 8.5 -29t44 -19.5t101.5 -8.5h36v-15h-410z" />
<glyph unicode="&#xcd;" horiz-adv-x="512" d="M51 0v15h41q66 0 101.5 8.5t44 19.5t8.5 29v1416q0 27 -30 40t-124 13h-41v15h410v-15h-36q-94 0 -124 -13t-30 -40v-1416q0 -18 8.5 -29t44 -19.5t101.5 -8.5h36v-15h-410zM154 1679l295 278q9 9 17 0q10 -10 2 -18l-300 -274z" />
<glyph unicode="&#xce;" horiz-adv-x="512" d="M-73 1664l321 282h22l321 -282l-14 -15l-315 276h-6l-314 -276zM51 0v15h41q66 0 101.5 8.5t44 19.5t8.5 29v1416q0 27 -30 40t-124 13h-41v15h410v-15h-36q-94 0 -124 -13t-30 -40v-1416q0 -18 8.5 -29t44 -19.5t101.5 -8.5h36v-15h-410z" />
<glyph unicode="&#xcf;" horiz-adv-x="512" d="M-17 1782q0 17 12 29t29 12t29 -12t12 -29t-12 -29t-29 -12t-29 12t-12 29zM51 0v15h41q66 0 101.5 8.5t44 19.5t8.5 29v1416q0 27 -30 40t-124 13h-41v15h410v-15h-36q-94 0 -124 -13t-30 -40v-1416q0 -18 8.5 -29t44 -19.5t101.5 -8.5h36v-15h-410zM447 1782 q0 17 12 29t29 12t29 -12t12 -29t-12 -29t-29 -12t-29 12t-12 29z" />
<glyph unicode="&#xd0;" horiz-adv-x="1495" d="M80 768l4 20h203v702q0 27 -30 39t-124 12h-41v15h589q214 0 384.5 -99.5t266.5 -277.5t96 -401t-96 -401t-266.5 -277.5t-384.5 -99.5h-589v15l221 5h363q208 0 374.5 97.5t259.5 270.5t93 390t-93 390t-259.5 270.5t-374.5 97.5h-363v-748h344l-4 -20h-341l1 -336 q0 -73 47.5 -117.5t129.5 -44.5q35 0 67 21.5t59.5 42.5t53.5 21q52 0 84 -31.5t32 -84.5q0 -71 -54.5 -114t-145.5 -43q-134 0 -216.5 97t-82.5 257v332h-207z" />
<glyph unicode="&#xd1;" horiz-adv-x="1464" d="M51 1541v15h235q6 0 8 -5l911 -1461q11 -18 22 -18q12 0 12 26v1172q0 236 60.5 408.5t186.5 270.5t307 98q88 0 149.5 -46t61.5 -111q0 -49 -37 -82.5t-90 -33.5q-29 0 -82 22t-97 22q-88 0 -160 -30.5t-123 -85.5t-86 -131.5t-51.5 -166.5t-16.5 -193l-1 -1211h-22 q-6 0 -9 5l-956 1531h-9q12 -49 12 -114v-1350q0 -18 8.5 -29t44 -19.5t101.5 -8.5h36v-15h-405v15h41q66 0 101.5 8.5t44 19.5t8.5 29v1351q0 32 -9 54t-23 34.5t-40.5 19t-52.5 8.5t-68 2h-12zM517 1796q9 51 40.5 80t75.5 29q42 0 84 -17.5t71 -38t68.5 -38t77.5 -17.5 q35 0 61 22t34 68q0 3 3 6t9 2q9 -2 9 -12q-9 -53 -41.5 -80.5t-74.5 -27.5q-44 0 -86 17t-71 38t-68 38t-76 17q-36 0 -61.5 -22.5t-33.5 -66.5q-2 -9 -13 -9q-3 0 -6 3t-2 9z" />
<glyph unicode="&#xd2;" horiz-adv-x="1443" d="M67 778q0 165 46.5 307.5t132.5 247.5v-39q-154 -211 -154 -516q0 -218 80.5 -392.5t224.5 -272.5t325 -98t325 98t224.5 272.5t80.5 392.5t-81 392.5t-225 272.5t-324 98q-112 0 -180.5 -50t-68.5 -133q0 -35 21.5 -66.5t42.5 -59t21 -53.5q0 -53 -32 -85t-85 -32 q-70 0 -113 55t-43 146q0 134 120.5 216.5t316.5 82.5q187 0 337 -100.5t234 -280t84 -403.5q0 -168 -49 -314t-135.5 -248.5t-208 -161.5t-262.5 -59t-262.5 59t-208 161.5t-135.5 248.5t-49 314zM523 1939q-8 8 2 18q9 9 18 0l295 -278l-15 -14z" />
<glyph unicode="&#xd3;" horiz-adv-x="1443" d="M67 778q0 165 46.5 307.5t132.5 247.5v-39q-154 -211 -154 -516q0 -218 80.5 -392.5t224.5 -272.5t325 -98t325 98t224.5 272.5t80.5 392.5t-81 392.5t-225 272.5t-324 98q-112 0 -180.5 -50t-68.5 -133q0 -35 21.5 -66.5t42.5 -59t21 -53.5q0 -53 -32 -85t-85 -32 q-70 0 -113 55t-43 146q0 134 120.5 216.5t316.5 82.5q187 0 337 -100.5t234 -280t84 -403.5q0 -168 -49 -314t-135.5 -248.5t-208 -161.5t-262.5 -59t-262.5 59t-208 161.5t-135.5 248.5t-49 314zM616 1679l295 278q9 9 18 0q10 -10 2 -18l-300 -274z" />
<glyph unicode="&#xd4;" horiz-adv-x="1443" d="M67 778q0 165 46.5 307.5t132.5 247.5v-39q-154 -211 -154 -516q0 -218 80.5 -392.5t224.5 -272.5t325 -98t325 98t224.5 272.5t80.5 392.5t-81 392.5t-225 272.5t-324 98q-112 0 -180.5 -50t-68.5 -133q0 -35 21.5 -66.5t42.5 -59t21 -53.5q0 -53 -32 -85t-85 -32 q-70 0 -113 55t-43 146q0 134 120.5 216.5t316.5 82.5q187 0 337 -100.5t234 -280t84 -403.5q0 -168 -49 -314t-135.5 -248.5t-208 -161.5t-262.5 -59t-262.5 59t-208 161.5t-135.5 248.5t-49 314zM390 1664l321 282h22l321 -282l-15 -15l-314 276h-6l-315 -276z" />
<glyph unicode="&#xd5;" horiz-adv-x="1443" d="M67 778q0 165 46.5 307.5t132.5 247.5v-39q-154 -211 -154 -516q0 -218 80.5 -392.5t224.5 -272.5t325 -98t325 98t224.5 272.5t80.5 392.5t-81 392.5t-225 272.5t-324 98q-112 0 -180.5 -50t-68.5 -133q0 -35 21.5 -66.5t42.5 -59t21 -53.5q0 -53 -32 -85t-85 -32 q-70 0 -113 55t-43 146q0 134 120.5 216.5t316.5 82.5q187 0 337 -100.5t234 -280t84 -403.5q0 -168 -49 -314t-135.5 -248.5t-208 -161.5t-262.5 -59t-262.5 59t-208 161.5t-135.5 248.5t-49 314zM456 1796q9 52 40 80.5t75 28.5q42 0 84 -17.5t71 -38t68.5 -38t77.5 -17.5 q35 0 61.5 22t34.5 68q0 3 3 6t9 2q8 -2 8 -12q-9 -53 -41.5 -80.5t-74.5 -27.5q-44 0 -86 17t-71 38t-68 38t-76 17q-36 0 -61.5 -22.5t-33.5 -66.5q-2 -9 -12 -9q-3 0 -6 3t-2 9z" />
<glyph unicode="&#xd6;" horiz-adv-x="1443" d="M67 778q0 165 46.5 307.5t132.5 247.5v-39q-154 -211 -154 -516q0 -218 80.5 -392.5t224.5 -272.5t325 -98t325 98t224.5 272.5t80.5 392.5t-81 392.5t-225 272.5t-324 98q-112 0 -180.5 -50t-68.5 -133q0 -35 21.5 -66.5t42.5 -59t21 -53.5q0 -53 -32 -85t-85 -32 q-70 0 -113 55t-43 146q0 134 120.5 216.5t316.5 82.5q187 0 337 -100.5t234 -280t84 -403.5q0 -168 -49 -314t-135.5 -248.5t-208 -161.5t-262.5 -59t-262.5 59t-208 161.5t-135.5 248.5t-49 314zM435 1782q0 17 12 29t29 12t29 -12t12 -29t-12 -29t-29 -12t-29 12t-12 29z M927 1782q0 17 12 29t29 12t29 -12t12 -29t-12 -29t-29 -12t-29 12t-12 29z" />
<glyph unicode="&#xd7;" horiz-adv-x="737" d="M101 485l252 252l-252 252l16 16l252 -252l252 251l14 -15l-251 -252l252 -252l-15 -15l-252 252l-252 -252z" />
<glyph unicode="&#xd8;" horiz-adv-x="1443" d="M67 778q0 165 46.5 307.5t132.5 247.5v-39q-154 -211 -154 -516q1 -171 51.5 -316.5t142.5 -248.5l859 1146q-173 182 -423 182q-112 0 -180.5 -50t-68.5 -133q0 -35 21.5 -66.5t42.5 -59t21 -53.5q0 -53 -32 -85t-85 -32q-70 0 -113 55t-43 146q0 134 120.5 216.5 t316.5 82.5q256 0 436 -185l155 206l16 -12l-157 -209q98 -107 151.5 -257t53.5 -327q0 -168 -49 -314t-135.5 -248.5t-208 -161.5t-262.5 -59q-257 0 -436 184l-155 -206l-16 13l156 209q-97 106 -150 255.5t-54 327.5zM299 198q174 -183 423 -183q181 0 325 98 t224.5 272.5t80.5 392.5q0 171 -51 316t-143 249z" />
<glyph unicode="&#xd9;" horiz-adv-x="1410" d="M31 1541v15h450v-15h-77q-66 0 -101.5 -8.5t-43.5 -19t-8 -28.5v-988q0 -210 130.5 -346t335.5 -136q214 0 352.5 135.5t138.5 346.5v773q0 236 60.5 408.5t186.5 270.5t307 98q88 0 149.5 -46t61.5 -111q0 -49 -37 -82.5t-90 -33.5q-29 0 -82 22t-97 22 q-88 0 -160 -30.5t-123 -85.5t-86 -131.5t-51.5 -166.5t-16.5 -193l-1 -714q0 -219 -145.5 -360.5t-366.5 -141.5q-215 0 -353.5 142.5t-138.5 359.5v988q0 18 -8 28.5t-43.5 19t-101.5 8.5h-41zM534 1939q-8 8 2 18q8 9 17 0l295 -278l-14 -14z" />
<glyph unicode="&#xda;" horiz-adv-x="1410" d="M31 1541v15h450v-15h-77q-66 0 -101.5 -8.5t-43.5 -19t-8 -28.5v-988q0 -210 130.5 -346t335.5 -136q214 0 352.5 135.5t138.5 346.5v773q0 236 60.5 408.5t186.5 270.5t307 98q88 0 149.5 -46t61.5 -111q0 -49 -37 -82.5t-90 -33.5q-29 0 -82 22t-97 22 q-88 0 -160 -30.5t-123 -85.5t-86 -131.5t-51.5 -166.5t-16.5 -193l-1 -714q0 -219 -145.5 -360.5t-366.5 -141.5q-215 0 -353.5 142.5t-138.5 359.5v988q0 18 -8 28.5t-43.5 19t-101.5 8.5h-41zM627 1679l295 278q8 9 17 0q10 -10 2 -18l-300 -274z" />
<glyph unicode="&#xdb;" horiz-adv-x="1410" d="M31 1541v15h450v-15h-77q-66 0 -101.5 -8.5t-43.5 -19t-8 -28.5v-988q0 -210 130.5 -346t335.5 -136q214 0 352.5 135.5t138.5 346.5v773q0 236 60.5 408.5t186.5 270.5t307 98q88 0 149.5 -46t61.5 -111q0 -49 -37 -82.5t-90 -33.5q-29 0 -82 22t-97 22 q-88 0 -160 -30.5t-123 -85.5t-86 -131.5t-51.5 -166.5t-16.5 -193l-1 -714q0 -219 -145.5 -360.5t-366.5 -141.5q-215 0 -353.5 142.5t-138.5 359.5v988q0 18 -8 28.5t-43.5 19t-101.5 8.5h-41zM400 1664l321 282h22l321 -282l-14 -15l-315 276h-6l-314 -276z" />
<glyph unicode="&#xdc;" horiz-adv-x="1410" d="M31 1541v15h450v-15h-77q-66 0 -101.5 -8.5t-43.5 -19t-8 -28.5v-988q0 -210 130.5 -346t335.5 -136q214 0 352.5 135.5t138.5 346.5v773q0 236 60.5 408.5t186.5 270.5t307 98q88 0 149.5 -46t61.5 -111q0 -49 -37 -82.5t-90 -33.5q-29 0 -82 22t-97 22 q-88 0 -160 -30.5t-123 -85.5t-86 -131.5t-51.5 -166.5t-16.5 -193l-1 -714q0 -219 -145.5 -360.5t-366.5 -141.5q-215 0 -353.5 142.5t-138.5 359.5v988q0 18 -8 28.5t-43.5 19t-101.5 8.5h-41zM445 1782q0 17 12 29t29 12t29 -12t12 -29t-12 -29t-29 -12t-29 12t-12 29z M937 1782q0 17 12 29t29 12t29 -12t12 -29t-12 -29t-29 -12t-29 12t-12 29z" />
<glyph unicode="&#xdd;" horiz-adv-x="1332" d="M10 1541v15h414v-15h-145q-54 0 -78 -7t-24 -27q0 -14 11 -36l486 -887l461 841q39 72 70 125.5t70.5 115.5t75 107t78 91t86 77t93 56.5t105 37.5t115.5 12q88 0 149.5 -46t61.5 -111q0 -49 -37 -82.5t-90 -33.5q-29 0 -82 22t-97 22q-74 0 -141 -16t-116.5 -38t-98 -62 t-79 -72t-66 -85t-53 -83t-46.5 -83l-447 -816v-491q0 -18 8.5 -29t44 -19.5t101.5 -8.5h36v-15h-410v15h41q50 0 82.5 4.5t47 13t19 17.5t4.5 22v483l-4 8l-491 898q-19 36 -44.5 55t-42 22t-40.5 3h-28zM568 1679l295 278q9 9 18 0q10 -10 2 -18l-300 -274z" />
<glyph unicode="&#xde;" horiz-adv-x="1244" d="M51 0v15h41q66 0 101.5 8.5t44 19.5t8.5 29v1413q0 18 -8.5 28.5t-44 19t-101.5 8.5h-41v15h410v-15h-36q-66 0 -101.5 -8.5t-44 -19t-8.5 -28.5v-72h364q125 0 222.5 -31.5t156.5 -81.5t97.5 -117t52.5 -130.5t14 -130.5q0 -221 -144 -356.5t-379 -135.5q-148 0 -230 81 t-82 218q0 91 43 146t114 55q43 0 69.5 -32.5t26.5 -84.5q0 -26 -21 -53.5t-42.5 -59t-21.5 -66.5q0 -83 38.5 -133t102.5 -50q225 0 362.5 129.5t137.5 341.5q0 65 -13 125.5t-49 125t-92 112t-150.5 78t-215.5 30.5h-361v-942v-379q0 -18 8.5 -29t44 -19.5t101.5 -8.5h36 v-15h-410z" />
<glyph unicode="&#xdf;" horiz-adv-x="1208" d="M72 0v15h20q67 0 102 7.5t43.5 17.5t8.5 27v957h-144v20h144v118q0 180 91.5 290t242.5 110q152 0 232 -68.5t80 -198.5q0 -59 -19 -108.5t-50 -83t-68 -62t-74.5 -52.5t-68.5 -48t-50 -54.5t-19 -66.5q0 -51 34 -90t88 -65t119.5 -50t131 -53.5t119.5 -67.5t88 -100.5 t34 -143.5q0 -117 -90.5 -186t-252.5 -69q-189 0 -304.5 73.5t-115.5 194.5q0 82 43 131t114 49q47 0 76.5 -26.5t29.5 -69.5q0 -26 -18.5 -51t-37 -54t-18.5 -64q0 -73 63.5 -118t167.5 -45q150 0 234 64t84 171q0 67 -26 120.5t-69 86.5t-98 62t-112 48.5t-112 44.5 t-98 50t-69 65.5t-26 92.5q0 40 19 73.5t49.5 58.5t67 49.5t73 52t67 59.5t49.5 78.5t19 103.5q0 120 -73 183t-213 63q-141 0 -227.5 -104.5t-86.5 -274.5v-1095q0 -30 1.5 -39t8.5 -13v-15h-204z" />
<glyph unicode="&#xe0;" d="M67 266q0 245 398 287q12 1 52 5t63.5 6t64.5 8t67.5 12.5t60 17.5t54.5 24t39 32t25 41q5 18 5 33v6q-1 135 -87 223.5t-221 88.5q-104 0 -167.5 -33.5t-63.5 -88.5q0 -35 18.5 -64t37.5 -54t19 -51q0 -43 -29.5 -69.5t-76.5 -26.5q-71 0 -114 49t-43 131 q0 102 114.5 164.5t301.5 62.5q148 0 242.5 -93.5t94.5 -238.5v-497l16 -98q20 -122 62 -123l110 11l2 -21l-112 -15h-1q-64 0 -87 144q-2 11 -6 37t-7 43t-3 21v22q0 28 -7 28t-16 -22q-56 -119 -165 -196t-242 -77q-174 0 -286.5 76.5t-112.5 194.5zM92 266 q0 -109 105.5 -180t268.5 -71q117 0 217.5 65t156.5 166.5t56 209.5v206q-14 -23 -38.5 -42t-58 -32t-64.5 -21.5t-74.5 -14.5t-70 -9t-69 -6.5t-54.5 -4.5q-83 -9 -147 -26t-117.5 -47.5t-82 -79t-28.5 -113.5zM334 1530q-8 8 2 17q8 9 17 0l295 -277l-14 -15z" />
<glyph unicode="&#xe1;" d="M67 266q0 245 398 287q12 1 52 5t63.5 6t64.5 8t67.5 12.5t60 17.5t54.5 24t39 32t25 41q5 18 5 33v6q-1 135 -87 223.5t-221 88.5q-104 0 -167.5 -33.5t-63.5 -88.5q0 -35 18.5 -64t37.5 -54t19 -51q0 -43 -29.5 -69.5t-76.5 -26.5q-71 0 -114 49t-43 131 q0 102 114.5 164.5t301.5 62.5q148 0 242.5 -93.5t94.5 -238.5v-497l16 -98q20 -122 62 -123l110 11l2 -21l-112 -15h-1q-64 0 -87 144q-2 11 -6 37t-7 43t-3 21v22q0 28 -7 28t-16 -22q-56 -119 -165 -196t-242 -77q-174 0 -286.5 76.5t-112.5 194.5zM92 266 q0 -109 105.5 -180t268.5 -71q117 0 217.5 65t156.5 166.5t56 209.5v206q-14 -23 -38.5 -42t-58 -32t-64.5 -21.5t-74.5 -14.5t-70 -9t-69 -6.5t-54.5 -4.5q-83 -9 -147 -26t-117.5 -47.5t-82 -79t-28.5 -113.5zM427 1270l295 277q8 9 17 0t2 -17l-300 -275z" />
<glyph unicode="&#xe2;" d="M67 266q0 245 398 287q12 1 52 5t63.5 6t64.5 8t67.5 12.5t60 17.5t54.5 24t39 32t25 41q5 18 5 33v6q-1 135 -87 223.5t-221 88.5q-104 0 -167.5 -33.5t-63.5 -88.5q0 -35 18.5 -64t37.5 -54t19 -51q0 -43 -29.5 -69.5t-76.5 -26.5q-71 0 -114 49t-43 131 q0 102 114.5 164.5t301.5 62.5q148 0 242.5 -93.5t94.5 -238.5v-497l16 -98q20 -122 62 -123l110 11l2 -21l-112 -15h-1q-64 0 -87 144q-2 11 -6 37t-7 43t-3 21v22q0 28 -7 28t-16 -22q-56 -119 -165 -196t-242 -77q-174 0 -286.5 76.5t-112.5 194.5zM92 266 q0 -109 105.5 -180t268.5 -71q117 0 217.5 65t156.5 166.5t56 209.5v206q-14 -23 -38.5 -42t-58 -32t-64.5 -21.5t-74.5 -14.5t-70 -9t-69 -6.5t-54.5 -4.5q-83 -9 -147 -26t-117.5 -47.5t-82 -79t-28.5 -113.5zM201 1254l320 282h23l320 -282l-14 -15l-314 277h-7 l-314 -277z" />
<glyph unicode="&#xe3;" d="M67 266q0 245 398 287q12 1 52 5t63.5 6t64.5 8t67.5 12.5t60 17.5t54.5 24t39 32t25 41q5 18 5 33v6q-1 135 -87 223.5t-221 88.5q-104 0 -167.5 -33.5t-63.5 -88.5q0 -35 18.5 -64t37.5 -54t19 -51q0 -43 -29.5 -69.5t-76.5 -26.5q-71 0 -114 49t-43 131 q0 102 114.5 164.5t301.5 62.5q148 0 242.5 -93.5t94.5 -238.5v-497l16 -98q20 -122 62 -123l110 11l2 -21l-112 -15h-1q-64 0 -87 144q-2 11 -6 37t-7 43t-3 21v22q0 28 -7 28t-16 -22q-56 -119 -165 -196t-242 -77q-174 0 -286.5 76.5t-112.5 194.5zM92 266 q0 -109 105.5 -180t268.5 -71q117 0 217.5 65t156.5 166.5t56 209.5v206q-14 -23 -38.5 -42t-58 -32t-64.5 -21.5t-74.5 -14.5t-70 -9t-69 -6.5t-54.5 -4.5q-83 -9 -147 -26t-117.5 -47.5t-82 -79t-28.5 -113.5zM266 1386q9 51 40.5 80t75.5 29q42 0 84 -17.5t71 -38 t68.5 -38t77.5 -17.5q35 0 61 22t34 69q0 3 3.5 6t9.5 2q8 -2 8 -13q-9 -53 -41.5 -80.5t-74.5 -27.5q-44 0 -86 17.5t-71 38t-68 38t-76 17.5q-36 0 -61.5 -23t-33.5 -67q-2 -9 -13 -9q-3 0 -6 3t-2 9z" />
<glyph unicode="&#xe4;" d="M67 266q0 245 398 287q12 1 52 5t63.5 6t64.5 8t67.5 12.5t60 17.5t54.5 24t39 32t25 41q5 18 5 33v6q-1 135 -87 223.5t-221 88.5q-104 0 -167.5 -33.5t-63.5 -88.5q0 -35 18.5 -64t37.5 -54t19 -51q0 -43 -29.5 -69.5t-76.5 -26.5q-71 0 -114 49t-43 131 q0 102 114.5 164.5t301.5 62.5q148 0 242.5 -93.5t94.5 -238.5v-497l16 -98q20 -122 62 -123l110 11l2 -21l-112 -15h-1q-64 0 -87 144q-2 11 -6 37t-7 43t-3 21v22q0 28 -7 28t-16 -22q-56 -119 -165 -196t-242 -77q-174 0 -286.5 76.5t-112.5 194.5zM92 266 q0 -109 105.5 -180t268.5 -71q117 0 217.5 65t156.5 166.5t56 209.5v206q-14 -23 -38.5 -42t-58 -32t-64.5 -21.5t-74.5 -14.5t-70 -9t-69 -6.5t-54.5 -4.5q-83 -9 -147 -26t-117.5 -47.5t-82 -79t-28.5 -113.5zM246 1372q0 17 12 29t29 12t29 -12t12 -29t-12 -29t-29 -12 t-29 12t-12 29zM737 1372q0 17 12 29t29 12t29 -12t12 -29t-12 -29t-29 -12t-29 12t-12 29z" />
<glyph unicode="&#xe5;" d="M67 266q0 245 398 287q12 1 52 5t63.5 6t64.5 8t67.5 12.5t60 17.5t54.5 24t39 32t25 41q5 18 5 33v6q-1 135 -87 223.5t-221 88.5q-104 0 -167.5 -33.5t-63.5 -88.5q0 -35 18.5 -64t37.5 -54t19 -51q0 -43 -29.5 -69.5t-76.5 -26.5q-71 0 -114 49t-43 131 q0 102 114.5 164.5t301.5 62.5q148 0 242.5 -93.5t94.5 -238.5v-497l16 -98q20 -122 62 -123l110 11l2 -21l-112 -15h-1q-64 0 -87 144q-2 11 -6 37t-7 43t-3 21v22q0 28 -7 28t-16 -22q-56 -119 -165 -196t-242 -77q-174 0 -286.5 76.5t-112.5 194.5zM92 266 q0 -109 105.5 -180t268.5 -71q117 0 217.5 65t156.5 166.5t56 209.5v206q-14 -23 -38.5 -42t-58 -32t-64.5 -21.5t-74.5 -14.5t-70 -9t-69 -6.5t-54.5 -4.5q-83 -9 -147 -26t-117.5 -47.5t-82 -79t-28.5 -113.5zM379 1352q0 65 43 109t110 44q65 0 109.5 -43t44.5 -110 q0 -65 -43.5 -109.5t-110.5 -44.5q-65 0 -109 43.5t-44 110.5zM399 1352q0 -59 37.5 -96t95.5 -37q59 0 96.5 37.5t37.5 95.5q0 59 -38 96t-96 37q-59 0 -96 -37.5t-37 -95.5z" />
<glyph unicode="&#xe6;" horiz-adv-x="1945" d="M67 266q0 245 398 287q56 6 121 7.5t160.5 1.5t149.5 1v175q-1 135 -87.5 223.5t-220.5 88.5q-104 0 -167.5 -33.5t-63.5 -88.5q0 -35 18.5 -64t37.5 -54t19 -51q0 -43 -29.5 -69.5t-76.5 -26.5q-71 0 -114 49t-43 131q0 102 114.5 164.5t301.5 62.5q146 0 241.5 -93.5 t95.5 -238.5v-25q49 163 177 260t299 97q217 0 349 -145.5t132 -371.5q0 -10 -10 -10h-947v-11q0 -225 130.5 -371t335.5 -146q315 0 449 237l18 -10q-64 -114 -180.5 -180.5t-286.5 -66.5q-176 0 -303.5 105t-170.5 277q-20 -65 -41 -109q-55 -119 -164.5 -196t-242.5 -77 q-174 0 -286.5 76.5t-112.5 194.5zM92 266q0 -109 105.5 -180t268.5 -71q117 0 217.5 65t156.5 166.5t56 209.5v76v11q-55 -1 -164 -3t-173 -3.5t-92 -4.5q-83 -9 -147 -26t-117.5 -47.5t-82 -79t-28.5 -113.5zM923 563h878q46 0 46 70q0 17 -3 31q-31 175 -149 280.5 t-297 105.5q-200 0 -332.5 -136t-142.5 -351z" />
<glyph unicode="&#xe7;" horiz-adv-x="1034" d="M67 530q0 234 142 387t359 153q187 0 301.5 -71t114.5 -187q0 -82 -43 -131t-114 -49q-47 0 -76.5 26.5t-29.5 69.5q0 26 18.5 51t37.5 54t19 64q0 153 -231 153q-206 0 -339.5 -146.5t-133.5 -373.5q0 -226 139 -370.5t358 -144.5q101 0 200 34t176 99l13 -15 q-80 -68 -182.5 -103t-206.5 -35q-22 0 -33 1l-34 -135q56 16 87 16q73 0 125 -52.5t52 -127.5q0 -66 -54 -113t-130 -47q-53 0 -98.5 23.5t-70.5 64.5q-5 10 3 14q10 6 15 -4q22 -35 62.5 -56t88.5 -21q69 0 116.5 41.5t47.5 97.5q0 67 -46.5 113.5t-110.5 46.5 q-13 0 -23.5 -1t-21 -3.5t-17.5 -4.5t-18.5 -6t-17.5 -6q-10 -3 -12 6q-1 2 0 5v1l36 149q-207 20 -337.5 167t-130.5 366z" />
<glyph unicode="&#xe8;" horiz-adv-x="1116" d="M67 532q0 120 37 218l15 -35q-27 -87 -27 -183q0 -225 130.5 -371t335.5 -146q165 0 276.5 64t173.5 173l18 -10q-64 -114 -181 -180.5t-287 -66.5q-215 0 -353 152.5t-138 384.5zM148 770q0 82 43 131t114 49q47 0 77 -26.5t30 -69.5q0 -26 -19 -51t-37.5 -54t-18.5 -64 q0 -55 46.5 -88.5t122.5 -33.5h466q46 0 46 70q0 17 -3 31q-31 175 -149.5 280.5t-297.5 105.5q-140 0 -254 -72h-39q128 92 293 92q217 0 349.5 -145.5t132.5 -371.5q0 -10 -11 -10h-536q-160 0 -257.5 62.5t-97.5 164.5zM390 1530q-8 8 2 17q9 9 18 0l295 -277l-15 -15z " />
<glyph unicode="&#xe9;" horiz-adv-x="1116" d="M67 532q0 120 37 218l15 -35q-27 -87 -27 -183q0 -225 130.5 -371t335.5 -146q165 0 276.5 64t173.5 173l18 -10q-64 -114 -181 -180.5t-287 -66.5q-215 0 -353 152.5t-138 384.5zM148 770q0 82 43 131t114 49q47 0 77 -26.5t30 -69.5q0 -26 -19 -51t-37.5 -54t-18.5 -64 q0 -55 46.5 -88.5t122.5 -33.5h466q46 0 46 70q0 17 -3 31q-31 175 -149.5 280.5t-297.5 105.5q-140 0 -254 -72h-39q128 92 293 92q217 0 349.5 -145.5t132.5 -371.5q0 -10 -11 -10h-536q-160 0 -257.5 62.5t-97.5 164.5zM483 1270l295 277q9 9 18 0q10 -9 2 -17l-300 -275 z" />
<glyph unicode="&#xea;" horiz-adv-x="1116" d="M67 532q0 120 37 218l15 -35q-27 -87 -27 -183q0 -225 130.5 -371t335.5 -146q165 0 276.5 64t173.5 173l18 -10q-64 -114 -181 -180.5t-287 -66.5q-215 0 -353 152.5t-138 384.5zM148 770q0 82 43 131t114 49q47 0 77 -26.5t30 -69.5q0 -26 -19 -51t-37.5 -54t-18.5 -64 q0 -55 46.5 -88.5t122.5 -33.5h466q46 0 46 70q0 17 -3 31q-31 175 -149.5 280.5t-297.5 105.5q-140 0 -254 -72h-39q128 92 293 92q217 0 349.5 -145.5t132.5 -371.5q0 -10 -11 -10h-536q-160 0 -257.5 62.5t-97.5 164.5zM257 1254l321 282h22l321 -282l-15 -15l-314 277 h-6l-315 -277z" />
<glyph unicode="&#xeb;" horiz-adv-x="1116" d="M67 532q0 120 37 218l15 -35q-27 -87 -27 -183q0 -225 130.5 -371t335.5 -146q165 0 276.5 64t173.5 173l18 -10q-64 -114 -181 -180.5t-287 -66.5q-215 0 -353 152.5t-138 384.5zM148 770q0 82 43 131t114 49q47 0 77 -26.5t30 -69.5q0 -26 -19 -51t-37.5 -54t-18.5 -64 q0 -55 46.5 -88.5t122.5 -33.5h466q46 0 46 70q0 17 -3 31q-31 175 -149.5 280.5t-297.5 105.5q-140 0 -254 -72h-39q128 92 293 92q217 0 349.5 -145.5t132.5 -371.5q0 -10 -11 -10h-536q-160 0 -257.5 62.5t-97.5 164.5zM302 1372q0 17 12 29t29 12t29 -12t12 -29t-12 -29 t-29 -12t-29 12t-12 29zM794 1372q0 17 12 29t29 12t29 -12t12 -29t-12 -29t-29 -12t-29 12t-12 29z" />
<glyph unicode="&#xec;" horiz-adv-x="512" d="M47 1530q-7 8 2 17t18 0l294 -277l-14 -15zM51 0v15h41q66 0 101.5 8.5t44 19.5t8.5 29v926q0 29 -24.5 40.5t-83.5 11.5h-25v15h25l133 3v-996q0 -18 8.5 -29t44 -19.5t101.5 -8.5h36v-15h-410z" />
<glyph unicode="&#xed;" horiz-adv-x="512" d="M51 0v15h41q66 0 101.5 8.5t44 19.5t8.5 29v926q0 29 -24.5 40.5t-83.5 11.5h-25v15h25l133 3v-996q0 -18 8.5 -29t44 -19.5t101.5 -8.5h36v-15h-410zM151 1270l294 277q9 9 18 0t2 -17l-300 -275z" />
<glyph unicode="&#xee;" horiz-adv-x="512" d="M-76 1254l321 282h22l321 -282l-15 -15l-314 277h-6l-314 -277zM51 0v15h41q66 0 101.5 8.5t44 19.5t8.5 29v926q0 29 -24.5 40.5t-83.5 11.5h-25v15h25l133 3v-996q0 -18 8.5 -29t44 -19.5t101.5 -8.5h36v-15h-410z" />
<glyph unicode="&#xef;" horiz-adv-x="512" d="M-10 1372q0 17 12 29t29 12t29 -12t12 -29t-12 -29t-29 -12t-29 12t-12 29zM51 0v15h41q66 0 101.5 8.5t44 19.5t8.5 29v926q0 29 -24.5 40.5t-83.5 11.5h-25v15h25l133 3v-996q0 -18 8.5 -29t44 -19.5t101.5 -8.5h36v-15h-410zM440 1372q0 17 12 29t29 12t29 -12t12 -29 t-12 -29t-29 -12t-29 12t-12 29z" />
<glyph unicode="&#xf0;" horiz-adv-x="1146" d="M72 539q0 105 35 200.5t97 168t153 115.5t197 43q148 0 239 -82.5t91 -216.5q0 -82 -43 -131t-114 -49q-47 0 -76.5 26.5t-29.5 69.5q0 26 18.5 51t37 54t18.5 64q0 87 -38.5 140.5t-102.5 53.5q-133 0 -239 -71t-162 -186t-56 -249q0 -112 41 -210.5t110 -166.5 t160 -107.5t190 -39.5q213 0 329.5 161.5t116.5 427.5q0 76 -10 158q-28 220 -116 372.5t-215 226.5l-111 -127l-17 14l109 123q-102 54 -216 54q-40 0 -60 -3q-66 -9 -116 -24l-6 19q60 18 118 25q29 4 64 4q123 0 230 -57l112 126l16 -15l-108 -123q132 -77 222.5 -233 t119.5 -378q10 -79 10 -160q0 -181 -53.5 -317.5t-161.5 -215t-258 -78.5q-139 0 -259 68.5t-193 194t-73 280.5z" />
<glyph unicode="&#xf1;" horiz-adv-x="1280" d="M51 0v15h41q66 0 101.5 8.5t44 19.5t8.5 29v926q0 29 -24.5 40.5t-83.5 11.5h-25v15h25l133 3v-360q0 -32 8 -32q6 0 16 25q62 159 187.5 264t265.5 105q164 0 250.5 -73.5t86.5 -213.5v-705q0 -78 21.5 -128t49.5 -50q31 0 72 24.5t71 24.5q49 0 79 -26t30 -69 q0 -60 -47 -97t-124 -37q-80 0 -128.5 75.5t-48.5 199.5v785q0 131 -79 199t-233 68q-119 0 -229.5 -81t-179 -214.5t-68.5 -278.5v-401q0 -18 8.5 -29t44 -19.5t101.5 -8.5h56v-15h-430zM420 1386q9 51 40.5 80t75.5 29q42 0 84 -17.5t71 -38t68.5 -38t77.5 -17.5 q35 0 61 22t34 69q0 3 3 6t9 2q8 -2 8 -13q-9 -53 -41 -80.5t-74 -27.5q-44 0 -86 17.5t-71 38t-68 38t-76 17.5q-36 0 -62 -23t-34 -67q-2 -9 -12 -9q-3 0 -6 3t-2 9z" />
<glyph unicode="&#xf2;" d="M67 532q0 154 64 276.5t178.5 192t258.5 69.5q173 0 279 -76.5t107 -201.5q0 -82 -37.5 -131.5t-98.5 -49.5q-50 0 -80 32t-30 85q0 26 29 75.5t29 83.5q-1 73 -55 118t-143 45q-208 0 -342 -146.5t-134 -371.5t134.5 -371t341.5 -146t341.5 146t134.5 371q0 148 -60 265 l-1 51q87 -138 87 -316q0 -233 -142 -385t-360 -152t-359.5 152t-141.5 385zM365 1530q-7 8 2 17t17 0l295 -277l-14 -15z" />
<glyph unicode="&#xf3;" d="M67 532q0 154 64 276.5t178.5 192t258.5 69.5q173 0 279 -76.5t107 -201.5q0 -82 -37.5 -131.5t-98.5 -49.5q-50 0 -80 32t-30 85q0 26 29 75.5t29 83.5q-1 73 -55 118t-143 45q-208 0 -342 -146.5t-134 -371.5t134.5 -371t341.5 -146t341.5 146t134.5 371q0 148 -60 265 l-1 51q87 -138 87 -316q0 -233 -142 -385t-360 -152t-359.5 152t-141.5 385zM458 1270l295 277q9 9 17 0q10 -9 2 -17l-300 -275z" />
<glyph unicode="&#xf4;" d="M67 532q0 154 64 276.5t178.5 192t258.5 69.5q173 0 279 -76.5t107 -201.5q0 -82 -37.5 -131.5t-98.5 -49.5q-50 0 -80 32t-30 85q0 26 29 75.5t29 83.5q-1 73 -55 118t-143 45q-208 0 -342 -146.5t-134 -371.5t134.5 -371t341.5 -146t341.5 146t134.5 371q0 148 -60 265 l-1 51q87 -138 87 -316q0 -233 -142 -385t-360 -152t-359.5 152t-141.5 385zM231 1254l321 282h22l321 -282l-14 -15l-315 277h-6l-314 -277z" />
<glyph unicode="&#xf5;" d="M67 532q0 154 64 276.5t178.5 192t258.5 69.5q173 0 279 -76.5t107 -201.5q0 -82 -37.5 -131.5t-98.5 -49.5q-50 0 -80 32t-30 85q0 26 29 75.5t29 83.5q-1 73 -55 118t-143 45q-208 0 -342 -146.5t-134 -371.5t134.5 -371t341.5 -146t341.5 146t134.5 371q0 148 -60 265 l-1 51q87 -138 87 -316q0 -233 -142 -385t-360 -152t-359.5 152t-141.5 385zM297 1386q9 51 40.5 80t75.5 29q42 0 84 -17.5t71 -38t68.5 -38t77.5 -17.5q35 0 61 22t34 69q0 3 3 6t9 2q8 -2 8 -13q-9 -53 -41 -80.5t-74 -27.5q-44 0 -86 17.5t-71 38t-68 38t-76 17.5 q-36 0 -62 -23t-34 -67q-2 -9 -12 -9q-3 0 -6 3t-2 9z" />
<glyph unicode="&#xf6;" d="M67 532q0 154 64 276.5t178.5 192t258.5 69.5q173 0 279 -76.5t107 -201.5q0 -82 -37.5 -131.5t-98.5 -49.5q-50 0 -80 32t-30 85q0 26 29 75.5t29 83.5q-1 73 -55 118t-143 45q-208 0 -342 -146.5t-134 -371.5t134.5 -371t341.5 -146t341.5 146t134.5 371q0 148 -60 265 l-1 51q87 -138 87 -316q0 -233 -142 -385t-360 -152t-359.5 152t-141.5 385zM276 1372q0 17 12 29t29 12t29 -12t12 -29t-12 -29t-29 -12t-29 12t-12 29zM768 1372q0 17 12 29t29 12t29 -12t12 -29t-12 -29t-29 -12t-29 12t-12 29z" />
<glyph unicode="&#xf7;" horiz-adv-x="901" d="M82 758v20h737v-20h-737zM410 466q0 17 12 29t29 12t29 -12t12 -29t-12 -29t-29 -12t-29 12t-12 29zM410 1080q0 17 12 29t29 12t29 -12t12 -29t-12 -29t-29 -12t-29 12t-12 29z" />
<glyph unicode="&#xf8;" d="M67 532q0 178 87 316l-1 -51q-61 -119 -61 -265q0 -118 39.5 -218t111.5 -170l636 790q-130 116 -311 116q-89 0 -142.5 -45t-54.5 -118q0 -34 29 -83.5t29 -75.5q0 -53 -30.5 -85t-80.5 -32q-61 0 -98.5 49.5t-37.5 131.5q1 125 107 201.5t279 76.5q190 0 325 -118 l113 140l16 -13l-114 -141q77 -73 119.5 -178t42.5 -228q0 -233 -142 -385t-360 -152q-189 0 -324 118l-113 -140l-16 13l113 141q-77 73 -119 177t-42 228zM258 131q130 -116 310 -116q207 0 341.5 146t134.5 371q0 119 -39.5 219t-110.5 170z" />
<glyph unicode="&#xf9;" horiz-adv-x="1249" d="M51 1050v15h26l133 3v-783q0 -131 79 -199t233 -68q119 0 229.5 81t178.5 214.5t68 278.5v104q0 128 -52 206t-137 78q-58 0 -93 27.5t-35 71.5q0 51 33.5 82.5t88.5 31.5q99 0 160 -115.5t61 -303.5v-519l9 -102q5 -57 24.5 -97t42.5 -41l98 17l4 -21l-99 -16h-2 q-37 0 -62 47t-31 109l-10 103v103q0 32 -7 32q-6 0 -16 -25q-62 -159 -187.5 -264t-265.5 -105q-164 0 -251 74t-87 213v716q0 29 -24 40.5t-83 11.5h-26zM406 1530q-8 8 2 17q8 9 17 0l295 -277l-14 -15z" />
<glyph unicode="&#xfa;" horiz-adv-x="1249" d="M51 1050v15h26l133 3v-783q0 -131 79 -199t233 -68q119 0 229.5 81t178.5 214.5t68 278.5v104q0 128 -52 206t-137 78q-58 0 -93 27.5t-35 71.5q0 51 33.5 82.5t88.5 31.5q99 0 160 -115.5t61 -303.5v-519l9 -102q5 -57 24.5 -97t42.5 -41l98 17l4 -21l-99 -16h-2 q-37 0 -62 47t-31 109l-10 103v103q0 32 -7 32q-6 0 -16 -25q-62 -159 -187.5 -264t-265.5 -105q-164 0 -251 74t-87 213v716q0 29 -24 40.5t-83 11.5h-26zM499 1270l295 277q8 9 17 0t2 -17l-300 -275z" />
<glyph unicode="&#xfb;" horiz-adv-x="1249" d="M51 1050v15h26l133 3v-783q0 -131 79 -199t233 -68q119 0 229.5 81t178.5 214.5t68 278.5v104q0 128 -52 206t-137 78q-58 0 -93 27.5t-35 71.5q0 51 33.5 82.5t88.5 31.5q99 0 160 -115.5t61 -303.5v-519l9 -102q5 -57 24.5 -97t42.5 -41l98 17l4 -21l-99 -16h-2 q-37 0 -62 47t-31 109l-10 103v103q0 32 -7 32q-6 0 -16 -25q-62 -159 -187.5 -264t-265.5 -105q-164 0 -251 74t-87 213v716q0 29 -24 40.5t-83 11.5h-26zM272 1254l321 282h22l321 -282l-14 -15l-315 277h-6l-314 -277z" />
<glyph unicode="&#xfc;" horiz-adv-x="1249" d="M51 1050v15h26l133 3v-783q0 -131 79 -199t233 -68q119 0 229.5 81t178.5 214.5t68 278.5v104q0 128 -52 206t-137 78q-58 0 -93 27.5t-35 71.5q0 51 33.5 82.5t88.5 31.5q99 0 160 -115.5t61 -303.5v-519l9 -102q5 -57 24.5 -97t42.5 -41l98 17l4 -21l-99 -16h-2 q-37 0 -62 47t-31 109l-10 103v103q0 32 -7 32q-6 0 -16 -25q-62 -159 -187.5 -264t-265.5 -105q-164 0 -251 74t-87 213v716q0 29 -24 40.5t-83 11.5h-26zM317 1372q0 17 12 29t29 12t29 -12t12 -29t-12 -29t-29 -12t-29 12t-12 29zM809 1372q0 17 12 29t29 12t29 -12 t12 -29t-12 -29t-29 -12t-29 12t-12 29z" />
<glyph unicode="&#xfd;" horiz-adv-x="1187" d="M-97 -334q0 49 37 83t90 34q34 0 61 -10t43.5 -22.5t48.5 -22.5t75 -10q88 0 162.5 33.5t106.5 103.5l56 119q1 2 1 8q0 17 -16 57l-360 872q-33 79 -55 100t-72 21q-24 0 -48 -8q-4 -2 -7 -2q-20 0 -20 19q0 29 70 29q64 0 91 -29t65 -123l352 -847q12 -30 19 -30t20 31 l384 908q9 23 9 33q0 23 -32.5 30t-121.5 7h-102v15h407v-15h-11q-54 0 -84 -17.5t-47 -58.5l-476 -1133q-69 -163 -174.5 -247t-260.5 -84q-88 0 -149.5 45.5t-61.5 110.5zM468 1270l295 277q9 9 17 0q10 -9 2 -17l-300 -275z" />
<glyph unicode="&#xfe;" horiz-adv-x="1172" d="M51 -476h41q66 0 101.5 8.5t44 19t8.5 28.5v1910q0 28 -24 39.5t-84 11.5h-25v15h25l133 4v-641q205 151 392 151q193 0 318 -152.5t125 -385.5t-128 -385t-326 -152q-144 0 -231.5 87.5t-87.5 231.5q0 82 37.5 131.5t98.5 49.5q50 0 80.5 -32t30.5 -85 q0 -26 -29.5 -75.5t-29.5 -83.5q0 -92 35.5 -148t95.5 -56q187 0 307.5 146t120.5 371t-117.5 371.5t-299.5 146.5q-184 0 -392 -157v-1313q0 -18 8.5 -28.5t44 -19t101.5 -8.5h77v-16h-451v16z" />
<glyph unicode="&#xff;" horiz-adv-x="1187" d="M-97 -334q0 49 37 83t90 34q34 0 61 -10t43.5 -22.5t48.5 -22.5t75 -10q88 0 162.5 33.5t106.5 103.5l56 119q1 2 1 8q0 17 -16 57l-360 872q-33 79 -55 100t-72 21q-24 0 -48 -8q-4 -2 -7 -2q-20 0 -20 19q0 29 70 29q64 0 91 -29t65 -123l352 -847q12 -30 19 -30t20 31 l384 908q9 23 9 33q0 23 -32.5 30t-121.5 7h-102v15h407v-15h-11q-54 0 -84 -17.5t-47 -58.5l-476 -1133q-69 -163 -174.5 -247t-260.5 -84q-88 0 -149.5 45.5t-61.5 110.5zM287 1372q0 17 12 29t29 12t29 -12t12 -29t-12 -29t-29 -12t-29 12t-12 29zM778 1372q0 17 12 29 t29 12t29 -12t12 -29t-12 -29t-29 -12t-29 12t-12 29z" />
<glyph unicode="&#x152;" horiz-adv-x="1996" d="M67 778q0 168 49 313.5t135.5 248.5t208 161.5t262.5 58.5l1101 -4q10 0 10 -9l26 -389l-21 -2l-16 260q-4 67 -33 93.5t-97 26.5h-682l-1 -829h189q88 0 141.5 44.5t53.5 117.5q0 35 -21.5 67t-42.5 59.5t-21 53.5q0 53 32 84.5t84 31.5q71 0 114 -54.5t43 -145.5 q0 -125 -105.5 -202t-277.5 -77h-189v-666h765q69 0 97 27t33 93l16 260l20 -2l-25 -389q0 -9 -10 -9h-920q-230 -5 -275 -5q-184 0 -331.5 101.5t-229.5 280.5t-82 401zM92 778q0 -218 80.5 -392.5t224.5 -272.5t325 -98h107q66 0 101.5 9t44 20t8.5 29v1415q0 27 -30 39 t-124 12h-107q-135 0 -252.5 -57.5t-200 -157.5t-130 -241.5t-47.5 -304.5z" />
<glyph unicode="&#x153;" horiz-adv-x="2012" d="M67 532q0 236 132.5 387t347.5 151q165 0 265.5 -76.5t100.5 -201.5q0 -82 -37.5 -131.5t-98.5 -49.5q-50 0 -80 32t-30 85q0 26 29 75.5t29 83.5q0 73 -49.5 118t-128.5 45q-204 0 -329.5 -145.5t-125.5 -372.5t125.5 -372t330.5 -145t330.5 145t125.5 372 q0 155 -62 277l4 42q51 -82 70 -183q36 183 161.5 292.5t307.5 109.5q143 0 248.5 -67.5t159 -184t53.5 -265.5q0 -10 -11 -10h-906v-11q0 -228 121.5 -372.5t324.5 -144.5q111 0 196.5 32t138.5 82t94 123l18 -10q-139 -247 -447 -247q-180 0 -302 109.5t-157 291.5 q-36 -183 -160.5 -292t-307.5 -109q-216 0 -348.5 150.5t-132.5 386.5zM1030 563h838q46 0 46 70q0 17 -3 31q-31 178 -140 282t-286 104q-195 0 -320 -132.5t-135 -354.5z" />
<glyph unicode="&#x178;" horiz-adv-x="1332" d="M10 1541v15h414v-15h-145q-54 0 -78 -7t-24 -27q0 -14 11 -36l486 -887l461 841q39 72 70 125.5t70.5 115.5t75 107t78 91t86 77t93 56.5t105 37.5t115.5 12q88 0 149.5 -46t61.5 -111q0 -49 -37 -82.5t-90 -33.5q-29 0 -82 22t-97 22q-74 0 -141 -16t-116.5 -38t-98 -62 t-79 -72t-66 -85t-53 -83t-46.5 -83l-447 -816v-491q0 -18 8.5 -29t44 -19.5t101.5 -8.5h36v-15h-410v15h41q50 0 82.5 4.5t47 13t19 17.5t4.5 22v483l-4 8l-491 898q-19 36 -44.5 55t-42 22t-40.5 3h-28zM428 1782q0 17 12 29t29 12t29 -12t12 -29t-12 -29t-29 -12t-29 12 t-12 29zM920 1782q0 17 12 29t29 12t28.5 -12t11.5 -29t-11.5 -29t-28.5 -12t-29 12t-12 29z" />
<glyph unicode="&#x2c6;" horiz-adv-x="901" d="M119 1254l320 282h23l320 -282l-14 -15l-314 277h-7l-314 -277z" />
<glyph unicode="&#x2dc;" horiz-adv-x="573" d="M20 1386q9 51 40.5 80t75.5 29q42 0 84 -17.5t71 -38t68.5 -38t77.5 -17.5q35 0 61 22t34 69q0 3 3.5 6t9.5 2q8 -2 8 -13q-9 -53 -41.5 -80.5t-74.5 -27.5q-44 0 -86 17.5t-71 38t-68 38t-76 17.5q-36 0 -61.5 -23t-33.5 -67q-2 -9 -12 -9q-3 0 -6.5 3t-2.5 9z" />
<glyph unicode="&#x2000;" horiz-adv-x="1029" />
<glyph unicode="&#x2001;" horiz-adv-x="2058" />
<glyph unicode="&#x2002;" horiz-adv-x="1029" />
<glyph unicode="&#x2003;" horiz-adv-x="2058" />
<glyph unicode="&#x2004;" horiz-adv-x="686" />
<glyph unicode="&#x2005;" horiz-adv-x="514" />
<glyph unicode="&#x2006;" horiz-adv-x="343" />
<glyph unicode="&#x2007;" horiz-adv-x="343" />
<glyph unicode="&#x2008;" horiz-adv-x="257" />
<glyph unicode="&#x2009;" horiz-adv-x="411" />
<glyph unicode="&#x200a;" horiz-adv-x="114" />
<glyph unicode="&#x2010;" horiz-adv-x="737" d="M80 768l4 20h573l-4 -20h-573z" />
<glyph unicode="&#x2011;" horiz-adv-x="737" d="M80 768l4 20h573l-4 -20h-573z" />
<glyph unicode="&#x2012;" horiz-adv-x="737" d="M80 768l4 20h573l-4 -20h-573z" />
<glyph unicode="&#x2013;" horiz-adv-x="1064" d="M80 768l4 20h901l-4 -20h-901z" />
<glyph unicode="&#x2014;" horiz-adv-x="2048" d="M80 768l4 20h1884l-4 -20h-1884z" />
<glyph unicode="&#x2018;" horiz-adv-x="327" d="M119 1449q0 47 19.5 88t60.5 96l16 -12q-72 -94 -72 -162q0 -2 0.5 -6.5t0.5 -6.5q8 5 20 5q16 0 28.5 -11.5t12.5 -29.5q0 -16 -11.5 -28.5t-29.5 -12.5q-45 0 -45 80z" />
<glyph unicode="&#x2019;" horiz-adv-x="327" d="M113 1371q71 93 71 162q0 2 -0.5 6.5t-0.5 6.5q-8 -5 -19 -5q-16 0 -28.5 11.5t-12.5 29.5q0 16 11.5 28.5t29.5 12.5q45 0 45 -80q0 -47 -19.5 -88t-60.5 -96z" />
<glyph unicode="&#x201a;" horiz-adv-x="327" d="M113 -175q71 93 71 162q0 2 -0.5 6.5t-0.5 6.5q-8 -5 -19 -5q-16 0 -28.5 11.5t-12.5 29.5q0 16 11.5 28.5t29.5 12.5q45 0 45 -80q0 -47 -19.5 -88t-60.5 -96z" />
<glyph unicode="&#x201c;" horiz-adv-x="491" d="M119 1449q0 47 19.5 88t60.5 96l16 -12q-72 -94 -72 -162q0 -2 0.5 -6.5t0.5 -6.5q8 5 20 5q16 0 28.5 -11.5t12.5 -29.5q0 -16 -11.5 -28.5t-29.5 -12.5q-45 0 -45 80zM283 1449q0 47 19 88.5t60 95.5l17 -12q-72 -94 -72 -162q0 -2 0.5 -6.5t0.5 -6.5q8 5 20 5 q16 0 28.5 -11.5t12.5 -29.5q0 -16 -11.5 -28.5t-29.5 -12.5q-45 0 -45 80z" />
<glyph unicode="&#x201d;" horiz-adv-x="491" d="M113 1371q71 93 71 162q0 2 -0.5 6.5t-0.5 6.5q-8 -5 -19 -5q-16 0 -28.5 11.5t-12.5 29.5q0 16 11.5 28.5t29.5 12.5q45 0 45 -80q0 -47 -19.5 -88t-60.5 -96zM276 1371q72 94 72 162q0 2 -0.5 6.5t-0.5 6.5q-8 -5 -19 -5q-16 0 -28.5 11.5t-12.5 29.5q0 16 11.5 28.5 t29.5 12.5q45 0 45 -80q0 -47 -19.5 -88t-60.5 -96z" />
<glyph unicode="&#x201e;" horiz-adv-x="491" d="M113 -175q71 93 71 162q0 2 -0.5 6.5t-0.5 6.5q-8 -5 -19 -5q-16 0 -28.5 11.5t-12.5 29.5q0 16 11.5 28.5t29.5 12.5q45 0 45 -80q0 -47 -19.5 -88t-60.5 -96zM276 -175q72 94 72 162q0 2 -0.5 6.5t-0.5 6.5q-8 -5 -19 -5q-16 0 -28.5 11.5t-12.5 29.5q0 16 11.5 28.5 t29.5 12.5q45 0 45 -80q0 -47 -19.5 -88t-60.5 -96z" />
<glyph unicode="&#x2022;" horiz-adv-x="573" d="M82 696q0 85 60 145t145 60t145 -60t60 -145t-60 -144.5t-145 -59.5t-145 59.5t-60 144.5z" />
<glyph unicode="&#x2026;" horiz-adv-x="1064" d="M123 36q0 17 12 29t29 12t29 -12t12 -29t-12 -29t-29 -12t-29 12t-12 29zM451 36q0 17 12 29t29 12t28.5 -12t11.5 -29t-11.5 -29t-28.5 -12t-29 12t-12 29zM778 36q0 17 12 29t29 12t29 -12t12 -29t-12 -29t-29 -12t-29 12t-12 29z" />
<glyph unicode="&#x202f;" horiz-adv-x="411" />
<glyph unicode="&#x2039;" horiz-adv-x="450" d="M82 531v3q0 4 10 14l266 304l17 -14l-264 -301v-9l264 -299l-17 -14l-266 302q-10 10 -10 14z" />
<glyph unicode="&#x203a;" horiz-adv-x="450" d="M82 227l264 301v9l-264 299l16 14l267 -302q10 -10 10 -14v-3q0 -4 -10 -14l-267 -304z" />
<glyph unicode="&#x205f;" horiz-adv-x="514" />
<glyph unicode="&#x20ac;" horiz-adv-x="1260" d="M41 614l8 21h150q-4 62 -4 94q0 45 3 90h-126l8 21h120q28 283 186.5 451t401.5 168q187 0 301.5 -82.5t114.5 -216.5q0 -91 -43 -146t-113 -55q-52 0 -84.5 32.5t-32.5 84.5q0 21 13.5 43t29 39t29 43t13.5 54q0 82 -63 133t-165 51q-234 0 -387 -162.5t-181 -436.5h679 l-8 -21h-673q-3 -45 -3 -90q0 -32 4 -94h649l-8 -21h-639q29 -274 181.5 -436.5t385.5 -162.5q237 0 407 168l14 -14q-178 -174 -421 -174t-401 168t-187 451h-159z" />
<glyph unicode="&#x2122;" horiz-adv-x="1658" d="M26 1419l10 169q0 9 10 9h596q10 0 10 -9l11 -169l-20 -2l-6 101q-2 35 -15.5 47t-50.5 12h-215v-719q0 -7 3.5 -11t20 -8t48.5 -4h24v-16h-219v16h26q72 0 72 23v719h-217q-38 0 -51 -12.5t-15 -46.5l-6 -101zM332 643q0 29 22.5 50t54.5 21q17 0 49 -13.5t58 -13.5 q232 0 259 364l36 476q1 9 1 13q0 27 -18.5 34.5t-60.5 7.5h-5v15h101q7 0 10 -6l312 -661l308 661q6 6 9 6h100v-15h-5q-46 0 -62.5 -8t-16.5 -33l1 -15l51 -663q1 -9 2.5 -13t17 -9.5t46.5 -5.5h16v-16h-225v16h65q56 0 56 12l-1 14l-53 686l-293 -633q-6 -12 -6 -26v-4 h-22v4q-2 20 -5 26l-300 637l-40 -535q-37 -467 -335 -467q-52 0 -89.5 28t-37.5 66z" />
<glyph unicode="&#xe000;" horiz-adv-x="1382" d="M0 0v1382h1382v-1382h-1382z" />
</font>
</defs>
</svg>
